<svg width="285" height="196" viewBox="0 0 285 196" fill="none" xmlns="http://www.w3.org/2000/svg">
<g filter="url(#filter0_d_32_34582)">
<path d="M4 23.0178C4 18.5995 7.58171 15.0178 12 15.0178L235.469 15.0174C237.745 15.0174 239.913 14.0484 241.43 12.353L246.525 6.66096L247.993 4.78132C249.812 2.45274 253.389 2.63146 254.967 5.12971V5.12971L260.5 12.0245C262.018 13.9166 264.313 15.0174 266.739 15.0175L273 15.0176C277.418 15.0177 281 18.5994 281 23.0176V180C281 184.418 277.418 188 273 188H142.5H12C7.58172 188 4 184.418 4 180V23.0178Z" fill="#E6E6E6"/>
<path d="M49.6768 47.251V49H42.8828V47.251H49.6768ZM43.5068 36.2031V49H41.3008V36.2031H43.5068ZM48.7891 41.5469V43.2695H42.8828V41.5469H48.7891ZM49.6328 36.2031V37.9609H42.8828V36.2031H49.6328ZM52.8848 39.4902L54.6953 42.6455L56.541 39.4902H58.8701L55.9873 44.1572L58.9844 49H56.6553L54.7217 45.7129L52.7881 49H50.4502L53.4385 44.1572L50.5645 39.4902H52.8848ZM62.4473 41.3184V52.6562H60.3291V39.4902H62.2803L62.4473 41.3184ZM68.6436 44.1572V44.3418C68.6436 45.0332 68.5615 45.6748 68.3975 46.2666C68.2393 46.8525 68.002 47.3652 67.6855 47.8047C67.375 48.2383 66.9912 48.5752 66.5342 48.8154C66.0771 49.0557 65.5498 49.1758 64.9521 49.1758C64.3604 49.1758 63.8418 49.0674 63.3965 48.8506C62.957 48.6279 62.585 48.3145 62.2803 47.9102C61.9756 47.5059 61.7295 47.0312 61.542 46.4863C61.3604 45.9355 61.2314 45.332 61.1553 44.6758V43.9639C61.2314 43.2666 61.3604 42.6338 61.542 42.0654C61.7295 41.4971 61.9756 41.0078 62.2803 40.5977C62.585 40.1875 62.957 39.8711 63.3965 39.6484C63.8359 39.4258 64.3486 39.3145 64.9346 39.3145C65.5322 39.3145 66.0625 39.4316 66.5254 39.666C66.9883 39.8945 67.3779 40.2227 67.6943 40.6504C68.0107 41.0723 68.248 41.582 68.4062 42.1797C68.5645 42.7715 68.6436 43.4307 68.6436 44.1572ZM66.5254 44.3418V44.1572C66.5254 43.7178 66.4844 43.3105 66.4023 42.9355C66.3203 42.5547 66.1914 42.2207 66.0156 41.9336C65.8398 41.6465 65.6143 41.4238 65.3389 41.2656C65.0693 41.1016 64.7441 41.0195 64.3633 41.0195C63.9883 41.0195 63.666 41.084 63.3965 41.2129C63.127 41.3359 62.9014 41.5088 62.7197 41.7314C62.5381 41.9541 62.3975 42.2148 62.2979 42.5137C62.1982 42.8066 62.1279 43.126 62.0869 43.4717V45.1768C62.1572 45.5986 62.2773 45.9854 62.4473 46.3369C62.6172 46.6885 62.8574 46.9697 63.168 47.1807C63.4844 47.3857 63.8887 47.4883 64.3809 47.4883C64.7617 47.4883 65.0869 47.4062 65.3564 47.2422C65.626 47.0781 65.8457 46.8525 66.0156 46.5654C66.1914 46.2725 66.3203 45.9355 66.4023 45.5547C66.4844 45.1738 66.5254 44.7695 66.5254 44.3418ZM72.7129 35.5V49H70.5859V35.5H72.7129ZM74.6289 44.3506V44.1484C74.6289 43.4629 74.7285 42.8271 74.9277 42.2412C75.127 41.6494 75.4141 41.1367 75.7891 40.7031C76.1699 40.2637 76.6328 39.9238 77.1777 39.6836C77.7285 39.4375 78.3496 39.3145 79.041 39.3145C79.7383 39.3145 80.3594 39.4375 80.9043 39.6836C81.4551 39.9238 81.9209 40.2637 82.3018 40.7031C82.6826 41.1367 82.9727 41.6494 83.1719 42.2412C83.3711 42.8271 83.4707 43.4629 83.4707 44.1484V44.3506C83.4707 45.0361 83.3711 45.6719 83.1719 46.2578C82.9727 46.8438 82.6826 47.3564 82.3018 47.7959C81.9209 48.2295 81.458 48.5693 80.9131 48.8154C80.3682 49.0557 79.75 49.1758 79.0586 49.1758C78.3613 49.1758 77.7373 49.0557 77.1865 48.8154C76.6416 48.5693 76.1787 48.2295 75.7979 47.7959C75.417 47.3564 75.127 46.8438 74.9277 46.2578C74.7285 45.6719 74.6289 45.0361 74.6289 44.3506ZM76.7471 44.1484V44.3506C76.7471 44.7783 76.791 45.1826 76.8789 45.5635C76.9668 45.9443 77.1045 46.2783 77.292 46.5654C77.4795 46.8525 77.7197 47.0781 78.0127 47.2422C78.3057 47.4062 78.6543 47.4883 79.0586 47.4883C79.4512 47.4883 79.791 47.4062 80.0781 47.2422C80.3711 47.0781 80.6113 46.8525 80.7988 46.5654C80.9863 46.2783 81.124 45.9443 81.2119 45.5635C81.3057 45.1826 81.3525 44.7783 81.3525 44.3506V44.1484C81.3525 43.7266 81.3057 43.3281 81.2119 42.9531C81.124 42.5723 80.9834 42.2354 80.79 41.9424C80.6025 41.6494 80.3623 41.4209 80.0693 41.2568C79.7822 41.0869 79.4395 41.002 79.041 41.002C78.6426 41.002 78.2969 41.0869 78.0039 41.2568C77.7168 41.4209 77.4795 41.6494 77.292 41.9424C77.1045 42.2354 76.9668 42.5723 76.8789 42.9531C76.791 43.3281 76.7471 43.7266 76.7471 44.1484ZM87.373 41.3008V49H85.2549V39.4902H87.2764L87.373 41.3008ZM90.2822 39.4287L90.2646 41.3975C90.1357 41.374 89.9951 41.3564 89.8428 41.3447C89.6963 41.333 89.5498 41.3271 89.4033 41.3271C89.04 41.3271 88.7207 41.3799 88.4453 41.4854C88.1699 41.585 87.9385 41.7314 87.751 41.9248C87.5693 42.1123 87.4287 42.3408 87.3291 42.6104C87.2295 42.8799 87.1709 43.1816 87.1533 43.5156L86.6699 43.5508C86.6699 42.9531 86.7285 42.3994 86.8457 41.8896C86.9629 41.3799 87.1387 40.9316 87.373 40.5449C87.6133 40.1582 87.9121 39.8564 88.2695 39.6396C88.6328 39.4229 89.0518 39.3145 89.5264 39.3145C89.6553 39.3145 89.793 39.3262 89.9395 39.3496C90.0918 39.373 90.2061 39.3994 90.2822 39.4287ZM95.626 49.1758C94.9229 49.1758 94.2871 49.0615 93.7188 48.833C93.1562 48.5986 92.6758 48.2734 92.2773 47.8574C91.8848 47.4414 91.583 46.9521 91.3721 46.3896C91.1611 45.8271 91.0557 45.2207 91.0557 44.5703V44.2188C91.0557 43.4746 91.1641 42.8008 91.3809 42.1973C91.5977 41.5938 91.8994 41.0781 92.2861 40.6504C92.6729 40.2168 93.1299 39.8857 93.6572 39.6572C94.1846 39.4287 94.7559 39.3145 95.3711 39.3145C96.0508 39.3145 96.6455 39.4287 97.1553 39.6572C97.665 39.8857 98.0869 40.208 98.4209 40.624C98.7607 41.0342 99.0127 41.5234 99.1768 42.0918C99.3467 42.6602 99.4316 43.2871 99.4316 43.9727V44.8779H92.084V43.3574H97.3398V43.1904C97.3281 42.8096 97.252 42.4521 97.1113 42.1182C96.9766 41.7842 96.7686 41.5146 96.4873 41.3096C96.2061 41.1045 95.8311 41.002 95.3623 41.002C95.0107 41.002 94.6973 41.0781 94.4219 41.2305C94.1523 41.377 93.9268 41.5908 93.7451 41.8721C93.5635 42.1533 93.4229 42.4932 93.3232 42.8916C93.2295 43.2842 93.1826 43.7266 93.1826 44.2188V44.5703C93.1826 44.9863 93.2383 45.373 93.3496 45.7305C93.4668 46.082 93.6367 46.3896 93.8594 46.6533C94.082 46.917 94.3516 47.125 94.668 47.2773C94.9844 47.4238 95.3447 47.4971 95.749 47.4971C96.2588 47.4971 96.7129 47.3945 97.1113 47.1895C97.5098 46.9844 97.8555 46.6943 98.1484 46.3193L99.2646 47.4004C99.0596 47.6992 98.793 47.9863 98.4648 48.2617C98.1367 48.5312 97.7354 48.751 97.2607 48.9209C96.792 49.0908 96.2471 49.1758 95.626 49.1758ZM44.9922 66.2734L48.3438 56.625H49.9766L45.7656 68H44.6016L44.9922 66.2734ZM41.8594 56.625L45.1797 66.2734L45.5938 68H44.4297L40.2266 56.625H41.8594ZM52.8594 59.5469V68H51.4062V59.5469H52.8594ZM51.2969 57.3047C51.2969 57.0703 51.3672 56.8724 51.5078 56.7109C51.6536 56.5495 51.8672 56.4688 52.1484 56.4688C52.4245 56.4688 52.6354 56.5495 52.7812 56.7109C52.9323 56.8724 53.0078 57.0703 53.0078 57.3047C53.0078 57.5286 52.9323 57.7214 52.7812 57.8828C52.6354 58.0391 52.4245 58.1172 52.1484 58.1172C51.8672 58.1172 51.6536 58.0391 51.5078 57.8828C51.3672 57.7214 51.2969 57.5286 51.2969 57.3047ZM58.6875 68.1562C58.099 68.1562 57.5651 68.0573 57.0859 67.8594C56.612 67.6562 56.2031 67.3724 55.8594 67.0078C55.5208 66.6432 55.2604 66.2109 55.0781 65.7109C54.8958 65.2109 54.8047 64.6641 54.8047 64.0703V63.7422C54.8047 63.0547 54.9062 62.4427 55.1094 61.9062C55.3125 61.3646 55.5885 60.9062 55.9375 60.5312C56.2865 60.1562 56.6823 59.8724 57.125 59.6797C57.5677 59.487 58.026 59.3906 58.5 59.3906C59.1042 59.3906 59.625 59.4948 60.0625 59.7031C60.5052 59.9115 60.8672 60.2031 61.1484 60.5781C61.4297 60.9479 61.638 61.3854 61.7734 61.8906C61.9089 62.3906 61.9766 62.9375 61.9766 63.5312V64.1797H55.6641V63H60.5312V62.8906C60.5104 62.5156 60.4323 62.151 60.2969 61.7969C60.1667 61.4427 59.9583 61.151 59.6719 60.9219C59.3854 60.6927 58.9948 60.5781 58.5 60.5781C58.1719 60.5781 57.8698 60.6484 57.5938 60.7891C57.3177 60.9245 57.0807 61.1276 56.8828 61.3984C56.6849 61.6693 56.5312 62 56.4219 62.3906C56.3125 62.7812 56.2578 63.2318 56.2578 63.7422V64.0703C56.2578 64.4714 56.3125 64.849 56.4219 65.2031C56.5365 65.5521 56.7005 65.8594 56.9141 66.125C57.1328 66.3906 57.3958 66.599 57.7031 66.75C58.0156 66.901 58.3698 66.9766 58.7656 66.9766C59.276 66.9766 59.7083 66.8724 60.0625 66.6641C60.4167 66.4557 60.7266 66.1771 60.9922 65.8281L61.8672 66.5234C61.6849 66.7995 61.4531 67.0625 61.1719 67.3125C60.8906 67.5625 60.5443 67.7656 60.1328 67.9219C59.7266 68.0781 59.2448 68.1562 58.6875 68.1562ZM65.8047 66.5L67.9766 59.5469H68.9297L68.7422 60.9297L66.5312 68H65.6016L65.8047 66.5ZM64.3438 59.5469L66.1953 66.5781L66.3281 68H65.3516L62.8984 59.5469H64.3438ZM71.0078 66.5234L72.7734 59.5469H74.2109L71.7578 68H70.7891L71.0078 66.5234ZM69.1406 59.5469L71.2656 66.3828L71.5078 68H70.5859L68.3125 60.9141L68.125 59.5469H69.1406ZM82.2344 66.6953L84.5469 59.5469H86.0234L82.9844 68H82.0156L82.2344 66.6953ZM80.3047 59.5469L82.6875 66.7344L82.8516 68H81.8828L78.8203 59.5469H80.3047ZM88.9844 59.5469V68H87.5312V59.5469H88.9844ZM87.4219 57.3047C87.4219 57.0703 87.4922 56.8724 87.6328 56.7109C87.7786 56.5495 87.9922 56.4688 88.2734 56.4688C88.5495 56.4688 88.7604 56.5495 88.9062 56.7109C89.0573 56.8724 89.1328 57.0703 89.1328 57.3047C89.1328 57.5286 89.0573 57.7214 88.9062 57.8828C88.7604 58.0391 88.5495 58.1172 88.2734 58.1172C87.9922 58.1172 87.7786 58.0391 87.6328 57.8828C87.4922 57.7214 87.4219 57.5286 87.4219 57.3047ZM96.6328 66.3594V56H98.0859V68H96.7578L96.6328 66.3594ZM90.9453 63.8672V63.7031C90.9453 63.0573 91.0234 62.4714 91.1797 61.9453C91.3411 61.4141 91.5677 60.9583 91.8594 60.5781C92.1562 60.1979 92.5078 59.9062 92.9141 59.7031C93.3255 59.4948 93.7839 59.3906 94.2891 59.3906C94.8203 59.3906 95.2839 59.4844 95.6797 59.6719C96.0807 59.8542 96.4193 60.1224 96.6953 60.4766C96.9766 60.8255 97.1979 61.2474 97.3594 61.7422C97.5208 62.237 97.6328 62.7969 97.6953 63.4219V64.1406C97.638 64.7604 97.526 65.3177 97.3594 65.8125C97.1979 66.3073 96.9766 66.7292 96.6953 67.0781C96.4193 67.4271 96.0807 67.6953 95.6797 67.8828C95.2786 68.0651 94.8099 68.1562 94.2734 68.1562C93.7786 68.1562 93.3255 68.0495 92.9141 67.8359C92.5078 67.6224 92.1562 67.3229 91.8594 66.9375C91.5677 66.5521 91.3411 66.099 91.1797 65.5781C91.0234 65.0521 90.9453 64.4818 90.9453 63.8672ZM92.3984 63.7031V63.8672C92.3984 64.2891 92.4401 64.6849 92.5234 65.0547C92.612 65.4245 92.7474 65.75 92.9297 66.0312C93.112 66.3125 93.3438 66.5339 93.625 66.6953C93.9062 66.8516 94.2422 66.9297 94.6328 66.9297C95.112 66.9297 95.5052 66.8281 95.8125 66.625C96.125 66.4219 96.375 66.1536 96.5625 65.8203C96.75 65.487 96.8958 65.125 97 64.7344V62.8516C96.9375 62.5651 96.8464 62.2891 96.7266 62.0234C96.612 61.7526 96.4609 61.513 96.2734 61.3047C96.0911 61.0911 95.8646 60.9219 95.5938 60.7969C95.3281 60.6719 95.013 60.6094 94.6484 60.6094C94.2526 60.6094 93.9115 60.6927 93.625 60.8594C93.3438 61.0208 93.112 61.2448 92.9297 61.5312C92.7474 61.8125 92.612 62.1406 92.5234 62.5156C92.4401 62.8854 92.3984 63.2812 92.3984 63.7031ZM103.844 68.1562C103.255 68.1562 102.721 68.0573 102.242 67.8594C101.768 67.6562 101.359 67.3724 101.016 67.0078C100.677 66.6432 100.417 66.2109 100.234 65.7109C100.052 65.2109 99.9609 64.6641 99.9609 64.0703V63.7422C99.9609 63.0547 100.062 62.4427 100.266 61.9062C100.469 61.3646 100.745 60.9062 101.094 60.5312C101.443 60.1562 101.839 59.8724 102.281 59.6797C102.724 59.487 103.182 59.3906 103.656 59.3906C104.26 59.3906 104.781 59.4948 105.219 59.7031C105.661 59.9115 106.023 60.2031 106.305 60.5781C106.586 60.9479 106.794 61.3854 106.93 61.8906C107.065 62.3906 107.133 62.9375 107.133 63.5312V64.1797H100.82V63H105.688V62.8906C105.667 62.5156 105.589 62.151 105.453 61.7969C105.323 61.4427 105.115 61.151 104.828 60.9219C104.542 60.6927 104.151 60.5781 103.656 60.5781C103.328 60.5781 103.026 60.6484 102.75 60.7891C102.474 60.9245 102.237 61.1276 102.039 61.3984C101.841 61.6693 101.688 62 101.578 62.3906C101.469 62.7812 101.414 63.2318 101.414 63.7422V64.0703C101.414 64.4714 101.469 64.849 101.578 65.2031C101.693 65.5521 101.857 65.8594 102.07 66.125C102.289 66.3906 102.552 66.599 102.859 66.75C103.172 66.901 103.526 66.9766 103.922 66.9766C104.432 66.9766 104.865 66.8724 105.219 66.6641C105.573 66.4557 105.883 66.1771 106.148 65.8281L107.023 66.5234C106.841 66.7995 106.609 67.0625 106.328 67.3125C106.047 67.5625 105.701 67.7656 105.289 67.9219C104.883 68.0781 104.401 68.1562 103.844 68.1562ZM108.438 63.8672V63.6875C108.438 63.0781 108.526 62.513 108.703 61.9922C108.88 61.4661 109.135 61.0104 109.469 60.625C109.802 60.2344 110.206 59.9323 110.68 59.7188C111.154 59.5 111.685 59.3906 112.273 59.3906C112.867 59.3906 113.401 59.5 113.875 59.7188C114.354 59.9323 114.76 60.2344 115.094 60.625C115.432 61.0104 115.69 61.4661 115.867 61.9922C116.044 62.513 116.133 63.0781 116.133 63.6875V63.8672C116.133 64.4766 116.044 65.0417 115.867 65.5625C115.69 66.0833 115.432 66.5391 115.094 66.9297C114.76 67.3151 114.357 67.6172 113.883 67.8359C113.414 68.0495 112.883 68.1562 112.289 68.1562C111.695 68.1562 111.161 68.0495 110.688 67.8359C110.214 67.6172 109.807 67.3151 109.469 66.9297C109.135 66.5391 108.88 66.0833 108.703 65.5625C108.526 65.0417 108.438 64.4766 108.438 63.8672ZM109.883 63.6875V63.8672C109.883 64.2891 109.932 64.6875 110.031 65.0625C110.13 65.4323 110.279 65.7604 110.477 66.0469C110.68 66.3333 110.932 66.5599 111.234 66.7266C111.536 66.888 111.888 66.9688 112.289 66.9688C112.685 66.9688 113.031 66.888 113.328 66.7266C113.63 66.5599 113.88 66.3333 114.078 66.0469C114.276 65.7604 114.424 65.4323 114.523 65.0625C114.628 64.6875 114.68 64.2891 114.68 63.8672V63.6875C114.68 63.2708 114.628 62.8776 114.523 62.5078C114.424 62.1328 114.273 61.8021 114.07 61.5156C113.872 61.224 113.622 60.9948 113.32 60.8281C113.023 60.6615 112.674 60.5781 112.273 60.5781C111.878 60.5781 111.529 60.6615 111.227 60.8281C110.93 60.9948 110.68 61.224 110.477 61.5156C110.279 61.8021 110.13 62.1328 110.031 62.5078C109.932 62.8776 109.883 63.2708 109.883 63.6875ZM122.867 65.7578C122.867 65.5495 122.82 65.3568 122.727 65.1797C122.638 64.9974 122.453 64.8333 122.172 64.6875C121.896 64.5365 121.479 64.4062 120.922 64.2969C120.453 64.1979 120.029 64.0807 119.648 63.9453C119.273 63.8099 118.953 63.6458 118.688 63.4531C118.427 63.2604 118.227 63.0339 118.086 62.7734C117.945 62.513 117.875 62.2083 117.875 61.8594C117.875 61.526 117.948 61.2109 118.094 60.9141C118.245 60.6172 118.456 60.3542 118.727 60.125C119.003 59.8958 119.333 59.7161 119.719 59.5859C120.104 59.4557 120.534 59.3906 121.008 59.3906C121.685 59.3906 122.263 59.5104 122.742 59.75C123.221 59.9896 123.589 60.3099 123.844 60.7109C124.099 61.1068 124.227 61.5469 124.227 62.0312H122.781C122.781 61.7969 122.711 61.5703 122.57 61.3516C122.435 61.1276 122.234 60.9427 121.969 60.7969C121.708 60.651 121.388 60.5781 121.008 60.5781C120.607 60.5781 120.281 60.6406 120.031 60.7656C119.786 60.8854 119.607 61.0391 119.492 61.2266C119.383 61.4141 119.328 61.612 119.328 61.8203C119.328 61.9766 119.354 62.1172 119.406 62.2422C119.464 62.362 119.562 62.474 119.703 62.5781C119.844 62.6771 120.042 62.7708 120.297 62.8594C120.552 62.9479 120.878 63.0365 121.273 63.125C121.966 63.2812 122.536 63.4688 122.984 63.6875C123.432 63.9062 123.766 64.1745 123.984 64.4922C124.203 64.8099 124.312 65.1953 124.312 65.6484C124.312 66.0182 124.234 66.3568 124.078 66.6641C123.927 66.9714 123.706 67.237 123.414 67.4609C123.128 67.6797 122.784 67.8516 122.383 67.9766C121.987 68.0964 121.542 68.1562 121.047 68.1562C120.302 68.1562 119.672 68.0234 119.156 67.7578C118.641 67.4922 118.25 67.1484 117.984 66.7266C117.719 66.3047 117.586 65.8594 117.586 65.3906H119.039C119.06 65.7865 119.174 66.1016 119.383 66.3359C119.591 66.5651 119.846 66.7292 120.148 66.8281C120.451 66.9219 120.75 66.9688 121.047 66.9688C121.443 66.9688 121.773 66.9167 122.039 66.8125C122.31 66.7083 122.516 66.5651 122.656 66.3828C122.797 66.2005 122.867 65.9922 122.867 65.7578ZM130.172 56H131.625V66.3594L131.5 68H130.172V56ZM137.336 63.7031V63.8672C137.336 64.4818 137.263 65.0521 137.117 65.5781C136.971 66.099 136.758 66.5521 136.477 66.9375C136.195 67.3229 135.852 67.6224 135.445 67.8359C135.039 68.0495 134.573 68.1562 134.047 68.1562C133.51 68.1562 133.039 68.0651 132.633 67.8828C132.232 67.6953 131.893 67.4271 131.617 67.0781C131.341 66.7292 131.12 66.3073 130.953 65.8125C130.792 65.3177 130.68 64.7604 130.617 64.1406V63.4219C130.68 62.7969 130.792 62.237 130.953 61.7422C131.12 61.2474 131.341 60.8255 131.617 60.4766C131.893 60.1224 132.232 59.8542 132.633 59.6719C133.034 59.4844 133.5 59.3906 134.031 59.3906C134.562 59.3906 135.034 59.4948 135.445 59.7031C135.857 59.9062 136.201 60.1979 136.477 60.5781C136.758 60.9583 136.971 61.4141 137.117 61.9453C137.263 62.4714 137.336 63.0573 137.336 63.7031ZM135.883 63.8672V63.7031C135.883 63.2812 135.844 62.8854 135.766 62.5156C135.688 62.1406 135.562 61.8125 135.391 61.5312C135.219 61.2448 134.992 61.0208 134.711 60.8594C134.43 60.6927 134.083 60.6094 133.672 60.6094C133.307 60.6094 132.99 60.6719 132.719 60.7969C132.453 60.9219 132.227 61.0911 132.039 61.3047C131.852 61.513 131.698 61.7526 131.578 62.0234C131.464 62.2891 131.378 62.5651 131.32 62.8516V64.7344C131.404 65.099 131.539 65.4505 131.727 65.7891C131.919 66.1224 132.174 66.3958 132.492 66.6094C132.815 66.8229 133.214 66.9297 133.688 66.9297C134.078 66.9297 134.411 66.8516 134.688 66.6953C134.969 66.5339 135.195 66.3125 135.367 66.0312C135.544 65.75 135.674 65.4245 135.758 65.0547C135.841 64.6849 135.883 64.2891 135.883 63.8672ZM141.445 67.125L143.797 59.5469H145.344L141.953 69.3047C141.875 69.513 141.771 69.737 141.641 69.9766C141.516 70.2214 141.354 70.4531 141.156 70.6719C140.958 70.8906 140.719 71.0677 140.438 71.2031C140.161 71.3438 139.831 71.4141 139.445 71.4141C139.331 71.4141 139.185 71.3984 139.008 71.3672C138.831 71.3359 138.706 71.3099 138.633 71.2891L138.625 70.1172C138.667 70.1224 138.732 70.1276 138.82 70.1328C138.914 70.1432 138.979 70.1484 139.016 70.1484C139.344 70.1484 139.622 70.1042 139.852 70.0156C140.081 69.9323 140.273 69.7891 140.43 69.5859C140.591 69.388 140.729 69.1146 140.844 68.7656L141.445 67.125ZM139.719 59.5469L141.914 66.1094L142.289 67.6328L141.25 68.1641L138.141 59.5469H139.719ZM154 66.9688C154.344 66.9688 154.661 66.8984 154.953 66.7578C155.245 66.6172 155.484 66.4245 155.672 66.1797C155.859 65.9297 155.966 65.6458 155.992 65.3281H157.367C157.341 65.8281 157.172 66.2943 156.859 66.7266C156.552 67.1536 156.148 67.5 155.648 67.7656C155.148 68.026 154.599 68.1562 154 68.1562C153.365 68.1562 152.81 68.0443 152.336 67.8203C151.867 67.5964 151.477 67.2891 151.164 66.8984C150.857 66.5078 150.625 66.0599 150.469 65.5547C150.318 65.0443 150.242 64.5052 150.242 63.9375V63.6094C150.242 63.0417 150.318 62.5052 150.469 62C150.625 61.4896 150.857 61.0391 151.164 60.6484C151.477 60.2578 151.867 59.9505 152.336 59.7266C152.81 59.5026 153.365 59.3906 154 59.3906C154.661 59.3906 155.24 59.526 155.734 59.7969C156.229 60.0625 156.617 60.4271 156.898 60.8906C157.185 61.349 157.341 61.8698 157.367 62.4531H155.992C155.966 62.1042 155.867 61.7891 155.695 61.5078C155.529 61.2266 155.299 61.0026 155.008 60.8359C154.721 60.6641 154.385 60.5781 154 60.5781C153.557 60.5781 153.185 60.6667 152.883 60.8438C152.586 61.0156 152.349 61.25 152.172 61.5469C152 61.8385 151.875 62.1641 151.797 62.5234C151.724 62.8776 151.688 63.2396 151.688 63.6094V63.9375C151.688 64.3073 151.724 64.6719 151.797 65.0312C151.87 65.3906 151.992 65.7161 152.164 66.0078C152.341 66.2995 152.578 66.5339 152.875 66.7109C153.177 66.8828 153.552 66.9688 154 66.9688ZM163.977 66.5547V62.2031C163.977 61.8698 163.909 61.5807 163.773 61.3359C163.643 61.0859 163.445 60.8932 163.18 60.7578C162.914 60.6224 162.586 60.5547 162.195 60.5547C161.831 60.5547 161.51 60.6172 161.234 60.7422C160.964 60.8672 160.75 61.0312 160.594 61.2344C160.443 61.4375 160.367 61.6562 160.367 61.8906H158.922C158.922 61.5885 159 61.2891 159.156 60.9922C159.312 60.6953 159.536 60.4271 159.828 60.1875C160.125 59.9427 160.479 59.75 160.891 59.6094C161.307 59.4635 161.771 59.3906 162.281 59.3906C162.896 59.3906 163.438 59.4948 163.906 59.7031C164.38 59.9115 164.75 60.2266 165.016 60.6484C165.286 61.0651 165.422 61.5885 165.422 62.2188V66.1562C165.422 66.4375 165.445 66.737 165.492 67.0547C165.544 67.3724 165.62 67.6458 165.719 67.875V68H164.211C164.138 67.8333 164.081 67.612 164.039 67.3359C163.997 67.0547 163.977 66.7943 163.977 66.5547ZM164.227 62.875L164.242 63.8906H162.781C162.37 63.8906 162.003 63.9245 161.68 63.9922C161.357 64.0547 161.086 64.151 160.867 64.2812C160.648 64.4115 160.482 64.5755 160.367 64.7734C160.253 64.9661 160.195 65.1927 160.195 65.4531C160.195 65.7188 160.255 65.9609 160.375 66.1797C160.495 66.3984 160.674 66.5729 160.914 66.7031C161.159 66.8281 161.458 66.8906 161.812 66.8906C162.255 66.8906 162.646 66.7969 162.984 66.6094C163.323 66.4219 163.591 66.1927 163.789 65.9219C163.992 65.651 164.102 65.388 164.117 65.1328L164.734 65.8281C164.698 66.0469 164.599 66.2891 164.438 66.5547C164.276 66.8203 164.06 67.0755 163.789 67.3203C163.523 67.5599 163.206 67.7604 162.836 67.9219C162.471 68.0781 162.06 68.1562 161.602 68.1562C161.029 68.1562 160.526 68.0443 160.094 67.8203C159.667 67.5964 159.333 67.2969 159.094 66.9219C158.859 66.5417 158.742 66.1172 158.742 65.6484C158.742 65.1953 158.831 64.7969 159.008 64.4531C159.185 64.1042 159.44 63.8151 159.773 63.5859C160.107 63.3516 160.508 63.1745 160.977 63.0547C161.445 62.9349 161.969 62.875 162.547 62.875H164.227ZM171.234 59.5469V60.6562H166.664V59.5469H171.234ZM168.211 57.4922H169.656V65.9062C169.656 66.1927 169.701 66.4089 169.789 66.5547C169.878 66.7005 169.992 66.7969 170.133 66.8438C170.273 66.8906 170.424 66.9141 170.586 66.9141C170.706 66.9141 170.831 66.9036 170.961 66.8828C171.096 66.8568 171.198 66.8359 171.266 66.8203L171.273 68C171.159 68.0365 171.008 68.0703 170.82 68.1016C170.638 68.138 170.417 68.1562 170.156 68.1562C169.802 68.1562 169.477 68.0859 169.18 67.9453C168.883 67.8047 168.646 67.5703 168.469 67.2422C168.297 66.9089 168.211 66.4609 168.211 65.8984V57.4922ZM176.438 68.1562C175.849 68.1562 175.315 68.0573 174.836 67.8594C174.362 67.6562 173.953 67.3724 173.609 67.0078C173.271 66.6432 173.01 66.2109 172.828 65.7109C172.646 65.2109 172.555 64.6641 172.555 64.0703V63.7422C172.555 63.0547 172.656 62.4427 172.859 61.9062C173.062 61.3646 173.339 60.9062 173.688 60.5312C174.036 60.1562 174.432 59.8724 174.875 59.6797C175.318 59.487 175.776 59.3906 176.25 59.3906C176.854 59.3906 177.375 59.4948 177.812 59.7031C178.255 59.9115 178.617 60.2031 178.898 60.5781C179.18 60.9479 179.388 61.3854 179.523 61.8906C179.659 62.3906 179.727 62.9375 179.727 63.5312V64.1797H173.414V63H178.281V62.8906C178.26 62.5156 178.182 62.151 178.047 61.7969C177.917 61.4427 177.708 61.151 177.422 60.9219C177.135 60.6927 176.745 60.5781 176.25 60.5781C175.922 60.5781 175.62 60.6484 175.344 60.7891C175.068 60.9245 174.831 61.1276 174.633 61.3984C174.435 61.6693 174.281 62 174.172 62.3906C174.062 62.7812 174.008 63.2318 174.008 63.7422V64.0703C174.008 64.4714 174.062 64.849 174.172 65.2031C174.286 65.5521 174.451 65.8594 174.664 66.125C174.883 66.3906 175.146 66.599 175.453 66.75C175.766 66.901 176.12 66.9766 176.516 66.9766C177.026 66.9766 177.458 66.8724 177.812 66.6641C178.167 66.4557 178.477 66.1771 178.742 65.8281L179.617 66.5234C179.435 66.7995 179.203 67.0625 178.922 67.3125C178.641 67.5625 178.294 67.7656 177.883 67.9219C177.477 68.0781 176.995 68.1562 176.438 68.1562ZM186.891 59.5469H188.203V67.8203C188.203 68.5651 188.052 69.2005 187.75 69.7266C187.448 70.2526 187.026 70.651 186.484 70.9219C185.948 71.1979 185.328 71.3359 184.625 71.3359C184.333 71.3359 183.99 71.2891 183.594 71.1953C183.203 71.1068 182.818 70.9531 182.438 70.7344C182.062 70.5208 181.747 70.2318 181.492 69.8672L182.25 69.0078C182.604 69.4349 182.974 69.7318 183.359 69.8984C183.75 70.0651 184.135 70.1484 184.516 70.1484C184.974 70.1484 185.37 70.0625 185.703 69.8906C186.036 69.7188 186.294 69.4635 186.477 69.125C186.664 68.7917 186.758 68.3802 186.758 67.8906V61.4062L186.891 59.5469ZM181.07 63.8672V63.7031C181.07 63.0573 181.146 62.4714 181.297 61.9453C181.453 61.4141 181.674 60.9583 181.961 60.5781C182.253 60.1979 182.604 59.9062 183.016 59.7031C183.427 59.4948 183.891 59.3906 184.406 59.3906C184.938 59.3906 185.401 59.4844 185.797 59.6719C186.198 59.8542 186.536 60.1224 186.812 60.4766C187.094 60.8255 187.315 61.2474 187.477 61.7422C187.638 62.237 187.75 62.7969 187.812 63.4219V64.1406C187.755 64.7604 187.643 65.3177 187.477 65.8125C187.315 66.3073 187.094 66.7292 186.812 67.0781C186.536 67.4271 186.198 67.6953 185.797 67.8828C185.396 68.0651 184.927 68.1562 184.391 68.1562C183.885 68.1562 183.427 68.0495 183.016 67.8359C182.609 67.6224 182.26 67.3229 181.969 66.9375C181.677 66.5521 181.453 66.099 181.297 65.5781C181.146 65.0521 181.07 64.4818 181.07 63.8672ZM182.516 63.7031V63.8672C182.516 64.2891 182.557 64.6849 182.641 65.0547C182.729 65.4245 182.862 65.75 183.039 66.0312C183.221 66.3125 183.453 66.5339 183.734 66.6953C184.016 66.8516 184.352 66.9297 184.742 66.9297C185.221 66.9297 185.617 66.8281 185.93 66.625C186.242 66.4219 186.49 66.1536 186.672 65.8203C186.859 65.487 187.005 65.125 187.109 64.7344V62.8516C187.052 62.5651 186.964 62.2891 186.844 62.0234C186.729 61.7526 186.578 61.513 186.391 61.3047C186.208 61.0911 185.982 60.9219 185.711 60.7969C185.44 60.6719 185.122 60.6094 184.758 60.6094C184.362 60.6094 184.021 60.6927 183.734 60.8594C183.453 61.0208 183.221 61.2448 183.039 61.5312C182.862 61.8125 182.729 62.1406 182.641 62.5156C182.557 62.8854 182.516 63.2812 182.516 63.7031ZM190.016 63.8672V63.6875C190.016 63.0781 190.104 62.513 190.281 61.9922C190.458 61.4661 190.714 61.0104 191.047 60.625C191.38 60.2344 191.784 59.9323 192.258 59.7188C192.732 59.5 193.263 59.3906 193.852 59.3906C194.445 59.3906 194.979 59.5 195.453 59.7188C195.932 59.9323 196.339 60.2344 196.672 60.625C197.01 61.0104 197.268 61.4661 197.445 61.9922C197.622 62.513 197.711 63.0781 197.711 63.6875V63.8672C197.711 64.4766 197.622 65.0417 197.445 65.5625C197.268 66.0833 197.01 66.5391 196.672 66.9297C196.339 67.3151 195.935 67.6172 195.461 67.8359C194.992 68.0495 194.461 68.1562 193.867 68.1562C193.273 68.1562 192.74 68.0495 192.266 67.8359C191.792 67.6172 191.385 67.3151 191.047 66.9297C190.714 66.5391 190.458 66.0833 190.281 65.5625C190.104 65.0417 190.016 64.4766 190.016 63.8672ZM191.461 63.6875V63.8672C191.461 64.2891 191.51 64.6875 191.609 65.0625C191.708 65.4323 191.857 65.7604 192.055 66.0469C192.258 66.3333 192.51 66.5599 192.812 66.7266C193.115 66.888 193.466 66.9688 193.867 66.9688C194.263 66.9688 194.609 66.888 194.906 66.7266C195.208 66.5599 195.458 66.3333 195.656 66.0469C195.854 65.7604 196.003 65.4323 196.102 65.0625C196.206 64.6875 196.258 64.2891 196.258 63.8672V63.6875C196.258 63.2708 196.206 62.8776 196.102 62.5078C196.003 62.1328 195.852 61.8021 195.648 61.5156C195.451 61.224 195.201 60.9948 194.898 60.8281C194.602 60.6615 194.253 60.5781 193.852 60.5781C193.456 60.5781 193.107 60.6615 192.805 60.8281C192.508 60.9948 192.258 61.224 192.055 61.5156C191.857 61.8021 191.708 62.1328 191.609 62.5078C191.51 62.8776 191.461 63.2708 191.461 63.6875ZM200.969 60.875V68H199.523V59.5469H200.93L200.969 60.875ZM203.609 59.5L203.602 60.8438C203.482 60.8177 203.367 60.8021 203.258 60.7969C203.154 60.7865 203.034 60.7812 202.898 60.7812C202.565 60.7812 202.271 60.8333 202.016 60.9375C201.76 61.0417 201.544 61.1875 201.367 61.375C201.19 61.5625 201.049 61.7865 200.945 62.0469C200.846 62.3021 200.781 62.5833 200.75 62.8906L200.344 63.125C200.344 62.6146 200.393 62.1354 200.492 61.6875C200.596 61.2396 200.755 60.8438 200.969 60.5C201.182 60.151 201.453 59.8802 201.781 59.6875C202.115 59.4896 202.51 59.3906 202.969 59.3906C203.073 59.3906 203.193 59.4036 203.328 59.4297C203.464 59.4505 203.557 59.474 203.609 59.5ZM206.516 59.5469V68H205.062V59.5469H206.516ZM204.953 57.3047C204.953 57.0703 205.023 56.8724 205.164 56.7109C205.31 56.5495 205.523 56.4688 205.805 56.4688C206.081 56.4688 206.292 56.5495 206.438 56.7109C206.589 56.8724 206.664 57.0703 206.664 57.3047C206.664 57.5286 206.589 57.7214 206.438 57.8828C206.292 58.0391 206.081 58.1172 205.805 58.1172C205.523 58.1172 205.31 58.0391 205.164 57.8828C205.023 57.7214 204.953 57.5286 204.953 57.3047ZM212.344 68.1562C211.755 68.1562 211.221 68.0573 210.742 67.8594C210.268 67.6562 209.859 67.3724 209.516 67.0078C209.177 66.6432 208.917 66.2109 208.734 65.7109C208.552 65.2109 208.461 64.6641 208.461 64.0703V63.7422C208.461 63.0547 208.562 62.4427 208.766 61.9062C208.969 61.3646 209.245 60.9062 209.594 60.5312C209.943 60.1562 210.339 59.8724 210.781 59.6797C211.224 59.487 211.682 59.3906 212.156 59.3906C212.76 59.3906 213.281 59.4948 213.719 59.7031C214.161 59.9115 214.523 60.2031 214.805 60.5781C215.086 60.9479 215.294 61.3854 215.43 61.8906C215.565 62.3906 215.633 62.9375 215.633 63.5312V64.1797H209.32V63H214.188V62.8906C214.167 62.5156 214.089 62.151 213.953 61.7969C213.823 61.4427 213.615 61.151 213.328 60.9219C213.042 60.6927 212.651 60.5781 212.156 60.5781C211.828 60.5781 211.526 60.6484 211.25 60.7891C210.974 60.9245 210.737 61.1276 210.539 61.3984C210.341 61.6693 210.188 62 210.078 62.3906C209.969 62.7812 209.914 63.2318 209.914 63.7422V64.0703C209.914 64.4714 209.969 64.849 210.078 65.2031C210.193 65.5521 210.357 65.8594 210.57 66.125C210.789 66.3906 211.052 66.599 211.359 66.75C211.672 66.901 212.026 66.9766 212.422 66.9766C212.932 66.9766 213.365 66.8724 213.719 66.6641C214.073 66.4557 214.383 66.1771 214.648 65.8281L215.523 66.5234C215.341 66.7995 215.109 67.0625 214.828 67.3125C214.547 67.5625 214.201 67.7656 213.789 67.9219C213.383 68.0781 212.901 68.1562 212.344 68.1562ZM222.242 65.7578C222.242 65.5495 222.195 65.3568 222.102 65.1797C222.013 64.9974 221.828 64.8333 221.547 64.6875C221.271 64.5365 220.854 64.4062 220.297 64.2969C219.828 64.1979 219.404 64.0807 219.023 63.9453C218.648 63.8099 218.328 63.6458 218.062 63.4531C217.802 63.2604 217.602 63.0339 217.461 62.7734C217.32 62.513 217.25 62.2083 217.25 61.8594C217.25 61.526 217.323 61.2109 217.469 60.9141C217.62 60.6172 217.831 60.3542 218.102 60.125C218.378 59.8958 218.708 59.7161 219.094 59.5859C219.479 59.4557 219.909 59.3906 220.383 59.3906C221.06 59.3906 221.638 59.5104 222.117 59.75C222.596 59.9896 222.964 60.3099 223.219 60.7109C223.474 61.1068 223.602 61.5469 223.602 62.0312H222.156C222.156 61.7969 222.086 61.5703 221.945 61.3516C221.81 61.1276 221.609 60.9427 221.344 60.7969C221.083 60.651 220.763 60.5781 220.383 60.5781C219.982 60.5781 219.656 60.6406 219.406 60.7656C219.161 60.8854 218.982 61.0391 218.867 61.2266C218.758 61.4141 218.703 61.612 218.703 61.8203C218.703 61.9766 218.729 62.1172 218.781 62.2422C218.839 62.362 218.938 62.474 219.078 62.5781C219.219 62.6771 219.417 62.7708 219.672 62.8594C219.927 62.9479 220.253 63.0365 220.648 63.125C221.341 63.2812 221.911 63.4688 222.359 63.6875C222.807 63.9062 223.141 64.1745 223.359 64.4922C223.578 64.8099 223.688 65.1953 223.688 65.6484C223.688 66.0182 223.609 66.3568 223.453 66.6641C223.302 66.9714 223.081 67.237 222.789 67.4609C222.503 67.6797 222.159 67.8516 221.758 67.9766C221.362 68.0964 220.917 68.1562 220.422 68.1562C219.677 68.1562 219.047 68.0234 218.531 67.7578C218.016 67.4922 217.625 67.1484 217.359 66.7266C217.094 66.3047 216.961 65.8594 216.961 65.3906H218.414C218.435 65.7865 218.549 66.1016 218.758 66.3359C218.966 66.5651 219.221 66.7292 219.523 66.8281C219.826 66.9219 220.125 66.9688 220.422 66.9688C220.818 66.9688 221.148 66.9167 221.414 66.8125C221.685 66.7083 221.891 66.5651 222.031 66.3828C222.172 66.2005 222.242 65.9922 222.242 65.7578ZM42.5469 80.1719V90.25H41.0938V78.5469H42.4219L42.5469 80.1719ZM48.2422 82.7031V82.8672C48.2422 83.4818 48.1693 84.0521 48.0234 84.5781C47.8776 85.099 47.6641 85.5521 47.3828 85.9375C47.1068 86.3229 46.7656 86.6224 46.3594 86.8359C45.9531 87.0495 45.487 87.1562 44.9609 87.1562C44.4245 87.1562 43.9505 87.0677 43.5391 86.8906C43.1276 86.7135 42.7786 86.4557 42.4922 86.1172C42.2057 85.7786 41.9766 85.3724 41.8047 84.8984C41.638 84.4245 41.5234 83.8906 41.4609 83.2969V82.4219C41.5234 81.7969 41.6406 81.237 41.8125 80.7422C41.9844 80.2474 42.2109 79.8255 42.4922 79.4766C42.7786 79.1224 43.125 78.8542 43.5312 78.6719C43.9375 78.4844 44.4062 78.3906 44.9375 78.3906C45.4688 78.3906 45.9401 78.4948 46.3516 78.7031C46.763 78.9062 47.1094 79.1979 47.3906 79.5781C47.6719 79.9583 47.8828 80.4141 48.0234 80.9453C48.1693 81.4714 48.2422 82.0573 48.2422 82.7031ZM46.7891 82.8672V82.7031C46.7891 82.2812 46.7448 81.8854 46.6562 81.5156C46.5677 81.1406 46.4297 80.8125 46.2422 80.5312C46.0599 80.2448 45.8255 80.0208 45.5391 79.8594C45.2526 79.6927 44.9115 79.6094 44.5156 79.6094C44.151 79.6094 43.8333 79.6719 43.5625 79.7969C43.2969 79.9219 43.0703 80.0911 42.8828 80.3047C42.6953 80.513 42.5417 80.7526 42.4219 81.0234C42.3073 81.2891 42.2214 81.5651 42.1641 81.8516V83.875C42.2682 84.2396 42.4141 84.5833 42.6016 84.9062C42.7891 85.224 43.0391 85.4818 43.3516 85.6797C43.6641 85.8724 44.0573 85.9688 44.5312 85.9688C44.9219 85.9688 45.2578 85.888 45.5391 85.7266C45.8255 85.5599 46.0599 85.3333 46.2422 85.0469C46.4297 84.7604 46.5677 84.4323 46.6562 84.0625C46.7448 83.6875 46.7891 83.2891 46.7891 82.8672ZM51.5312 79.875V87H50.0859V78.5469H51.4922L51.5312 79.875ZM54.1719 78.5L54.1641 79.8438C54.0443 79.8177 53.9297 79.8021 53.8203 79.7969C53.7161 79.7865 53.5964 79.7812 53.4609 79.7812C53.1276 79.7812 52.8333 79.8333 52.5781 79.9375C52.3229 80.0417 52.1068 80.1875 51.9297 80.375C51.7526 80.5625 51.612 80.7865 51.5078 81.0469C51.4089 81.3021 51.3438 81.5833 51.3125 81.8906L50.9062 82.125C50.9062 81.6146 50.9557 81.1354 51.0547 80.6875C51.1589 80.2396 51.3177 79.8438 51.5312 79.5C51.7448 79.151 52.0156 78.8802 52.3438 78.6875C52.6771 78.4896 53.0729 78.3906 53.5312 78.3906C53.6354 78.3906 53.7552 78.4036 53.8906 78.4297C54.026 78.4505 54.1198 78.474 54.1719 78.5ZM54.9688 82.8672V82.6875C54.9688 82.0781 55.0573 81.513 55.2344 80.9922C55.4115 80.4661 55.6667 80.0104 56 79.625C56.3333 79.2344 56.737 78.9323 57.2109 78.7188C57.6849 78.5 58.2161 78.3906 58.8047 78.3906C59.3984 78.3906 59.9323 78.5 60.4062 78.7188C60.8854 78.9323 61.2917 79.2344 61.625 79.625C61.9635 80.0104 62.2214 80.4661 62.3984 80.9922C62.5755 81.513 62.6641 82.0781 62.6641 82.6875V82.8672C62.6641 83.4766 62.5755 84.0417 62.3984 84.5625C62.2214 85.0833 61.9635 85.5391 61.625 85.9297C61.2917 86.3151 60.888 86.6172 60.4141 86.8359C59.9453 87.0495 59.4141 87.1562 58.8203 87.1562C58.2266 87.1562 57.6927 87.0495 57.2188 86.8359C56.7448 86.6172 56.3385 86.3151 56 85.9297C55.6667 85.5391 55.4115 85.0833 55.2344 84.5625C55.0573 84.0417 54.9688 83.4766 54.9688 82.8672ZM56.4141 82.6875V82.8672C56.4141 83.2891 56.4635 83.6875 56.5625 84.0625C56.6615 84.4323 56.8099 84.7604 57.0078 85.0469C57.2109 85.3333 57.4635 85.5599 57.7656 85.7266C58.0677 85.888 58.4193 85.9688 58.8203 85.9688C59.2161 85.9688 59.5625 85.888 59.8594 85.7266C60.1615 85.5599 60.4115 85.3333 60.6094 85.0469C60.8073 84.7604 60.9557 84.4323 61.0547 84.0625C61.1589 83.6875 61.2109 83.2891 61.2109 82.8672V82.6875C61.2109 82.2708 61.1589 81.8776 61.0547 81.5078C60.9557 81.1328 60.8047 80.8021 60.6016 80.5156C60.4036 80.224 60.1536 79.9948 59.8516 79.8281C59.5547 79.6615 59.2057 79.5781 58.8047 79.5781C58.4089 79.5781 58.0599 79.6615 57.7578 79.8281C57.4609 79.9948 57.2109 80.224 57.0078 80.5156C56.8099 80.8021 56.6615 81.1328 56.5625 81.5078C56.4635 81.8776 56.4141 82.2708 56.4141 82.6875ZM66.9219 85.6953L69.2344 78.5469H70.7109L67.6719 87H66.7031L66.9219 85.6953ZM64.9922 78.5469L67.375 85.7344L67.5391 87H66.5703L63.5078 78.5469H64.9922ZM73.6719 78.5469V87H72.2188V78.5469H73.6719ZM72.1094 76.3047C72.1094 76.0703 72.1797 75.8724 72.3203 75.7109C72.4661 75.5495 72.6797 75.4688 72.9609 75.4688C73.237 75.4688 73.4479 75.5495 73.5938 75.7109C73.7448 75.8724 73.8203 76.0703 73.8203 76.3047C73.8203 76.5286 73.7448 76.7214 73.5938 76.8828C73.4479 77.0391 73.237 77.1172 72.9609 77.1172C72.6797 77.1172 72.4661 77.0391 72.3203 76.8828C72.1797 76.7214 72.1094 76.5286 72.1094 76.3047ZM81.3203 85.3594V75H82.7734V87H81.4453L81.3203 85.3594ZM75.6328 82.8672V82.7031C75.6328 82.0573 75.7109 81.4714 75.8672 80.9453C76.0286 80.4141 76.2552 79.9583 76.5469 79.5781C76.8438 79.1979 77.1953 78.9062 77.6016 78.7031C78.013 78.4948 78.4714 78.3906 78.9766 78.3906C79.5078 78.3906 79.9714 78.4844 80.3672 78.6719C80.7682 78.8542 81.1068 79.1224 81.3828 79.4766C81.6641 79.8255 81.8854 80.2474 82.0469 80.7422C82.2083 81.237 82.3203 81.7969 82.3828 82.4219V83.1406C82.3255 83.7604 82.2135 84.3177 82.0469 84.8125C81.8854 85.3073 81.6641 85.7292 81.3828 86.0781C81.1068 86.4271 80.7682 86.6953 80.3672 86.8828C79.9661 87.0651 79.4974 87.1562 78.9609 87.1562C78.4661 87.1562 78.013 87.0495 77.6016 86.8359C77.1953 86.6224 76.8438 86.3229 76.5469 85.9375C76.2552 85.5521 76.0286 85.099 75.8672 84.5781C75.7109 84.0521 75.6328 83.4818 75.6328 82.8672ZM77.0859 82.7031V82.8672C77.0859 83.2891 77.1276 83.6849 77.2109 84.0547C77.2995 84.4245 77.4349 84.75 77.6172 85.0312C77.7995 85.3125 78.0312 85.5339 78.3125 85.6953C78.5938 85.8516 78.9297 85.9297 79.3203 85.9297C79.7995 85.9297 80.1927 85.8281 80.5 85.625C80.8125 85.4219 81.0625 85.1536 81.25 84.8203C81.4375 84.487 81.5833 84.125 81.6875 83.7344V81.8516C81.625 81.5651 81.5339 81.2891 81.4141 81.0234C81.2995 80.7526 81.1484 80.513 80.9609 80.3047C80.7786 80.0911 80.5521 79.9219 80.2812 79.7969C80.0156 79.6719 79.7005 79.6094 79.3359 79.6094C78.9401 79.6094 78.599 79.6927 78.3125 79.8594C78.0312 80.0208 77.7995 80.2448 77.6172 80.5312C77.4349 80.8125 77.2995 81.1406 77.2109 81.5156C77.1276 81.8854 77.0859 82.2812 77.0859 82.7031ZM88.5312 87.1562C87.9427 87.1562 87.4089 87.0573 86.9297 86.8594C86.4557 86.6562 86.0469 86.3724 85.7031 86.0078C85.3646 85.6432 85.1042 85.2109 84.9219 84.7109C84.7396 84.2109 84.6484 83.6641 84.6484 83.0703V82.7422C84.6484 82.0547 84.75 81.4427 84.9531 80.9062C85.1562 80.3646 85.4323 79.9062 85.7812 79.5312C86.1302 79.1562 86.526 78.8724 86.9688 78.6797C87.4115 78.487 87.8698 78.3906 88.3438 78.3906C88.9479 78.3906 89.4688 78.4948 89.9062 78.7031C90.349 78.9115 90.7109 79.2031 90.9922 79.5781C91.2734 79.9479 91.4818 80.3854 91.6172 80.8906C91.7526 81.3906 91.8203 81.9375 91.8203 82.5312V83.1797H85.5078V82H90.375V81.8906C90.3542 81.5156 90.276 81.151 90.1406 80.7969C90.0104 80.4427 89.8021 80.151 89.5156 79.9219C89.2292 79.6927 88.8385 79.5781 88.3438 79.5781C88.0156 79.5781 87.7135 79.6484 87.4375 79.7891C87.1615 79.9245 86.9245 80.1276 86.7266 80.3984C86.5286 80.6693 86.375 81 86.2656 81.3906C86.1562 81.7812 86.1016 82.2318 86.1016 82.7422V83.0703C86.1016 83.4714 86.1562 83.849 86.2656 84.2031C86.3802 84.5521 86.5443 84.8594 86.7578 85.125C86.9766 85.3906 87.2396 85.599 87.5469 85.75C87.8594 85.901 88.2135 85.9766 88.6094 85.9766C89.1198 85.9766 89.5521 85.8724 89.9062 85.6641C90.2604 85.4557 90.5703 85.1771 90.8359 84.8281L91.7109 85.5234C91.5286 85.7995 91.2969 86.0625 91.0156 86.3125C90.7344 86.5625 90.388 86.7656 89.9766 86.9219C89.5703 87.0781 89.0885 87.1562 88.5312 87.1562ZM98.8359 85.3594V75H100.289V87H98.9609L98.8359 85.3594ZM93.1484 82.8672V82.7031C93.1484 82.0573 93.2266 81.4714 93.3828 80.9453C93.5443 80.4141 93.7708 79.9583 94.0625 79.5781C94.3594 79.1979 94.7109 78.9062 95.1172 78.7031C95.5286 78.4948 95.987 78.3906 96.4922 78.3906C97.0234 78.3906 97.487 78.4844 97.8828 78.6719C98.2839 78.8542 98.6224 79.1224 98.8984 79.4766C99.1797 79.8255 99.401 80.2474 99.5625 80.7422C99.724 81.237 99.8359 81.7969 99.8984 82.4219V83.1406C99.8411 83.7604 99.7292 84.3177 99.5625 84.8125C99.401 85.3073 99.1797 85.7292 98.8984 86.0781C98.6224 86.4271 98.2839 86.6953 97.8828 86.8828C97.4818 87.0651 97.013 87.1562 96.4766 87.1562C95.9818 87.1562 95.5286 87.0495 95.1172 86.8359C94.7109 86.6224 94.3594 86.3229 94.0625 85.9375C93.7708 85.5521 93.5443 85.099 93.3828 84.5781C93.2266 84.0521 93.1484 83.4818 93.1484 82.8672ZM94.6016 82.7031V82.8672C94.6016 83.2891 94.6432 83.6849 94.7266 84.0547C94.8151 84.4245 94.9505 84.75 95.1328 85.0312C95.3151 85.3125 95.5469 85.5339 95.8281 85.6953C96.1094 85.8516 96.4453 85.9297 96.8359 85.9297C97.3151 85.9297 97.7083 85.8281 98.0156 85.625C98.3281 85.4219 98.5781 85.1536 98.7656 84.8203C98.9531 84.487 99.099 84.125 99.2031 83.7344V81.8516C99.1406 81.5651 99.0495 81.2891 98.9297 81.0234C98.8151 80.7526 98.6641 80.513 98.4766 80.3047C98.2943 80.0911 98.0677 79.9219 97.7969 79.7969C97.5312 79.6719 97.2161 79.6094 96.8516 79.6094C96.4557 79.6094 96.1146 79.6927 95.8281 79.8594C95.5469 80.0208 95.3151 80.2448 95.1328 80.5312C94.9505 80.8125 94.8151 81.1406 94.7266 81.5156C94.6432 81.8854 94.6016 82.2812 94.6016 82.7031Z" fill="black"/>
<rect x="63" y="115" width="159" height="52" rx="8" fill="#272727"/>
<rect x="63" y="115" width="159" height="52" rx="8" fill="black" fill-opacity="0.2"/>
<path d="M111.572 142.783H114.492C114.434 143.74 114.17 144.59 113.701 145.332C113.239 146.074 112.591 146.654 111.758 147.07C110.931 147.487 109.935 147.695 108.77 147.695C107.858 147.695 107.041 147.539 106.318 147.227C105.596 146.908 104.977 146.452 104.463 145.859C103.955 145.267 103.568 144.551 103.301 143.711C103.034 142.871 102.9 141.93 102.9 140.889V139.902C102.9 138.861 103.037 137.92 103.311 137.08C103.59 136.234 103.988 135.514 104.502 134.922C105.023 134.329 105.645 133.874 106.367 133.555C107.09 133.236 107.897 133.076 108.789 133.076C109.974 133.076 110.973 133.291 111.787 133.721C112.607 134.15 113.242 134.743 113.691 135.498C114.147 136.253 114.421 137.113 114.512 138.076H111.582C111.549 137.503 111.436 137.018 111.24 136.621C111.045 136.217 110.749 135.915 110.352 135.713C109.961 135.505 109.44 135.4 108.789 135.4C108.301 135.4 107.874 135.492 107.51 135.674C107.145 135.856 106.839 136.133 106.592 136.504C106.344 136.875 106.159 137.344 106.035 137.91C105.918 138.47 105.859 139.128 105.859 139.883V140.889C105.859 141.624 105.915 142.272 106.025 142.832C106.136 143.385 106.305 143.854 106.533 144.238C106.768 144.616 107.067 144.902 107.432 145.098C107.803 145.286 108.249 145.381 108.77 145.381C109.382 145.381 109.886 145.283 110.283 145.088C110.68 144.893 110.983 144.603 111.191 144.219C111.406 143.835 111.533 143.356 111.572 142.783ZM115.791 142.324V142.119C115.791 141.344 115.902 140.632 116.123 139.98C116.344 139.323 116.667 138.753 117.09 138.271C117.513 137.79 118.034 137.415 118.652 137.148C119.271 136.875 119.98 136.738 120.781 136.738C121.582 136.738 122.295 136.875 122.92 137.148C123.545 137.415 124.069 137.79 124.492 138.271C124.922 138.753 125.247 139.323 125.469 139.98C125.69 140.632 125.801 141.344 125.801 142.119V142.324C125.801 143.092 125.69 143.805 125.469 144.463C125.247 145.114 124.922 145.684 124.492 146.172C124.069 146.654 123.548 147.028 122.93 147.295C122.311 147.562 121.602 147.695 120.801 147.695C120 147.695 119.287 147.562 118.662 147.295C118.044 147.028 117.52 146.654 117.09 146.172C116.667 145.684 116.344 145.114 116.123 144.463C115.902 143.805 115.791 143.092 115.791 142.324ZM118.604 142.119V142.324C118.604 142.767 118.643 143.18 118.721 143.564C118.799 143.949 118.923 144.287 119.092 144.58C119.268 144.867 119.495 145.091 119.775 145.254C120.055 145.417 120.397 145.498 120.801 145.498C121.191 145.498 121.527 145.417 121.807 145.254C122.087 145.091 122.311 144.867 122.48 144.58C122.65 144.287 122.773 143.949 122.852 143.564C122.936 143.18 122.979 142.767 122.979 142.324V142.119C122.979 141.689 122.936 141.286 122.852 140.908C122.773 140.524 122.646 140.186 122.471 139.893C122.301 139.593 122.077 139.359 121.797 139.189C121.517 139.02 121.178 138.936 120.781 138.936C120.384 138.936 120.046 139.02 119.766 139.189C119.492 139.359 119.268 139.593 119.092 139.893C118.923 140.186 118.799 140.524 118.721 140.908C118.643 141.286 118.604 141.689 118.604 142.119ZM130.283 139.189V147.5H127.471V136.934H130.107L130.283 139.189ZM129.873 141.846H129.111C129.111 141.064 129.212 140.361 129.414 139.736C129.616 139.105 129.899 138.568 130.264 138.125C130.628 137.676 131.061 137.334 131.562 137.1C132.07 136.859 132.637 136.738 133.262 136.738C133.757 136.738 134.209 136.81 134.619 136.953C135.029 137.096 135.381 137.324 135.674 137.637C135.973 137.949 136.201 138.363 136.357 138.877C136.52 139.391 136.602 140.02 136.602 140.762V147.5H133.77V140.752C133.77 140.283 133.704 139.919 133.574 139.658C133.444 139.398 133.252 139.215 132.998 139.111C132.751 139.001 132.445 138.945 132.08 138.945C131.702 138.945 131.374 139.02 131.094 139.17C130.82 139.32 130.592 139.528 130.41 139.795C130.234 140.055 130.101 140.361 130.01 140.713C129.919 141.064 129.873 141.442 129.873 141.846ZM143.916 136.934V138.926H137.764V136.934H143.916ZM139.287 134.326H142.1V144.316C142.1 144.622 142.139 144.857 142.217 145.02C142.301 145.182 142.425 145.296 142.588 145.361C142.751 145.42 142.956 145.449 143.203 145.449C143.379 145.449 143.535 145.443 143.672 145.43C143.815 145.41 143.936 145.391 144.033 145.371L144.043 147.441C143.802 147.52 143.542 147.581 143.262 147.627C142.982 147.673 142.673 147.695 142.334 147.695C141.715 147.695 141.175 147.594 140.713 147.393C140.257 147.184 139.906 146.852 139.658 146.396C139.411 145.941 139.287 145.342 139.287 144.6V134.326ZM148.486 136.934V147.5H145.664V136.934H148.486ZM145.488 134.18C145.488 133.77 145.632 133.431 145.918 133.164C146.204 132.897 146.589 132.764 147.07 132.764C147.546 132.764 147.926 132.897 148.213 133.164C148.506 133.431 148.652 133.77 148.652 134.18C148.652 134.59 148.506 134.928 148.213 135.195C147.926 135.462 147.546 135.596 147.07 135.596C146.589 135.596 146.204 135.462 145.918 135.195C145.632 134.928 145.488 134.59 145.488 134.18ZM153.564 139.189V147.5H150.752V136.934H153.389L153.564 139.189ZM153.154 141.846H152.393C152.393 141.064 152.493 140.361 152.695 139.736C152.897 139.105 153.18 138.568 153.545 138.125C153.91 137.676 154.342 137.334 154.844 137.1C155.352 136.859 155.918 136.738 156.543 136.738C157.038 136.738 157.49 136.81 157.9 136.953C158.311 137.096 158.662 137.324 158.955 137.637C159.255 137.949 159.482 138.363 159.639 138.877C159.801 139.391 159.883 140.02 159.883 140.762V147.5H157.051V140.752C157.051 140.283 156.986 139.919 156.855 139.658C156.725 139.398 156.533 139.215 156.279 139.111C156.032 139.001 155.726 138.945 155.361 138.945C154.984 138.945 154.655 139.02 154.375 139.17C154.102 139.32 153.874 139.528 153.691 139.795C153.516 140.055 153.382 140.361 153.291 140.713C153.2 141.064 153.154 141.442 153.154 141.846ZM168.271 144.971V136.934H171.084V147.5H168.438L168.271 144.971ZM168.584 142.803L169.414 142.783C169.414 143.486 169.333 144.141 169.17 144.746C169.007 145.345 168.763 145.866 168.438 146.309C168.112 146.745 167.702 147.087 167.207 147.334C166.712 147.575 166.13 147.695 165.459 147.695C164.945 147.695 164.469 147.624 164.033 147.48C163.604 147.331 163.232 147.1 162.92 146.787C162.614 146.468 162.373 146.061 162.197 145.566C162.028 145.065 161.943 144.463 161.943 143.76V136.934H164.756V143.779C164.756 144.092 164.792 144.355 164.863 144.57C164.941 144.785 165.049 144.961 165.186 145.098C165.322 145.234 165.482 145.332 165.664 145.391C165.853 145.449 166.061 145.479 166.289 145.479C166.868 145.479 167.324 145.361 167.656 145.127C167.995 144.893 168.232 144.574 168.369 144.17C168.512 143.76 168.584 143.304 168.584 142.803ZM178.096 147.695C177.275 147.695 176.54 147.565 175.889 147.305C175.238 147.038 174.684 146.67 174.229 146.201C173.779 145.732 173.434 145.189 173.193 144.57C172.952 143.945 172.832 143.281 172.832 142.578V142.188C172.832 141.387 172.946 140.654 173.174 139.99C173.402 139.326 173.727 138.75 174.15 138.262C174.58 137.773 175.101 137.399 175.713 137.139C176.325 136.872 177.015 136.738 177.783 136.738C178.532 136.738 179.196 136.862 179.775 137.109C180.355 137.357 180.84 137.708 181.23 138.164C181.628 138.62 181.927 139.167 182.129 139.805C182.331 140.436 182.432 141.139 182.432 141.914V143.086H174.033V141.211H179.668V140.996C179.668 140.605 179.596 140.257 179.453 139.951C179.316 139.639 179.108 139.391 178.828 139.209C178.548 139.027 178.19 138.936 177.754 138.936C177.383 138.936 177.064 139.017 176.797 139.18C176.53 139.342 176.312 139.57 176.143 139.863C175.98 140.156 175.856 140.501 175.771 140.898C175.693 141.289 175.654 141.719 175.654 142.188V142.578C175.654 143.001 175.713 143.392 175.83 143.75C175.954 144.108 176.126 144.417 176.348 144.678C176.576 144.938 176.849 145.14 177.168 145.283C177.493 145.426 177.861 145.498 178.271 145.498C178.779 145.498 179.251 145.4 179.688 145.205C180.13 145.003 180.511 144.701 180.83 144.297L182.197 145.781C181.976 146.1 181.673 146.406 181.289 146.699C180.911 146.992 180.456 147.233 179.922 147.422C179.388 147.604 178.779 147.695 178.096 147.695Z" fill="white"/>
</g>
<defs>
<filter id="filter0_d_32_34582" x="0" y="0" width="285" height="196" filterUnits="userSpaceOnUse" color-interpolation-filters="sRGB">
<feFlood flood-opacity="0" result="BackgroundImageFix"/>
<feColorMatrix in="SourceAlpha" type="matrix" values="0 0 0 0 0 0 0 0 0 0 0 0 0 0 0 0 0 0 127 0" result="hardAlpha"/>
<feOffset dy="4"/>
<feGaussianBlur stdDeviation="2"/>
<feComposite in2="hardAlpha" operator="out"/>
<feColorMatrix type="matrix" values="0 0 0 0 0 0 0 0 0 0 0 0 0 0 0 0 0 0 0.25 0"/>
<feBlend mode="normal" in2="BackgroundImageFix" result="effect1_dropShadow_32_34582"/>
<feBlend mode="normal" in="SourceGraphic" in2="effect1_dropShadow_32_34582" result="shape"/>
</filter>
</defs>
</svg>
