<svg width="307" height="176" viewBox="0 0 307 176" fill="none" xmlns="http://www.w3.org/2000/svg">
<g filter="url(#filter0_d_32_34604)">
<path d="M33.0764 3.14394e-06C28.6581 2.97861e-06 25.0764 3.5817 25.0764 7.99996L25.0758 123.118C25.0758 126.123 23.3916 128.875 20.7155 130.242L11.1223 135.143L8.31596 136.394C5.30151 137.738 5.46059 142.07 8.56549 143.189L20.4074 148.613C23.2519 149.916 25.0758 152.757 25.076 155.886L25.0761 160C25.0763 164.418 28.658 168 33.0761 168L295 168C299.418 168 303 164.418 303 160L303 8.00001C303 3.58173 299.418 1.31105e-05 295 1.29452e-05L33.0764 3.14394e-06Z" fill="#E6E6E6"/>
<path d="M75.415 34.9434V37H68.6035V34.9434H75.415ZM69.4648 24.2031V37H66.8281V24.2031H69.4648ZM74.5273 29.415V31.4189H68.6035V29.415H74.5273ZM75.4062 24.2031V26.2686H68.6035V24.2031H75.4062ZM78.834 27.4902L80.4072 30.3818L82.0244 27.4902H84.7227L82.0332 32.1396L84.8457 37H82.1387L80.4248 33.9414L78.7109 37H76.0039L78.8164 32.1396L76.127 27.4902H78.834ZM88.4844 29.3184V40.6562H85.9531V27.4902H88.2998L88.4844 29.3184ZM94.5049 32.1396V32.3242C94.5049 33.0156 94.4229 33.6572 94.2588 34.249C94.1006 34.8408 93.8662 35.3564 93.5557 35.7959C93.2451 36.2295 92.8584 36.5693 92.3955 36.8154C91.9385 37.0557 91.4111 37.1758 90.8135 37.1758C90.2334 37.1758 89.7295 37.0586 89.3018 36.8242C88.874 36.5898 88.5137 36.2617 88.2207 35.8398C87.9336 35.4121 87.7021 34.917 87.5264 34.3545C87.3506 33.792 87.2158 33.1885 87.1221 32.5439V32.0605C87.2158 31.3691 87.3506 30.7363 87.5264 30.1621C87.7021 29.582 87.9336 29.0811 88.2207 28.6592C88.5137 28.2314 88.8711 27.9004 89.293 27.666C89.7207 27.4316 90.2217 27.3145 90.7959 27.3145C91.3994 27.3145 91.9297 27.4287 92.3867 27.6572C92.8496 27.8857 93.2363 28.2139 93.5469 28.6416C93.8633 29.0693 94.1006 29.5791 94.2588 30.1709C94.4229 30.7627 94.5049 31.4189 94.5049 32.1396ZM91.9648 32.3242V32.1396C91.9648 31.7354 91.9297 31.3633 91.8594 31.0234C91.7949 30.6777 91.6895 30.376 91.543 30.1182C91.4023 29.8604 91.2148 29.6611 90.9805 29.5205C90.752 29.374 90.4736 29.3008 90.1455 29.3008C89.7998 29.3008 89.5039 29.3564 89.2578 29.4678C89.0176 29.5791 88.8213 29.7402 88.6689 29.9512C88.5166 30.1621 88.4023 30.4141 88.3262 30.707C88.25 31 88.2031 31.3311 88.1855 31.7002V32.9219C88.2148 33.3555 88.2969 33.7451 88.4316 34.0908C88.5664 34.4307 88.7744 34.7002 89.0557 34.8994C89.3369 35.0986 89.7061 35.1982 90.1631 35.1982C90.4971 35.1982 90.7783 35.125 91.0068 34.9785C91.2354 34.8262 91.4199 34.6182 91.5605 34.3545C91.707 34.0908 91.8096 33.7861 91.8682 33.4404C91.9326 33.0947 91.9648 32.7227 91.9648 32.3242ZM98.75 23.5V37H96.21V23.5H98.75ZM100.438 32.3418V32.1572C100.438 31.46 100.537 30.8184 100.736 30.2324C100.936 29.6406 101.226 29.1279 101.606 28.6943C101.987 28.2607 102.456 27.9238 103.013 27.6836C103.569 27.4375 104.208 27.3145 104.929 27.3145C105.649 27.3145 106.291 27.4375 106.854 27.6836C107.416 27.9238 107.888 28.2607 108.269 28.6943C108.655 29.1279 108.948 29.6406 109.147 30.2324C109.347 30.8184 109.446 31.46 109.446 32.1572V32.3418C109.446 33.0332 109.347 33.6748 109.147 34.2666C108.948 34.8525 108.655 35.3652 108.269 35.8047C107.888 36.2383 107.419 36.5752 106.862 36.8154C106.306 37.0557 105.667 37.1758 104.946 37.1758C104.226 37.1758 103.584 37.0557 103.021 36.8154C102.465 36.5752 101.993 36.2383 101.606 35.8047C101.226 35.3652 100.936 34.8525 100.736 34.2666C100.537 33.6748 100.438 33.0332 100.438 32.3418ZM102.969 32.1572V32.3418C102.969 32.7402 103.004 33.1123 103.074 33.458C103.145 33.8037 103.256 34.1084 103.408 34.3721C103.566 34.6299 103.771 34.832 104.023 34.9785C104.275 35.125 104.583 35.1982 104.946 35.1982C105.298 35.1982 105.6 35.125 105.852 34.9785C106.104 34.832 106.306 34.6299 106.458 34.3721C106.61 34.1084 106.722 33.8037 106.792 33.458C106.868 33.1123 106.906 32.7402 106.906 32.3418V32.1572C106.906 31.7705 106.868 31.4072 106.792 31.0674C106.722 30.7217 106.607 30.417 106.449 30.1533C106.297 29.8838 106.095 29.6729 105.843 29.5205C105.591 29.3682 105.286 29.292 104.929 29.292C104.571 29.292 104.267 29.3682 104.015 29.5205C103.769 29.6729 103.566 29.8838 103.408 30.1533C103.256 30.417 103.145 30.7217 103.074 31.0674C103.004 31.4072 102.969 31.7705 102.969 32.1572ZM113.533 29.5645V37H111.002V27.4902H113.384L113.533 29.5645ZM116.398 27.4287L116.354 29.7754C116.231 29.7578 116.082 29.7432 115.906 29.7314C115.736 29.7139 115.581 29.7051 115.44 29.7051C115.083 29.7051 114.772 29.752 114.509 29.8457C114.251 29.9336 114.034 30.0654 113.858 30.2412C113.688 30.417 113.56 30.6309 113.472 30.8828C113.39 31.1348 113.343 31.4219 113.331 31.7441L112.821 31.5859C112.821 30.9707 112.883 30.4053 113.006 29.8896C113.129 29.3682 113.308 28.9141 113.542 28.5273C113.782 28.1406 114.075 27.8418 114.421 27.6309C114.767 27.4199 115.162 27.3145 115.607 27.3145C115.748 27.3145 115.892 27.3262 116.038 27.3496C116.185 27.3672 116.305 27.3936 116.398 27.4287ZM121.795 37.1758C121.057 37.1758 120.395 37.0586 119.809 36.8242C119.223 36.584 118.725 36.2529 118.314 35.8311C117.91 35.4092 117.6 34.9199 117.383 34.3633C117.166 33.8008 117.058 33.2031 117.058 32.5703V32.2188C117.058 31.498 117.16 30.8389 117.365 30.2412C117.57 29.6436 117.863 29.125 118.244 28.6855C118.631 28.2461 119.1 27.9092 119.65 27.6748C120.201 27.4346 120.822 27.3145 121.514 27.3145C122.188 27.3145 122.785 27.4258 123.307 27.6484C123.828 27.8711 124.265 28.1875 124.616 28.5977C124.974 29.0078 125.243 29.5 125.425 30.0742C125.606 30.6426 125.697 31.2754 125.697 31.9727V33.0273H118.139V31.3398H123.21V31.1465C123.21 30.7949 123.146 30.4814 123.017 30.2061C122.894 29.9248 122.706 29.7021 122.454 29.5381C122.202 29.374 121.88 29.292 121.487 29.292C121.153 29.292 120.866 29.3652 120.626 29.5117C120.386 29.6582 120.189 29.8633 120.037 30.127C119.891 30.3906 119.779 30.7012 119.703 31.0586C119.633 31.4102 119.598 31.7969 119.598 32.2188V32.5703C119.598 32.9512 119.65 33.3027 119.756 33.625C119.867 33.9473 120.022 34.2256 120.222 34.46C120.427 34.6943 120.673 34.876 120.96 35.0049C121.253 35.1338 121.584 35.1982 121.953 35.1982C122.41 35.1982 122.835 35.1104 123.228 34.9346C123.626 34.7529 123.969 34.4805 124.256 34.1172L125.486 35.4531C125.287 35.7402 125.015 36.0156 124.669 36.2793C124.329 36.543 123.919 36.7598 123.438 36.9297C122.958 37.0938 122.41 37.1758 121.795 37.1758ZM70.6777 54.2734L74.0293 44.625H75.6621L71.4512 56H70.2871L70.6777 54.2734ZM67.5449 44.625L70.8652 54.2734L71.2793 56H70.1152L65.9121 44.625H67.5449ZM78.5449 47.5469V56H77.0918V47.5469H78.5449ZM76.9824 45.3047C76.9824 45.0703 77.0527 44.8724 77.1934 44.7109C77.3392 44.5495 77.5527 44.4688 77.834 44.4688C78.11 44.4688 78.321 44.5495 78.4668 44.7109C78.6178 44.8724 78.6934 45.0703 78.6934 45.3047C78.6934 45.5286 78.6178 45.7214 78.4668 45.8828C78.321 46.0391 78.11 46.1172 77.834 46.1172C77.5527 46.1172 77.3392 46.0391 77.1934 45.8828C77.0527 45.7214 76.9824 45.5286 76.9824 45.3047ZM84.373 56.1562C83.7845 56.1562 83.2507 56.0573 82.7715 55.8594C82.2975 55.6562 81.8887 55.3724 81.5449 55.0078C81.2064 54.6432 80.946 54.2109 80.7637 53.7109C80.5814 53.2109 80.4902 52.6641 80.4902 52.0703V51.7422C80.4902 51.0547 80.5918 50.4427 80.7949 49.9062C80.998 49.3646 81.2741 48.9062 81.623 48.5312C81.972 48.1562 82.3678 47.8724 82.8105 47.6797C83.2533 47.487 83.7116 47.3906 84.1855 47.3906C84.7897 47.3906 85.3105 47.4948 85.748 47.7031C86.1908 47.9115 86.5527 48.2031 86.834 48.5781C87.1152 48.9479 87.3236 49.3854 87.459 49.8906C87.5944 50.3906 87.6621 50.9375 87.6621 51.5312V52.1797H81.3496V51H86.2168V50.8906C86.196 50.5156 86.1178 50.151 85.9824 49.7969C85.8522 49.4427 85.6439 49.151 85.3574 48.9219C85.071 48.6927 84.6803 48.5781 84.1855 48.5781C83.8574 48.5781 83.5553 48.6484 83.2793 48.7891C83.0033 48.9245 82.7663 49.1276 82.5684 49.3984C82.3704 49.6693 82.2168 50 82.1074 50.3906C81.998 50.7812 81.9434 51.2318 81.9434 51.7422V52.0703C81.9434 52.4714 81.998 52.849 82.1074 53.2031C82.222 53.5521 82.3861 53.8594 82.5996 54.125C82.8184 54.3906 83.0814 54.599 83.3887 54.75C83.7012 54.901 84.0553 54.9766 84.4512 54.9766C84.9616 54.9766 85.3939 54.8724 85.748 54.6641C86.1022 54.4557 86.4121 54.1771 86.6777 53.8281L87.5527 54.5234C87.3704 54.7995 87.1387 55.0625 86.8574 55.3125C86.5762 55.5625 86.2298 55.7656 85.8184 55.9219C85.4121 56.0781 84.9303 56.1562 84.373 56.1562ZM91.4902 54.5L93.6621 47.5469H94.6152L94.4277 48.9297L92.2168 56H91.2871L91.4902 54.5ZM90.0293 47.5469L91.8809 54.5781L92.0137 56H91.0371L88.584 47.5469H90.0293ZM96.6934 54.5234L98.459 47.5469H99.8965L97.4434 56H96.4746L96.6934 54.5234ZM94.8262 47.5469L96.9512 54.3828L97.1934 56H96.2715L93.998 48.9141L93.8105 47.5469H94.8262ZM107.92 54.6953L110.232 47.5469H111.709L108.67 56H107.701L107.92 54.6953ZM105.99 47.5469L108.373 54.7344L108.537 56H107.568L104.506 47.5469H105.99ZM114.67 47.5469V56H113.217V47.5469H114.67ZM113.107 45.3047C113.107 45.0703 113.178 44.8724 113.318 44.7109C113.464 44.5495 113.678 44.4688 113.959 44.4688C114.235 44.4688 114.446 44.5495 114.592 44.7109C114.743 44.8724 114.818 45.0703 114.818 45.3047C114.818 45.5286 114.743 45.7214 114.592 45.8828C114.446 46.0391 114.235 46.1172 113.959 46.1172C113.678 46.1172 113.464 46.0391 113.318 45.8828C113.178 45.7214 113.107 45.5286 113.107 45.3047ZM122.318 54.3594V44H123.771V56H122.443L122.318 54.3594ZM116.631 51.8672V51.7031C116.631 51.0573 116.709 50.4714 116.865 49.9453C117.027 49.4141 117.253 48.9583 117.545 48.5781C117.842 48.1979 118.193 47.9062 118.6 47.7031C119.011 47.4948 119.469 47.3906 119.975 47.3906C120.506 47.3906 120.969 47.4844 121.365 47.6719C121.766 47.8542 122.105 48.1224 122.381 48.4766C122.662 48.8255 122.883 49.2474 123.045 49.7422C123.206 50.237 123.318 50.7969 123.381 51.4219V52.1406C123.324 52.7604 123.212 53.3177 123.045 53.8125C122.883 54.3073 122.662 54.7292 122.381 55.0781C122.105 55.4271 121.766 55.6953 121.365 55.8828C120.964 56.0651 120.495 56.1562 119.959 56.1562C119.464 56.1562 119.011 56.0495 118.6 55.8359C118.193 55.6224 117.842 55.3229 117.545 54.9375C117.253 54.5521 117.027 54.099 116.865 53.5781C116.709 53.0521 116.631 52.4818 116.631 51.8672ZM118.084 51.7031V51.8672C118.084 52.2891 118.126 52.6849 118.209 53.0547C118.298 53.4245 118.433 53.75 118.615 54.0312C118.798 54.3125 119.029 54.5339 119.311 54.6953C119.592 54.8516 119.928 54.9297 120.318 54.9297C120.798 54.9297 121.191 54.8281 121.498 54.625C121.811 54.4219 122.061 54.1536 122.248 53.8203C122.436 53.487 122.581 53.125 122.686 52.7344V50.8516C122.623 50.5651 122.532 50.2891 122.412 50.0234C122.298 49.7526 122.146 49.513 121.959 49.3047C121.777 49.0911 121.55 48.9219 121.279 48.7969C121.014 48.6719 120.699 48.6094 120.334 48.6094C119.938 48.6094 119.597 48.6927 119.311 48.8594C119.029 49.0208 118.798 49.2448 118.615 49.5312C118.433 49.8125 118.298 50.1406 118.209 50.5156C118.126 50.8854 118.084 51.2812 118.084 51.7031ZM129.529 56.1562C128.941 56.1562 128.407 56.0573 127.928 55.8594C127.454 55.6562 127.045 55.3724 126.701 55.0078C126.363 54.6432 126.102 54.2109 125.92 53.7109C125.738 53.2109 125.646 52.6641 125.646 52.0703V51.7422C125.646 51.0547 125.748 50.4427 125.951 49.9062C126.154 49.3646 126.43 48.9062 126.779 48.5312C127.128 48.1562 127.524 47.8724 127.967 47.6797C128.41 47.487 128.868 47.3906 129.342 47.3906C129.946 47.3906 130.467 47.4948 130.904 47.7031C131.347 47.9115 131.709 48.2031 131.99 48.5781C132.271 48.9479 132.48 49.3854 132.615 49.8906C132.751 50.3906 132.818 50.9375 132.818 51.5312V52.1797H126.506V51H131.373V50.8906C131.352 50.5156 131.274 50.151 131.139 49.7969C131.008 49.4427 130.8 49.151 130.514 48.9219C130.227 48.6927 129.837 48.5781 129.342 48.5781C129.014 48.5781 128.712 48.6484 128.436 48.7891C128.16 48.9245 127.923 49.1276 127.725 49.3984C127.527 49.6693 127.373 50 127.264 50.3906C127.154 50.7812 127.1 51.2318 127.1 51.7422V52.0703C127.1 52.4714 127.154 52.849 127.264 53.2031C127.378 53.5521 127.542 53.8594 127.756 54.125C127.975 54.3906 128.238 54.599 128.545 54.75C128.857 54.901 129.212 54.9766 129.607 54.9766C130.118 54.9766 130.55 54.8724 130.904 54.6641C131.258 54.4557 131.568 54.1771 131.834 53.8281L132.709 54.5234C132.527 54.7995 132.295 55.0625 132.014 55.3125C131.732 55.5625 131.386 55.7656 130.975 55.9219C130.568 56.0781 130.087 56.1562 129.529 56.1562ZM134.123 51.8672V51.6875C134.123 51.0781 134.212 50.513 134.389 49.9922C134.566 49.4661 134.821 49.0104 135.154 48.625C135.488 48.2344 135.891 47.9323 136.365 47.7188C136.839 47.5 137.37 47.3906 137.959 47.3906C138.553 47.3906 139.087 47.5 139.561 47.7188C140.04 47.9323 140.446 48.2344 140.779 48.625C141.118 49.0104 141.376 49.4661 141.553 49.9922C141.73 50.513 141.818 51.0781 141.818 51.6875V51.8672C141.818 52.4766 141.73 53.0417 141.553 53.5625C141.376 54.0833 141.118 54.5391 140.779 54.9297C140.446 55.3151 140.042 55.6172 139.568 55.8359C139.1 56.0495 138.568 56.1562 137.975 56.1562C137.381 56.1562 136.847 56.0495 136.373 55.8359C135.899 55.6172 135.493 55.3151 135.154 54.9297C134.821 54.5391 134.566 54.0833 134.389 53.5625C134.212 53.0417 134.123 52.4766 134.123 51.8672ZM135.568 51.6875V51.8672C135.568 52.2891 135.618 52.6875 135.717 53.0625C135.816 53.4323 135.964 53.7604 136.162 54.0469C136.365 54.3333 136.618 54.5599 136.92 54.7266C137.222 54.888 137.574 54.9688 137.975 54.9688C138.37 54.9688 138.717 54.888 139.014 54.7266C139.316 54.5599 139.566 54.3333 139.764 54.0469C139.962 53.7604 140.11 53.4323 140.209 53.0625C140.313 52.6875 140.365 52.2891 140.365 51.8672V51.6875C140.365 51.2708 140.313 50.8776 140.209 50.5078C140.11 50.1328 139.959 49.8021 139.756 49.5156C139.558 49.224 139.308 48.9948 139.006 48.8281C138.709 48.6615 138.36 48.5781 137.959 48.5781C137.563 48.5781 137.214 48.6615 136.912 48.8281C136.615 48.9948 136.365 49.224 136.162 49.5156C135.964 49.8021 135.816 50.1328 135.717 50.5078C135.618 50.8776 135.568 51.2708 135.568 51.6875ZM148.553 53.7578C148.553 53.5495 148.506 53.3568 148.412 53.1797C148.324 52.9974 148.139 52.8333 147.857 52.6875C147.581 52.5365 147.165 52.4062 146.607 52.2969C146.139 52.1979 145.714 52.0807 145.334 51.9453C144.959 51.8099 144.639 51.6458 144.373 51.4531C144.113 51.2604 143.912 51.0339 143.771 50.7734C143.631 50.513 143.561 50.2083 143.561 49.8594C143.561 49.526 143.633 49.2109 143.779 48.9141C143.93 48.6172 144.141 48.3542 144.412 48.125C144.688 47.8958 145.019 47.7161 145.404 47.5859C145.79 47.4557 146.219 47.3906 146.693 47.3906C147.37 47.3906 147.949 47.5104 148.428 47.75C148.907 47.9896 149.274 48.3099 149.529 48.7109C149.785 49.1068 149.912 49.5469 149.912 50.0312H148.467C148.467 49.7969 148.396 49.5703 148.256 49.3516C148.12 49.1276 147.92 48.9427 147.654 48.7969C147.394 48.651 147.074 48.5781 146.693 48.5781C146.292 48.5781 145.967 48.6406 145.717 48.7656C145.472 48.8854 145.292 49.0391 145.178 49.2266C145.068 49.4141 145.014 49.612 145.014 49.8203C145.014 49.9766 145.04 50.1172 145.092 50.2422C145.149 50.362 145.248 50.474 145.389 50.5781C145.529 50.6771 145.727 50.7708 145.982 50.8594C146.238 50.9479 146.563 51.0365 146.959 51.125C147.652 51.2812 148.222 51.4688 148.67 51.6875C149.118 51.9062 149.451 52.1745 149.67 52.4922C149.889 52.8099 149.998 53.1953 149.998 53.6484C149.998 54.0182 149.92 54.3568 149.764 54.6641C149.613 54.9714 149.391 55.237 149.1 55.4609C148.813 55.6797 148.469 55.8516 148.068 55.9766C147.673 56.0964 147.227 56.1562 146.732 56.1562C145.988 56.1562 145.357 56.0234 144.842 55.7578C144.326 55.4922 143.936 55.1484 143.67 54.7266C143.404 54.3047 143.271 53.8594 143.271 53.3906H144.725C144.745 53.7865 144.86 54.1016 145.068 54.3359C145.277 54.5651 145.532 54.7292 145.834 54.8281C146.136 54.9219 146.436 54.9688 146.732 54.9688C147.128 54.9688 147.459 54.9167 147.725 54.8125C147.995 54.7083 148.201 54.5651 148.342 54.3828C148.482 54.2005 148.553 53.9922 148.553 53.7578ZM159.248 54.9688C159.592 54.9688 159.91 54.8984 160.201 54.7578C160.493 54.6172 160.732 54.4245 160.92 54.1797C161.107 53.9297 161.214 53.6458 161.24 53.3281H162.615C162.589 53.8281 162.42 54.2943 162.107 54.7266C161.8 55.1536 161.396 55.5 160.896 55.7656C160.396 56.026 159.847 56.1562 159.248 56.1562C158.613 56.1562 158.058 56.0443 157.584 55.8203C157.115 55.5964 156.725 55.2891 156.412 54.8984C156.105 54.5078 155.873 54.0599 155.717 53.5547C155.566 53.0443 155.49 52.5052 155.49 51.9375V51.6094C155.49 51.0417 155.566 50.5052 155.717 50C155.873 49.4896 156.105 49.0391 156.412 48.6484C156.725 48.2578 157.115 47.9505 157.584 47.7266C158.058 47.5026 158.613 47.3906 159.248 47.3906C159.91 47.3906 160.488 47.526 160.982 47.7969C161.477 48.0625 161.865 48.4271 162.146 48.8906C162.433 49.349 162.589 49.8698 162.615 50.4531H161.24C161.214 50.1042 161.115 49.7891 160.943 49.5078C160.777 49.2266 160.548 49.0026 160.256 48.8359C159.969 48.6641 159.633 48.5781 159.248 48.5781C158.805 48.5781 158.433 48.6667 158.131 48.8438C157.834 49.0156 157.597 49.25 157.42 49.5469C157.248 49.8385 157.123 50.1641 157.045 50.5234C156.972 50.8776 156.936 51.2396 156.936 51.6094V51.9375C156.936 52.3073 156.972 52.6719 157.045 53.0312C157.118 53.3906 157.24 53.7161 157.412 54.0078C157.589 54.2995 157.826 54.5339 158.123 54.7109C158.425 54.8828 158.8 54.9688 159.248 54.9688ZM169.225 54.5547V50.2031C169.225 49.8698 169.157 49.5807 169.021 49.3359C168.891 49.0859 168.693 48.8932 168.428 48.7578C168.162 48.6224 167.834 48.5547 167.443 48.5547C167.079 48.5547 166.758 48.6172 166.482 48.7422C166.212 48.8672 165.998 49.0312 165.842 49.2344C165.691 49.4375 165.615 49.6562 165.615 49.8906H164.17C164.17 49.5885 164.248 49.2891 164.404 48.9922C164.561 48.6953 164.785 48.4271 165.076 48.1875C165.373 47.9427 165.727 47.75 166.139 47.6094C166.555 47.4635 167.019 47.3906 167.529 47.3906C168.144 47.3906 168.686 47.4948 169.154 47.7031C169.628 47.9115 169.998 48.2266 170.264 48.6484C170.535 49.0651 170.67 49.5885 170.67 50.2188V54.1562C170.67 54.4375 170.693 54.737 170.74 55.0547C170.792 55.3724 170.868 55.6458 170.967 55.875V56H169.459C169.386 55.8333 169.329 55.612 169.287 55.3359C169.245 55.0547 169.225 54.7943 169.225 54.5547ZM169.475 50.875L169.49 51.8906H168.029C167.618 51.8906 167.251 51.9245 166.928 51.9922C166.605 52.0547 166.334 52.151 166.115 52.2812C165.896 52.4115 165.73 52.5755 165.615 52.7734C165.501 52.9661 165.443 53.1927 165.443 53.4531C165.443 53.7188 165.503 53.9609 165.623 54.1797C165.743 54.3984 165.923 54.5729 166.162 54.7031C166.407 54.8281 166.706 54.8906 167.061 54.8906C167.503 54.8906 167.894 54.7969 168.232 54.6094C168.571 54.4219 168.839 54.1927 169.037 53.9219C169.24 53.651 169.35 53.388 169.365 53.1328L169.982 53.8281C169.946 54.0469 169.847 54.2891 169.686 54.5547C169.524 54.8203 169.308 55.0755 169.037 55.3203C168.771 55.5599 168.454 55.7604 168.084 55.9219C167.719 56.0781 167.308 56.1562 166.85 56.1562C166.277 56.1562 165.774 56.0443 165.342 55.8203C164.915 55.5964 164.581 55.2969 164.342 54.9219C164.107 54.5417 163.99 54.1172 163.99 53.6484C163.99 53.1953 164.079 52.7969 164.256 52.4531C164.433 52.1042 164.688 51.8151 165.021 51.5859C165.355 51.3516 165.756 51.1745 166.225 51.0547C166.693 50.9349 167.217 50.875 167.795 50.875H169.475ZM176.482 47.5469V48.6562H171.912V47.5469H176.482ZM173.459 45.4922H174.904V53.9062C174.904 54.1927 174.949 54.4089 175.037 54.5547C175.126 54.7005 175.24 54.7969 175.381 54.8438C175.521 54.8906 175.673 54.9141 175.834 54.9141C175.954 54.9141 176.079 54.9036 176.209 54.8828C176.344 54.8568 176.446 54.8359 176.514 54.8203L176.521 56C176.407 56.0365 176.256 56.0703 176.068 56.1016C175.886 56.138 175.665 56.1562 175.404 56.1562C175.05 56.1562 174.725 56.0859 174.428 55.9453C174.131 55.8047 173.894 55.5703 173.717 55.2422C173.545 54.9089 173.459 54.4609 173.459 53.8984V45.4922ZM183.162 54.5547V50.2031C183.162 49.8698 183.094 49.5807 182.959 49.3359C182.829 49.0859 182.631 48.8932 182.365 48.7578C182.1 48.6224 181.771 48.5547 181.381 48.5547C181.016 48.5547 180.696 48.6172 180.42 48.7422C180.149 48.8672 179.936 49.0312 179.779 49.2344C179.628 49.4375 179.553 49.6562 179.553 49.8906H178.107C178.107 49.5885 178.186 49.2891 178.342 48.9922C178.498 48.6953 178.722 48.4271 179.014 48.1875C179.311 47.9427 179.665 47.75 180.076 47.6094C180.493 47.4635 180.956 47.3906 181.467 47.3906C182.081 47.3906 182.623 47.4948 183.092 47.7031C183.566 47.9115 183.936 48.2266 184.201 48.6484C184.472 49.0651 184.607 49.5885 184.607 50.2188V54.1562C184.607 54.4375 184.631 54.737 184.678 55.0547C184.73 55.3724 184.805 55.6458 184.904 55.875V56H183.396C183.324 55.8333 183.266 55.612 183.225 55.3359C183.183 55.0547 183.162 54.7943 183.162 54.5547ZM183.412 50.875L183.428 51.8906H181.967C181.555 51.8906 181.188 51.9245 180.865 51.9922C180.542 52.0547 180.271 52.151 180.053 52.2812C179.834 52.4115 179.667 52.5755 179.553 52.7734C179.438 52.9661 179.381 53.1927 179.381 53.4531C179.381 53.7188 179.441 53.9609 179.561 54.1797C179.68 54.3984 179.86 54.5729 180.1 54.7031C180.344 54.8281 180.644 54.8906 180.998 54.8906C181.441 54.8906 181.831 54.7969 182.17 54.6094C182.508 54.4219 182.777 54.1927 182.975 53.9219C183.178 53.651 183.287 53.388 183.303 53.1328L183.92 53.8281C183.883 54.0469 183.785 54.2891 183.623 54.5547C183.462 54.8203 183.245 55.0755 182.975 55.3203C182.709 55.5599 182.391 55.7604 182.021 55.9219C181.657 56.0781 181.245 56.1562 180.787 56.1562C180.214 56.1562 179.712 56.0443 179.279 55.8203C178.852 55.5964 178.519 55.2969 178.279 54.9219C178.045 54.5417 177.928 54.1172 177.928 53.6484C177.928 53.1953 178.016 52.7969 178.193 52.4531C178.37 52.1042 178.626 51.8151 178.959 51.5859C179.292 51.3516 179.693 51.1745 180.162 51.0547C180.631 50.9349 181.154 50.875 181.732 50.875H183.412ZM192.357 47.5469H193.67V55.8203C193.67 56.5651 193.519 57.2005 193.217 57.7266C192.915 58.2526 192.493 58.651 191.951 58.9219C191.415 59.1979 190.795 59.3359 190.092 59.3359C189.8 59.3359 189.456 59.2891 189.061 59.1953C188.67 59.1068 188.285 58.9531 187.904 58.7344C187.529 58.5208 187.214 58.2318 186.959 57.8672L187.717 57.0078C188.071 57.4349 188.441 57.7318 188.826 57.8984C189.217 58.0651 189.602 58.1484 189.982 58.1484C190.441 58.1484 190.837 58.0625 191.17 57.8906C191.503 57.7188 191.761 57.4635 191.943 57.125C192.131 56.7917 192.225 56.3802 192.225 55.8906V49.4062L192.357 47.5469ZM186.537 51.8672V51.7031C186.537 51.0573 186.613 50.4714 186.764 49.9453C186.92 49.4141 187.141 48.9583 187.428 48.5781C187.719 48.1979 188.071 47.9062 188.482 47.7031C188.894 47.4948 189.357 47.3906 189.873 47.3906C190.404 47.3906 190.868 47.4844 191.264 47.6719C191.665 47.8542 192.003 48.1224 192.279 48.4766C192.561 48.8255 192.782 49.2474 192.943 49.7422C193.105 50.237 193.217 50.7969 193.279 51.4219V52.1406C193.222 52.7604 193.11 53.3177 192.943 53.8125C192.782 54.3073 192.561 54.7292 192.279 55.0781C192.003 55.4271 191.665 55.6953 191.264 55.8828C190.863 56.0651 190.394 56.1562 189.857 56.1562C189.352 56.1562 188.894 56.0495 188.482 55.8359C188.076 55.6224 187.727 55.3229 187.436 54.9375C187.144 54.5521 186.92 54.099 186.764 53.5781C186.613 53.0521 186.537 52.4818 186.537 51.8672ZM187.982 51.7031V51.8672C187.982 52.2891 188.024 52.6849 188.107 53.0547C188.196 53.4245 188.329 53.75 188.506 54.0312C188.688 54.3125 188.92 54.5339 189.201 54.6953C189.482 54.8516 189.818 54.9297 190.209 54.9297C190.688 54.9297 191.084 54.8281 191.396 54.625C191.709 54.4219 191.956 54.1536 192.139 53.8203C192.326 53.487 192.472 53.125 192.576 52.7344V50.8516C192.519 50.5651 192.43 50.2891 192.311 50.0234C192.196 49.7526 192.045 49.513 191.857 49.3047C191.675 49.0911 191.449 48.9219 191.178 48.7969C190.907 48.6719 190.589 48.6094 190.225 48.6094C189.829 48.6094 189.488 48.6927 189.201 48.8594C188.92 49.0208 188.688 49.2448 188.506 49.5312C188.329 49.8125 188.196 50.1406 188.107 50.5156C188.024 50.8854 187.982 51.2812 187.982 51.7031ZM195.482 51.8672V51.6875C195.482 51.0781 195.571 50.513 195.748 49.9922C195.925 49.4661 196.18 49.0104 196.514 48.625C196.847 48.2344 197.251 47.9323 197.725 47.7188C198.199 47.5 198.73 47.3906 199.318 47.3906C199.912 47.3906 200.446 47.5 200.92 47.7188C201.399 47.9323 201.805 48.2344 202.139 48.625C202.477 49.0104 202.735 49.4661 202.912 49.9922C203.089 50.513 203.178 51.0781 203.178 51.6875V51.8672C203.178 52.4766 203.089 53.0417 202.912 53.5625C202.735 54.0833 202.477 54.5391 202.139 54.9297C201.805 55.3151 201.402 55.6172 200.928 55.8359C200.459 56.0495 199.928 56.1562 199.334 56.1562C198.74 56.1562 198.206 56.0495 197.732 55.8359C197.258 55.6172 196.852 55.3151 196.514 54.9297C196.18 54.5391 195.925 54.0833 195.748 53.5625C195.571 53.0417 195.482 52.4766 195.482 51.8672ZM196.928 51.6875V51.8672C196.928 52.2891 196.977 52.6875 197.076 53.0625C197.175 53.4323 197.324 53.7604 197.521 54.0469C197.725 54.3333 197.977 54.5599 198.279 54.7266C198.581 54.888 198.933 54.9688 199.334 54.9688C199.73 54.9688 200.076 54.888 200.373 54.7266C200.675 54.5599 200.925 54.3333 201.123 54.0469C201.321 53.7604 201.469 53.4323 201.568 53.0625C201.673 52.6875 201.725 52.2891 201.725 51.8672V51.6875C201.725 51.2708 201.673 50.8776 201.568 50.5078C201.469 50.1328 201.318 49.8021 201.115 49.5156C200.917 49.224 200.667 48.9948 200.365 48.8281C200.068 48.6615 199.719 48.5781 199.318 48.5781C198.923 48.5781 198.574 48.6615 198.271 48.8281C197.975 48.9948 197.725 49.224 197.521 49.5156C197.324 49.8021 197.175 50.1328 197.076 50.5078C196.977 50.8776 196.928 51.2708 196.928 51.6875ZM206.436 48.875V56H204.99V47.5469H206.396L206.436 48.875ZM209.076 47.5L209.068 48.8438C208.949 48.8177 208.834 48.8021 208.725 48.7969C208.62 48.7865 208.501 48.7812 208.365 48.7812C208.032 48.7812 207.738 48.8333 207.482 48.9375C207.227 49.0417 207.011 49.1875 206.834 49.375C206.657 49.5625 206.516 49.7865 206.412 50.0469C206.313 50.3021 206.248 50.5833 206.217 50.8906L205.811 51.125C205.811 50.6146 205.86 50.1354 205.959 49.6875C206.063 49.2396 206.222 48.8438 206.436 48.5C206.649 48.151 206.92 47.8802 207.248 47.6875C207.581 47.4896 207.977 47.3906 208.436 47.3906C208.54 47.3906 208.66 47.4036 208.795 47.4297C208.93 47.4505 209.024 47.474 209.076 47.5ZM211.982 47.5469V56H210.529V47.5469H211.982ZM210.42 45.3047C210.42 45.0703 210.49 44.8724 210.631 44.7109C210.777 44.5495 210.99 44.4688 211.271 44.4688C211.548 44.4688 211.758 44.5495 211.904 44.7109C212.055 44.8724 212.131 45.0703 212.131 45.3047C212.131 45.5286 212.055 45.7214 211.904 45.8828C211.758 46.0391 211.548 46.1172 211.271 46.1172C210.99 46.1172 210.777 46.0391 210.631 45.8828C210.49 45.7214 210.42 45.5286 210.42 45.3047ZM217.811 56.1562C217.222 56.1562 216.688 56.0573 216.209 55.8594C215.735 55.6562 215.326 55.3724 214.982 55.0078C214.644 54.6432 214.383 54.2109 214.201 53.7109C214.019 53.2109 213.928 52.6641 213.928 52.0703V51.7422C213.928 51.0547 214.029 50.4427 214.232 49.9062C214.436 49.3646 214.712 48.9062 215.061 48.5312C215.41 48.1562 215.805 47.8724 216.248 47.6797C216.691 47.487 217.149 47.3906 217.623 47.3906C218.227 47.3906 218.748 47.4948 219.186 47.7031C219.628 47.9115 219.99 48.2031 220.271 48.5781C220.553 48.9479 220.761 49.3854 220.896 49.8906C221.032 50.3906 221.1 50.9375 221.1 51.5312V52.1797H214.787V51H219.654V50.8906C219.633 50.5156 219.555 50.151 219.42 49.7969C219.29 49.4427 219.081 49.151 218.795 48.9219C218.508 48.6927 218.118 48.5781 217.623 48.5781C217.295 48.5781 216.993 48.6484 216.717 48.7891C216.441 48.9245 216.204 49.1276 216.006 49.3984C215.808 49.6693 215.654 50 215.545 50.3906C215.436 50.7812 215.381 51.2318 215.381 51.7422V52.0703C215.381 52.4714 215.436 52.849 215.545 53.2031C215.66 53.5521 215.824 53.8594 216.037 54.125C216.256 54.3906 216.519 54.599 216.826 54.75C217.139 54.901 217.493 54.9766 217.889 54.9766C218.399 54.9766 218.831 54.8724 219.186 54.6641C219.54 54.4557 219.85 54.1771 220.115 53.8281L220.99 54.5234C220.808 54.7995 220.576 55.0625 220.295 55.3125C220.014 55.5625 219.667 55.7656 219.256 55.9219C218.85 56.0781 218.368 56.1562 217.811 56.1562ZM227.709 53.7578C227.709 53.5495 227.662 53.3568 227.568 53.1797C227.48 52.9974 227.295 52.8333 227.014 52.6875C226.738 52.5365 226.321 52.4062 225.764 52.2969C225.295 52.1979 224.87 52.0807 224.49 51.9453C224.115 51.8099 223.795 51.6458 223.529 51.4531C223.269 51.2604 223.068 51.0339 222.928 50.7734C222.787 50.513 222.717 50.2083 222.717 49.8594C222.717 49.526 222.79 49.2109 222.936 48.9141C223.087 48.6172 223.298 48.3542 223.568 48.125C223.844 47.8958 224.175 47.7161 224.561 47.5859C224.946 47.4557 225.376 47.3906 225.85 47.3906C226.527 47.3906 227.105 47.5104 227.584 47.75C228.063 47.9896 228.43 48.3099 228.686 48.7109C228.941 49.1068 229.068 49.5469 229.068 50.0312H227.623C227.623 49.7969 227.553 49.5703 227.412 49.3516C227.277 49.1276 227.076 48.9427 226.811 48.7969C226.55 48.651 226.23 48.5781 225.85 48.5781C225.449 48.5781 225.123 48.6406 224.873 48.7656C224.628 48.8854 224.449 49.0391 224.334 49.2266C224.225 49.4141 224.17 49.612 224.17 49.8203C224.17 49.9766 224.196 50.1172 224.248 50.2422C224.305 50.362 224.404 50.474 224.545 50.5781C224.686 50.6771 224.883 50.7708 225.139 50.8594C225.394 50.9479 225.719 51.0365 226.115 51.125C226.808 51.2812 227.378 51.4688 227.826 51.6875C228.274 51.9062 228.607 52.1745 228.826 52.4922C229.045 52.8099 229.154 53.1953 229.154 53.6484C229.154 54.0182 229.076 54.3568 228.92 54.6641C228.769 54.9714 228.548 55.237 228.256 55.4609C227.969 55.6797 227.626 55.8516 227.225 55.9766C226.829 56.0964 226.383 56.1562 225.889 56.1562C225.144 56.1562 224.514 56.0234 223.998 55.7578C223.482 55.4922 223.092 55.1484 222.826 54.7266C222.561 54.3047 222.428 53.8594 222.428 53.3906H223.881C223.902 53.7865 224.016 54.1016 224.225 54.3359C224.433 54.5651 224.688 54.7292 224.99 54.8281C225.292 54.9219 225.592 54.9688 225.889 54.9688C226.285 54.9688 226.615 54.9167 226.881 54.8125C227.152 54.7083 227.357 54.5651 227.498 54.3828C227.639 54.2005 227.709 53.9922 227.709 53.7578ZM68.2324 68.1719V78.25H66.7793V66.5469H68.1074L68.2324 68.1719ZM73.9277 70.7031V70.8672C73.9277 71.4818 73.8548 72.0521 73.709 72.5781C73.5632 73.099 73.3496 73.5521 73.0684 73.9375C72.7923 74.3229 72.4512 74.6224 72.0449 74.8359C71.6387 75.0495 71.1725 75.1562 70.6465 75.1562C70.11 75.1562 69.6361 75.0677 69.2246 74.8906C68.8132 74.7135 68.4642 74.4557 68.1777 74.1172C67.8913 73.7786 67.6621 73.3724 67.4902 72.8984C67.3236 72.4245 67.209 71.8906 67.1465 71.2969V70.4219C67.209 69.7969 67.3262 69.237 67.498 68.7422C67.6699 68.2474 67.8965 67.8255 68.1777 67.4766C68.4642 67.1224 68.8105 66.8542 69.2168 66.6719C69.623 66.4844 70.0918 66.3906 70.623 66.3906C71.1543 66.3906 71.6257 66.4948 72.0371 66.7031C72.4486 66.9062 72.7949 67.1979 73.0762 67.5781C73.3574 67.9583 73.5684 68.4141 73.709 68.9453C73.8548 69.4714 73.9277 70.0573 73.9277 70.7031ZM72.4746 70.8672V70.7031C72.4746 70.2812 72.4303 69.8854 72.3418 69.5156C72.2533 69.1406 72.1152 68.8125 71.9277 68.5312C71.7454 68.2448 71.5111 68.0208 71.2246 67.8594C70.9382 67.6927 70.597 67.6094 70.2012 67.6094C69.8366 67.6094 69.5189 67.6719 69.248 67.7969C68.9824 67.9219 68.7559 68.0911 68.5684 68.3047C68.3809 68.513 68.2272 68.7526 68.1074 69.0234C67.9928 69.2891 67.9069 69.5651 67.8496 69.8516V71.875C67.9538 72.2396 68.0996 72.5833 68.2871 72.9062C68.4746 73.224 68.7246 73.4818 69.0371 73.6797C69.3496 73.8724 69.7428 73.9688 70.2168 73.9688C70.6074 73.9688 70.9434 73.888 71.2246 73.7266C71.5111 73.5599 71.7454 73.3333 71.9277 73.0469C72.1152 72.7604 72.2533 72.4323 72.3418 72.0625C72.4303 71.6875 72.4746 71.2891 72.4746 70.8672ZM77.2168 67.875V75H75.7715V66.5469H77.1777L77.2168 67.875ZM79.8574 66.5L79.8496 67.8438C79.7298 67.8177 79.6152 67.8021 79.5059 67.7969C79.4017 67.7865 79.2819 67.7812 79.1465 67.7812C78.8132 67.7812 78.5189 67.8333 78.2637 67.9375C78.0085 68.0417 77.7923 68.1875 77.6152 68.375C77.4382 68.5625 77.2975 68.7865 77.1934 69.0469C77.0944 69.3021 77.0293 69.5833 76.998 69.8906L76.5918 70.125C76.5918 69.6146 76.6413 69.1354 76.7402 68.6875C76.8444 68.2396 77.0033 67.8438 77.2168 67.5C77.4303 67.151 77.7012 66.8802 78.0293 66.6875C78.3626 66.4896 78.7585 66.3906 79.2168 66.3906C79.321 66.3906 79.4408 66.4036 79.5762 66.4297C79.7116 66.4505 79.8053 66.474 79.8574 66.5ZM80.6543 70.8672V70.6875C80.6543 70.0781 80.7428 69.513 80.9199 68.9922C81.097 68.4661 81.3522 68.0104 81.6855 67.625C82.0189 67.2344 82.4225 66.9323 82.8965 66.7188C83.3704 66.5 83.9017 66.3906 84.4902 66.3906C85.084 66.3906 85.6178 66.5 86.0918 66.7188C86.571 66.9323 86.9772 67.2344 87.3105 67.625C87.6491 68.0104 87.9069 68.4661 88.084 68.9922C88.2611 69.513 88.3496 70.0781 88.3496 70.6875V70.8672C88.3496 71.4766 88.2611 72.0417 88.084 72.5625C87.9069 73.0833 87.6491 73.5391 87.3105 73.9297C86.9772 74.3151 86.5736 74.6172 86.0996 74.8359C85.6309 75.0495 85.0996 75.1562 84.5059 75.1562C83.9121 75.1562 83.3783 75.0495 82.9043 74.8359C82.4303 74.6172 82.0241 74.3151 81.6855 73.9297C81.3522 73.5391 81.097 73.0833 80.9199 72.5625C80.7428 72.0417 80.6543 71.4766 80.6543 70.8672ZM82.0996 70.6875V70.8672C82.0996 71.2891 82.1491 71.6875 82.248 72.0625C82.347 72.4323 82.4954 72.7604 82.6934 73.0469C82.8965 73.3333 83.1491 73.5599 83.4512 73.7266C83.7533 73.888 84.1048 73.9688 84.5059 73.9688C84.9017 73.9688 85.248 73.888 85.5449 73.7266C85.847 73.5599 86.097 73.3333 86.2949 73.0469C86.4928 72.7604 86.6413 72.4323 86.7402 72.0625C86.8444 71.6875 86.8965 71.2891 86.8965 70.8672V70.6875C86.8965 70.2708 86.8444 69.8776 86.7402 69.5078C86.6413 69.1328 86.4902 68.8021 86.2871 68.5156C86.0892 68.224 85.8392 67.9948 85.5371 67.8281C85.2402 67.6615 84.8913 67.5781 84.4902 67.5781C84.0944 67.5781 83.7454 67.6615 83.4434 67.8281C83.1465 67.9948 82.8965 68.224 82.6934 68.5156C82.4954 68.8021 82.347 69.1328 82.248 69.5078C82.1491 69.8776 82.0996 70.2708 82.0996 70.6875ZM92.6074 73.6953L94.9199 66.5469H96.3965L93.3574 75H92.3887L92.6074 73.6953ZM90.6777 66.5469L93.0605 73.7344L93.2246 75H92.2559L89.1934 66.5469H90.6777ZM99.3574 66.5469V75H97.9043V66.5469H99.3574ZM97.7949 64.3047C97.7949 64.0703 97.8652 63.8724 98.0059 63.7109C98.1517 63.5495 98.3652 63.4688 98.6465 63.4688C98.9225 63.4688 99.1335 63.5495 99.2793 63.7109C99.4303 63.8724 99.5059 64.0703 99.5059 64.3047C99.5059 64.5286 99.4303 64.7214 99.2793 64.8828C99.1335 65.0391 98.9225 65.1172 98.6465 65.1172C98.3652 65.1172 98.1517 65.0391 98.0059 64.8828C97.8652 64.7214 97.7949 64.5286 97.7949 64.3047ZM107.006 73.3594V63H108.459V75H107.131L107.006 73.3594ZM101.318 70.8672V70.7031C101.318 70.0573 101.396 69.4714 101.553 68.9453C101.714 68.4141 101.941 67.9583 102.232 67.5781C102.529 67.1979 102.881 66.9062 103.287 66.7031C103.699 66.4948 104.157 66.3906 104.662 66.3906C105.193 66.3906 105.657 66.4844 106.053 66.6719C106.454 66.8542 106.792 67.1224 107.068 67.4766C107.35 67.8255 107.571 68.2474 107.732 68.7422C107.894 69.237 108.006 69.7969 108.068 70.4219V71.1406C108.011 71.7604 107.899 72.3177 107.732 72.8125C107.571 73.3073 107.35 73.7292 107.068 74.0781C106.792 74.4271 106.454 74.6953 106.053 74.8828C105.652 75.0651 105.183 75.1562 104.646 75.1562C104.152 75.1562 103.699 75.0495 103.287 74.8359C102.881 74.6224 102.529 74.3229 102.232 73.9375C101.941 73.5521 101.714 73.099 101.553 72.5781C101.396 72.0521 101.318 71.4818 101.318 70.8672ZM102.771 70.7031V70.8672C102.771 71.2891 102.813 71.6849 102.896 72.0547C102.985 72.4245 103.12 72.75 103.303 73.0312C103.485 73.3125 103.717 73.5339 103.998 73.6953C104.279 73.8516 104.615 73.9297 105.006 73.9297C105.485 73.9297 105.878 73.8281 106.186 73.625C106.498 73.4219 106.748 73.1536 106.936 72.8203C107.123 72.487 107.269 72.125 107.373 71.7344V69.8516C107.311 69.5651 107.219 69.2891 107.1 69.0234C106.985 68.7526 106.834 68.513 106.646 68.3047C106.464 68.0911 106.238 67.9219 105.967 67.7969C105.701 67.6719 105.386 67.6094 105.021 67.6094C104.626 67.6094 104.285 67.6927 103.998 67.8594C103.717 68.0208 103.485 68.2448 103.303 68.5312C103.12 68.8125 102.985 69.1406 102.896 69.5156C102.813 69.8854 102.771 70.2812 102.771 70.7031ZM114.217 75.1562C113.628 75.1562 113.094 75.0573 112.615 74.8594C112.141 74.6562 111.732 74.3724 111.389 74.0078C111.05 73.6432 110.79 73.2109 110.607 72.7109C110.425 72.2109 110.334 71.6641 110.334 71.0703V70.7422C110.334 70.0547 110.436 69.4427 110.639 68.9062C110.842 68.3646 111.118 67.9062 111.467 67.5312C111.816 67.1562 112.212 66.8724 112.654 66.6797C113.097 66.487 113.555 66.3906 114.029 66.3906C114.633 66.3906 115.154 66.4948 115.592 66.7031C116.035 66.9115 116.396 67.2031 116.678 67.5781C116.959 67.9479 117.167 68.3854 117.303 68.8906C117.438 69.3906 117.506 69.9375 117.506 70.5312V71.1797H111.193V70H116.061V69.8906C116.04 69.5156 115.962 69.151 115.826 68.7969C115.696 68.4427 115.488 68.151 115.201 67.9219C114.915 67.6927 114.524 67.5781 114.029 67.5781C113.701 67.5781 113.399 67.6484 113.123 67.7891C112.847 67.9245 112.61 68.1276 112.412 68.3984C112.214 68.6693 112.061 69 111.951 69.3906C111.842 69.7812 111.787 70.2318 111.787 70.7422V71.0703C111.787 71.4714 111.842 71.849 111.951 72.2031C112.066 72.5521 112.23 72.8594 112.443 73.125C112.662 73.3906 112.925 73.599 113.232 73.75C113.545 73.901 113.899 73.9766 114.295 73.9766C114.805 73.9766 115.238 73.8724 115.592 73.6641C115.946 73.4557 116.256 73.1771 116.521 72.8281L117.396 73.5234C117.214 73.7995 116.982 74.0625 116.701 74.3125C116.42 74.5625 116.074 74.7656 115.662 74.9219C115.256 75.0781 114.774 75.1562 114.217 75.1562ZM124.521 73.3594V63H125.975V75H124.646L124.521 73.3594ZM118.834 70.8672V70.7031C118.834 70.0573 118.912 69.4714 119.068 68.9453C119.23 68.4141 119.456 67.9583 119.748 67.5781C120.045 67.1979 120.396 66.9062 120.803 66.7031C121.214 66.4948 121.673 66.3906 122.178 66.3906C122.709 66.3906 123.173 66.4844 123.568 66.6719C123.969 66.8542 124.308 67.1224 124.584 67.4766C124.865 67.8255 125.087 68.2474 125.248 68.7422C125.41 69.237 125.521 69.7969 125.584 70.4219V71.1406C125.527 71.7604 125.415 72.3177 125.248 72.8125C125.087 73.3073 124.865 73.7292 124.584 74.0781C124.308 74.4271 123.969 74.6953 123.568 74.8828C123.167 75.0651 122.699 75.1562 122.162 75.1562C121.667 75.1562 121.214 75.0495 120.803 74.8359C120.396 74.6224 120.045 74.3229 119.748 73.9375C119.456 73.5521 119.23 73.099 119.068 72.5781C118.912 72.0521 118.834 71.4818 118.834 70.8672ZM120.287 70.7031V70.8672C120.287 71.2891 120.329 71.6849 120.412 72.0547C120.501 72.4245 120.636 72.75 120.818 73.0312C121.001 73.3125 121.232 73.5339 121.514 73.6953C121.795 73.8516 122.131 73.9297 122.521 73.9297C123.001 73.9297 123.394 73.8281 123.701 73.625C124.014 73.4219 124.264 73.1536 124.451 72.8203C124.639 72.487 124.785 72.125 124.889 71.7344V69.8516C124.826 69.5651 124.735 69.2891 124.615 69.0234C124.501 68.7526 124.35 68.513 124.162 68.3047C123.98 68.0911 123.753 67.9219 123.482 67.7969C123.217 67.6719 122.902 67.6094 122.537 67.6094C122.141 67.6094 121.8 67.6927 121.514 67.8594C121.232 68.0208 121.001 68.2448 120.818 68.5312C120.636 68.8125 120.501 69.1406 120.412 69.5156C120.329 69.8854 120.287 70.2812 120.287 70.7031Z" fill="black"/>
<rect x="80.5176" y="101" width="168.451" height="52" rx="8" fill="#272727"/>
<rect x="80.5176" y="101" width="168.451" height="52" rx="8" fill="black" fill-opacity="0.2"/>
<path d="M133.815 128.783H136.735C136.677 129.74 136.413 130.59 135.944 131.332C135.482 132.074 134.834 132.654 134.001 133.07C133.174 133.487 132.178 133.695 131.013 133.695C130.101 133.695 129.284 133.539 128.562 133.227C127.839 132.908 127.22 132.452 126.706 131.859C126.198 131.267 125.811 130.551 125.544 129.711C125.277 128.871 125.144 127.93 125.144 126.889V125.902C125.144 124.861 125.28 123.92 125.554 123.08C125.834 122.234 126.231 121.514 126.745 120.922C127.266 120.329 127.888 119.874 128.61 119.555C129.333 119.236 130.14 119.076 131.032 119.076C132.217 119.076 133.216 119.291 134.03 119.721C134.851 120.15 135.485 120.743 135.935 121.498C136.39 122.253 136.664 123.113 136.755 124.076H133.825C133.793 123.503 133.679 123.018 133.483 122.621C133.288 122.217 132.992 121.915 132.595 121.713C132.204 121.505 131.683 121.4 131.032 121.4C130.544 121.4 130.118 121.492 129.753 121.674C129.388 121.856 129.082 122.133 128.835 122.504C128.588 122.875 128.402 123.344 128.278 123.91C128.161 124.47 128.103 125.128 128.103 125.883V126.889C128.103 127.624 128.158 128.272 128.269 128.832C128.379 129.385 128.549 129.854 128.776 130.238C129.011 130.616 129.31 130.902 129.675 131.098C130.046 131.286 130.492 131.381 131.013 131.381C131.625 131.381 132.129 131.283 132.526 131.088C132.924 130.893 133.226 130.603 133.435 130.219C133.649 129.835 133.776 129.356 133.815 128.783ZM138.034 128.324V128.119C138.034 127.344 138.145 126.632 138.366 125.98C138.588 125.323 138.91 124.753 139.333 124.271C139.756 123.79 140.277 123.415 140.896 123.148C141.514 122.875 142.224 122.738 143.024 122.738C143.825 122.738 144.538 122.875 145.163 123.148C145.788 123.415 146.312 123.79 146.735 124.271C147.165 124.753 147.491 125.323 147.712 125.98C147.933 126.632 148.044 127.344 148.044 128.119V128.324C148.044 129.092 147.933 129.805 147.712 130.463C147.491 131.114 147.165 131.684 146.735 132.172C146.312 132.654 145.791 133.028 145.173 133.295C144.554 133.562 143.845 133.695 143.044 133.695C142.243 133.695 141.53 133.562 140.905 133.295C140.287 133.028 139.763 132.654 139.333 132.172C138.91 131.684 138.588 131.114 138.366 130.463C138.145 129.805 138.034 129.092 138.034 128.324ZM140.847 128.119V128.324C140.847 128.767 140.886 129.18 140.964 129.564C141.042 129.949 141.166 130.287 141.335 130.58C141.511 130.867 141.739 131.091 142.019 131.254C142.299 131.417 142.64 131.498 143.044 131.498C143.435 131.498 143.77 131.417 144.05 131.254C144.33 131.091 144.554 130.867 144.724 130.58C144.893 130.287 145.017 129.949 145.095 129.564C145.179 129.18 145.222 128.767 145.222 128.324V128.119C145.222 127.689 145.179 127.286 145.095 126.908C145.017 126.524 144.89 126.186 144.714 125.893C144.545 125.593 144.32 125.359 144.04 125.189C143.76 125.02 143.422 124.936 143.024 124.936C142.627 124.936 142.289 125.02 142.009 125.189C141.735 125.359 141.511 125.593 141.335 125.893C141.166 126.186 141.042 126.524 140.964 126.908C140.886 127.286 140.847 127.689 140.847 128.119ZM152.526 125.189V133.5H149.714V122.934H152.351L152.526 125.189ZM152.116 127.846H151.354C151.354 127.064 151.455 126.361 151.657 125.736C151.859 125.105 152.142 124.568 152.507 124.125C152.871 123.676 153.304 123.334 153.806 123.1C154.313 122.859 154.88 122.738 155.505 122.738C156 122.738 156.452 122.81 156.862 122.953C157.272 123.096 157.624 123.324 157.917 123.637C158.216 123.949 158.444 124.363 158.601 124.877C158.763 125.391 158.845 126.02 158.845 126.762V133.5H156.013V126.752C156.013 126.283 155.948 125.919 155.817 125.658C155.687 125.398 155.495 125.215 155.241 125.111C154.994 125.001 154.688 124.945 154.323 124.945C153.946 124.945 153.617 125.02 153.337 125.17C153.063 125.32 152.836 125.528 152.653 125.795C152.478 126.055 152.344 126.361 152.253 126.713C152.162 127.064 152.116 127.442 152.116 127.846ZM166.159 122.934V124.926H160.007V122.934H166.159ZM161.53 120.326H164.343V130.316C164.343 130.622 164.382 130.857 164.46 131.02C164.545 131.182 164.668 131.296 164.831 131.361C164.994 131.42 165.199 131.449 165.446 131.449C165.622 131.449 165.778 131.443 165.915 131.43C166.058 131.41 166.179 131.391 166.276 131.371L166.286 133.441C166.045 133.52 165.785 133.581 165.505 133.627C165.225 133.673 164.916 133.695 164.577 133.695C163.959 133.695 163.418 133.594 162.956 133.393C162.5 133.184 162.149 132.852 161.901 132.396C161.654 131.941 161.53 131.342 161.53 130.6V120.326ZM170.729 122.934V133.5H167.907V122.934H170.729ZM167.731 120.18C167.731 119.77 167.875 119.431 168.161 119.164C168.448 118.897 168.832 118.764 169.313 118.764C169.789 118.764 170.17 118.897 170.456 119.164C170.749 119.431 170.896 119.77 170.896 120.18C170.896 120.59 170.749 120.928 170.456 121.195C170.17 121.462 169.789 121.596 169.313 121.596C168.832 121.596 168.448 121.462 168.161 121.195C167.875 120.928 167.731 120.59 167.731 120.18ZM175.808 125.189V133.5H172.995V122.934H175.632L175.808 125.189ZM175.397 127.846H174.636C174.636 127.064 174.737 126.361 174.938 125.736C175.14 125.105 175.424 124.568 175.788 124.125C176.153 123.676 176.586 123.334 177.087 123.1C177.595 122.859 178.161 122.738 178.786 122.738C179.281 122.738 179.733 122.81 180.144 122.953C180.554 123.096 180.905 123.324 181.198 123.637C181.498 123.949 181.726 124.363 181.882 124.877C182.045 125.391 182.126 126.02 182.126 126.762V133.5H179.294V126.752C179.294 126.283 179.229 125.919 179.099 125.658C178.968 125.398 178.776 125.215 178.522 125.111C178.275 125.001 177.969 124.945 177.604 124.945C177.227 124.945 176.898 125.02 176.618 125.17C176.345 125.32 176.117 125.528 175.935 125.795C175.759 126.055 175.625 126.361 175.534 126.713C175.443 127.064 175.397 127.442 175.397 127.846ZM190.515 130.971V122.934H193.327V133.5H190.681L190.515 130.971ZM190.827 128.803L191.657 128.783C191.657 129.486 191.576 130.141 191.413 130.746C191.25 131.345 191.006 131.866 190.681 132.309C190.355 132.745 189.945 133.087 189.45 133.334C188.955 133.575 188.373 133.695 187.702 133.695C187.188 133.695 186.713 133.624 186.276 133.48C185.847 133.331 185.476 133.1 185.163 132.787C184.857 132.468 184.616 132.061 184.44 131.566C184.271 131.065 184.187 130.463 184.187 129.76V122.934H186.999V129.779C186.999 130.092 187.035 130.355 187.106 130.57C187.185 130.785 187.292 130.961 187.429 131.098C187.565 131.234 187.725 131.332 187.907 131.391C188.096 131.449 188.304 131.479 188.532 131.479C189.112 131.479 189.567 131.361 189.899 131.127C190.238 130.893 190.476 130.574 190.612 130.17C190.756 129.76 190.827 129.304 190.827 128.803ZM200.339 133.695C199.519 133.695 198.783 133.565 198.132 133.305C197.481 133.038 196.927 132.67 196.472 132.201C196.022 131.732 195.677 131.189 195.437 130.57C195.196 129.945 195.075 129.281 195.075 128.578V128.188C195.075 127.387 195.189 126.654 195.417 125.99C195.645 125.326 195.97 124.75 196.394 124.262C196.823 123.773 197.344 123.399 197.956 123.139C198.568 122.872 199.258 122.738 200.026 122.738C200.775 122.738 201.439 122.862 202.019 123.109C202.598 123.357 203.083 123.708 203.474 124.164C203.871 124.62 204.17 125.167 204.372 125.805C204.574 126.436 204.675 127.139 204.675 127.914V129.086H196.276V127.211H201.911V126.996C201.911 126.605 201.84 126.257 201.696 125.951C201.56 125.639 201.351 125.391 201.071 125.209C200.791 125.027 200.433 124.936 199.997 124.936C199.626 124.936 199.307 125.017 199.04 125.18C198.773 125.342 198.555 125.57 198.386 125.863C198.223 126.156 198.099 126.501 198.015 126.898C197.937 127.289 197.897 127.719 197.897 128.188V128.578C197.897 129.001 197.956 129.392 198.073 129.75C198.197 130.108 198.369 130.417 198.591 130.678C198.819 130.938 199.092 131.14 199.411 131.283C199.737 131.426 200.104 131.498 200.515 131.498C201.022 131.498 201.494 131.4 201.931 131.205C202.373 131.003 202.754 130.701 203.073 130.297L204.44 131.781C204.219 132.1 203.916 132.406 203.532 132.699C203.155 132.992 202.699 133.233 202.165 133.422C201.631 133.604 201.022 133.695 200.339 133.695Z" fill="white"/>
</g>
<defs>
<filter id="filter0_d_32_34604" x="2.14355" y="0" width="304.856" height="176" filterUnits="userSpaceOnUse" color-interpolation-filters="sRGB">
<feFlood flood-opacity="0" result="BackgroundImageFix"/>
<feColorMatrix in="SourceAlpha" type="matrix" values="0 0 0 0 0 0 0 0 0 0 0 0 0 0 0 0 0 0 127 0" result="hardAlpha"/>
<feOffset dy="4"/>
<feGaussianBlur stdDeviation="2"/>
<feComposite in2="hardAlpha" operator="out"/>
<feColorMatrix type="matrix" values="0 0 0 0 0 0 0 0 0 0 0 0 0 0 0 0 0 0 0.25 0"/>
<feBlend mode="normal" in2="BackgroundImageFix" result="effect1_dropShadow_32_34604"/>
<feBlend mode="normal" in="SourceGraphic" in2="effect1_dropShadow_32_34604" result="shape"/>
</filter>
</defs>
</svg>
