<svg width="1204" height="701" viewBox="0 0 1204 701" fill="none" xmlns="http://www.w3.org/2000/svg">
<rect width="1204" height="700" rx="32" fill="#E6E6E6"/>
<path d="M0 32C0 14.3269 14.3269 0 32 0H592V701H32C14.3269 701 0 686.673 0 669V32Z" fill="#272727"/>
<path d="M0 32C0 14.3269 14.3269 0 32 0H592V701H32C14.3269 701 0 686.673 0 669V32Z" fill="black" fill-opacity="0.2"/>
<path d="M1162 46L1138 70" stroke="#272727" stroke-width="3" stroke-linecap="round" stroke-linejoin="round"/>
<path d="M1162 46L1138 70" stroke="black" stroke-opacity="0.2" stroke-width="3" stroke-linecap="round" stroke-linejoin="round"/>
<path d="M1138 46L1162 70" stroke="#272727" stroke-width="3" stroke-linecap="round" stroke-linejoin="round"/>
<path d="M1138 46L1162 70" stroke="black" stroke-opacity="0.2" stroke-width="3" stroke-linecap="round" stroke-linejoin="round"/>
<path d="M709.979 295.303C709.979 294.846 709.908 294.436 709.768 294.072C709.639 293.697 709.393 293.357 709.029 293.053C708.666 292.736 708.156 292.426 707.5 292.121C706.844 291.816 705.994 291.5 704.951 291.172C703.791 290.797 702.689 290.375 701.646 289.906C700.615 289.438 699.701 288.893 698.904 288.271C698.119 287.639 697.498 286.906 697.041 286.074C696.596 285.242 696.373 284.275 696.373 283.174C696.373 282.107 696.607 281.141 697.076 280.273C697.545 279.395 698.201 278.645 699.045 278.023C699.889 277.391 700.885 276.904 702.033 276.564C703.193 276.225 704.465 276.055 705.848 276.055C707.734 276.055 709.381 276.395 710.787 277.074C712.193 277.754 713.283 278.686 714.057 279.869C714.842 281.053 715.234 282.406 715.234 283.93H709.996C709.996 283.18 709.838 282.523 709.521 281.961C709.217 281.387 708.748 280.936 708.115 280.607C707.494 280.279 706.709 280.115 705.76 280.115C704.846 280.115 704.084 280.256 703.475 280.537C702.865 280.807 702.408 281.176 702.104 281.645C701.799 282.102 701.646 282.617 701.646 283.191C701.646 283.625 701.752 284.018 701.963 284.369C702.186 284.721 702.514 285.049 702.947 285.354C703.381 285.658 703.914 285.945 704.547 286.215C705.18 286.484 705.912 286.748 706.744 287.006C708.139 287.428 709.363 287.902 710.418 288.43C711.484 288.957 712.375 289.549 713.09 290.205C713.805 290.861 714.344 291.605 714.707 292.438C715.07 293.27 715.252 294.213 715.252 295.268C715.252 296.381 715.035 297.377 714.602 298.256C714.168 299.135 713.541 299.879 712.721 300.488C711.9 301.098 710.922 301.561 709.785 301.877C708.648 302.193 707.377 302.352 705.971 302.352C704.705 302.352 703.457 302.188 702.227 301.859C700.996 301.52 699.877 301.01 698.869 300.33C697.873 299.65 697.076 298.783 696.479 297.729C695.881 296.674 695.582 295.426 695.582 293.984H700.873C700.873 294.781 700.996 295.455 701.242 296.006C701.488 296.557 701.834 297.002 702.279 297.342C702.736 297.682 703.275 297.928 703.896 298.08C704.529 298.232 705.221 298.309 705.971 298.309C706.885 298.309 707.635 298.18 708.221 297.922C708.818 297.664 709.258 297.307 709.539 296.85C709.832 296.393 709.979 295.877 709.979 295.303ZM727.275 302.352C725.799 302.352 724.475 302.117 723.303 301.648C722.131 301.168 721.135 300.506 720.314 299.662C719.506 298.818 718.885 297.84 718.451 296.727C718.018 295.602 717.801 294.406 717.801 293.141V292.438C717.801 290.996 718.006 289.678 718.416 288.482C718.826 287.287 719.412 286.25 720.174 285.371C720.947 284.492 721.885 283.818 722.986 283.35C724.088 282.869 725.33 282.629 726.713 282.629C728.061 282.629 729.256 282.852 730.299 283.297C731.342 283.742 732.215 284.375 732.918 285.195C733.633 286.016 734.172 287 734.535 288.148C734.898 289.285 735.08 290.551 735.08 291.945V294.055H719.963V290.68H730.105V290.293C730.105 289.59 729.977 288.963 729.719 288.412C729.473 287.85 729.098 287.404 728.594 287.076C728.09 286.748 727.445 286.584 726.66 286.584C725.992 286.584 725.418 286.73 724.938 287.023C724.457 287.316 724.064 287.727 723.76 288.254C723.467 288.781 723.244 289.402 723.092 290.117C722.951 290.82 722.881 291.594 722.881 292.438V293.141C722.881 293.902 722.986 294.605 723.197 295.25C723.42 295.895 723.73 296.451 724.129 296.92C724.539 297.389 725.031 297.752 725.605 298.01C726.191 298.268 726.854 298.396 727.592 298.396C728.506 298.396 729.355 298.221 730.141 297.869C730.938 297.506 731.623 296.961 732.197 296.234L734.658 298.906C734.26 299.48 733.715 300.031 733.023 300.559C732.344 301.086 731.523 301.52 730.562 301.859C729.602 302.188 728.506 302.352 727.275 302.352ZM746.717 302.352C745.24 302.352 743.916 302.117 742.744 301.648C741.572 301.168 740.576 300.506 739.756 299.662C738.947 298.818 738.326 297.84 737.893 296.727C737.459 295.602 737.242 294.406 737.242 293.141V292.438C737.242 290.996 737.447 289.678 737.857 288.482C738.268 287.287 738.854 286.25 739.615 285.371C740.389 284.492 741.326 283.818 742.428 283.35C743.529 282.869 744.771 282.629 746.154 282.629C747.502 282.629 748.697 282.852 749.74 283.297C750.783 283.742 751.656 284.375 752.359 285.195C753.074 286.016 753.613 287 753.977 288.148C754.34 289.285 754.521 290.551 754.521 291.945V294.055H739.404V290.68H749.547V290.293C749.547 289.59 749.418 288.963 749.16 288.412C748.914 287.85 748.539 287.404 748.035 287.076C747.531 286.748 746.887 286.584 746.102 286.584C745.434 286.584 744.859 286.73 744.379 287.023C743.898 287.316 743.506 287.727 743.201 288.254C742.908 288.781 742.686 289.402 742.533 290.117C742.393 290.82 742.322 291.594 742.322 292.438V293.141C742.322 293.902 742.428 294.605 742.639 295.25C742.861 295.895 743.172 296.451 743.57 296.92C743.98 297.389 744.473 297.752 745.047 298.01C745.633 298.268 746.295 298.396 747.033 298.396C747.947 298.396 748.797 298.221 749.582 297.869C750.379 297.506 751.064 296.961 751.639 296.234L754.1 298.906C753.701 299.48 753.156 300.031 752.465 300.559C751.785 301.086 750.965 301.52 750.004 301.859C749.043 302.188 747.947 302.352 746.717 302.352ZM771.801 297.078L775.756 282.98H778.973L777.936 288.518L773.98 302H771.291L771.801 297.078ZM769.797 282.98L772.627 297.061L772.891 302H769.727L764.91 282.98H769.797ZM782.594 296.832L785.354 282.98H790.258L785.441 302H782.295L782.594 296.832ZM779.412 282.98L783.35 296.973L783.895 302H781.188L777.232 288.535L776.23 282.98H779.412ZM797.746 275V302H792.684V275H797.746ZM797.025 291.822H795.637C795.648 290.498 795.824 289.279 796.164 288.166C796.504 287.041 796.99 286.068 797.623 285.248C798.256 284.416 799.012 283.771 799.891 283.314C800.781 282.857 801.766 282.629 802.844 282.629C803.781 282.629 804.631 282.764 805.393 283.033C806.166 283.291 806.828 283.713 807.379 284.299C807.941 284.873 808.375 285.629 808.68 286.566C808.984 287.504 809.137 288.641 809.137 289.977V302H804.039V289.941C804.039 289.098 803.916 288.436 803.67 287.955C803.436 287.463 803.09 287.117 802.633 286.918C802.188 286.707 801.637 286.602 800.98 286.602C800.254 286.602 799.633 286.736 799.117 287.006C798.613 287.275 798.209 287.65 797.904 288.131C797.6 288.6 797.377 289.15 797.236 289.783C797.096 290.416 797.025 291.096 797.025 291.822ZM821.74 302.352C820.264 302.352 818.939 302.117 817.768 301.648C816.596 301.168 815.6 300.506 814.779 299.662C813.971 298.818 813.35 297.84 812.916 296.727C812.482 295.602 812.266 294.406 812.266 293.141V292.438C812.266 290.996 812.471 289.678 812.881 288.482C813.291 287.287 813.877 286.25 814.639 285.371C815.412 284.492 816.35 283.818 817.451 283.35C818.553 282.869 819.795 282.629 821.178 282.629C822.525 282.629 823.721 282.852 824.764 283.297C825.807 283.742 826.68 284.375 827.383 285.195C828.098 286.016 828.637 287 829 288.148C829.363 289.285 829.545 290.551 829.545 291.945V294.055H814.428V290.68H824.57V290.293C824.57 289.59 824.441 288.963 824.184 288.412C823.938 287.85 823.562 287.404 823.059 287.076C822.555 286.748 821.91 286.584 821.125 286.584C820.457 286.584 819.883 286.73 819.402 287.023C818.922 287.316 818.529 287.727 818.225 288.254C817.932 288.781 817.709 289.402 817.557 290.117C817.416 290.82 817.346 291.594 817.346 292.438V293.141C817.346 293.902 817.451 294.605 817.662 295.25C817.885 295.895 818.195 296.451 818.594 296.92C819.004 297.389 819.496 297.752 820.07 298.01C820.656 298.268 821.318 298.396 822.057 298.396C822.971 298.396 823.82 298.221 824.605 297.869C825.402 297.506 826.088 296.961 826.662 296.234L829.123 298.906C828.725 299.48 828.18 300.031 827.488 300.559C826.809 301.086 825.988 301.52 825.027 301.859C824.066 302.188 822.971 302.352 821.74 302.352ZM837.49 287.129V302H832.428V282.98H837.191L837.49 287.129ZM843.221 282.857L843.133 287.551C842.887 287.516 842.588 287.486 842.236 287.463C841.896 287.428 841.586 287.41 841.305 287.41C840.59 287.41 839.969 287.504 839.441 287.691C838.926 287.867 838.492 288.131 838.141 288.482C837.801 288.834 837.543 289.262 837.367 289.766C837.203 290.27 837.109 290.844 837.086 291.488L836.066 291.172C836.066 289.941 836.189 288.811 836.436 287.779C836.682 286.736 837.039 285.828 837.508 285.055C837.988 284.281 838.574 283.684 839.266 283.262C839.957 282.84 840.748 282.629 841.639 282.629C841.92 282.629 842.207 282.652 842.5 282.699C842.793 282.734 843.033 282.787 843.221 282.857ZM854.014 302.352C852.537 302.352 851.213 302.117 850.041 301.648C848.869 301.168 847.873 300.506 847.053 299.662C846.244 298.818 845.623 297.84 845.189 296.727C844.756 295.602 844.539 294.406 844.539 293.141V292.438C844.539 290.996 844.744 289.678 845.154 288.482C845.564 287.287 846.15 286.25 846.912 285.371C847.686 284.492 848.623 283.818 849.725 283.35C850.826 282.869 852.068 282.629 853.451 282.629C854.799 282.629 855.994 282.852 857.037 283.297C858.08 283.742 858.953 284.375 859.656 285.195C860.371 286.016 860.91 287 861.273 288.148C861.637 289.285 861.818 290.551 861.818 291.945V294.055H846.701V290.68H856.844V290.293C856.844 289.59 856.715 288.963 856.457 288.412C856.211 287.85 855.836 287.404 855.332 287.076C854.828 286.748 854.184 286.584 853.398 286.584C852.73 286.584 852.156 286.73 851.676 287.023C851.195 287.316 850.803 287.727 850.498 288.254C850.205 288.781 849.982 289.402 849.83 290.117C849.689 290.82 849.619 291.594 849.619 292.438V293.141C849.619 293.902 849.725 294.605 849.936 295.25C850.158 295.895 850.469 296.451 850.867 296.92C851.277 297.389 851.77 297.752 852.344 298.01C852.93 298.268 853.592 298.396 854.33 298.396C855.244 298.396 856.094 298.221 856.879 297.869C857.676 297.506 858.361 296.961 858.936 296.234L861.396 298.906C860.998 299.48 860.453 300.031 859.762 300.559C859.082 301.086 858.262 301.52 857.301 301.859C856.34 302.188 855.244 302.352 854.014 302.352ZM879.309 299.855L884.354 282.98H889.785L882.139 304.865C881.975 305.346 881.752 305.861 881.471 306.412C881.201 306.963 880.832 307.484 880.363 307.977C879.906 308.48 879.326 308.891 878.623 309.207C877.932 309.523 877.082 309.682 876.074 309.682C875.594 309.682 875.201 309.652 874.896 309.594C874.592 309.535 874.229 309.453 873.807 309.348V305.639C873.936 305.639 874.07 305.639 874.211 305.639C874.352 305.65 874.486 305.656 874.615 305.656C875.283 305.656 875.828 305.58 876.25 305.428C876.672 305.275 877.012 305.041 877.27 304.725C877.527 304.42 877.732 304.021 877.885 303.529L879.309 299.855ZM877.199 282.98L881.33 296.762L882.051 302.123L878.605 302.492L871.768 282.98H877.199ZM890.717 292.684V292.314C890.717 290.92 890.916 289.637 891.314 288.465C891.713 287.281 892.293 286.256 893.055 285.389C893.816 284.521 894.754 283.848 895.867 283.367C896.98 282.875 898.258 282.629 899.699 282.629C901.141 282.629 902.424 282.875 903.549 283.367C904.674 283.848 905.617 284.521 906.379 285.389C907.152 286.256 907.738 287.281 908.137 288.465C908.535 289.637 908.734 290.92 908.734 292.314V292.684C908.734 294.066 908.535 295.35 908.137 296.533C907.738 297.705 907.152 298.73 906.379 299.609C905.617 300.477 904.68 301.15 903.566 301.631C902.453 302.111 901.176 302.352 899.734 302.352C898.293 302.352 897.01 302.111 895.885 301.631C894.771 301.15 893.828 300.477 893.055 299.609C892.293 298.73 891.713 297.705 891.314 296.533C890.916 295.35 890.717 294.066 890.717 292.684ZM895.779 292.314V292.684C895.779 293.48 895.85 294.225 895.99 294.916C896.131 295.607 896.354 296.217 896.658 296.744C896.975 297.26 897.385 297.664 897.889 297.957C898.393 298.25 899.008 298.396 899.734 298.396C900.438 298.396 901.041 298.25 901.545 297.957C902.049 297.664 902.453 297.26 902.758 296.744C903.062 296.217 903.285 295.607 903.426 294.916C903.578 294.225 903.654 293.48 903.654 292.684V292.314C903.654 291.541 903.578 290.814 903.426 290.135C903.285 289.443 903.057 288.834 902.74 288.307C902.436 287.768 902.031 287.346 901.527 287.041C901.023 286.736 900.414 286.584 899.699 286.584C898.984 286.584 898.375 286.736 897.871 287.041C897.379 287.346 896.975 287.768 896.658 288.307C896.354 288.834 896.131 289.443 895.99 290.135C895.85 290.814 895.779 291.541 895.779 292.314ZM923.096 297.447V282.98H928.158V302H923.395L923.096 297.447ZM923.658 293.545L925.152 293.51C925.152 294.775 925.006 295.953 924.713 297.043C924.42 298.121 923.98 299.059 923.395 299.855C922.809 300.641 922.07 301.256 921.18 301.701C920.289 302.135 919.24 302.352 918.033 302.352C917.107 302.352 916.252 302.223 915.467 301.965C914.693 301.695 914.025 301.279 913.463 300.717C912.912 300.143 912.479 299.41 912.162 298.52C911.857 297.617 911.705 296.533 911.705 295.268V282.98H916.768V295.303C916.768 295.865 916.832 296.34 916.961 296.727C917.102 297.113 917.295 297.43 917.541 297.676C917.787 297.922 918.074 298.098 918.402 298.203C918.742 298.309 919.117 298.361 919.527 298.361C920.57 298.361 921.391 298.15 921.988 297.729C922.598 297.307 923.025 296.732 923.271 296.006C923.529 295.268 923.658 294.447 923.658 293.545ZM946.334 275V302H941.254V275H946.334ZM960.783 297.711V289.238C960.783 288.629 960.684 288.107 960.484 287.674C960.285 287.229 959.975 286.883 959.553 286.637C959.143 286.391 958.609 286.268 957.953 286.268C957.391 286.268 956.904 286.367 956.494 286.566C956.084 286.754 955.768 287.029 955.545 287.393C955.322 287.744 955.211 288.16 955.211 288.641H950.148C950.148 287.832 950.336 287.064 950.711 286.338C951.086 285.611 951.631 284.973 952.346 284.422C953.061 283.859 953.91 283.42 954.895 283.104C955.891 282.787 957.004 282.629 958.234 282.629C959.711 282.629 961.023 282.875 962.172 283.367C963.32 283.859 964.223 284.598 964.879 285.582C965.547 286.566 965.881 287.797 965.881 289.273V297.412C965.881 298.455 965.945 299.311 966.074 299.979C966.203 300.635 966.391 301.209 966.637 301.701V302H961.521C961.275 301.484 961.088 300.84 960.959 300.066C960.842 299.281 960.783 298.496 960.783 297.711ZM961.451 290.416L961.486 293.281H958.656C957.988 293.281 957.408 293.357 956.916 293.51C956.424 293.662 956.02 293.879 955.703 294.16C955.387 294.43 955.152 294.746 955 295.109C954.859 295.473 954.789 295.871 954.789 296.305C954.789 296.738 954.889 297.131 955.088 297.482C955.287 297.822 955.574 298.092 955.949 298.291C956.324 298.479 956.764 298.572 957.268 298.572C958.029 298.572 958.691 298.42 959.254 298.115C959.816 297.811 960.25 297.436 960.555 296.99C960.871 296.545 961.035 296.123 961.047 295.725L962.383 297.869C962.195 298.35 961.938 298.848 961.609 299.363C961.293 299.879 960.889 300.365 960.396 300.822C959.904 301.268 959.312 301.637 958.621 301.93C957.93 302.211 957.109 302.352 956.16 302.352C954.953 302.352 953.857 302.111 952.873 301.631C951.9 301.139 951.127 300.465 950.553 299.609C949.99 298.742 949.709 297.758 949.709 296.656C949.709 295.66 949.896 294.775 950.271 294.002C950.646 293.229 951.197 292.578 951.924 292.051C952.662 291.512 953.582 291.107 954.684 290.838C955.785 290.557 957.062 290.416 958.516 290.416H961.451ZM980.066 296.744C980.066 296.381 979.961 296.053 979.75 295.76C979.539 295.467 979.146 295.197 978.572 294.951C978.01 294.693 977.195 294.459 976.129 294.248C975.168 294.037 974.271 293.773 973.439 293.457C972.619 293.129 971.904 292.736 971.295 292.279C970.697 291.822 970.229 291.283 969.889 290.662C969.549 290.029 969.379 289.309 969.379 288.5C969.379 287.703 969.549 286.953 969.889 286.25C970.24 285.547 970.738 284.926 971.383 284.387C972.039 283.836 972.836 283.408 973.773 283.104C974.723 282.787 975.789 282.629 976.973 282.629C978.625 282.629 980.043 282.893 981.227 283.42C982.422 283.947 983.336 284.674 983.969 285.6C984.613 286.514 984.936 287.557 984.936 288.729H979.873C979.873 288.236 979.768 287.797 979.557 287.41C979.357 287.012 979.041 286.701 978.607 286.479C978.186 286.244 977.635 286.127 976.955 286.127C976.393 286.127 975.906 286.227 975.496 286.426C975.086 286.613 974.77 286.871 974.547 287.199C974.336 287.516 974.23 287.867 974.23 288.254C974.23 288.547 974.289 288.811 974.406 289.045C974.535 289.268 974.74 289.473 975.021 289.66C975.303 289.848 975.666 290.023 976.111 290.188C976.568 290.34 977.131 290.48 977.799 290.609C979.17 290.891 980.395 291.26 981.473 291.717C982.551 292.162 983.406 292.771 984.039 293.545C984.672 294.307 984.988 295.309 984.988 296.551C984.988 297.395 984.801 298.168 984.426 298.871C984.051 299.574 983.512 300.189 982.809 300.717C982.105 301.232 981.262 301.637 980.277 301.93C979.305 302.211 978.209 302.352 976.99 302.352C975.221 302.352 973.721 302.035 972.49 301.402C971.271 300.77 970.346 299.967 969.713 298.994C969.092 298.01 968.781 297.002 968.781 295.971H973.58C973.604 296.662 973.779 297.219 974.107 297.641C974.447 298.062 974.875 298.367 975.391 298.555C975.918 298.742 976.486 298.836 977.096 298.836C977.752 298.836 978.297 298.748 978.73 298.572C979.164 298.385 979.492 298.139 979.715 297.834C979.949 297.518 980.066 297.154 980.066 296.744ZM997.592 282.98V286.566H986.518V282.98H997.592ZM989.26 278.287H994.322V296.27C994.322 296.82 994.393 297.242 994.533 297.535C994.686 297.828 994.908 298.033 995.201 298.15C995.494 298.256 995.863 298.309 996.309 298.309C996.625 298.309 996.906 298.297 997.152 298.273C997.41 298.238 997.627 298.203 997.803 298.168L997.82 301.895C997.387 302.035 996.918 302.146 996.414 302.229C995.91 302.311 995.354 302.352 994.744 302.352C993.631 302.352 992.658 302.17 991.826 301.807C991.006 301.432 990.373 300.834 989.928 300.014C989.482 299.193 989.26 298.115 989.26 296.779V278.287ZM1014.78 275V302H1009.7V275H1014.78ZM1027.72 302.352C1026.24 302.352 1024.92 302.117 1023.75 301.648C1022.58 301.168 1021.58 300.506 1020.76 299.662C1019.95 298.818 1019.33 297.84 1018.9 296.727C1018.46 295.602 1018.25 294.406 1018.25 293.141V292.438C1018.25 290.996 1018.45 289.678 1018.86 288.482C1019.27 287.287 1019.86 286.25 1020.62 285.371C1021.39 284.492 1022.33 283.818 1023.43 283.35C1024.53 282.869 1025.78 282.629 1027.16 282.629C1028.51 282.629 1029.7 282.852 1030.74 283.297C1031.79 283.742 1032.66 284.375 1033.36 285.195C1034.08 286.016 1034.62 287 1034.98 288.148C1035.34 289.285 1035.53 290.551 1035.53 291.945V294.055H1020.41V290.68H1030.55V290.293C1030.55 289.59 1030.42 288.963 1030.16 288.412C1029.92 287.85 1029.54 287.404 1029.04 287.076C1028.54 286.748 1027.89 286.584 1027.11 286.584C1026.44 286.584 1025.86 286.73 1025.38 287.023C1024.9 287.316 1024.51 287.727 1024.21 288.254C1023.91 288.781 1023.69 289.402 1023.54 290.117C1023.4 290.82 1023.33 291.594 1023.33 292.438V293.141C1023.33 293.902 1023.43 294.605 1023.64 295.25C1023.87 295.895 1024.18 296.451 1024.57 296.92C1024.98 297.389 1025.48 297.752 1026.05 298.01C1026.64 298.268 1027.3 298.396 1028.04 298.396C1028.95 298.396 1029.8 298.221 1030.59 297.869C1031.38 297.506 1032.07 296.961 1032.64 296.234L1035.1 298.906C1034.71 299.48 1034.16 300.031 1033.47 300.559C1032.79 301.086 1031.97 301.52 1031.01 301.859C1030.05 302.188 1028.95 302.352 1027.72 302.352ZM1044.86 302H1039.76V281.293C1039.76 279.852 1040.04 278.639 1040.61 277.654C1041.18 276.658 1041.98 275.908 1043.01 275.404C1044.06 274.889 1045.29 274.631 1046.72 274.631C1047.19 274.631 1047.64 274.666 1048.08 274.736C1048.51 274.795 1048.93 274.871 1049.34 274.965L1049.29 278.779C1049.07 278.721 1048.83 278.68 1048.59 278.656C1048.34 278.633 1048.05 278.621 1047.72 278.621C1047.12 278.621 1046.59 278.727 1046.16 278.938C1045.74 279.137 1045.42 279.436 1045.19 279.834C1044.97 280.232 1044.86 280.719 1044.86 281.293V302ZM1048.66 282.98V286.566H1036.93V282.98H1048.66ZM1060.63 282.98V286.566H1049.55V282.98H1060.63ZM1052.29 278.287H1057.36V296.27C1057.36 296.82 1057.43 297.242 1057.57 297.535C1057.72 297.828 1057.94 298.033 1058.24 298.15C1058.53 298.256 1058.9 298.309 1059.34 298.309C1059.66 298.309 1059.94 298.297 1060.19 298.273C1060.45 298.238 1060.66 298.203 1060.84 298.168L1060.86 301.895C1060.42 302.035 1059.95 302.146 1059.45 302.229C1058.95 302.311 1058.39 302.352 1057.78 302.352C1056.67 302.352 1055.69 302.17 1054.86 301.807C1054.04 301.432 1053.41 300.834 1052.96 300.014C1052.52 299.193 1052.29 298.115 1052.29 296.779V278.287ZM1071.67 292.684V292.314C1071.67 290.92 1071.87 289.637 1072.26 288.465C1072.66 287.281 1073.24 286.256 1074 285.389C1074.77 284.521 1075.7 283.848 1076.82 283.367C1077.93 282.875 1079.21 282.629 1080.65 282.629C1082.09 282.629 1083.37 282.875 1084.5 283.367C1085.62 283.848 1086.57 284.521 1087.33 285.389C1088.1 286.256 1088.69 287.281 1089.09 288.465C1089.48 289.637 1089.68 290.92 1089.68 292.314V292.684C1089.68 294.066 1089.48 295.35 1089.09 296.533C1088.69 297.705 1088.1 298.73 1087.33 299.609C1086.57 300.477 1085.63 301.15 1084.52 301.631C1083.4 302.111 1082.12 302.352 1080.68 302.352C1079.24 302.352 1077.96 302.111 1076.83 301.631C1075.72 301.15 1074.78 300.477 1074 299.609C1073.24 298.73 1072.66 297.705 1072.26 296.533C1071.87 295.35 1071.67 294.066 1071.67 292.684ZM1076.73 292.314V292.684C1076.73 293.48 1076.8 294.225 1076.94 294.916C1077.08 295.607 1077.3 296.217 1077.61 296.744C1077.92 297.26 1078.33 297.664 1078.84 297.957C1079.34 298.25 1079.96 298.396 1080.68 298.396C1081.39 298.396 1081.99 298.25 1082.49 297.957C1083 297.664 1083.4 297.26 1083.71 296.744C1084.01 296.217 1084.23 295.607 1084.38 294.916C1084.53 294.225 1084.6 293.48 1084.6 292.684V292.314C1084.6 291.541 1084.53 290.814 1084.38 290.135C1084.23 289.443 1084.01 288.834 1083.69 288.307C1083.38 287.768 1082.98 287.346 1082.48 287.041C1081.97 286.736 1081.36 286.584 1080.65 286.584C1079.93 286.584 1079.32 286.736 1078.82 287.041C1078.33 287.346 1077.92 287.768 1077.61 288.307C1077.3 288.834 1077.08 289.443 1076.94 290.135C1076.8 290.814 1076.73 291.541 1076.73 292.314ZM1099.25 302H1094.15V281.293C1094.15 279.852 1094.43 278.639 1094.99 277.654C1095.57 276.658 1096.37 275.908 1097.4 275.404C1098.44 274.889 1099.68 274.631 1101.11 274.631C1101.58 274.631 1102.03 274.666 1102.46 274.736C1102.9 274.795 1103.32 274.871 1103.73 274.965L1103.68 278.779C1103.45 278.721 1103.22 278.68 1102.97 278.656C1102.73 278.633 1102.44 278.621 1102.11 278.621C1101.5 278.621 1100.98 278.727 1100.55 278.938C1100.12 279.137 1099.8 279.436 1099.58 279.834C1099.36 280.232 1099.25 280.719 1099.25 281.293V302ZM1103.04 282.98V286.566H1091.32V282.98H1103.04ZM1112.15 302H1107.05V281.293C1107.05 279.852 1107.33 278.639 1107.89 277.654C1108.47 276.658 1109.27 275.908 1110.3 275.404C1111.35 274.889 1112.58 274.631 1114.01 274.631C1114.48 274.631 1114.93 274.666 1115.37 274.736C1115.8 274.795 1116.22 274.871 1116.63 274.965L1116.58 278.779C1116.36 278.721 1116.12 278.68 1115.88 278.656C1115.63 278.633 1115.34 278.621 1115.01 278.621C1114.4 278.621 1113.88 278.727 1113.45 278.938C1113.03 279.137 1112.71 279.436 1112.48 279.834C1112.26 280.232 1112.15 280.719 1112.15 281.293V302ZM1115.95 282.98V286.566H1104.22V282.98H1115.95Z" fill="#272727"/>
<path d="M709.979 295.303C709.979 294.846 709.908 294.436 709.768 294.072C709.639 293.697 709.393 293.357 709.029 293.053C708.666 292.736 708.156 292.426 707.5 292.121C706.844 291.816 705.994 291.5 704.951 291.172C703.791 290.797 702.689 290.375 701.646 289.906C700.615 289.438 699.701 288.893 698.904 288.271C698.119 287.639 697.498 286.906 697.041 286.074C696.596 285.242 696.373 284.275 696.373 283.174C696.373 282.107 696.607 281.141 697.076 280.273C697.545 279.395 698.201 278.645 699.045 278.023C699.889 277.391 700.885 276.904 702.033 276.564C703.193 276.225 704.465 276.055 705.848 276.055C707.734 276.055 709.381 276.395 710.787 277.074C712.193 277.754 713.283 278.686 714.057 279.869C714.842 281.053 715.234 282.406 715.234 283.93H709.996C709.996 283.18 709.838 282.523 709.521 281.961C709.217 281.387 708.748 280.936 708.115 280.607C707.494 280.279 706.709 280.115 705.76 280.115C704.846 280.115 704.084 280.256 703.475 280.537C702.865 280.807 702.408 281.176 702.104 281.645C701.799 282.102 701.646 282.617 701.646 283.191C701.646 283.625 701.752 284.018 701.963 284.369C702.186 284.721 702.514 285.049 702.947 285.354C703.381 285.658 703.914 285.945 704.547 286.215C705.18 286.484 705.912 286.748 706.744 287.006C708.139 287.428 709.363 287.902 710.418 288.43C711.484 288.957 712.375 289.549 713.09 290.205C713.805 290.861 714.344 291.605 714.707 292.438C715.07 293.27 715.252 294.213 715.252 295.268C715.252 296.381 715.035 297.377 714.602 298.256C714.168 299.135 713.541 299.879 712.721 300.488C711.9 301.098 710.922 301.561 709.785 301.877C708.648 302.193 707.377 302.352 705.971 302.352C704.705 302.352 703.457 302.188 702.227 301.859C700.996 301.52 699.877 301.01 698.869 300.33C697.873 299.65 697.076 298.783 696.479 297.729C695.881 296.674 695.582 295.426 695.582 293.984H700.873C700.873 294.781 700.996 295.455 701.242 296.006C701.488 296.557 701.834 297.002 702.279 297.342C702.736 297.682 703.275 297.928 703.896 298.08C704.529 298.232 705.221 298.309 705.971 298.309C706.885 298.309 707.635 298.18 708.221 297.922C708.818 297.664 709.258 297.307 709.539 296.85C709.832 296.393 709.979 295.877 709.979 295.303ZM727.275 302.352C725.799 302.352 724.475 302.117 723.303 301.648C722.131 301.168 721.135 300.506 720.314 299.662C719.506 298.818 718.885 297.84 718.451 296.727C718.018 295.602 717.801 294.406 717.801 293.141V292.438C717.801 290.996 718.006 289.678 718.416 288.482C718.826 287.287 719.412 286.25 720.174 285.371C720.947 284.492 721.885 283.818 722.986 283.35C724.088 282.869 725.33 282.629 726.713 282.629C728.061 282.629 729.256 282.852 730.299 283.297C731.342 283.742 732.215 284.375 732.918 285.195C733.633 286.016 734.172 287 734.535 288.148C734.898 289.285 735.08 290.551 735.08 291.945V294.055H719.963V290.68H730.105V290.293C730.105 289.59 729.977 288.963 729.719 288.412C729.473 287.85 729.098 287.404 728.594 287.076C728.09 286.748 727.445 286.584 726.66 286.584C725.992 286.584 725.418 286.73 724.938 287.023C724.457 287.316 724.064 287.727 723.76 288.254C723.467 288.781 723.244 289.402 723.092 290.117C722.951 290.82 722.881 291.594 722.881 292.438V293.141C722.881 293.902 722.986 294.605 723.197 295.25C723.42 295.895 723.73 296.451 724.129 296.92C724.539 297.389 725.031 297.752 725.605 298.01C726.191 298.268 726.854 298.396 727.592 298.396C728.506 298.396 729.355 298.221 730.141 297.869C730.938 297.506 731.623 296.961 732.197 296.234L734.658 298.906C734.26 299.48 733.715 300.031 733.023 300.559C732.344 301.086 731.523 301.52 730.562 301.859C729.602 302.188 728.506 302.352 727.275 302.352ZM746.717 302.352C745.24 302.352 743.916 302.117 742.744 301.648C741.572 301.168 740.576 300.506 739.756 299.662C738.947 298.818 738.326 297.84 737.893 296.727C737.459 295.602 737.242 294.406 737.242 293.141V292.438C737.242 290.996 737.447 289.678 737.857 288.482C738.268 287.287 738.854 286.25 739.615 285.371C740.389 284.492 741.326 283.818 742.428 283.35C743.529 282.869 744.771 282.629 746.154 282.629C747.502 282.629 748.697 282.852 749.74 283.297C750.783 283.742 751.656 284.375 752.359 285.195C753.074 286.016 753.613 287 753.977 288.148C754.34 289.285 754.521 290.551 754.521 291.945V294.055H739.404V290.68H749.547V290.293C749.547 289.59 749.418 288.963 749.16 288.412C748.914 287.85 748.539 287.404 748.035 287.076C747.531 286.748 746.887 286.584 746.102 286.584C745.434 286.584 744.859 286.73 744.379 287.023C743.898 287.316 743.506 287.727 743.201 288.254C742.908 288.781 742.686 289.402 742.533 290.117C742.393 290.82 742.322 291.594 742.322 292.438V293.141C742.322 293.902 742.428 294.605 742.639 295.25C742.861 295.895 743.172 296.451 743.57 296.92C743.98 297.389 744.473 297.752 745.047 298.01C745.633 298.268 746.295 298.396 747.033 298.396C747.947 298.396 748.797 298.221 749.582 297.869C750.379 297.506 751.064 296.961 751.639 296.234L754.1 298.906C753.701 299.48 753.156 300.031 752.465 300.559C751.785 301.086 750.965 301.52 750.004 301.859C749.043 302.188 747.947 302.352 746.717 302.352ZM771.801 297.078L775.756 282.98H778.973L777.936 288.518L773.98 302H771.291L771.801 297.078ZM769.797 282.98L772.627 297.061L772.891 302H769.727L764.91 282.98H769.797ZM782.594 296.832L785.354 282.98H790.258L785.441 302H782.295L782.594 296.832ZM779.412 282.98L783.35 296.973L783.895 302H781.188L777.232 288.535L776.23 282.98H779.412ZM797.746 275V302H792.684V275H797.746ZM797.025 291.822H795.637C795.648 290.498 795.824 289.279 796.164 288.166C796.504 287.041 796.99 286.068 797.623 285.248C798.256 284.416 799.012 283.771 799.891 283.314C800.781 282.857 801.766 282.629 802.844 282.629C803.781 282.629 804.631 282.764 805.393 283.033C806.166 283.291 806.828 283.713 807.379 284.299C807.941 284.873 808.375 285.629 808.68 286.566C808.984 287.504 809.137 288.641 809.137 289.977V302H804.039V289.941C804.039 289.098 803.916 288.436 803.67 287.955C803.436 287.463 803.09 287.117 802.633 286.918C802.188 286.707 801.637 286.602 800.98 286.602C800.254 286.602 799.633 286.736 799.117 287.006C798.613 287.275 798.209 287.65 797.904 288.131C797.6 288.6 797.377 289.15 797.236 289.783C797.096 290.416 797.025 291.096 797.025 291.822ZM821.74 302.352C820.264 302.352 818.939 302.117 817.768 301.648C816.596 301.168 815.6 300.506 814.779 299.662C813.971 298.818 813.35 297.84 812.916 296.727C812.482 295.602 812.266 294.406 812.266 293.141V292.438C812.266 290.996 812.471 289.678 812.881 288.482C813.291 287.287 813.877 286.25 814.639 285.371C815.412 284.492 816.35 283.818 817.451 283.35C818.553 282.869 819.795 282.629 821.178 282.629C822.525 282.629 823.721 282.852 824.764 283.297C825.807 283.742 826.68 284.375 827.383 285.195C828.098 286.016 828.637 287 829 288.148C829.363 289.285 829.545 290.551 829.545 291.945V294.055H814.428V290.68H824.57V290.293C824.57 289.59 824.441 288.963 824.184 288.412C823.938 287.85 823.562 287.404 823.059 287.076C822.555 286.748 821.91 286.584 821.125 286.584C820.457 286.584 819.883 286.73 819.402 287.023C818.922 287.316 818.529 287.727 818.225 288.254C817.932 288.781 817.709 289.402 817.557 290.117C817.416 290.82 817.346 291.594 817.346 292.438V293.141C817.346 293.902 817.451 294.605 817.662 295.25C817.885 295.895 818.195 296.451 818.594 296.92C819.004 297.389 819.496 297.752 820.07 298.01C820.656 298.268 821.318 298.396 822.057 298.396C822.971 298.396 823.82 298.221 824.605 297.869C825.402 297.506 826.088 296.961 826.662 296.234L829.123 298.906C828.725 299.48 828.18 300.031 827.488 300.559C826.809 301.086 825.988 301.52 825.027 301.859C824.066 302.188 822.971 302.352 821.74 302.352ZM837.49 287.129V302H832.428V282.98H837.191L837.49 287.129ZM843.221 282.857L843.133 287.551C842.887 287.516 842.588 287.486 842.236 287.463C841.896 287.428 841.586 287.41 841.305 287.41C840.59 287.41 839.969 287.504 839.441 287.691C838.926 287.867 838.492 288.131 838.141 288.482C837.801 288.834 837.543 289.262 837.367 289.766C837.203 290.27 837.109 290.844 837.086 291.488L836.066 291.172C836.066 289.941 836.189 288.811 836.436 287.779C836.682 286.736 837.039 285.828 837.508 285.055C837.988 284.281 838.574 283.684 839.266 283.262C839.957 282.84 840.748 282.629 841.639 282.629C841.92 282.629 842.207 282.652 842.5 282.699C842.793 282.734 843.033 282.787 843.221 282.857ZM854.014 302.352C852.537 302.352 851.213 302.117 850.041 301.648C848.869 301.168 847.873 300.506 847.053 299.662C846.244 298.818 845.623 297.84 845.189 296.727C844.756 295.602 844.539 294.406 844.539 293.141V292.438C844.539 290.996 844.744 289.678 845.154 288.482C845.564 287.287 846.15 286.25 846.912 285.371C847.686 284.492 848.623 283.818 849.725 283.35C850.826 282.869 852.068 282.629 853.451 282.629C854.799 282.629 855.994 282.852 857.037 283.297C858.08 283.742 858.953 284.375 859.656 285.195C860.371 286.016 860.91 287 861.273 288.148C861.637 289.285 861.818 290.551 861.818 291.945V294.055H846.701V290.68H856.844V290.293C856.844 289.59 856.715 288.963 856.457 288.412C856.211 287.85 855.836 287.404 855.332 287.076C854.828 286.748 854.184 286.584 853.398 286.584C852.73 286.584 852.156 286.73 851.676 287.023C851.195 287.316 850.803 287.727 850.498 288.254C850.205 288.781 849.982 289.402 849.83 290.117C849.689 290.82 849.619 291.594 849.619 292.438V293.141C849.619 293.902 849.725 294.605 849.936 295.25C850.158 295.895 850.469 296.451 850.867 296.92C851.277 297.389 851.77 297.752 852.344 298.01C852.93 298.268 853.592 298.396 854.33 298.396C855.244 298.396 856.094 298.221 856.879 297.869C857.676 297.506 858.361 296.961 858.936 296.234L861.396 298.906C860.998 299.48 860.453 300.031 859.762 300.559C859.082 301.086 858.262 301.52 857.301 301.859C856.34 302.188 855.244 302.352 854.014 302.352ZM879.309 299.855L884.354 282.98H889.785L882.139 304.865C881.975 305.346 881.752 305.861 881.471 306.412C881.201 306.963 880.832 307.484 880.363 307.977C879.906 308.48 879.326 308.891 878.623 309.207C877.932 309.523 877.082 309.682 876.074 309.682C875.594 309.682 875.201 309.652 874.896 309.594C874.592 309.535 874.229 309.453 873.807 309.348V305.639C873.936 305.639 874.07 305.639 874.211 305.639C874.352 305.65 874.486 305.656 874.615 305.656C875.283 305.656 875.828 305.58 876.25 305.428C876.672 305.275 877.012 305.041 877.27 304.725C877.527 304.42 877.732 304.021 877.885 303.529L879.309 299.855ZM877.199 282.98L881.33 296.762L882.051 302.123L878.605 302.492L871.768 282.98H877.199ZM890.717 292.684V292.314C890.717 290.92 890.916 289.637 891.314 288.465C891.713 287.281 892.293 286.256 893.055 285.389C893.816 284.521 894.754 283.848 895.867 283.367C896.98 282.875 898.258 282.629 899.699 282.629C901.141 282.629 902.424 282.875 903.549 283.367C904.674 283.848 905.617 284.521 906.379 285.389C907.152 286.256 907.738 287.281 908.137 288.465C908.535 289.637 908.734 290.92 908.734 292.314V292.684C908.734 294.066 908.535 295.35 908.137 296.533C907.738 297.705 907.152 298.73 906.379 299.609C905.617 300.477 904.68 301.15 903.566 301.631C902.453 302.111 901.176 302.352 899.734 302.352C898.293 302.352 897.01 302.111 895.885 301.631C894.771 301.15 893.828 300.477 893.055 299.609C892.293 298.73 891.713 297.705 891.314 296.533C890.916 295.35 890.717 294.066 890.717 292.684ZM895.779 292.314V292.684C895.779 293.48 895.85 294.225 895.99 294.916C896.131 295.607 896.354 296.217 896.658 296.744C896.975 297.26 897.385 297.664 897.889 297.957C898.393 298.25 899.008 298.396 899.734 298.396C900.438 298.396 901.041 298.25 901.545 297.957C902.049 297.664 902.453 297.26 902.758 296.744C903.062 296.217 903.285 295.607 903.426 294.916C903.578 294.225 903.654 293.48 903.654 292.684V292.314C903.654 291.541 903.578 290.814 903.426 290.135C903.285 289.443 903.057 288.834 902.74 288.307C902.436 287.768 902.031 287.346 901.527 287.041C901.023 286.736 900.414 286.584 899.699 286.584C898.984 286.584 898.375 286.736 897.871 287.041C897.379 287.346 896.975 287.768 896.658 288.307C896.354 288.834 896.131 289.443 895.99 290.135C895.85 290.814 895.779 291.541 895.779 292.314ZM923.096 297.447V282.98H928.158V302H923.395L923.096 297.447ZM923.658 293.545L925.152 293.51C925.152 294.775 925.006 295.953 924.713 297.043C924.42 298.121 923.98 299.059 923.395 299.855C922.809 300.641 922.07 301.256 921.18 301.701C920.289 302.135 919.24 302.352 918.033 302.352C917.107 302.352 916.252 302.223 915.467 301.965C914.693 301.695 914.025 301.279 913.463 300.717C912.912 300.143 912.479 299.41 912.162 298.52C911.857 297.617 911.705 296.533 911.705 295.268V282.98H916.768V295.303C916.768 295.865 916.832 296.34 916.961 296.727C917.102 297.113 917.295 297.43 917.541 297.676C917.787 297.922 918.074 298.098 918.402 298.203C918.742 298.309 919.117 298.361 919.527 298.361C920.57 298.361 921.391 298.15 921.988 297.729C922.598 297.307 923.025 296.732 923.271 296.006C923.529 295.268 923.658 294.447 923.658 293.545ZM946.334 275V302H941.254V275H946.334ZM960.783 297.711V289.238C960.783 288.629 960.684 288.107 960.484 287.674C960.285 287.229 959.975 286.883 959.553 286.637C959.143 286.391 958.609 286.268 957.953 286.268C957.391 286.268 956.904 286.367 956.494 286.566C956.084 286.754 955.768 287.029 955.545 287.393C955.322 287.744 955.211 288.16 955.211 288.641H950.148C950.148 287.832 950.336 287.064 950.711 286.338C951.086 285.611 951.631 284.973 952.346 284.422C953.061 283.859 953.91 283.42 954.895 283.104C955.891 282.787 957.004 282.629 958.234 282.629C959.711 282.629 961.023 282.875 962.172 283.367C963.32 283.859 964.223 284.598 964.879 285.582C965.547 286.566 965.881 287.797 965.881 289.273V297.412C965.881 298.455 965.945 299.311 966.074 299.979C966.203 300.635 966.391 301.209 966.637 301.701V302H961.521C961.275 301.484 961.088 300.84 960.959 300.066C960.842 299.281 960.783 298.496 960.783 297.711ZM961.451 290.416L961.486 293.281H958.656C957.988 293.281 957.408 293.357 956.916 293.51C956.424 293.662 956.02 293.879 955.703 294.16C955.387 294.43 955.152 294.746 955 295.109C954.859 295.473 954.789 295.871 954.789 296.305C954.789 296.738 954.889 297.131 955.088 297.482C955.287 297.822 955.574 298.092 955.949 298.291C956.324 298.479 956.764 298.572 957.268 298.572C958.029 298.572 958.691 298.42 959.254 298.115C959.816 297.811 960.25 297.436 960.555 296.99C960.871 296.545 961.035 296.123 961.047 295.725L962.383 297.869C962.195 298.35 961.938 298.848 961.609 299.363C961.293 299.879 960.889 300.365 960.396 300.822C959.904 301.268 959.312 301.637 958.621 301.93C957.93 302.211 957.109 302.352 956.16 302.352C954.953 302.352 953.857 302.111 952.873 301.631C951.9 301.139 951.127 300.465 950.553 299.609C949.99 298.742 949.709 297.758 949.709 296.656C949.709 295.66 949.896 294.775 950.271 294.002C950.646 293.229 951.197 292.578 951.924 292.051C952.662 291.512 953.582 291.107 954.684 290.838C955.785 290.557 957.062 290.416 958.516 290.416H961.451ZM980.066 296.744C980.066 296.381 979.961 296.053 979.75 295.76C979.539 295.467 979.146 295.197 978.572 294.951C978.01 294.693 977.195 294.459 976.129 294.248C975.168 294.037 974.271 293.773 973.439 293.457C972.619 293.129 971.904 292.736 971.295 292.279C970.697 291.822 970.229 291.283 969.889 290.662C969.549 290.029 969.379 289.309 969.379 288.5C969.379 287.703 969.549 286.953 969.889 286.25C970.24 285.547 970.738 284.926 971.383 284.387C972.039 283.836 972.836 283.408 973.773 283.104C974.723 282.787 975.789 282.629 976.973 282.629C978.625 282.629 980.043 282.893 981.227 283.42C982.422 283.947 983.336 284.674 983.969 285.6C984.613 286.514 984.936 287.557 984.936 288.729H979.873C979.873 288.236 979.768 287.797 979.557 287.41C979.357 287.012 979.041 286.701 978.607 286.479C978.186 286.244 977.635 286.127 976.955 286.127C976.393 286.127 975.906 286.227 975.496 286.426C975.086 286.613 974.77 286.871 974.547 287.199C974.336 287.516 974.23 287.867 974.23 288.254C974.23 288.547 974.289 288.811 974.406 289.045C974.535 289.268 974.74 289.473 975.021 289.66C975.303 289.848 975.666 290.023 976.111 290.188C976.568 290.34 977.131 290.48 977.799 290.609C979.17 290.891 980.395 291.26 981.473 291.717C982.551 292.162 983.406 292.771 984.039 293.545C984.672 294.307 984.988 295.309 984.988 296.551C984.988 297.395 984.801 298.168 984.426 298.871C984.051 299.574 983.512 300.189 982.809 300.717C982.105 301.232 981.262 301.637 980.277 301.93C979.305 302.211 978.209 302.352 976.99 302.352C975.221 302.352 973.721 302.035 972.49 301.402C971.271 300.77 970.346 299.967 969.713 298.994C969.092 298.01 968.781 297.002 968.781 295.971H973.58C973.604 296.662 973.779 297.219 974.107 297.641C974.447 298.062 974.875 298.367 975.391 298.555C975.918 298.742 976.486 298.836 977.096 298.836C977.752 298.836 978.297 298.748 978.73 298.572C979.164 298.385 979.492 298.139 979.715 297.834C979.949 297.518 980.066 297.154 980.066 296.744ZM997.592 282.98V286.566H986.518V282.98H997.592ZM989.26 278.287H994.322V296.27C994.322 296.82 994.393 297.242 994.533 297.535C994.686 297.828 994.908 298.033 995.201 298.15C995.494 298.256 995.863 298.309 996.309 298.309C996.625 298.309 996.906 298.297 997.152 298.273C997.41 298.238 997.627 298.203 997.803 298.168L997.82 301.895C997.387 302.035 996.918 302.146 996.414 302.229C995.91 302.311 995.354 302.352 994.744 302.352C993.631 302.352 992.658 302.17 991.826 301.807C991.006 301.432 990.373 300.834 989.928 300.014C989.482 299.193 989.26 298.115 989.26 296.779V278.287ZM1014.78 275V302H1009.7V275H1014.78ZM1027.72 302.352C1026.24 302.352 1024.92 302.117 1023.75 301.648C1022.58 301.168 1021.58 300.506 1020.76 299.662C1019.95 298.818 1019.33 297.84 1018.9 296.727C1018.46 295.602 1018.25 294.406 1018.25 293.141V292.438C1018.25 290.996 1018.45 289.678 1018.86 288.482C1019.27 287.287 1019.86 286.25 1020.62 285.371C1021.39 284.492 1022.33 283.818 1023.43 283.35C1024.53 282.869 1025.78 282.629 1027.16 282.629C1028.51 282.629 1029.7 282.852 1030.74 283.297C1031.79 283.742 1032.66 284.375 1033.36 285.195C1034.08 286.016 1034.62 287 1034.98 288.148C1035.34 289.285 1035.53 290.551 1035.53 291.945V294.055H1020.41V290.68H1030.55V290.293C1030.55 289.59 1030.42 288.963 1030.16 288.412C1029.92 287.85 1029.54 287.404 1029.04 287.076C1028.54 286.748 1027.89 286.584 1027.11 286.584C1026.44 286.584 1025.86 286.73 1025.38 287.023C1024.9 287.316 1024.51 287.727 1024.21 288.254C1023.91 288.781 1023.69 289.402 1023.54 290.117C1023.4 290.82 1023.33 291.594 1023.33 292.438V293.141C1023.33 293.902 1023.43 294.605 1023.64 295.25C1023.87 295.895 1024.18 296.451 1024.57 296.92C1024.98 297.389 1025.48 297.752 1026.05 298.01C1026.64 298.268 1027.3 298.396 1028.04 298.396C1028.95 298.396 1029.8 298.221 1030.59 297.869C1031.38 297.506 1032.07 296.961 1032.64 296.234L1035.1 298.906C1034.71 299.48 1034.16 300.031 1033.47 300.559C1032.79 301.086 1031.97 301.52 1031.01 301.859C1030.05 302.188 1028.95 302.352 1027.72 302.352ZM1044.86 302H1039.76V281.293C1039.76 279.852 1040.04 278.639 1040.61 277.654C1041.18 276.658 1041.98 275.908 1043.01 275.404C1044.06 274.889 1045.29 274.631 1046.72 274.631C1047.19 274.631 1047.64 274.666 1048.08 274.736C1048.51 274.795 1048.93 274.871 1049.34 274.965L1049.29 278.779C1049.07 278.721 1048.83 278.68 1048.59 278.656C1048.34 278.633 1048.05 278.621 1047.72 278.621C1047.12 278.621 1046.59 278.727 1046.16 278.938C1045.74 279.137 1045.42 279.436 1045.19 279.834C1044.97 280.232 1044.86 280.719 1044.86 281.293V302ZM1048.66 282.98V286.566H1036.93V282.98H1048.66ZM1060.63 282.98V286.566H1049.55V282.98H1060.63ZM1052.29 278.287H1057.36V296.27C1057.36 296.82 1057.43 297.242 1057.57 297.535C1057.72 297.828 1057.94 298.033 1058.24 298.15C1058.53 298.256 1058.9 298.309 1059.34 298.309C1059.66 298.309 1059.94 298.297 1060.19 298.273C1060.45 298.238 1060.66 298.203 1060.84 298.168L1060.86 301.895C1060.42 302.035 1059.95 302.146 1059.45 302.229C1058.95 302.311 1058.39 302.352 1057.78 302.352C1056.67 302.352 1055.69 302.17 1054.86 301.807C1054.04 301.432 1053.41 300.834 1052.96 300.014C1052.52 299.193 1052.29 298.115 1052.29 296.779V278.287ZM1071.67 292.684V292.314C1071.67 290.92 1071.87 289.637 1072.26 288.465C1072.66 287.281 1073.24 286.256 1074 285.389C1074.77 284.521 1075.7 283.848 1076.82 283.367C1077.93 282.875 1079.21 282.629 1080.65 282.629C1082.09 282.629 1083.37 282.875 1084.5 283.367C1085.62 283.848 1086.57 284.521 1087.33 285.389C1088.1 286.256 1088.69 287.281 1089.09 288.465C1089.48 289.637 1089.68 290.92 1089.68 292.314V292.684C1089.68 294.066 1089.48 295.35 1089.09 296.533C1088.69 297.705 1088.1 298.73 1087.33 299.609C1086.57 300.477 1085.63 301.15 1084.52 301.631C1083.4 302.111 1082.12 302.352 1080.68 302.352C1079.24 302.352 1077.96 302.111 1076.83 301.631C1075.72 301.15 1074.78 300.477 1074 299.609C1073.24 298.73 1072.66 297.705 1072.26 296.533C1071.87 295.35 1071.67 294.066 1071.67 292.684ZM1076.73 292.314V292.684C1076.73 293.48 1076.8 294.225 1076.94 294.916C1077.08 295.607 1077.3 296.217 1077.61 296.744C1077.92 297.26 1078.33 297.664 1078.84 297.957C1079.34 298.25 1079.96 298.396 1080.68 298.396C1081.39 298.396 1081.99 298.25 1082.49 297.957C1083 297.664 1083.4 297.26 1083.71 296.744C1084.01 296.217 1084.23 295.607 1084.38 294.916C1084.53 294.225 1084.6 293.48 1084.6 292.684V292.314C1084.6 291.541 1084.53 290.814 1084.38 290.135C1084.23 289.443 1084.01 288.834 1083.69 288.307C1083.38 287.768 1082.98 287.346 1082.48 287.041C1081.97 286.736 1081.36 286.584 1080.65 286.584C1079.93 286.584 1079.32 286.736 1078.82 287.041C1078.33 287.346 1077.92 287.768 1077.61 288.307C1077.3 288.834 1077.08 289.443 1076.94 290.135C1076.8 290.814 1076.73 291.541 1076.73 292.314ZM1099.25 302H1094.15V281.293C1094.15 279.852 1094.43 278.639 1094.99 277.654C1095.57 276.658 1096.37 275.908 1097.4 275.404C1098.44 274.889 1099.68 274.631 1101.11 274.631C1101.58 274.631 1102.03 274.666 1102.46 274.736C1102.9 274.795 1103.32 274.871 1103.73 274.965L1103.68 278.779C1103.45 278.721 1103.22 278.68 1102.97 278.656C1102.73 278.633 1102.44 278.621 1102.11 278.621C1101.5 278.621 1100.98 278.727 1100.55 278.938C1100.12 279.137 1099.8 279.436 1099.58 279.834C1099.36 280.232 1099.25 280.719 1099.25 281.293V302ZM1103.04 282.98V286.566H1091.32V282.98H1103.04ZM1112.15 302H1107.05V281.293C1107.05 279.852 1107.33 278.639 1107.89 277.654C1108.47 276.658 1109.27 275.908 1110.3 275.404C1111.35 274.889 1112.58 274.631 1114.01 274.631C1114.48 274.631 1114.93 274.666 1115.37 274.736C1115.8 274.795 1116.22 274.871 1116.63 274.965L1116.58 278.779C1116.36 278.721 1116.12 278.68 1115.88 278.656C1115.63 278.633 1115.34 278.621 1115.01 278.621C1114.4 278.621 1113.88 278.727 1113.45 278.938C1113.03 279.137 1112.71 279.436 1112.48 279.834C1112.26 280.232 1112.15 280.719 1112.15 281.293V302ZM1115.95 282.98V286.566H1104.22V282.98H1115.95Z" fill="black" fill-opacity="0.2"/>
<path d="M874.572 396.783H877.492C877.434 397.74 877.17 398.59 876.701 399.332C876.239 400.074 875.591 400.654 874.758 401.07C873.931 401.487 872.935 401.695 871.77 401.695C870.858 401.695 870.041 401.539 869.318 401.227C868.596 400.908 867.977 400.452 867.463 399.859C866.955 399.267 866.568 398.551 866.301 397.711C866.034 396.871 865.9 395.93 865.9 394.889V393.902C865.9 392.861 866.037 391.92 866.311 391.08C866.59 390.234 866.988 389.514 867.502 388.922C868.023 388.329 868.645 387.874 869.367 387.555C870.09 387.236 870.897 387.076 871.789 387.076C872.974 387.076 873.973 387.291 874.787 387.721C875.607 388.15 876.242 388.743 876.691 389.498C877.147 390.253 877.421 391.113 877.512 392.076H874.582C874.549 391.503 874.436 391.018 874.24 390.621C874.045 390.217 873.749 389.915 873.352 389.713C872.961 389.505 872.44 389.4 871.789 389.4C871.301 389.4 870.874 389.492 870.51 389.674C870.145 389.856 869.839 390.133 869.592 390.504C869.344 390.875 869.159 391.344 869.035 391.91C868.918 392.47 868.859 393.128 868.859 393.883V394.889C868.859 395.624 868.915 396.272 869.025 396.832C869.136 397.385 869.305 397.854 869.533 398.238C869.768 398.616 870.067 398.902 870.432 399.098C870.803 399.286 871.249 399.381 871.77 399.381C872.382 399.381 872.886 399.283 873.283 399.088C873.68 398.893 873.983 398.603 874.191 398.219C874.406 397.835 874.533 397.356 874.572 396.783ZM878.791 396.324V396.119C878.791 395.344 878.902 394.632 879.123 393.98C879.344 393.323 879.667 392.753 880.09 392.271C880.513 391.79 881.034 391.415 881.652 391.148C882.271 390.875 882.98 390.738 883.781 390.738C884.582 390.738 885.295 390.875 885.92 391.148C886.545 391.415 887.069 391.79 887.492 392.271C887.922 392.753 888.247 393.323 888.469 393.98C888.69 394.632 888.801 395.344 888.801 396.119V396.324C888.801 397.092 888.69 397.805 888.469 398.463C888.247 399.114 887.922 399.684 887.492 400.172C887.069 400.654 886.548 401.028 885.93 401.295C885.311 401.562 884.602 401.695 883.801 401.695C883 401.695 882.287 401.562 881.662 401.295C881.044 401.028 880.52 400.654 880.09 400.172C879.667 399.684 879.344 399.114 879.123 398.463C878.902 397.805 878.791 397.092 878.791 396.324ZM881.604 396.119V396.324C881.604 396.767 881.643 397.18 881.721 397.564C881.799 397.949 881.923 398.287 882.092 398.58C882.268 398.867 882.495 399.091 882.775 399.254C883.055 399.417 883.397 399.498 883.801 399.498C884.191 399.498 884.527 399.417 884.807 399.254C885.087 399.091 885.311 398.867 885.48 398.58C885.65 398.287 885.773 397.949 885.852 397.564C885.936 397.18 885.979 396.767 885.979 396.324V396.119C885.979 395.689 885.936 395.286 885.852 394.908C885.773 394.524 885.646 394.186 885.471 393.893C885.301 393.593 885.077 393.359 884.797 393.189C884.517 393.02 884.178 392.936 883.781 392.936C883.384 392.936 883.046 393.02 882.766 393.189C882.492 393.359 882.268 393.593 882.092 393.893C881.923 394.186 881.799 394.524 881.721 394.908C881.643 395.286 881.604 395.689 881.604 396.119ZM893.283 393.189V401.5H890.471V390.934H893.107L893.283 393.189ZM892.873 395.846H892.111C892.111 395.064 892.212 394.361 892.414 393.736C892.616 393.105 892.899 392.568 893.264 392.125C893.628 391.676 894.061 391.334 894.562 391.1C895.07 390.859 895.637 390.738 896.262 390.738C896.757 390.738 897.209 390.81 897.619 390.953C898.029 391.096 898.381 391.324 898.674 391.637C898.973 391.949 899.201 392.363 899.357 392.877C899.52 393.391 899.602 394.02 899.602 394.762V401.5H896.77V394.752C896.77 394.283 896.704 393.919 896.574 393.658C896.444 393.398 896.252 393.215 895.998 393.111C895.751 393.001 895.445 392.945 895.08 392.945C894.702 392.945 894.374 393.02 894.094 393.17C893.82 393.32 893.592 393.528 893.41 393.795C893.234 394.055 893.101 394.361 893.01 394.713C892.919 395.064 892.873 395.442 892.873 395.846ZM906.916 390.934V392.926H900.764V390.934H906.916ZM902.287 388.326H905.1V398.316C905.1 398.622 905.139 398.857 905.217 399.02C905.301 399.182 905.425 399.296 905.588 399.361C905.751 399.42 905.956 399.449 906.203 399.449C906.379 399.449 906.535 399.443 906.672 399.43C906.815 399.41 906.936 399.391 907.033 399.371L907.043 401.441C906.802 401.52 906.542 401.581 906.262 401.627C905.982 401.673 905.673 401.695 905.334 401.695C904.715 401.695 904.175 401.594 903.713 401.393C903.257 401.184 902.906 400.852 902.658 400.396C902.411 399.941 902.287 399.342 902.287 398.6V388.326ZM911.486 390.934V401.5H908.664V390.934H911.486ZM908.488 388.18C908.488 387.77 908.632 387.431 908.918 387.164C909.204 386.897 909.589 386.764 910.07 386.764C910.546 386.764 910.926 386.897 911.213 387.164C911.506 387.431 911.652 387.77 911.652 388.18C911.652 388.59 911.506 388.928 911.213 389.195C910.926 389.462 910.546 389.596 910.07 389.596C909.589 389.596 909.204 389.462 908.918 389.195C908.632 388.928 908.488 388.59 908.488 388.18ZM916.564 393.189V401.5H913.752V390.934H916.389L916.564 393.189ZM916.154 395.846H915.393C915.393 395.064 915.493 394.361 915.695 393.736C915.897 393.105 916.18 392.568 916.545 392.125C916.91 391.676 917.342 391.334 917.844 391.1C918.352 390.859 918.918 390.738 919.543 390.738C920.038 390.738 920.49 390.81 920.9 390.953C921.311 391.096 921.662 391.324 921.955 391.637C922.255 391.949 922.482 392.363 922.639 392.877C922.801 393.391 922.883 394.02 922.883 394.762V401.5H920.051V394.752C920.051 394.283 919.986 393.919 919.855 393.658C919.725 393.398 919.533 393.215 919.279 393.111C919.032 393.001 918.726 392.945 918.361 392.945C917.984 392.945 917.655 393.02 917.375 393.17C917.102 393.32 916.874 393.528 916.691 393.795C916.516 394.055 916.382 394.361 916.291 394.713C916.2 395.064 916.154 395.442 916.154 395.846ZM931.271 398.971V390.934H934.084V401.5H931.438L931.271 398.971ZM931.584 396.803L932.414 396.783C932.414 397.486 932.333 398.141 932.17 398.746C932.007 399.345 931.763 399.866 931.438 400.309C931.112 400.745 930.702 401.087 930.207 401.334C929.712 401.575 929.13 401.695 928.459 401.695C927.945 401.695 927.469 401.624 927.033 401.48C926.604 401.331 926.232 401.1 925.92 400.787C925.614 400.468 925.373 400.061 925.197 399.566C925.028 399.065 924.943 398.463 924.943 397.76V390.934H927.756V397.779C927.756 398.092 927.792 398.355 927.863 398.57C927.941 398.785 928.049 398.961 928.186 399.098C928.322 399.234 928.482 399.332 928.664 399.391C928.853 399.449 929.061 399.479 929.289 399.479C929.868 399.479 930.324 399.361 930.656 399.127C930.995 398.893 931.232 398.574 931.369 398.17C931.512 397.76 931.584 397.304 931.584 396.803ZM941.096 401.695C940.275 401.695 939.54 401.565 938.889 401.305C938.238 401.038 937.684 400.67 937.229 400.201C936.779 399.732 936.434 399.189 936.193 398.57C935.952 397.945 935.832 397.281 935.832 396.578V396.188C935.832 395.387 935.946 394.654 936.174 393.99C936.402 393.326 936.727 392.75 937.15 392.262C937.58 391.773 938.101 391.399 938.713 391.139C939.325 390.872 940.015 390.738 940.783 390.738C941.532 390.738 942.196 390.862 942.775 391.109C943.355 391.357 943.84 391.708 944.23 392.164C944.628 392.62 944.927 393.167 945.129 393.805C945.331 394.436 945.432 395.139 945.432 395.914V397.086H937.033V395.211H942.668V394.996C942.668 394.605 942.596 394.257 942.453 393.951C942.316 393.639 942.108 393.391 941.828 393.209C941.548 393.027 941.19 392.936 940.754 392.936C940.383 392.936 940.064 393.017 939.797 393.18C939.53 393.342 939.312 393.57 939.143 393.863C938.98 394.156 938.856 394.501 938.771 394.898C938.693 395.289 938.654 395.719 938.654 396.188V396.578C938.654 397.001 938.713 397.392 938.83 397.75C938.954 398.108 939.126 398.417 939.348 398.678C939.576 398.938 939.849 399.14 940.168 399.283C940.493 399.426 940.861 399.498 941.271 399.498C941.779 399.498 942.251 399.4 942.688 399.205C943.13 399.003 943.511 398.701 943.83 398.297L945.197 399.781C944.976 400.1 944.673 400.406 944.289 400.699C943.911 400.992 943.456 401.233 942.922 401.422C942.388 401.604 941.779 401.695 941.096 401.695Z" fill="#4D4D4D"/>
<rect x="764.5" y="360.5" width="282" height="69" rx="14.5" stroke="#4D4D4D" stroke-width="3"/>
<rect x="133" y="359" width="286" height="72" rx="16" fill="#E6E6E6"/>
<path d="M235.121 399.215V401.5H227.963V399.215H235.121ZM228.91 387.281V401.5H225.98V387.281H228.91ZM241.488 401.695C240.668 401.695 239.932 401.565 239.281 401.305C238.63 401.038 238.077 400.67 237.621 400.201C237.172 399.732 236.827 399.189 236.586 398.57C236.345 397.945 236.225 397.281 236.225 396.578V396.188C236.225 395.387 236.339 394.654 236.566 393.99C236.794 393.326 237.12 392.75 237.543 392.262C237.973 391.773 238.493 391.399 239.105 391.139C239.717 390.872 240.408 390.738 241.176 390.738C241.924 390.738 242.589 390.862 243.168 391.109C243.747 391.357 244.232 391.708 244.623 392.164C245.02 392.62 245.32 393.167 245.521 393.805C245.723 394.436 245.824 395.139 245.824 395.914V397.086H237.426V395.211H243.061V394.996C243.061 394.605 242.989 394.257 242.846 393.951C242.709 393.639 242.501 393.391 242.221 393.209C241.941 393.027 241.583 392.936 241.146 392.936C240.775 392.936 240.456 393.017 240.189 393.18C239.923 393.342 239.704 393.57 239.535 393.863C239.372 394.156 239.249 394.501 239.164 394.898C239.086 395.289 239.047 395.719 239.047 396.188V396.578C239.047 397.001 239.105 397.392 239.223 397.75C239.346 398.108 239.519 398.417 239.74 398.678C239.968 398.938 240.242 399.14 240.561 399.283C240.886 399.426 241.254 399.498 241.664 399.498C242.172 399.498 242.644 399.4 243.08 399.205C243.523 399.003 243.904 398.701 244.223 398.297L245.59 399.781C245.368 400.1 245.066 400.406 244.682 400.699C244.304 400.992 243.848 401.233 243.314 401.422C242.781 401.604 242.172 401.695 241.488 401.695ZM253.129 399.117V394.41C253.129 394.072 253.074 393.782 252.963 393.541C252.852 393.294 252.68 393.102 252.445 392.965C252.217 392.828 251.921 392.76 251.557 392.76C251.244 392.76 250.974 392.815 250.746 392.926C250.518 393.03 250.342 393.183 250.219 393.385C250.095 393.58 250.033 393.811 250.033 394.078H247.221C247.221 393.629 247.325 393.202 247.533 392.799C247.742 392.395 248.044 392.04 248.441 391.734C248.839 391.422 249.311 391.178 249.857 391.002C250.411 390.826 251.029 390.738 251.713 390.738C252.533 390.738 253.262 390.875 253.9 391.148C254.538 391.422 255.04 391.832 255.404 392.379C255.775 392.926 255.961 393.609 255.961 394.43V398.951C255.961 399.531 255.997 400.006 256.068 400.377C256.14 400.742 256.244 401.061 256.381 401.334V401.5H253.539C253.402 401.214 253.298 400.855 253.227 400.426C253.161 399.99 253.129 399.553 253.129 399.117ZM253.5 395.064L253.52 396.656H251.947C251.576 396.656 251.254 396.699 250.98 396.783C250.707 396.868 250.482 396.988 250.307 397.145C250.131 397.294 250.001 397.47 249.916 397.672C249.838 397.874 249.799 398.095 249.799 398.336C249.799 398.577 249.854 398.795 249.965 398.99C250.076 399.179 250.235 399.329 250.443 399.439C250.652 399.544 250.896 399.596 251.176 399.596C251.599 399.596 251.967 399.511 252.279 399.342C252.592 399.173 252.833 398.964 253.002 398.717C253.178 398.469 253.269 398.235 253.275 398.014L254.018 399.205C253.913 399.472 253.77 399.749 253.588 400.035C253.412 400.322 253.188 400.592 252.914 400.846C252.641 401.093 252.312 401.298 251.928 401.461C251.544 401.617 251.088 401.695 250.561 401.695C249.89 401.695 249.281 401.562 248.734 401.295C248.194 401.021 247.764 400.647 247.445 400.172C247.133 399.69 246.977 399.143 246.977 398.531C246.977 397.978 247.081 397.486 247.289 397.057C247.497 396.627 247.803 396.266 248.207 395.973C248.617 395.673 249.128 395.449 249.74 395.299C250.352 395.143 251.062 395.064 251.869 395.064H253.5ZM260.941 393.238V401.5H258.129V390.934H260.775L260.941 393.238ZM264.125 390.865L264.076 393.473C263.939 393.453 263.773 393.437 263.578 393.424C263.389 393.404 263.217 393.395 263.061 393.395C262.663 393.395 262.318 393.447 262.025 393.551C261.739 393.648 261.498 393.795 261.303 393.99C261.114 394.186 260.971 394.423 260.873 394.703C260.782 394.983 260.73 395.302 260.717 395.66L260.15 395.484C260.15 394.801 260.219 394.173 260.355 393.6C260.492 393.02 260.691 392.516 260.951 392.086C261.218 391.656 261.544 391.324 261.928 391.09C262.312 390.855 262.751 390.738 263.246 390.738C263.402 390.738 263.562 390.751 263.725 390.777C263.887 390.797 264.021 390.826 264.125 390.865ZM268.207 393.189V401.5H265.395V390.934H268.031L268.207 393.189ZM267.797 395.846H267.035C267.035 395.064 267.136 394.361 267.338 393.736C267.54 393.105 267.823 392.568 268.188 392.125C268.552 391.676 268.985 391.334 269.486 391.1C269.994 390.859 270.561 390.738 271.186 390.738C271.68 390.738 272.133 390.81 272.543 390.953C272.953 391.096 273.305 391.324 273.598 391.637C273.897 391.949 274.125 392.363 274.281 392.877C274.444 393.391 274.525 394.02 274.525 394.762V401.5H271.693V394.752C271.693 394.283 271.628 393.919 271.498 393.658C271.368 393.398 271.176 393.215 270.922 393.111C270.674 393.001 270.368 392.945 270.004 392.945C269.626 392.945 269.298 393.02 269.018 393.17C268.744 393.32 268.516 393.528 268.334 393.795C268.158 394.055 268.025 394.361 267.934 394.713C267.842 395.064 267.797 395.442 267.797 395.846ZM283.158 387.281H285.639L289.291 397.721L292.943 387.281H295.424L290.287 401.5H288.295L283.158 387.281ZM281.82 387.281H284.291L284.74 397.457V401.5H281.82V387.281ZM294.291 387.281H296.771V401.5H293.842V397.457L294.291 387.281ZM298.715 396.324V396.119C298.715 395.344 298.826 394.632 299.047 393.98C299.268 393.323 299.59 392.753 300.014 392.271C300.437 391.79 300.958 391.415 301.576 391.148C302.195 390.875 302.904 390.738 303.705 390.738C304.506 390.738 305.219 390.875 305.844 391.148C306.469 391.415 306.993 391.79 307.416 392.271C307.846 392.753 308.171 393.323 308.393 393.98C308.614 394.632 308.725 395.344 308.725 396.119V396.324C308.725 397.092 308.614 397.805 308.393 398.463C308.171 399.114 307.846 399.684 307.416 400.172C306.993 400.654 306.472 401.028 305.854 401.295C305.235 401.562 304.525 401.695 303.725 401.695C302.924 401.695 302.211 401.562 301.586 401.295C300.967 401.028 300.443 400.654 300.014 400.172C299.59 399.684 299.268 399.114 299.047 398.463C298.826 397.805 298.715 397.092 298.715 396.324ZM301.527 396.119V396.324C301.527 396.767 301.566 397.18 301.645 397.564C301.723 397.949 301.846 398.287 302.016 398.58C302.191 398.867 302.419 399.091 302.699 399.254C302.979 399.417 303.321 399.498 303.725 399.498C304.115 399.498 304.451 399.417 304.73 399.254C305.01 399.091 305.235 398.867 305.404 398.58C305.574 398.287 305.697 397.949 305.775 397.564C305.86 397.18 305.902 396.767 305.902 396.324V396.119C305.902 395.689 305.86 395.286 305.775 394.908C305.697 394.524 305.57 394.186 305.395 393.893C305.225 393.593 305.001 393.359 304.721 393.189C304.441 393.02 304.102 392.936 303.705 392.936C303.308 392.936 302.969 393.02 302.689 393.189C302.416 393.359 302.191 393.593 302.016 393.893C301.846 394.186 301.723 394.524 301.645 394.908C301.566 395.286 301.527 395.689 301.527 396.119ZM313.266 393.238V401.5H310.453V390.934H313.1L313.266 393.238ZM316.449 390.865L316.4 393.473C316.264 393.453 316.098 393.437 315.902 393.424C315.714 393.404 315.541 393.395 315.385 393.395C314.988 393.395 314.643 393.447 314.35 393.551C314.063 393.648 313.822 393.795 313.627 393.99C313.438 394.186 313.295 394.423 313.197 394.703C313.106 394.983 313.054 395.302 313.041 395.66L312.475 395.484C312.475 394.801 312.543 394.173 312.68 393.6C312.816 393.02 313.015 392.516 313.275 392.086C313.542 391.656 313.868 391.324 314.252 391.09C314.636 390.855 315.076 390.738 315.57 390.738C315.727 390.738 315.886 390.751 316.049 390.777C316.212 390.797 316.345 390.826 316.449 390.865ZM322.445 401.695C321.625 401.695 320.889 401.565 320.238 401.305C319.587 401.038 319.034 400.67 318.578 400.201C318.129 399.732 317.784 399.189 317.543 398.57C317.302 397.945 317.182 397.281 317.182 396.578V396.188C317.182 395.387 317.296 394.654 317.523 393.99C317.751 393.326 318.077 392.75 318.5 392.262C318.93 391.773 319.451 391.399 320.062 391.139C320.674 390.872 321.365 390.738 322.133 390.738C322.882 390.738 323.546 390.862 324.125 391.109C324.704 391.357 325.189 391.708 325.58 392.164C325.977 392.62 326.277 393.167 326.479 393.805C326.68 394.436 326.781 395.139 326.781 395.914V397.086H318.383V395.211H324.018V394.996C324.018 394.605 323.946 394.257 323.803 393.951C323.666 393.639 323.458 393.391 323.178 393.209C322.898 393.027 322.54 392.936 322.104 392.936C321.732 392.936 321.413 393.017 321.146 393.18C320.88 393.342 320.661 393.57 320.492 393.863C320.329 394.156 320.206 394.501 320.121 394.898C320.043 395.289 320.004 395.719 320.004 396.188V396.578C320.004 397.001 320.062 397.392 320.18 397.75C320.303 398.108 320.476 398.417 320.697 398.678C320.925 398.938 321.199 399.14 321.518 399.283C321.843 399.426 322.211 399.498 322.621 399.498C323.129 399.498 323.601 399.4 324.037 399.205C324.48 399.003 324.861 398.701 325.18 398.297L326.547 399.781C326.326 400.1 326.023 400.406 325.639 400.699C325.261 400.992 324.805 401.233 324.271 401.422C323.738 401.604 323.129 401.695 322.445 401.695Z" fill="#272727"/>
<path d="M235.121 399.215V401.5H227.963V399.215H235.121ZM228.91 387.281V401.5H225.98V387.281H228.91ZM241.488 401.695C240.668 401.695 239.932 401.565 239.281 401.305C238.63 401.038 238.077 400.67 237.621 400.201C237.172 399.732 236.827 399.189 236.586 398.57C236.345 397.945 236.225 397.281 236.225 396.578V396.188C236.225 395.387 236.339 394.654 236.566 393.99C236.794 393.326 237.12 392.75 237.543 392.262C237.973 391.773 238.493 391.399 239.105 391.139C239.717 390.872 240.408 390.738 241.176 390.738C241.924 390.738 242.589 390.862 243.168 391.109C243.747 391.357 244.232 391.708 244.623 392.164C245.02 392.62 245.32 393.167 245.521 393.805C245.723 394.436 245.824 395.139 245.824 395.914V397.086H237.426V395.211H243.061V394.996C243.061 394.605 242.989 394.257 242.846 393.951C242.709 393.639 242.501 393.391 242.221 393.209C241.941 393.027 241.583 392.936 241.146 392.936C240.775 392.936 240.456 393.017 240.189 393.18C239.923 393.342 239.704 393.57 239.535 393.863C239.372 394.156 239.249 394.501 239.164 394.898C239.086 395.289 239.047 395.719 239.047 396.188V396.578C239.047 397.001 239.105 397.392 239.223 397.75C239.346 398.108 239.519 398.417 239.74 398.678C239.968 398.938 240.242 399.14 240.561 399.283C240.886 399.426 241.254 399.498 241.664 399.498C242.172 399.498 242.644 399.4 243.08 399.205C243.523 399.003 243.904 398.701 244.223 398.297L245.59 399.781C245.368 400.1 245.066 400.406 244.682 400.699C244.304 400.992 243.848 401.233 243.314 401.422C242.781 401.604 242.172 401.695 241.488 401.695ZM253.129 399.117V394.41C253.129 394.072 253.074 393.782 252.963 393.541C252.852 393.294 252.68 393.102 252.445 392.965C252.217 392.828 251.921 392.76 251.557 392.76C251.244 392.76 250.974 392.815 250.746 392.926C250.518 393.03 250.342 393.183 250.219 393.385C250.095 393.58 250.033 393.811 250.033 394.078H247.221C247.221 393.629 247.325 393.202 247.533 392.799C247.742 392.395 248.044 392.04 248.441 391.734C248.839 391.422 249.311 391.178 249.857 391.002C250.411 390.826 251.029 390.738 251.713 390.738C252.533 390.738 253.262 390.875 253.9 391.148C254.538 391.422 255.04 391.832 255.404 392.379C255.775 392.926 255.961 393.609 255.961 394.43V398.951C255.961 399.531 255.997 400.006 256.068 400.377C256.14 400.742 256.244 401.061 256.381 401.334V401.5H253.539C253.402 401.214 253.298 400.855 253.227 400.426C253.161 399.99 253.129 399.553 253.129 399.117ZM253.5 395.064L253.52 396.656H251.947C251.576 396.656 251.254 396.699 250.98 396.783C250.707 396.868 250.482 396.988 250.307 397.145C250.131 397.294 250.001 397.47 249.916 397.672C249.838 397.874 249.799 398.095 249.799 398.336C249.799 398.577 249.854 398.795 249.965 398.99C250.076 399.179 250.235 399.329 250.443 399.439C250.652 399.544 250.896 399.596 251.176 399.596C251.599 399.596 251.967 399.511 252.279 399.342C252.592 399.173 252.833 398.964 253.002 398.717C253.178 398.469 253.269 398.235 253.275 398.014L254.018 399.205C253.913 399.472 253.77 399.749 253.588 400.035C253.412 400.322 253.188 400.592 252.914 400.846C252.641 401.093 252.312 401.298 251.928 401.461C251.544 401.617 251.088 401.695 250.561 401.695C249.89 401.695 249.281 401.562 248.734 401.295C248.194 401.021 247.764 400.647 247.445 400.172C247.133 399.69 246.977 399.143 246.977 398.531C246.977 397.978 247.081 397.486 247.289 397.057C247.497 396.627 247.803 396.266 248.207 395.973C248.617 395.673 249.128 395.449 249.74 395.299C250.352 395.143 251.062 395.064 251.869 395.064H253.5ZM260.941 393.238V401.5H258.129V390.934H260.775L260.941 393.238ZM264.125 390.865L264.076 393.473C263.939 393.453 263.773 393.437 263.578 393.424C263.389 393.404 263.217 393.395 263.061 393.395C262.663 393.395 262.318 393.447 262.025 393.551C261.739 393.648 261.498 393.795 261.303 393.99C261.114 394.186 260.971 394.423 260.873 394.703C260.782 394.983 260.73 395.302 260.717 395.66L260.15 395.484C260.15 394.801 260.219 394.173 260.355 393.6C260.492 393.02 260.691 392.516 260.951 392.086C261.218 391.656 261.544 391.324 261.928 391.09C262.312 390.855 262.751 390.738 263.246 390.738C263.402 390.738 263.562 390.751 263.725 390.777C263.887 390.797 264.021 390.826 264.125 390.865ZM268.207 393.189V401.5H265.395V390.934H268.031L268.207 393.189ZM267.797 395.846H267.035C267.035 395.064 267.136 394.361 267.338 393.736C267.54 393.105 267.823 392.568 268.188 392.125C268.552 391.676 268.985 391.334 269.486 391.1C269.994 390.859 270.561 390.738 271.186 390.738C271.68 390.738 272.133 390.81 272.543 390.953C272.953 391.096 273.305 391.324 273.598 391.637C273.897 391.949 274.125 392.363 274.281 392.877C274.444 393.391 274.525 394.02 274.525 394.762V401.5H271.693V394.752C271.693 394.283 271.628 393.919 271.498 393.658C271.368 393.398 271.176 393.215 270.922 393.111C270.674 393.001 270.368 392.945 270.004 392.945C269.626 392.945 269.298 393.02 269.018 393.17C268.744 393.32 268.516 393.528 268.334 393.795C268.158 394.055 268.025 394.361 267.934 394.713C267.842 395.064 267.797 395.442 267.797 395.846ZM283.158 387.281H285.639L289.291 397.721L292.943 387.281H295.424L290.287 401.5H288.295L283.158 387.281ZM281.82 387.281H284.291L284.74 397.457V401.5H281.82V387.281ZM294.291 387.281H296.771V401.5H293.842V397.457L294.291 387.281ZM298.715 396.324V396.119C298.715 395.344 298.826 394.632 299.047 393.98C299.268 393.323 299.59 392.753 300.014 392.271C300.437 391.79 300.958 391.415 301.576 391.148C302.195 390.875 302.904 390.738 303.705 390.738C304.506 390.738 305.219 390.875 305.844 391.148C306.469 391.415 306.993 391.79 307.416 392.271C307.846 392.753 308.171 393.323 308.393 393.98C308.614 394.632 308.725 395.344 308.725 396.119V396.324C308.725 397.092 308.614 397.805 308.393 398.463C308.171 399.114 307.846 399.684 307.416 400.172C306.993 400.654 306.472 401.028 305.854 401.295C305.235 401.562 304.525 401.695 303.725 401.695C302.924 401.695 302.211 401.562 301.586 401.295C300.967 401.028 300.443 400.654 300.014 400.172C299.59 399.684 299.268 399.114 299.047 398.463C298.826 397.805 298.715 397.092 298.715 396.324ZM301.527 396.119V396.324C301.527 396.767 301.566 397.18 301.645 397.564C301.723 397.949 301.846 398.287 302.016 398.58C302.191 398.867 302.419 399.091 302.699 399.254C302.979 399.417 303.321 399.498 303.725 399.498C304.115 399.498 304.451 399.417 304.73 399.254C305.01 399.091 305.235 398.867 305.404 398.58C305.574 398.287 305.697 397.949 305.775 397.564C305.86 397.18 305.902 396.767 305.902 396.324V396.119C305.902 395.689 305.86 395.286 305.775 394.908C305.697 394.524 305.57 394.186 305.395 393.893C305.225 393.593 305.001 393.359 304.721 393.189C304.441 393.02 304.102 392.936 303.705 392.936C303.308 392.936 302.969 393.02 302.689 393.189C302.416 393.359 302.191 393.593 302.016 393.893C301.846 394.186 301.723 394.524 301.645 394.908C301.566 395.286 301.527 395.689 301.527 396.119ZM313.266 393.238V401.5H310.453V390.934H313.1L313.266 393.238ZM316.449 390.865L316.4 393.473C316.264 393.453 316.098 393.437 315.902 393.424C315.714 393.404 315.541 393.395 315.385 393.395C314.988 393.395 314.643 393.447 314.35 393.551C314.063 393.648 313.822 393.795 313.627 393.99C313.438 394.186 313.295 394.423 313.197 394.703C313.106 394.983 313.054 395.302 313.041 395.66L312.475 395.484C312.475 394.801 312.543 394.173 312.68 393.6C312.816 393.02 313.015 392.516 313.275 392.086C313.542 391.656 313.868 391.324 314.252 391.09C314.636 390.855 315.076 390.738 315.57 390.738C315.727 390.738 315.886 390.751 316.049 390.777C316.212 390.797 316.345 390.826 316.449 390.865ZM322.445 401.695C321.625 401.695 320.889 401.565 320.238 401.305C319.587 401.038 319.034 400.67 318.578 400.201C318.129 399.732 317.784 399.189 317.543 398.57C317.302 397.945 317.182 397.281 317.182 396.578V396.188C317.182 395.387 317.296 394.654 317.523 393.99C317.751 393.326 318.077 392.75 318.5 392.262C318.93 391.773 319.451 391.399 320.062 391.139C320.674 390.872 321.365 390.738 322.133 390.738C322.882 390.738 323.546 390.862 324.125 391.109C324.704 391.357 325.189 391.708 325.58 392.164C325.977 392.62 326.277 393.167 326.479 393.805C326.68 394.436 326.781 395.139 326.781 395.914V397.086H318.383V395.211H324.018V394.996C324.018 394.605 323.946 394.257 323.803 393.951C323.666 393.639 323.458 393.391 323.178 393.209C322.898 393.027 322.54 392.936 322.104 392.936C321.732 392.936 321.413 393.017 321.146 393.18C320.88 393.342 320.661 393.57 320.492 393.863C320.329 394.156 320.206 394.501 320.121 394.898C320.043 395.289 320.004 395.719 320.004 396.188V396.578C320.004 397.001 320.062 397.392 320.18 397.75C320.303 398.108 320.476 398.417 320.697 398.678C320.925 398.938 321.199 399.14 321.518 399.283C321.843 399.426 322.211 399.498 322.621 399.498C323.129 399.498 323.601 399.4 324.037 399.205C324.48 399.003 324.861 398.701 325.18 398.297L326.547 399.781C326.326 400.1 326.023 400.406 325.639 400.699C325.261 400.992 324.805 401.233 324.271 401.422C323.738 401.604 323.129 401.695 322.445 401.695Z" fill="black" fill-opacity="0.2"/>
<path d="M81.2051 276.406V302H75.9492V276.406H81.2051ZM89.0801 276.406V280.537H68.1973V276.406H89.0801ZM99.3633 297.711V289.238C99.3633 288.629 99.2637 288.107 99.0645 287.674C98.8652 287.229 98.5547 286.883 98.1328 286.637C97.7227 286.391 97.1895 286.268 96.5332 286.268C95.9707 286.268 95.4844 286.367 95.0742 286.566C94.6641 286.754 94.3477 287.029 94.125 287.393C93.9023 287.744 93.791 288.16 93.791 288.641H88.7285C88.7285 287.832 88.916 287.064 89.291 286.338C89.666 285.611 90.2109 284.973 90.9258 284.422C91.6406 283.859 92.4902 283.42 93.4746 283.104C94.4707 282.787 95.584 282.629 96.8145 282.629C98.291 282.629 99.6035 282.875 100.752 283.367C101.9 283.859 102.803 284.598 103.459 285.582C104.127 286.566 104.461 287.797 104.461 289.273V297.412C104.461 298.455 104.525 299.311 104.654 299.979C104.783 300.635 104.971 301.209 105.217 301.701V302H100.102C99.8555 301.484 99.668 300.84 99.5391 300.066C99.4219 299.281 99.3633 298.496 99.3633 297.711ZM100.031 290.416L100.066 293.281H97.2363C96.5684 293.281 95.9883 293.357 95.4961 293.51C95.0039 293.662 94.5996 293.879 94.2832 294.16C93.9668 294.43 93.7324 294.746 93.5801 295.109C93.4395 295.473 93.3691 295.871 93.3691 296.305C93.3691 296.738 93.4688 297.131 93.668 297.482C93.8672 297.822 94.1543 298.092 94.5293 298.291C94.9043 298.479 95.3438 298.572 95.8477 298.572C96.6094 298.572 97.2715 298.42 97.834 298.115C98.3965 297.811 98.8301 297.436 99.1348 296.99C99.4512 296.545 99.6152 296.123 99.627 295.725L100.963 297.869C100.775 298.35 100.518 298.848 100.189 299.363C99.873 299.879 99.4688 300.365 98.9766 300.822C98.4844 301.268 97.8926 301.637 97.2012 301.93C96.5098 302.211 95.6895 302.352 94.7402 302.352C93.5332 302.352 92.4375 302.111 91.4531 301.631C90.4805 301.139 89.707 300.465 89.1328 299.609C88.5703 298.742 88.2891 297.758 88.2891 296.656C88.2891 295.66 88.4766 294.775 88.8516 294.002C89.2266 293.229 89.7773 292.578 90.5039 292.051C91.2422 291.512 92.1621 291.107 93.2637 290.838C94.3652 290.557 95.6426 290.416 97.0957 290.416H100.031ZM113.426 274.982V302H108.363V274.982H113.426ZM125.414 282.98L117.152 292.402L112.723 296.885L110.877 293.229L114.393 288.764L119.332 282.98H125.414ZM120.158 302L114.533 293.211L118.031 290.152L125.994 302H120.158ZM135.996 302.352C134.52 302.352 133.195 302.117 132.023 301.648C130.852 301.168 129.855 300.506 129.035 299.662C128.227 298.818 127.605 297.84 127.172 296.727C126.738 295.602 126.521 294.406 126.521 293.141V292.438C126.521 290.996 126.727 289.678 127.137 288.482C127.547 287.287 128.133 286.25 128.895 285.371C129.668 284.492 130.605 283.818 131.707 283.35C132.809 282.869 134.051 282.629 135.434 282.629C136.781 282.629 137.977 282.852 139.02 283.297C140.062 283.742 140.936 284.375 141.639 285.195C142.354 286.016 142.893 287 143.256 288.148C143.619 289.285 143.801 290.551 143.801 291.945V294.055H128.684V290.68H138.826V290.293C138.826 289.59 138.697 288.963 138.439 288.412C138.193 287.85 137.818 287.404 137.314 287.076C136.811 286.748 136.166 286.584 135.381 286.584C134.713 286.584 134.139 286.73 133.658 287.023C133.178 287.316 132.785 287.727 132.48 288.254C132.188 288.781 131.965 289.402 131.812 290.117C131.672 290.82 131.602 291.594 131.602 292.438V293.141C131.602 293.902 131.707 294.605 131.918 295.25C132.141 295.895 132.451 296.451 132.85 296.92C133.26 297.389 133.752 297.752 134.326 298.01C134.912 298.268 135.574 298.396 136.312 298.396C137.227 298.396 138.076 298.221 138.861 297.869C139.658 297.506 140.344 296.961 140.918 296.234L143.379 298.906C142.98 299.48 142.436 300.031 141.744 300.559C141.064 301.086 140.244 301.52 139.283 301.859C138.322 302.188 137.227 302.352 135.996 302.352ZM165.914 297.711V289.238C165.914 288.629 165.814 288.107 165.615 287.674C165.416 287.229 165.105 286.883 164.684 286.637C164.273 286.391 163.74 286.268 163.084 286.268C162.521 286.268 162.035 286.367 161.625 286.566C161.215 286.754 160.898 287.029 160.676 287.393C160.453 287.744 160.342 288.16 160.342 288.641H155.279C155.279 287.832 155.467 287.064 155.842 286.338C156.217 285.611 156.762 284.973 157.477 284.422C158.191 283.859 159.041 283.42 160.025 283.104C161.021 282.787 162.135 282.629 163.365 282.629C164.842 282.629 166.154 282.875 167.303 283.367C168.451 283.859 169.354 284.598 170.01 285.582C170.678 286.566 171.012 287.797 171.012 289.273V297.412C171.012 298.455 171.076 299.311 171.205 299.979C171.334 300.635 171.521 301.209 171.768 301.701V302H166.652C166.406 301.484 166.219 300.84 166.09 300.066C165.973 299.281 165.914 298.496 165.914 297.711ZM166.582 290.416L166.617 293.281H163.787C163.119 293.281 162.539 293.357 162.047 293.51C161.555 293.662 161.15 293.879 160.834 294.16C160.518 294.43 160.283 294.746 160.131 295.109C159.99 295.473 159.92 295.871 159.92 296.305C159.92 296.738 160.02 297.131 160.219 297.482C160.418 297.822 160.705 298.092 161.08 298.291C161.455 298.479 161.895 298.572 162.398 298.572C163.16 298.572 163.822 298.42 164.385 298.115C164.947 297.811 165.381 297.436 165.686 296.99C166.002 296.545 166.166 296.123 166.178 295.725L167.514 297.869C167.326 298.35 167.068 298.848 166.74 299.363C166.424 299.879 166.02 300.365 165.527 300.822C165.035 301.268 164.443 301.637 163.752 301.93C163.061 302.211 162.24 302.352 161.291 302.352C160.084 302.352 158.988 302.111 158.004 301.631C157.031 301.139 156.258 300.465 155.684 299.609C155.121 298.742 154.84 297.758 154.84 296.656C154.84 295.66 155.027 294.775 155.402 294.002C155.777 293.229 156.328 292.578 157.055 292.051C157.793 291.512 158.713 291.107 159.814 290.838C160.916 290.557 162.193 290.416 163.646 290.416H166.582ZM193.195 282.98V286.566H182.121V282.98H193.195ZM184.863 278.287H189.926V296.27C189.926 296.82 189.996 297.242 190.137 297.535C190.289 297.828 190.512 298.033 190.805 298.15C191.098 298.256 191.467 298.309 191.912 298.309C192.229 298.309 192.51 298.297 192.756 298.273C193.014 298.238 193.23 298.203 193.406 298.168L193.424 301.895C192.99 302.035 192.521 302.146 192.018 302.229C191.514 302.311 190.957 302.352 190.348 302.352C189.234 302.352 188.262 302.17 187.43 301.807C186.609 301.432 185.977 300.834 185.531 300.014C185.086 299.193 184.863 298.115 184.863 296.779V278.287ZM194.812 292.684V292.314C194.812 290.92 195.012 289.637 195.41 288.465C195.809 287.281 196.389 286.256 197.15 285.389C197.912 284.521 198.85 283.848 199.963 283.367C201.076 282.875 202.354 282.629 203.795 282.629C205.236 282.629 206.52 282.875 207.645 283.367C208.77 283.848 209.713 284.521 210.475 285.389C211.248 286.256 211.834 287.281 212.232 288.465C212.631 289.637 212.83 290.92 212.83 292.314V292.684C212.83 294.066 212.631 295.35 212.232 296.533C211.834 297.705 211.248 298.73 210.475 299.609C209.713 300.477 208.775 301.15 207.662 301.631C206.549 302.111 205.271 302.352 203.83 302.352C202.389 302.352 201.105 302.111 199.98 301.631C198.867 301.15 197.924 300.477 197.15 299.609C196.389 298.73 195.809 297.705 195.41 296.533C195.012 295.35 194.812 294.066 194.812 292.684ZM199.875 292.314V292.684C199.875 293.48 199.945 294.225 200.086 294.916C200.227 295.607 200.449 296.217 200.754 296.744C201.07 297.26 201.48 297.664 201.984 297.957C202.488 298.25 203.104 298.396 203.83 298.396C204.533 298.396 205.137 298.25 205.641 297.957C206.145 297.664 206.549 297.26 206.854 296.744C207.158 296.217 207.381 295.607 207.521 294.916C207.674 294.225 207.75 293.48 207.75 292.684V292.314C207.75 291.541 207.674 290.814 207.521 290.135C207.381 289.443 207.152 288.834 206.836 288.307C206.531 287.768 206.127 287.346 205.623 287.041C205.119 286.736 204.51 286.584 203.795 286.584C203.08 286.584 202.471 286.736 201.967 287.041C201.475 287.346 201.07 287.768 200.754 288.307C200.449 288.834 200.227 289.443 200.086 290.135C199.945 290.814 199.875 291.541 199.875 292.314ZM227.191 297.447V282.98H232.254V302H227.49L227.191 297.447ZM227.754 293.545L229.248 293.51C229.248 294.775 229.102 295.953 228.809 297.043C228.516 298.121 228.076 299.059 227.49 299.855C226.904 300.641 226.166 301.256 225.275 301.701C224.385 302.135 223.336 302.352 222.129 302.352C221.203 302.352 220.348 302.223 219.562 301.965C218.789 301.695 218.121 301.279 217.559 300.717C217.008 300.143 216.574 299.41 216.258 298.52C215.953 297.617 215.801 296.533 215.801 295.268V282.98H220.863V295.303C220.863 295.865 220.928 296.34 221.057 296.727C221.197 297.113 221.391 297.43 221.637 297.676C221.883 297.922 222.17 298.098 222.498 298.203C222.838 298.309 223.213 298.361 223.623 298.361C224.666 298.361 225.486 298.15 226.084 297.729C226.693 297.307 227.121 296.732 227.367 296.006C227.625 295.268 227.754 294.447 227.754 293.545ZM241.184 287.129V302H236.121V282.98H240.885L241.184 287.129ZM246.914 282.857L246.826 287.551C246.58 287.516 246.281 287.486 245.93 287.463C245.59 287.428 245.279 287.41 244.998 287.41C244.283 287.41 243.662 287.504 243.135 287.691C242.619 287.867 242.186 288.131 241.834 288.482C241.494 288.834 241.236 289.262 241.061 289.766C240.896 290.27 240.803 290.844 240.779 291.488L239.76 291.172C239.76 289.941 239.883 288.811 240.129 287.779C240.375 286.736 240.732 285.828 241.201 285.055C241.682 284.281 242.268 283.684 242.959 283.262C243.65 282.84 244.441 282.629 245.332 282.629C245.613 282.629 245.9 282.652 246.193 282.699C246.486 282.734 246.727 282.787 246.914 282.857ZM257.461 292.684V292.314C257.461 290.92 257.66 289.637 258.059 288.465C258.457 287.281 259.037 286.256 259.799 285.389C260.561 284.521 261.498 283.848 262.611 283.367C263.725 282.875 265.002 282.629 266.443 282.629C267.885 282.629 269.168 282.875 270.293 283.367C271.418 283.848 272.361 284.521 273.123 285.389C273.896 286.256 274.482 287.281 274.881 288.465C275.279 289.637 275.479 290.92 275.479 292.314V292.684C275.479 294.066 275.279 295.35 274.881 296.533C274.482 297.705 273.896 298.73 273.123 299.609C272.361 300.477 271.424 301.15 270.311 301.631C269.197 302.111 267.92 302.352 266.479 302.352C265.037 302.352 263.754 302.111 262.629 301.631C261.516 301.15 260.572 300.477 259.799 299.609C259.037 298.73 258.457 297.705 258.059 296.533C257.66 295.35 257.461 294.066 257.461 292.684ZM262.523 292.314V292.684C262.523 293.48 262.594 294.225 262.734 294.916C262.875 295.607 263.098 296.217 263.402 296.744C263.719 297.26 264.129 297.664 264.633 297.957C265.137 298.25 265.752 298.396 266.479 298.396C267.182 298.396 267.785 298.25 268.289 297.957C268.793 297.664 269.197 297.26 269.502 296.744C269.807 296.217 270.029 295.607 270.17 294.916C270.322 294.225 270.398 293.48 270.398 292.684V292.314C270.398 291.541 270.322 290.814 270.17 290.135C270.029 289.443 269.801 288.834 269.484 288.307C269.18 287.768 268.775 287.346 268.271 287.041C267.768 286.736 267.158 286.584 266.443 286.584C265.729 286.584 265.119 286.736 264.615 287.041C264.123 287.346 263.719 287.768 263.402 288.307C263.098 288.834 262.875 289.443 262.734 290.135C262.594 290.814 262.523 291.541 262.523 292.314ZM285.041 302H279.943V281.293C279.943 279.852 280.225 278.639 280.787 277.654C281.361 276.658 282.164 275.908 283.195 275.404C284.238 274.889 285.475 274.631 286.904 274.631C287.373 274.631 287.824 274.666 288.258 274.736C288.691 274.795 289.113 274.871 289.523 274.965L289.471 278.779C289.248 278.721 289.014 278.68 288.768 278.656C288.521 278.633 288.234 278.621 287.906 278.621C287.297 278.621 286.775 278.727 286.342 278.938C285.92 279.137 285.598 279.436 285.375 279.834C285.152 280.232 285.041 280.719 285.041 281.293V302ZM288.838 282.98V286.566H277.113V282.98H288.838Z" fill="white"/>
<g clip-path="url(#clip0_58_8070)">
<path d="M358.951 275.492C358.617 274.237 357.965 273.093 357.061 272.174C356.156 271.255 355.031 270.592 353.797 270.253C349.277 269 331.088 269 331.088 269C331.088 269 312.899 269.038 308.38 270.291C307.146 270.63 306.021 271.293 305.116 272.212C304.212 273.131 303.56 274.275 303.226 275.53C301.859 283.693 301.329 296.13 303.264 303.966C303.598 305.221 304.249 306.365 305.154 307.284C306.058 308.203 307.183 308.866 308.418 309.205C312.937 310.458 331.126 310.458 331.126 310.458C331.126 310.458 349.315 310.458 353.834 309.205C355.068 308.866 356.194 308.203 357.098 307.284C358.002 306.365 358.654 305.221 358.988 303.966C360.429 295.792 360.874 283.362 358.951 275.492L358.951 275.492Z" fill="#FE0000"/>
<path d="M358.951 275.492C358.617 274.237 357.965 273.093 357.061 272.174C356.156 271.255 355.031 270.592 353.797 270.253C349.277 269 331.088 269 331.088 269C331.088 269 312.899 269.038 308.38 270.291C307.146 270.63 306.021 271.293 305.116 272.212C304.212 273.131 303.56 274.275 303.226 275.53C301.859 283.693 301.329 296.13 303.264 303.966C303.598 305.221 304.249 306.365 305.154 307.284C306.058 308.203 307.183 308.866 308.418 309.205C312.937 310.458 331.126 310.458 331.126 310.458C331.126 310.458 349.315 310.458 353.834 309.205C355.068 308.866 356.194 308.203 357.098 307.284C358.002 306.365 358.654 305.221 358.988 303.966C360.429 295.792 360.874 283.362 358.951 275.492L358.951 275.492Z" fill="black" fill-opacity="0.2"/>
<path d="M325.299 298.613L340.388 289.729L325.299 280.845V298.613Z" fill="white"/>
<path d="M476.973 281.035C478.952 281.035 480.446 281.415 481.492 282.136C482.538 282.857 483.285 283.996 483.733 285.553C484.181 287.11 484.368 289.235 484.368 291.969V296.411H474.769V297.778L474.919 301.536C475.031 302.372 475.218 302.979 475.516 303.359C475.815 303.738 476.3 303.928 476.936 303.928C477.795 303.928 478.392 303.587 478.691 302.903C479.027 302.22 479.176 301.081 479.214 299.524L484.181 299.828C484.219 300.056 484.219 300.36 484.219 300.739C484.219 303.131 483.583 304.915 482.276 306.092C480.969 307.269 479.176 307.876 476.823 307.876C473.985 307.876 472.006 306.965 470.885 305.181C469.765 303.397 469.167 300.587 469.167 296.829V292.235C469.294 285.781 470.411 281.054 476.973 281.035V281.035ZM407.915 281.529V300.549C407.915 301.688 408.027 302.524 408.288 303.017C408.819 304.073 410.193 303.803 410.94 303.283C411.371 302.987 411.719 302.581 411.949 302.106V281.528H417.663V307.459H413.181L412.696 304.27H412.584C411.351 306.661 409.521 307.876 407.093 307.876C403.357 307.867 402.443 305.13 402.225 302.351L402.211 302.155C402.184 301.734 402.168 301.312 402.163 300.891V281.529H407.915H407.915ZM437.383 281.529V300.549C437.383 301.688 437.495 302.524 437.757 303.017C438.287 304.073 439.662 303.803 440.408 303.283C440.84 302.987 441.187 302.581 441.417 302.106V281.528H447.131V307.459H442.649L442.164 304.27H442.052C440.819 306.661 438.989 307.876 436.562 307.876C432.825 307.867 431.911 305.13 431.693 302.351L431.679 302.155C431.652 301.734 431.636 301.312 431.632 300.891V281.529H437.383ZM391.332 281.035C393.2 281.035 394.731 281.415 395.851 282.212C396.972 283.009 397.831 284.224 398.354 285.895C398.877 287.565 399.138 289.805 399.138 292.576V296.335C399.138 299.106 398.877 301.309 398.354 302.979C397.831 304.65 397.009 305.864 395.851 306.662C394.694 307.421 393.125 307.838 391.183 307.838C389.166 307.876 387.597 307.459 386.44 306.7C385.282 305.902 384.46 304.687 383.975 303.017C383.489 301.347 383.265 299.144 383.265 296.373V292.614C383.265 289.843 383.526 287.565 384.087 285.894C384.647 284.186 385.506 282.971 386.701 282.212C387.896 281.452 389.427 281.035 391.332 281.035V281.035ZM456.095 270.633V284.3H456.132C456.655 283.313 457.327 282.516 458.261 281.908C459.133 281.312 460.161 280.995 461.212 280.997C462.594 280.997 463.639 281.377 464.424 282.098C465.208 282.857 465.768 284.034 466.104 285.667C466.43 287.248 466.615 289.436 466.627 292.194L466.627 292.463V296.563C466.627 300.397 466.142 303.245 465.245 305.067C464.312 306.889 462.892 307.801 460.95 307.801C459.867 307.801 458.896 307.535 458 307.042C457.207 306.572 456.55 305.899 456.094 305.089L456.02 304.953H455.908L455.311 307.421H450.567V270.633H456.095V270.633ZM433.237 271.961V276.669H427.56V307.459H421.958V276.669H416.244V271.962H433.238L433.237 271.961ZM371.649 271.961L371.653 271.976C371.707 272.222 372.462 275.635 373.293 279.611L373.358 279.926L373.458 280.402L373.524 280.722L373.557 280.882L373.623 281.204L373.656 281.365L373.722 281.687L373.818 282.159C374.379 284.912 374.915 287.673 375.235 289.653H375.384C375.691 287.877 376.137 285.604 376.612 283.284L376.737 282.678C376.799 282.374 376.862 282.071 376.925 281.768L377.023 281.299C377.668 278.224 378.333 275.153 379.017 272.086L379.027 272.037L379.044 271.961H384.759L378.148 295.918V307.421H372.508V295.955H372.471L365.935 271.961H371.649V271.961ZM391.22 285.059C390.436 285.059 389.913 285.477 389.577 286.35C389.241 287.223 389.091 288.552 389.091 290.413V298.499C389.091 300.398 389.241 301.802 389.539 302.638C389.838 303.473 390.399 303.89 391.22 303.89C392.004 303.89 392.565 303.473 392.901 302.638C393.237 301.802 393.386 300.398 393.386 298.499V290.412C393.386 288.552 393.237 287.185 392.901 286.35C392.565 285.477 392.004 285.059 391.22 285.059V285.059ZM457.103 285.819C456.648 286.246 456.324 286.773 456.132 287.431L456.095 287.565V302.295C456.558 303.093 457.216 303.624 458.373 303.662C458.971 303.662 459.456 303.435 459.83 302.979C460.203 302.524 460.465 301.764 460.614 300.701C460.757 299.681 460.832 298.275 460.838 296.485V292.88C460.838 290.83 460.763 289.274 460.651 288.173C460.502 287.072 460.315 286.274 459.979 285.819C459.329 284.869 457.925 284.881 457.103 285.819ZM476.861 284.946C476.226 284.984 475.778 285.173 475.516 285.515C475.218 285.895 475.031 286.464 474.919 287.299C474.809 288.118 474.771 290.978 474.769 291.092V292.956H478.952V291.313V291.344C478.95 291.919 478.938 291.011 478.912 289.896L478.909 289.746C478.885 288.766 478.851 287.674 478.803 287.299C478.691 286.426 478.504 285.818 478.205 285.477C477.907 285.135 477.458 284.946 476.861 284.946H476.861Z" fill="white"/>
</g>
<defs>
<clipPath id="clip0_58_8070">
<rect width="182.368" height="42" fill="white" transform="translate(302 269)"/>
</clipPath>
</defs>
</svg>
