<svg width="272" height="230" viewBox="0 0 272 230" fill="none" xmlns="http://www.w3.org/2000/svg">
<g filter="url(#filter0_d_32_34633)">
<path d="M268 26.3728C268 21.9546 264.418 18.3728 260 18.3728L48.16 18.3724C45.5444 18.3724 43.094 17.0937 41.5979 14.9482L36.8568 8.14905L35.5339 5.97488C33.9594 3.3872 30.1483 3.55774 28.8112 6.27571L23.5989 14.6132C22.1369 16.9518 19.5735 18.3724 16.8156 18.3725L11.9998 18.3726C7.58157 18.3727 4 21.9544 4 26.3726V214C4 218.418 7.58173 222 12 222H260C264.418 222 268 218.418 268 214V26.3728Z" fill="#F3F3F3"/>
<path d="M35.8633 41.978H37.8477L40.7695 50.3296L43.6914 41.978H45.6758L41.5664 53.353H39.9727L35.8633 41.978ZM34.793 41.978H36.7695L37.1289 50.1187V53.353H34.793V41.978ZM44.7695 41.978H46.7539V53.353H44.4102V50.1187L44.7695 41.978ZM52.5586 53.5093C51.9023 53.5093 51.3138 53.4051 50.793 53.1968C50.2721 52.9832 49.8294 52.689 49.4648 52.314C49.1055 51.939 48.8294 51.5041 48.6367 51.0093C48.444 50.5093 48.3477 49.978 48.3477 49.4155V49.103C48.3477 48.4624 48.4388 47.8765 48.6211 47.3452C48.8034 46.814 49.0638 46.353 49.4023 45.9624C49.7461 45.5718 50.1628 45.2723 50.6523 45.064C51.1419 44.8504 51.694 44.7437 52.3086 44.7437C52.9076 44.7437 53.4388 44.8426 53.9023 45.0405C54.3659 45.2384 54.7539 45.5197 55.0664 45.8843C55.3841 46.2489 55.6237 46.6864 55.7852 47.1968C55.9466 47.702 56.0273 48.2645 56.0273 48.8843V49.8218H49.3086V48.3218H53.8164V48.1499C53.8164 47.8374 53.7591 47.5588 53.6445 47.314C53.5352 47.064 53.3685 46.866 53.1445 46.7202C52.9206 46.5744 52.6341 46.5015 52.2852 46.5015C51.9883 46.5015 51.7331 46.5666 51.5195 46.6968C51.306 46.827 51.1315 47.0093 50.9961 47.2437C50.8659 47.478 50.7669 47.7541 50.6992 48.0718C50.6367 48.3843 50.6055 48.728 50.6055 49.103V49.4155C50.6055 49.7541 50.6523 50.0666 50.7461 50.353C50.8451 50.6395 50.9831 50.8869 51.1602 51.0952C51.3424 51.3035 51.5612 51.465 51.8164 51.5796C52.0768 51.6942 52.3711 51.7515 52.6992 51.7515C53.1055 51.7515 53.4831 51.6733 53.832 51.5171C54.1862 51.3556 54.4909 51.1134 54.7461 50.7905L55.8398 51.978C55.6628 52.2332 55.4206 52.478 55.1133 52.7124C54.8112 52.9468 54.4466 53.1395 54.0195 53.2905C53.5924 53.4364 53.1055 53.5093 52.5586 53.5093ZM59.5117 46.7046V53.353H57.2617V44.8999H59.3711L59.5117 46.7046ZM59.1836 48.8296H58.5742C58.5742 48.2046 58.6549 47.6421 58.8164 47.1421C58.9779 46.6369 59.2044 46.2072 59.4961 45.853C59.7878 45.4937 60.1341 45.2202 60.5352 45.0327C60.9414 44.84 61.3945 44.7437 61.8945 44.7437C62.2904 44.7437 62.6523 44.8009 62.9805 44.9155C63.3086 45.0301 63.5898 45.2124 63.8242 45.4624C64.0638 45.7124 64.2461 46.0431 64.3711 46.4546C64.5013 46.866 64.5664 47.3687 64.5664 47.9624V53.353H62.3008V47.9546C62.3008 47.5796 62.2487 47.2879 62.1445 47.0796C62.0404 46.8713 61.8867 46.7254 61.6836 46.6421C61.4857 46.5535 61.2409 46.5093 60.9492 46.5093C60.6471 46.5093 60.3841 46.5692 60.1602 46.689C59.9414 46.8088 59.7591 46.9754 59.6133 47.189C59.4727 47.3973 59.3659 47.6421 59.293 47.9233C59.2201 48.2046 59.1836 48.5067 59.1836 48.8296ZM71.2773 51.3296V44.8999H73.5273V53.353H71.4102L71.2773 51.3296ZM71.5273 49.5952L72.1914 49.5796C72.1914 50.1421 72.1263 50.6655 71.9961 51.1499C71.8659 51.6291 71.6706 52.0457 71.4102 52.3999C71.1497 52.7489 70.8216 53.0223 70.4258 53.2202C70.0299 53.4129 69.5638 53.5093 69.0273 53.5093C68.6159 53.5093 68.2357 53.452 67.8867 53.3374C67.543 53.2176 67.2461 53.0327 66.9961 52.7827C66.7513 52.5275 66.5586 52.202 66.418 51.8062C66.2826 51.4051 66.2148 50.9233 66.2148 50.3608V44.8999H68.4648V50.3765C68.4648 50.6265 68.4935 50.8374 68.5508 51.0093C68.6133 51.1812 68.6992 51.3218 68.8086 51.4312C68.918 51.5405 69.0456 51.6187 69.1914 51.6655C69.3424 51.7124 69.5091 51.7358 69.6914 51.7358C70.1549 51.7358 70.5195 51.6421 70.7852 51.4546C71.056 51.2671 71.2461 51.0119 71.3555 50.689C71.4701 50.3608 71.5273 49.9963 71.5273 49.5952ZM41.9648 68.7358H43.4648C43.3867 69.4546 43.181 70.0978 42.8477 70.6655C42.5143 71.2332 42.043 71.6838 41.4336 72.0171C40.8242 72.3452 40.0638 72.5093 39.1523 72.5093C38.4857 72.5093 37.8789 72.3843 37.332 72.1343C36.7904 71.8843 36.3242 71.5301 35.9336 71.0718C35.543 70.6082 35.2409 70.0535 35.0273 69.4077C34.819 68.7567 34.7148 68.0327 34.7148 67.2358V66.103C34.7148 65.3062 34.819 64.5848 35.0273 63.939C35.2409 63.2879 35.5456 62.7306 35.9414 62.2671C36.3424 61.8035 36.8242 61.4468 37.3867 61.1968C37.9492 60.9468 38.582 60.8218 39.2852 60.8218C40.1445 60.8218 40.8711 60.9832 41.4648 61.3062C42.0586 61.6291 42.5195 62.077 42.8477 62.6499C43.181 63.2176 43.3867 63.8765 43.4648 64.6265H41.9648C41.8919 64.0952 41.7565 63.6395 41.5586 63.2593C41.3607 62.8739 41.0794 62.577 40.7148 62.3687C40.3503 62.1603 39.8737 62.0562 39.2852 62.0562C38.7799 62.0562 38.3346 62.1525 37.9492 62.3452C37.569 62.5379 37.2487 62.8114 36.9883 63.1655C36.7331 63.5197 36.5404 63.9442 36.4102 64.439C36.2799 64.9338 36.2148 65.4832 36.2148 66.0874V67.2358C36.2148 67.7931 36.2721 68.3166 36.3867 68.8062C36.5065 69.2957 36.6862 69.7254 36.9258 70.0952C37.1654 70.465 37.4701 70.7567 37.8398 70.9702C38.2096 71.1785 38.6471 71.2827 39.1523 71.2827C39.793 71.2827 40.3034 71.1812 40.6836 70.978C41.0638 70.7749 41.3503 70.4832 41.543 70.103C41.7409 69.7228 41.8815 69.2671 41.9648 68.7358ZM46.7461 60.353V72.353H45.3008V60.353H46.7461ZM46.4023 67.8062L45.8008 67.7827C45.806 67.2046 45.8919 66.6707 46.0586 66.1812C46.2253 65.6864 46.4596 65.2567 46.7617 64.8921C47.0638 64.5275 47.4232 64.2463 47.8398 64.0483C48.2617 63.8452 48.7279 63.7437 49.2383 63.7437C49.6549 63.7437 50.0299 63.8009 50.3633 63.9155C50.6966 64.0249 50.9805 64.202 51.2148 64.4468C51.4544 64.6916 51.6367 65.0093 51.7617 65.3999C51.8867 65.7853 51.9492 66.2567 51.9492 66.814V72.353H50.4961V66.7983C50.4961 66.3556 50.431 66.0015 50.3008 65.7358C50.1706 65.465 49.9805 65.2697 49.7305 65.1499C49.4805 65.0249 49.1732 64.9624 48.8086 64.9624C48.4492 64.9624 48.1211 65.0379 47.8242 65.189C47.5326 65.34 47.2799 65.5483 47.0664 65.814C46.8581 66.0796 46.694 66.3843 46.5742 66.728C46.4596 67.0666 46.4023 67.4259 46.4023 67.8062ZM59.0977 70.9077V66.5562C59.0977 66.2228 59.0299 65.9338 58.8945 65.689C58.7643 65.439 58.5664 65.2463 58.3008 65.1108C58.0352 64.9754 57.707 64.9077 57.3164 64.9077C56.9518 64.9077 56.6315 64.9702 56.3555 65.0952C56.0846 65.2202 55.8711 65.3843 55.7148 65.5874C55.5638 65.7905 55.4883 66.0093 55.4883 66.2437H54.043C54.043 65.9416 54.1211 65.6421 54.2773 65.3452C54.4336 65.0483 54.6576 64.7801 54.9492 64.5405C55.2461 64.2957 55.6003 64.103 56.0117 63.9624C56.4284 63.8166 56.8919 63.7437 57.4023 63.7437C58.0169 63.7437 58.5586 63.8478 59.0273 64.0562C59.5013 64.2645 59.8711 64.5796 60.1367 65.0015C60.4076 65.4181 60.543 65.9416 60.543 66.5718V70.5093C60.543 70.7905 60.5664 71.09 60.6133 71.4077C60.6654 71.7254 60.7409 71.9989 60.8398 72.228V72.353H59.332C59.2591 72.1864 59.2018 71.965 59.1602 71.689C59.1185 71.4077 59.0977 71.1473 59.0977 70.9077ZM59.3477 67.228L59.3633 68.2437H57.9023C57.4909 68.2437 57.1237 68.2775 56.8008 68.3452C56.4779 68.4077 56.207 68.5041 55.9883 68.6343C55.7695 68.7645 55.6029 68.9285 55.4883 69.1265C55.3737 69.3192 55.3164 69.5457 55.3164 69.8062C55.3164 70.0718 55.3763 70.314 55.4961 70.5327C55.6159 70.7515 55.7956 70.9259 56.0352 71.0562C56.2799 71.1812 56.5794 71.2437 56.9336 71.2437C57.3763 71.2437 57.7669 71.1499 58.1055 70.9624C58.444 70.7749 58.7122 70.5457 58.9102 70.2749C59.1133 70.0041 59.2227 69.741 59.2383 69.4858L59.8555 70.1812C59.819 70.3999 59.7201 70.6421 59.5586 70.9077C59.3971 71.1733 59.181 71.4285 58.9102 71.6733C58.6445 71.9129 58.3268 72.1134 57.957 72.2749C57.5924 72.4312 57.181 72.5093 56.7227 72.5093C56.1497 72.5093 55.6471 72.3973 55.2148 72.1733C54.7878 71.9494 54.4544 71.6499 54.2148 71.2749C53.9805 70.8947 53.8633 70.4702 53.8633 70.0015C53.8633 69.5483 53.9518 69.1499 54.1289 68.8062C54.306 68.4572 54.5612 68.1681 54.8945 67.939C55.2279 67.7046 55.6289 67.5275 56.0977 67.4077C56.5664 67.2879 57.0898 67.228 57.668 67.228H59.3477ZM64.2617 65.7046V72.353H62.8164V63.8999H64.1836L64.2617 65.7046ZM63.918 67.8062L63.3164 67.7827C63.3216 67.2046 63.4076 66.6707 63.5742 66.1812C63.7409 65.6864 63.9753 65.2567 64.2773 64.8921C64.5794 64.5275 64.9388 64.2463 65.3555 64.0483C65.7773 63.8452 66.2435 63.7437 66.7539 63.7437C67.1706 63.7437 67.5456 63.8009 67.8789 63.9155C68.2122 64.0249 68.4961 64.202 68.7305 64.4468C68.9701 64.6916 69.1523 65.0093 69.2773 65.3999C69.4023 65.7853 69.4648 66.2567 69.4648 66.814V72.353H68.0117V66.7983C68.0117 66.3556 67.9466 66.0015 67.8164 65.7358C67.6862 65.465 67.4961 65.2697 67.2461 65.1499C66.9961 65.0249 66.6888 64.9624 66.3242 64.9624C65.9648 64.9624 65.6367 65.0379 65.3398 65.189C65.0482 65.34 64.7956 65.5483 64.582 65.814C64.3737 66.0796 64.2096 66.3843 64.0898 66.728C63.9753 67.0666 63.918 67.4259 63.918 67.8062ZM77.1367 63.8999H78.4492V72.1733C78.4492 72.9181 78.2982 73.5535 77.9961 74.0796C77.694 74.6056 77.2721 75.0041 76.7305 75.2749C76.194 75.5509 75.5742 75.689 74.8711 75.689C74.5794 75.689 74.2357 75.6421 73.8398 75.5483C73.4492 75.4598 73.0638 75.3062 72.6836 75.0874C72.3086 74.8739 71.9935 74.5848 71.7383 74.2202L72.4961 73.3608C72.8503 73.7879 73.2201 74.0848 73.6055 74.2515C73.9961 74.4181 74.3815 74.5015 74.7617 74.5015C75.2201 74.5015 75.6159 74.4155 75.9492 74.2437C76.2826 74.0718 76.5404 73.8166 76.7227 73.478C76.9102 73.1447 77.0039 72.7332 77.0039 72.2437V65.7593L77.1367 63.8999ZM71.3164 68.2202V68.0562C71.3164 67.4103 71.3919 66.8244 71.543 66.2983C71.6992 65.7671 71.9206 65.3114 72.207 64.9312C72.4987 64.5509 72.8503 64.2593 73.2617 64.0562C73.6732 63.8478 74.1367 63.7437 74.6523 63.7437C75.1836 63.7437 75.6471 63.8374 76.043 64.0249C76.444 64.2072 76.7826 64.4754 77.0586 64.8296C77.3398 65.1785 77.5612 65.6004 77.7227 66.0952C77.8841 66.59 77.9961 67.1499 78.0586 67.7749V68.4937C78.0013 69.1134 77.8893 69.6707 77.7227 70.1655C77.5612 70.6603 77.3398 71.0822 77.0586 71.4312C76.7826 71.7801 76.444 72.0483 76.043 72.2358C75.6419 72.4181 75.1732 72.5093 74.6367 72.5093C74.1315 72.5093 73.6732 72.4025 73.2617 72.189C72.8555 71.9754 72.5065 71.6759 72.2148 71.2905C71.9232 70.9051 71.6992 70.452 71.543 69.9312C71.3919 69.4051 71.3164 68.8348 71.3164 68.2202ZM72.7617 68.0562V68.2202C72.7617 68.6421 72.8034 69.0379 72.8867 69.4077C72.9753 69.7775 73.1081 70.103 73.2852 70.3843C73.4674 70.6655 73.6992 70.8869 73.9805 71.0483C74.2617 71.2046 74.5977 71.2827 74.9883 71.2827C75.4674 71.2827 75.8633 71.1812 76.1758 70.978C76.4883 70.7749 76.7357 70.5067 76.918 70.1733C77.1055 69.84 77.2513 69.478 77.3555 69.0874V67.2046C77.2982 66.9181 77.2096 66.6421 77.0898 66.3765C76.9753 66.1056 76.8242 65.866 76.6367 65.6577C76.4544 65.4442 76.2279 65.2749 75.957 65.1499C75.6862 65.0249 75.3685 64.9624 75.0039 64.9624C74.6081 64.9624 74.2669 65.0457 73.9805 65.2124C73.6992 65.3739 73.4674 65.5978 73.2852 65.8843C73.1081 66.1655 72.9753 66.4937 72.8867 66.8687C72.8034 67.2384 72.7617 67.6343 72.7617 68.0562ZM84.1523 72.5093C83.5638 72.5093 83.0299 72.4103 82.5508 72.2124C82.0768 72.0093 81.668 71.7254 81.3242 71.3608C80.9857 70.9963 80.7253 70.564 80.543 70.064C80.3607 69.564 80.2695 69.0171 80.2695 68.4233V68.0952C80.2695 67.4077 80.3711 66.7957 80.5742 66.2593C80.7773 65.7176 81.0534 65.2593 81.4023 64.8843C81.7513 64.5093 82.1471 64.2254 82.5898 64.0327C83.0326 63.84 83.4909 63.7437 83.9648 63.7437C84.569 63.7437 85.0898 63.8478 85.5273 64.0562C85.9701 64.2645 86.332 64.5562 86.6133 64.9312C86.8945 65.3009 87.1029 65.7384 87.2383 66.2437C87.3737 66.7437 87.4414 67.2905 87.4414 67.8843V68.5327H81.1289V67.353H85.9961V67.2437C85.9753 66.8687 85.8971 66.5041 85.7617 66.1499C85.6315 65.7957 85.4232 65.5041 85.1367 65.2749C84.8503 65.0457 84.4596 64.9312 83.9648 64.9312C83.6367 64.9312 83.3346 65.0015 83.0586 65.1421C82.7826 65.2775 82.5456 65.4806 82.3477 65.7515C82.1497 66.0223 81.9961 66.353 81.8867 66.7437C81.7773 67.1343 81.7227 67.5848 81.7227 68.0952V68.4233C81.7227 68.8244 81.7773 69.202 81.8867 69.5562C82.0013 69.9051 82.1654 70.2124 82.3789 70.478C82.5977 70.7437 82.8607 70.952 83.168 71.103C83.4805 71.2541 83.8346 71.3296 84.2305 71.3296C84.7409 71.3296 85.1732 71.2254 85.5273 71.0171C85.8815 70.8088 86.1914 70.5301 86.457 70.1812L87.332 70.8765C87.1497 71.1525 86.918 71.4155 86.6367 71.6655C86.3555 71.9155 86.0091 72.1187 85.5977 72.2749C85.1914 72.4312 84.7096 72.5093 84.1523 72.5093ZM96.6367 63.8999V65.0093H92.0664V63.8999H96.6367ZM93.6133 61.8452H95.0586V70.2593C95.0586 70.5457 95.1029 70.7619 95.1914 70.9077C95.2799 71.0535 95.3945 71.1499 95.5352 71.1968C95.6758 71.2437 95.8268 71.2671 95.9883 71.2671C96.1081 71.2671 96.2331 71.2567 96.3633 71.2358C96.4987 71.2098 96.6003 71.189 96.668 71.1733L96.6758 72.353C96.5612 72.3895 96.4102 72.4233 96.2227 72.4546C96.0404 72.491 95.819 72.5093 95.5586 72.5093C95.2044 72.5093 94.8789 72.439 94.582 72.2983C94.2852 72.1577 94.0482 71.9233 93.8711 71.5952C93.6992 71.2619 93.6133 70.814 93.6133 70.2515V61.8452ZM99.7773 60.353V72.353H98.332V60.353H99.7773ZM99.4336 67.8062L98.832 67.7827C98.8372 67.2046 98.9232 66.6707 99.0898 66.1812C99.2565 65.6864 99.4909 65.2567 99.793 64.8921C100.095 64.5275 100.454 64.2463 100.871 64.0483C101.293 63.8452 101.759 63.7437 102.27 63.7437C102.686 63.7437 103.061 63.8009 103.395 63.9155C103.728 64.0249 104.012 64.202 104.246 64.4468C104.486 64.6916 104.668 65.0093 104.793 65.3999C104.918 65.7853 104.98 66.2567 104.98 66.814V72.353H103.527V66.7983C103.527 66.3556 103.462 66.0015 103.332 65.7358C103.202 65.465 103.012 65.2697 102.762 65.1499C102.512 65.0249 102.204 64.9624 101.84 64.9624C101.48 64.9624 101.152 65.0379 100.855 65.189C100.564 65.34 100.311 65.5483 100.098 65.814C99.8893 66.0796 99.7253 66.3843 99.6055 66.728C99.4909 67.0666 99.4336 67.4259 99.4336 67.8062ZM110.652 72.5093C110.064 72.5093 109.53 72.4103 109.051 72.2124C108.577 72.0093 108.168 71.7254 107.824 71.3608C107.486 70.9963 107.225 70.564 107.043 70.064C106.861 69.564 106.77 69.0171 106.77 68.4233V68.0952C106.77 67.4077 106.871 66.7957 107.074 66.2593C107.277 65.7176 107.553 65.2593 107.902 64.8843C108.251 64.5093 108.647 64.2254 109.09 64.0327C109.533 63.84 109.991 63.7437 110.465 63.7437C111.069 63.7437 111.59 63.8478 112.027 64.0562C112.47 64.2645 112.832 64.5562 113.113 64.9312C113.395 65.3009 113.603 65.7384 113.738 66.2437C113.874 66.7437 113.941 67.2905 113.941 67.8843V68.5327H107.629V67.353H112.496V67.2437C112.475 66.8687 112.397 66.5041 112.262 66.1499C112.132 65.7957 111.923 65.5041 111.637 65.2749C111.35 65.0457 110.96 64.9312 110.465 64.9312C110.137 64.9312 109.835 65.0015 109.559 65.1421C109.283 65.2775 109.046 65.4806 108.848 65.7515C108.65 66.0223 108.496 66.353 108.387 66.7437C108.277 67.1343 108.223 67.5848 108.223 68.0952V68.4233C108.223 68.8244 108.277 69.202 108.387 69.5562C108.501 69.9051 108.665 70.2124 108.879 70.478C109.098 70.7437 109.361 70.952 109.668 71.103C109.98 71.2541 110.335 71.3296 110.73 71.3296C111.241 71.3296 111.673 71.2254 112.027 71.0171C112.382 70.8088 112.691 70.5301 112.957 70.1812L113.832 70.8765C113.65 71.1525 113.418 71.4155 113.137 71.6655C112.855 71.9155 112.509 72.1187 112.098 72.2749C111.691 72.4312 111.21 72.5093 110.652 72.5093ZM122.168 71.0483L124.48 63.8999H125.957L122.918 72.353H121.949L122.168 71.0483ZM120.238 63.8999L122.621 71.0874L122.785 72.353H121.816L118.754 63.8999H120.238ZM128.918 63.8999V72.353H127.465V63.8999H128.918ZM127.355 61.6577C127.355 61.4233 127.426 61.2254 127.566 61.064C127.712 60.9025 127.926 60.8218 128.207 60.8218C128.483 60.8218 128.694 60.9025 128.84 61.064C128.991 61.2254 129.066 61.4233 129.066 61.6577C129.066 61.8817 128.991 62.0744 128.84 62.2358C128.694 62.3921 128.483 62.4702 128.207 62.4702C127.926 62.4702 127.712 62.3921 127.566 62.2358C127.426 62.0744 127.355 61.8817 127.355 61.6577ZM134.746 72.5093C134.158 72.5093 133.624 72.4103 133.145 72.2124C132.671 72.0093 132.262 71.7254 131.918 71.3608C131.579 70.9963 131.319 70.564 131.137 70.064C130.954 69.564 130.863 69.0171 130.863 68.4233V68.0952C130.863 67.4077 130.965 66.7957 131.168 66.2593C131.371 65.7176 131.647 65.2593 131.996 64.8843C132.345 64.5093 132.741 64.2254 133.184 64.0327C133.626 63.84 134.085 63.7437 134.559 63.7437C135.163 63.7437 135.684 63.8478 136.121 64.0562C136.564 64.2645 136.926 64.5562 137.207 64.9312C137.488 65.3009 137.697 65.7384 137.832 66.2437C137.967 66.7437 138.035 67.2905 138.035 67.8843V68.5327H131.723V67.353H136.59V67.2437C136.569 66.8687 136.491 66.5041 136.355 66.1499C136.225 65.7957 136.017 65.5041 135.73 65.2749C135.444 65.0457 135.053 64.9312 134.559 64.9312C134.23 64.9312 133.928 65.0015 133.652 65.1421C133.376 65.2775 133.139 65.4806 132.941 65.7515C132.743 66.0223 132.59 66.353 132.48 66.7437C132.371 67.1343 132.316 67.5848 132.316 68.0952V68.4233C132.316 68.8244 132.371 69.202 132.48 69.5562C132.595 69.9051 132.759 70.2124 132.973 70.478C133.191 70.7437 133.454 70.952 133.762 71.103C134.074 71.2541 134.428 71.3296 134.824 71.3296C135.335 71.3296 135.767 71.2254 136.121 71.0171C136.475 70.8088 136.785 70.5301 137.051 70.1812L137.926 70.8765C137.743 71.1525 137.512 71.4155 137.23 71.6655C136.949 71.9155 136.603 72.1187 136.191 72.2749C135.785 72.4312 135.303 72.5093 134.746 72.5093ZM141.863 70.853L144.035 63.8999H144.988L144.801 65.2827L142.59 72.353H141.66L141.863 70.853ZM140.402 63.8999L142.254 70.9312L142.387 72.353H141.41L138.957 63.8999H140.402ZM147.066 70.8765L148.832 63.8999H150.27L147.816 72.353H146.848L147.066 70.8765ZM145.199 63.8999L147.324 70.7358L147.566 72.353H146.645L144.371 65.2671L144.184 63.8999H145.199ZM155.34 68.2202V68.0405C155.34 67.4312 155.428 66.866 155.605 66.3452C155.783 65.8192 156.038 65.3634 156.371 64.978C156.704 64.5874 157.108 64.2853 157.582 64.0718C158.056 63.853 158.587 63.7437 159.176 63.7437C159.77 63.7437 160.303 63.853 160.777 64.0718C161.257 64.2853 161.663 64.5874 161.996 64.978C162.335 65.3634 162.592 65.8192 162.77 66.3452C162.947 66.866 163.035 67.4312 163.035 68.0405V68.2202C163.035 68.8296 162.947 69.3947 162.77 69.9155C162.592 70.4364 162.335 70.8921 161.996 71.2827C161.663 71.6681 161.259 71.9702 160.785 72.189C160.316 72.4025 159.785 72.5093 159.191 72.5093C158.598 72.5093 158.064 72.4025 157.59 72.189C157.116 71.9702 156.71 71.6681 156.371 71.2827C156.038 70.8921 155.783 70.4364 155.605 69.9155C155.428 69.3947 155.34 68.8296 155.34 68.2202ZM156.785 68.0405V68.2202C156.785 68.6421 156.835 69.0405 156.934 69.4155C157.033 69.7853 157.181 70.1134 157.379 70.3999C157.582 70.6864 157.835 70.9129 158.137 71.0796C158.439 71.241 158.79 71.3218 159.191 71.3218C159.587 71.3218 159.934 71.241 160.23 71.0796C160.533 70.9129 160.783 70.6864 160.98 70.3999C161.178 70.1134 161.327 69.7853 161.426 69.4155C161.53 69.0405 161.582 68.6421 161.582 68.2202V68.0405C161.582 67.6239 161.53 67.2306 161.426 66.8608C161.327 66.4858 161.176 66.1551 160.973 65.8687C160.775 65.577 160.525 65.3478 160.223 65.1812C159.926 65.0145 159.577 64.9312 159.176 64.9312C158.78 64.9312 158.431 65.0145 158.129 65.1812C157.832 65.3478 157.582 65.577 157.379 65.8687C157.181 66.1551 157.033 66.4858 156.934 66.8608C156.835 67.2306 156.785 67.6239 156.785 68.0405ZM167.004 72.353H165.559V63.0093C165.559 62.3999 165.668 61.8869 165.887 61.4702C166.111 61.0483 166.431 60.7306 166.848 60.5171C167.264 60.2983 167.759 60.189 168.332 60.189C168.499 60.189 168.665 60.1994 168.832 60.2202C169.004 60.241 169.171 60.2723 169.332 60.314L169.254 61.4937C169.145 61.4676 169.02 61.4494 168.879 61.439C168.743 61.4285 168.608 61.4233 168.473 61.4233C168.165 61.4233 167.9 61.4858 167.676 61.6108C167.457 61.7306 167.29 61.9077 167.176 62.1421C167.061 62.3765 167.004 62.6655 167.004 63.0093V72.353ZM168.801 63.8999V65.0093H164.223V63.8999H168.801ZM177.918 63.8999V65.0093H173.348V63.8999H177.918ZM174.895 61.8452H176.34V70.2593C176.34 70.5457 176.384 70.7619 176.473 70.9077C176.561 71.0535 176.676 71.1499 176.816 71.1968C176.957 71.2437 177.108 71.2671 177.27 71.2671C177.389 71.2671 177.514 71.2567 177.645 71.2358C177.78 71.2098 177.882 71.189 177.949 71.1733L177.957 72.353C177.842 72.3895 177.691 72.4233 177.504 72.4546C177.322 72.491 177.1 72.5093 176.84 72.5093C176.486 72.5093 176.16 72.439 175.863 72.2983C175.566 72.1577 175.329 71.9233 175.152 71.5952C174.98 71.2619 174.895 70.814 174.895 70.2515V61.8452ZM181.059 60.353V72.353H179.613V60.353H181.059ZM180.715 67.8062L180.113 67.7827C180.118 67.2046 180.204 66.6707 180.371 66.1812C180.538 65.6864 180.772 65.2567 181.074 64.8921C181.376 64.5275 181.736 64.2463 182.152 64.0483C182.574 63.8452 183.04 63.7437 183.551 63.7437C183.967 63.7437 184.342 63.8009 184.676 63.9155C185.009 64.0249 185.293 64.202 185.527 64.4468C185.767 64.6916 185.949 65.0093 186.074 65.3999C186.199 65.7853 186.262 66.2567 186.262 66.814V72.353H184.809V66.7983C184.809 66.3556 184.743 66.0015 184.613 65.7358C184.483 65.465 184.293 65.2697 184.043 65.1499C183.793 65.0249 183.486 64.9624 183.121 64.9624C182.762 64.9624 182.434 65.0379 182.137 65.189C181.845 65.34 181.592 65.5483 181.379 65.814C181.171 66.0796 181.007 66.3843 180.887 66.728C180.772 67.0666 180.715 67.4259 180.715 67.8062ZM191.934 72.5093C191.345 72.5093 190.811 72.4103 190.332 72.2124C189.858 72.0093 189.449 71.7254 189.105 71.3608C188.767 70.9963 188.507 70.564 188.324 70.064C188.142 69.564 188.051 69.0171 188.051 68.4233V68.0952C188.051 67.4077 188.152 66.7957 188.355 66.2593C188.559 65.7176 188.835 65.2593 189.184 64.8843C189.533 64.5093 189.928 64.2254 190.371 64.0327C190.814 63.84 191.272 63.7437 191.746 63.7437C192.35 63.7437 192.871 63.8478 193.309 64.0562C193.751 64.2645 194.113 64.5562 194.395 64.9312C194.676 65.3009 194.884 65.7384 195.02 66.2437C195.155 66.7437 195.223 67.2905 195.223 67.8843V68.5327H188.91V67.353H193.777V67.2437C193.757 66.8687 193.678 66.5041 193.543 66.1499C193.413 65.7957 193.204 65.5041 192.918 65.2749C192.632 65.0457 192.241 64.9312 191.746 64.9312C191.418 64.9312 191.116 65.0015 190.84 65.1421C190.564 65.2775 190.327 65.4806 190.129 65.7515C189.931 66.0223 189.777 66.353 189.668 66.7437C189.559 67.1343 189.504 67.5848 189.504 68.0952V68.4233C189.504 68.8244 189.559 69.202 189.668 69.5562C189.783 69.9051 189.947 70.2124 190.16 70.478C190.379 70.7437 190.642 70.952 190.949 71.103C191.262 71.2541 191.616 71.3296 192.012 71.3296C192.522 71.3296 192.954 71.2254 193.309 71.0171C193.663 70.8088 193.973 70.5301 194.238 70.1812L195.113 70.8765C194.931 71.1525 194.699 71.4155 194.418 71.6655C194.137 71.9155 193.79 72.1187 193.379 72.2749C192.973 72.4312 192.491 72.5093 191.934 72.5093ZM36.3164 84.5796V91.353H34.8633V82.8999H36.2383L36.3164 84.5796ZM36.0195 86.8062L35.3477 86.7827C35.3529 86.2046 35.4284 85.6707 35.5742 85.1812C35.7201 84.6864 35.9362 84.2567 36.2227 83.8921C36.5091 83.5275 36.8659 83.2463 37.293 83.0483C37.7201 82.8452 38.2148 82.7437 38.7773 82.7437C39.1732 82.7437 39.5378 82.8009 39.8711 82.9155C40.2044 83.0249 40.4935 83.1994 40.7383 83.439C40.9831 83.6785 41.1732 83.9858 41.3086 84.3608C41.444 84.7358 41.5117 85.189 41.5117 85.7202V91.353H40.0664V85.7905C40.0664 85.3478 39.9909 84.9937 39.8398 84.728C39.694 84.4624 39.4857 84.2697 39.2148 84.1499C38.944 84.0249 38.6263 83.9624 38.2617 83.9624C37.8346 83.9624 37.4779 84.0379 37.1914 84.189C36.9049 84.34 36.6758 84.5483 36.5039 84.814C36.332 85.0796 36.207 85.3843 36.1289 85.728C36.056 86.0666 36.0195 86.4259 36.0195 86.8062ZM41.4961 86.0093L40.5273 86.3062C40.5326 85.8426 40.6081 85.3973 40.7539 84.9702C40.9049 84.5431 41.1211 84.1629 41.4023 83.8296C41.6888 83.4963 42.0404 83.2332 42.457 83.0405C42.8737 82.8426 43.3503 82.7437 43.8867 82.7437C44.3398 82.7437 44.7409 82.8035 45.0898 82.9233C45.444 83.0431 45.7409 83.228 45.9805 83.478C46.2253 83.7228 46.4102 84.0379 46.5352 84.4233C46.6602 84.8088 46.7227 85.2671 46.7227 85.7983V91.353H45.2695V85.7827C45.2695 85.3088 45.194 84.9416 45.043 84.6812C44.8971 84.4155 44.6888 84.2306 44.418 84.1265C44.1523 84.0171 43.8346 83.9624 43.4648 83.9624C43.1471 83.9624 42.8659 84.0171 42.6211 84.1265C42.3763 84.2358 42.1706 84.3869 42.0039 84.5796C41.8372 84.7671 41.7096 84.9832 41.6211 85.228C41.5378 85.4728 41.4961 85.7332 41.4961 86.0093ZM52.418 91.5093C51.8294 91.5093 51.2956 91.4103 50.8164 91.2124C50.3424 91.0093 49.9336 90.7254 49.5898 90.3608C49.2513 89.9963 48.9909 89.564 48.8086 89.064C48.6263 88.564 48.5352 88.0171 48.5352 87.4233V87.0952C48.5352 86.4077 48.6367 85.7957 48.8398 85.2593C49.043 84.7176 49.319 84.2593 49.668 83.8843C50.0169 83.5093 50.4128 83.2254 50.8555 83.0327C51.2982 82.84 51.7565 82.7437 52.2305 82.7437C52.8346 82.7437 53.3555 82.8478 53.793 83.0562C54.2357 83.2645 54.5977 83.5562 54.8789 83.9312C55.1602 84.3009 55.3685 84.7384 55.5039 85.2437C55.6393 85.7437 55.707 86.2905 55.707 86.8843V87.5327H49.3945V86.353H54.2617V86.2437C54.2409 85.8687 54.1628 85.5041 54.0273 85.1499C53.8971 84.7957 53.6888 84.5041 53.4023 84.2749C53.1159 84.0457 52.7253 83.9312 52.2305 83.9312C51.9023 83.9312 51.6003 84.0015 51.3242 84.1421C51.0482 84.2775 50.8112 84.4806 50.6133 84.7515C50.4154 85.0223 50.2617 85.353 50.1523 85.7437C50.043 86.1343 49.9883 86.5848 49.9883 87.0952V87.4233C49.9883 87.8244 50.043 88.202 50.1523 88.5562C50.2669 88.9051 50.431 89.2124 50.6445 89.478C50.8633 89.7437 51.1263 89.952 51.4336 90.103C51.7461 90.2541 52.1003 90.3296 52.4961 90.3296C53.0065 90.3296 53.4388 90.2254 53.793 90.0171C54.1471 89.8088 54.457 89.5301 54.7227 89.1812L55.5977 89.8765C55.4154 90.1525 55.1836 90.4155 54.9023 90.6655C54.6211 90.9155 54.2747 91.1187 53.8633 91.2749C53.457 91.4312 52.9753 91.5093 52.418 91.5093ZM58.8398 84.7046V91.353H57.3945V82.8999H58.7617L58.8398 84.7046ZM58.4961 86.8062L57.8945 86.7827C57.8997 86.2046 57.9857 85.6707 58.1523 85.1812C58.319 84.6864 58.5534 84.2567 58.8555 83.8921C59.1576 83.5275 59.5169 83.2463 59.9336 83.0483C60.3555 82.8452 60.8216 82.7437 61.332 82.7437C61.7487 82.7437 62.1237 82.8009 62.457 82.9155C62.7904 83.0249 63.0742 83.202 63.3086 83.4468C63.5482 83.6916 63.7305 84.0093 63.8555 84.3999C63.9805 84.7853 64.043 85.2567 64.043 85.814V91.353H62.5898V85.7983C62.5898 85.3556 62.5247 85.0015 62.3945 84.7358C62.2643 84.465 62.0742 84.2697 61.8242 84.1499C61.5742 84.0249 61.2669 83.9624 60.9023 83.9624C60.543 83.9624 60.2148 84.0379 59.918 84.189C59.6263 84.34 59.3737 84.5483 59.1602 84.814C58.9518 85.0796 58.7878 85.3843 58.668 85.728C58.5534 86.0666 58.4961 86.4259 58.4961 86.8062ZM71.4102 89.3999V82.8999H72.8633V91.353H71.4805L71.4102 89.3999ZM71.6836 87.6187L72.2852 87.603C72.2852 88.1655 72.2253 88.6864 72.1055 89.1655C71.9909 89.6395 71.8034 90.0509 71.543 90.3999C71.2826 90.7489 70.9414 91.0223 70.5195 91.2202C70.0977 91.4129 69.5846 91.5093 68.9805 91.5093C68.569 91.5093 68.1914 91.4494 67.8477 91.3296C67.5091 91.2098 67.2174 91.0249 66.9727 90.7749C66.7279 90.5249 66.5378 90.1994 66.4023 89.7983C66.2721 89.3973 66.207 88.9155 66.207 88.353V82.8999H67.6523V88.3687C67.6523 88.7489 67.694 89.064 67.7773 89.314C67.8659 89.5588 67.9831 89.7541 68.1289 89.8999C68.2799 90.0405 68.4466 90.1395 68.6289 90.1968C68.8164 90.2541 69.0091 90.2827 69.207 90.2827C69.8216 90.2827 70.3086 90.1655 70.668 89.9312C71.0273 89.6916 71.2852 89.3713 71.4414 88.9702C71.6029 88.564 71.6836 88.1134 71.6836 87.6187ZM75.0898 90.5874C75.0898 90.3426 75.1654 90.1369 75.3164 89.9702C75.4727 89.7983 75.6966 89.7124 75.9883 89.7124C76.2799 89.7124 76.5013 89.7983 76.6523 89.9702C76.8086 90.1369 76.8867 90.3426 76.8867 90.5874C76.8867 90.827 76.8086 91.0301 76.6523 91.1968C76.5013 91.3634 76.2799 91.4468 75.9883 91.4468C75.6966 91.4468 75.4727 91.3634 75.3164 91.1968C75.1654 91.0301 75.0898 90.827 75.0898 90.5874ZM90.3398 87.7358H91.8398C91.7617 88.4546 91.556 89.0978 91.2227 89.6655C90.8893 90.2332 90.418 90.6838 89.8086 91.0171C89.1992 91.3452 88.4388 91.5093 87.5273 91.5093C86.8607 91.5093 86.2539 91.3843 85.707 91.1343C85.1654 90.8843 84.6992 90.5301 84.3086 90.0718C83.918 89.6082 83.6159 89.0535 83.4023 88.4077C83.194 87.7567 83.0898 87.0327 83.0898 86.2358V85.103C83.0898 84.3062 83.194 83.5848 83.4023 82.939C83.6159 82.2879 83.9206 81.7306 84.3164 81.2671C84.7174 80.8035 85.1992 80.4468 85.7617 80.1968C86.3242 79.9468 86.957 79.8218 87.6602 79.8218C88.5195 79.8218 89.2461 79.9832 89.8398 80.3062C90.4336 80.6291 90.8945 81.077 91.2227 81.6499C91.556 82.2176 91.7617 82.8765 91.8398 83.6265H90.3398C90.2669 83.0952 90.1315 82.6395 89.9336 82.2593C89.7357 81.8739 89.4544 81.577 89.0898 81.3687C88.7253 81.1603 88.2487 81.0562 87.6602 81.0562C87.1549 81.0562 86.7096 81.1525 86.3242 81.3452C85.944 81.5379 85.6237 81.8114 85.3633 82.1655C85.1081 82.5197 84.9154 82.9442 84.7852 83.439C84.6549 83.9338 84.5898 84.4832 84.5898 85.0874V86.2358C84.5898 86.7931 84.6471 87.3166 84.7617 87.8062C84.8815 88.2957 85.0612 88.7254 85.3008 89.0952C85.5404 89.465 85.8451 89.7567 86.2148 89.9702C86.5846 90.1785 87.0221 90.2827 87.5273 90.2827C88.168 90.2827 88.6784 90.1812 89.0586 89.978C89.4388 89.7749 89.7253 89.4832 89.918 89.103C90.1159 88.7228 90.2565 88.2671 90.3398 87.7358ZM95.2461 79.353V91.353H93.793V79.353H95.2461ZM99.1367 82.8999V91.353H97.6836V82.8999H99.1367ZM97.5742 80.6577C97.5742 80.4233 97.6445 80.2254 97.7852 80.064C97.931 79.9025 98.1445 79.8218 98.4258 79.8218C98.7018 79.8218 98.9128 79.9025 99.0586 80.064C99.2096 80.2254 99.2852 80.4233 99.2852 80.6577C99.2852 80.8817 99.2096 81.0744 99.0586 81.2358C98.9128 81.3921 98.7018 81.4702 98.4258 81.4702C98.1445 81.4702 97.931 81.3921 97.7852 81.2358C97.6445 81.0744 97.5742 80.8817 97.5742 80.6577ZM104.84 90.3218C105.184 90.3218 105.501 90.2515 105.793 90.1108C106.085 89.9702 106.324 89.7775 106.512 89.5327C106.699 89.2827 106.806 88.9989 106.832 88.6812H108.207C108.181 89.1812 108.012 89.6473 107.699 90.0796C107.392 90.5067 106.988 90.853 106.488 91.1187C105.988 91.3791 105.439 91.5093 104.84 91.5093C104.204 91.5093 103.65 91.3973 103.176 91.1733C102.707 90.9494 102.316 90.6421 102.004 90.2515C101.697 89.8608 101.465 89.4129 101.309 88.9077C101.158 88.3973 101.082 87.8582 101.082 87.2905V86.9624C101.082 86.3947 101.158 85.8582 101.309 85.353C101.465 84.8426 101.697 84.3921 102.004 84.0015C102.316 83.6108 102.707 83.3035 103.176 83.0796C103.65 82.8556 104.204 82.7437 104.84 82.7437C105.501 82.7437 106.079 82.8791 106.574 83.1499C107.069 83.4155 107.457 83.7801 107.738 84.2437C108.025 84.702 108.181 85.2228 108.207 85.8062H106.832C106.806 85.4572 106.707 85.1421 106.535 84.8608C106.368 84.5796 106.139 84.3556 105.848 84.189C105.561 84.0171 105.225 83.9312 104.84 83.9312C104.397 83.9312 104.025 84.0197 103.723 84.1968C103.426 84.3687 103.189 84.603 103.012 84.8999C102.84 85.1916 102.715 85.5171 102.637 85.8765C102.564 86.2306 102.527 86.5926 102.527 86.9624V87.2905C102.527 87.6603 102.564 88.0249 102.637 88.3843C102.71 88.7437 102.832 89.0692 103.004 89.3608C103.181 89.6525 103.418 89.8869 103.715 90.064C104.017 90.2358 104.392 90.3218 104.84 90.3218ZM111.285 79.353V91.353H109.832V79.353H111.285ZM116.449 82.8999L112.762 86.8452L110.699 88.9858L110.582 87.4468L112.059 85.6812L114.684 82.8999H116.449ZM115.129 91.353L112.113 87.3218L112.863 86.0327L116.832 91.353H115.129ZM125.449 82.8999V84.0093H120.879V82.8999H125.449ZM122.426 80.8452H123.871V89.2593C123.871 89.5457 123.915 89.7619 124.004 89.9077C124.092 90.0535 124.207 90.1499 124.348 90.1968C124.488 90.2437 124.639 90.2671 124.801 90.2671C124.921 90.2671 125.046 90.2567 125.176 90.2358C125.311 90.2098 125.413 90.189 125.48 90.1733L125.488 91.353C125.374 91.3895 125.223 91.4233 125.035 91.4546C124.853 91.491 124.632 91.5093 124.371 91.5093C124.017 91.5093 123.691 91.439 123.395 91.2983C123.098 91.1577 122.861 90.9233 122.684 90.5952C122.512 90.2619 122.426 89.814 122.426 89.2515V80.8452ZM126.605 87.2202V87.0405C126.605 86.4312 126.694 85.866 126.871 85.3452C127.048 84.8192 127.303 84.3634 127.637 83.978C127.97 83.5874 128.374 83.2853 128.848 83.0718C129.322 82.853 129.853 82.7437 130.441 82.7437C131.035 82.7437 131.569 82.853 132.043 83.0718C132.522 83.2853 132.928 83.5874 133.262 83.978C133.6 84.3634 133.858 84.8192 134.035 85.3452C134.212 85.866 134.301 86.4312 134.301 87.0405V87.2202C134.301 87.8296 134.212 88.3947 134.035 88.9155C133.858 89.4364 133.6 89.8921 133.262 90.2827C132.928 90.6681 132.525 90.9702 132.051 91.189C131.582 91.4025 131.051 91.5093 130.457 91.5093C129.863 91.5093 129.329 91.4025 128.855 91.189C128.382 90.9702 127.975 90.6681 127.637 90.2827C127.303 89.8921 127.048 89.4364 126.871 88.9155C126.694 88.3947 126.605 87.8296 126.605 87.2202ZM128.051 87.0405V87.2202C128.051 87.6421 128.1 88.0405 128.199 88.4155C128.298 88.7853 128.447 89.1134 128.645 89.3999C128.848 89.6864 129.1 89.9129 129.402 90.0796C129.704 90.241 130.056 90.3218 130.457 90.3218C130.853 90.3218 131.199 90.241 131.496 90.0796C131.798 89.9129 132.048 89.6864 132.246 89.3999C132.444 89.1134 132.592 88.7853 132.691 88.4155C132.796 88.0405 132.848 87.6421 132.848 87.2202V87.0405C132.848 86.6239 132.796 86.2306 132.691 85.8608C132.592 85.4858 132.441 85.1551 132.238 84.8687C132.04 84.577 131.79 84.3478 131.488 84.1812C131.191 84.0145 130.842 83.9312 130.441 83.9312C130.046 83.9312 129.697 84.0145 129.395 84.1812C129.098 84.3478 128.848 84.577 128.645 84.8687C128.447 85.1551 128.298 85.4858 128.199 85.8608C128.1 86.2306 128.051 86.6239 128.051 87.0405ZM143.59 91.5093C143.001 91.5093 142.467 91.4103 141.988 91.2124C141.514 91.0093 141.105 90.7254 140.762 90.3608C140.423 89.9963 140.163 89.564 139.98 89.064C139.798 88.564 139.707 88.0171 139.707 87.4233V87.0952C139.707 86.4077 139.809 85.7957 140.012 85.2593C140.215 84.7176 140.491 84.2593 140.84 83.8843C141.189 83.5093 141.585 83.2254 142.027 83.0327C142.47 82.84 142.928 82.7437 143.402 82.7437C144.007 82.7437 144.527 82.8478 144.965 83.0562C145.408 83.2645 145.77 83.5562 146.051 83.9312C146.332 84.3009 146.54 84.7384 146.676 85.2437C146.811 85.7437 146.879 86.2905 146.879 86.8843V87.5327H140.566V86.353H145.434V86.2437C145.413 85.8687 145.335 85.5041 145.199 85.1499C145.069 84.7957 144.861 84.5041 144.574 84.2749C144.288 84.0457 143.897 83.9312 143.402 83.9312C143.074 83.9312 142.772 84.0015 142.496 84.1421C142.22 84.2775 141.983 84.4806 141.785 84.7515C141.587 85.0223 141.434 85.353 141.324 85.7437C141.215 86.1343 141.16 86.5848 141.16 87.0952V87.4233C141.16 87.8244 141.215 88.202 141.324 88.5562C141.439 88.9051 141.603 89.2124 141.816 89.478C142.035 89.7437 142.298 89.952 142.605 90.103C142.918 90.2541 143.272 90.3296 143.668 90.3296C144.178 90.3296 144.611 90.2254 144.965 90.0171C145.319 89.8088 145.629 89.5301 145.895 89.1812L146.77 89.8765C146.587 90.1525 146.355 90.4155 146.074 90.6655C145.793 90.9155 145.447 91.1187 145.035 91.2749C144.629 91.4312 144.147 91.5093 143.59 91.5093ZM150.137 82.8999V91.353H148.684V82.8999H150.137ZM148.574 80.6577C148.574 80.4233 148.645 80.2254 148.785 80.064C148.931 79.9025 149.145 79.8218 149.426 79.8218C149.702 79.8218 149.913 79.9025 150.059 80.064C150.21 80.2254 150.285 80.4233 150.285 80.6577C150.285 80.8817 150.21 81.0744 150.059 81.2358C149.913 81.3921 149.702 81.4702 149.426 81.4702C149.145 81.4702 148.931 81.3921 148.785 81.2358C148.645 81.0744 148.574 80.8817 148.574 80.6577ZM155.996 82.8999V84.0093H151.426V82.8999H155.996ZM152.973 80.8452H154.418V89.2593C154.418 89.5457 154.462 89.7619 154.551 89.9077C154.639 90.0535 154.754 90.1499 154.895 90.1968C155.035 90.2437 155.186 90.2671 155.348 90.2671C155.467 90.2671 155.592 90.2567 155.723 90.2358C155.858 90.2098 155.96 90.189 156.027 90.1733L156.035 91.353C155.921 91.3895 155.77 91.4233 155.582 91.4546C155.4 91.491 155.178 91.5093 154.918 91.5093C154.564 91.5093 154.238 91.439 153.941 91.2983C153.645 91.1577 153.408 90.9233 153.23 90.5952C153.059 90.2619 152.973 89.814 152.973 89.2515V80.8452ZM159.137 79.353V91.353H157.691V79.353H159.137ZM158.793 86.8062L158.191 86.7827C158.197 86.2046 158.283 85.6707 158.449 85.1812C158.616 84.6864 158.85 84.2567 159.152 83.8921C159.454 83.5275 159.814 83.2463 160.23 83.0483C160.652 82.8452 161.118 82.7437 161.629 82.7437C162.046 82.7437 162.421 82.8009 162.754 82.9155C163.087 83.0249 163.371 83.202 163.605 83.4468C163.845 83.6916 164.027 84.0093 164.152 84.3999C164.277 84.7853 164.34 85.2567 164.34 85.814V91.353H162.887V85.7983C162.887 85.3556 162.822 85.0015 162.691 84.7358C162.561 84.465 162.371 84.2697 162.121 84.1499C161.871 84.0249 161.564 83.9624 161.199 83.9624C160.84 83.9624 160.512 84.0379 160.215 84.189C159.923 84.34 159.671 84.5483 159.457 84.814C159.249 85.0796 159.085 85.3843 158.965 85.728C158.85 86.0666 158.793 86.4259 158.793 86.8062ZM170.012 91.5093C169.423 91.5093 168.889 91.4103 168.41 91.2124C167.936 91.0093 167.527 90.7254 167.184 90.3608C166.845 89.9963 166.585 89.564 166.402 89.064C166.22 88.564 166.129 88.0171 166.129 87.4233V87.0952C166.129 86.4077 166.23 85.7957 166.434 85.2593C166.637 84.7176 166.913 84.2593 167.262 83.8843C167.611 83.5093 168.007 83.2254 168.449 83.0327C168.892 82.84 169.35 82.7437 169.824 82.7437C170.428 82.7437 170.949 82.8478 171.387 83.0562C171.829 83.2645 172.191 83.5562 172.473 83.9312C172.754 84.3009 172.962 84.7384 173.098 85.2437C173.233 85.7437 173.301 86.2905 173.301 86.8843V87.5327H166.988V86.353H171.855V86.2437C171.835 85.8687 171.757 85.5041 171.621 85.1499C171.491 84.7957 171.283 84.5041 170.996 84.2749C170.71 84.0457 170.319 83.9312 169.824 83.9312C169.496 83.9312 169.194 84.0015 168.918 84.1421C168.642 84.2775 168.405 84.4806 168.207 84.7515C168.009 85.0223 167.855 85.353 167.746 85.7437C167.637 86.1343 167.582 86.5848 167.582 87.0952V87.4233C167.582 87.8244 167.637 88.202 167.746 88.5562C167.861 88.9051 168.025 89.2124 168.238 89.478C168.457 89.7437 168.72 89.952 169.027 90.103C169.34 90.2541 169.694 90.3296 170.09 90.3296C170.6 90.3296 171.033 90.2254 171.387 90.0171C171.741 89.8088 172.051 89.5301 172.316 89.1812L173.191 89.8765C173.009 90.1525 172.777 90.4155 172.496 90.6655C172.215 90.9155 171.868 91.1187 171.457 91.2749C171.051 91.4312 170.569 91.5093 170.012 91.5093ZM176.434 84.228V91.353H174.988V82.8999H176.395L176.434 84.228ZM179.074 82.853L179.066 84.1968C178.947 84.1707 178.832 84.1551 178.723 84.1499C178.618 84.1395 178.499 84.1343 178.363 84.1343C178.03 84.1343 177.736 84.1864 177.48 84.2905C177.225 84.3947 177.009 84.5405 176.832 84.728C176.655 84.9155 176.514 85.1395 176.41 85.3999C176.311 85.6551 176.246 85.9364 176.215 86.2437L175.809 86.478C175.809 85.9676 175.858 85.4884 175.957 85.0405C176.061 84.5926 176.22 84.1968 176.434 83.853C176.647 83.5041 176.918 83.2332 177.246 83.0405C177.579 82.8426 177.975 82.7437 178.434 82.7437C178.538 82.7437 178.658 82.7567 178.793 82.7827C178.928 82.8035 179.022 82.827 179.074 82.853ZM187.887 91.5093C187.298 91.5093 186.764 91.4103 186.285 91.2124C185.811 91.0093 185.402 90.7254 185.059 90.3608C184.72 89.9963 184.46 89.564 184.277 89.064C184.095 88.564 184.004 88.0171 184.004 87.4233V87.0952C184.004 86.4077 184.105 85.7957 184.309 85.2593C184.512 84.7176 184.788 84.2593 185.137 83.8843C185.486 83.5093 185.882 83.2254 186.324 83.0327C186.767 82.84 187.225 82.7437 187.699 82.7437C188.303 82.7437 188.824 82.8478 189.262 83.0562C189.704 83.2645 190.066 83.5562 190.348 83.9312C190.629 84.3009 190.837 84.7384 190.973 85.2437C191.108 85.7437 191.176 86.2905 191.176 86.8843V87.5327H184.863V86.353H189.73V86.2437C189.71 85.8687 189.632 85.5041 189.496 85.1499C189.366 84.7957 189.158 84.5041 188.871 84.2749C188.585 84.0457 188.194 83.9312 187.699 83.9312C187.371 83.9312 187.069 84.0015 186.793 84.1421C186.517 84.2775 186.28 84.4806 186.082 84.7515C185.884 85.0223 185.73 85.353 185.621 85.7437C185.512 86.1343 185.457 86.5848 185.457 87.0952V87.4233C185.457 87.8244 185.512 88.202 185.621 88.5562C185.736 88.9051 185.9 89.2124 186.113 89.478C186.332 89.7437 186.595 89.952 186.902 90.103C187.215 90.2541 187.569 90.3296 187.965 90.3296C188.475 90.3296 188.908 90.2254 189.262 90.0171C189.616 89.8088 189.926 89.5301 190.191 89.1812L191.066 89.8765C190.884 90.1525 190.652 90.4155 190.371 90.6655C190.09 90.9155 189.743 91.1187 189.332 91.2749C188.926 91.4312 188.444 91.5093 187.887 91.5093ZM193.84 82.8999L195.691 85.978L197.566 82.8999H199.262L196.496 87.0718L199.348 91.353H197.676L195.723 88.1812L193.77 91.353H192.09L194.934 87.0718L192.176 82.8999H193.84ZM202.246 84.5249V94.603H200.793V82.8999H202.121L202.246 84.5249ZM207.941 87.0562V87.2202C207.941 87.8348 207.868 88.4051 207.723 88.9312C207.577 89.452 207.363 89.9051 207.082 90.2905C206.806 90.6759 206.465 90.9754 206.059 91.189C205.652 91.4025 205.186 91.5093 204.66 91.5093C204.124 91.5093 203.65 91.4207 203.238 91.2437C202.827 91.0666 202.478 90.8088 202.191 90.4702C201.905 90.1317 201.676 89.7254 201.504 89.2515C201.337 88.7775 201.223 88.2437 201.16 87.6499V86.7749C201.223 86.1499 201.34 85.59 201.512 85.0952C201.684 84.6004 201.91 84.1785 202.191 83.8296C202.478 83.4754 202.824 83.2072 203.23 83.0249C203.637 82.8374 204.105 82.7437 204.637 82.7437C205.168 82.7437 205.639 82.8478 206.051 83.0562C206.462 83.2593 206.809 83.5509 207.09 83.9312C207.371 84.3114 207.582 84.7671 207.723 85.2983C207.868 85.8244 207.941 86.4103 207.941 87.0562ZM206.488 87.2202V87.0562C206.488 86.6343 206.444 86.2384 206.355 85.8687C206.267 85.4937 206.129 85.1655 205.941 84.8843C205.759 84.5978 205.525 84.3739 205.238 84.2124C204.952 84.0457 204.611 83.9624 204.215 83.9624C203.85 83.9624 203.533 84.0249 203.262 84.1499C202.996 84.2749 202.77 84.4442 202.582 84.6577C202.395 84.866 202.241 85.1056 202.121 85.3765C202.007 85.6421 201.921 85.9181 201.863 86.2046V88.228C201.967 88.5926 202.113 88.9364 202.301 89.2593C202.488 89.577 202.738 89.8348 203.051 90.0327C203.363 90.2254 203.757 90.3218 204.23 90.3218C204.621 90.3218 204.957 90.241 205.238 90.0796C205.525 89.9129 205.759 89.6864 205.941 89.3999C206.129 89.1134 206.267 88.7853 206.355 88.4155C206.444 88.0405 206.488 87.6421 206.488 87.2202ZM214.77 89.9077V85.5562C214.77 85.2228 214.702 84.9338 214.566 84.689C214.436 84.439 214.238 84.2463 213.973 84.1108C213.707 83.9754 213.379 83.9077 212.988 83.9077C212.624 83.9077 212.303 83.9702 212.027 84.0952C211.757 84.2202 211.543 84.3843 211.387 84.5874C211.236 84.7905 211.16 85.0093 211.16 85.2437H209.715C209.715 84.9416 209.793 84.6421 209.949 84.3452C210.105 84.0483 210.329 83.7801 210.621 83.5405C210.918 83.2957 211.272 83.103 211.684 82.9624C212.1 82.8166 212.564 82.7437 213.074 82.7437C213.689 82.7437 214.23 82.8478 214.699 83.0562C215.173 83.2645 215.543 83.5796 215.809 84.0015C216.079 84.4181 216.215 84.9416 216.215 85.5718V89.5093C216.215 89.7905 216.238 90.09 216.285 90.4077C216.337 90.7254 216.413 90.9989 216.512 91.228V91.353H215.004C214.931 91.1864 214.874 90.965 214.832 90.689C214.79 90.4077 214.77 90.1473 214.77 89.9077ZM215.02 86.228L215.035 87.2437H213.574C213.163 87.2437 212.796 87.2775 212.473 87.3452C212.15 87.4077 211.879 87.5041 211.66 87.6343C211.441 87.7645 211.275 87.9285 211.16 88.1265C211.046 88.3192 210.988 88.5457 210.988 88.8062C210.988 89.0718 211.048 89.314 211.168 89.5327C211.288 89.7515 211.467 89.9259 211.707 90.0562C211.952 90.1812 212.251 90.2437 212.605 90.2437C213.048 90.2437 213.439 90.1499 213.777 89.9624C214.116 89.7749 214.384 89.5457 214.582 89.2749C214.785 89.0041 214.895 88.741 214.91 88.4858L215.527 89.1812C215.491 89.3999 215.392 89.6421 215.23 89.9077C215.069 90.1733 214.853 90.4285 214.582 90.6733C214.316 90.9129 213.999 91.1134 213.629 91.2749C213.264 91.4312 212.853 91.5093 212.395 91.5093C211.822 91.5093 211.319 91.3973 210.887 91.1733C210.46 90.9494 210.126 90.6499 209.887 90.2749C209.652 89.8947 209.535 89.4702 209.535 89.0015C209.535 88.5483 209.624 88.1499 209.801 87.8062C209.978 87.4572 210.233 87.1681 210.566 86.939C210.9 86.7046 211.301 86.5275 211.77 86.4077C212.238 86.2879 212.762 86.228 213.34 86.228H215.02ZM219.934 84.7046V91.353H218.488V82.8999H219.855L219.934 84.7046ZM219.59 86.8062L218.988 86.7827C218.993 86.2046 219.079 85.6707 219.246 85.1812C219.413 84.6864 219.647 84.2567 219.949 83.8921C220.251 83.5275 220.611 83.2463 221.027 83.0483C221.449 82.8452 221.915 82.7437 222.426 82.7437C222.842 82.7437 223.217 82.8009 223.551 82.9155C223.884 83.0249 224.168 83.202 224.402 83.4468C224.642 83.6916 224.824 84.0093 224.949 84.3999C225.074 84.7853 225.137 85.2567 225.137 85.814V91.353H223.684V85.7983C223.684 85.3556 223.618 85.0015 223.488 84.7358C223.358 84.465 223.168 84.2697 222.918 84.1499C222.668 84.0249 222.361 83.9624 221.996 83.9624C221.637 83.9624 221.309 84.0379 221.012 84.189C220.72 84.34 220.467 84.5483 220.254 84.814C220.046 85.0796 219.882 85.3843 219.762 85.728C219.647 86.0666 219.59 86.4259 219.59 86.8062ZM232.66 89.7124V79.353H234.113V91.353H232.785L232.66 89.7124ZM226.973 87.2202V87.0562C226.973 86.4103 227.051 85.8244 227.207 85.2983C227.368 84.7671 227.595 84.3114 227.887 83.9312C228.184 83.5509 228.535 83.2593 228.941 83.0562C229.353 82.8478 229.811 82.7437 230.316 82.7437C230.848 82.7437 231.311 82.8374 231.707 83.0249C232.108 83.2072 232.447 83.4754 232.723 83.8296C233.004 84.1785 233.225 84.6004 233.387 85.0952C233.548 85.59 233.66 86.1499 233.723 86.7749V87.4937C233.665 88.1134 233.553 88.6707 233.387 89.1655C233.225 89.6603 233.004 90.0822 232.723 90.4312C232.447 90.7801 232.108 91.0483 231.707 91.2358C231.306 91.4181 230.837 91.5093 230.301 91.5093C229.806 91.5093 229.353 91.4025 228.941 91.189C228.535 90.9754 228.184 90.6759 227.887 90.2905C227.595 89.9051 227.368 89.452 227.207 88.9312C227.051 88.4051 226.973 87.8348 226.973 87.2202ZM228.426 87.0562V87.2202C228.426 87.6421 228.467 88.0379 228.551 88.4077C228.639 88.7775 228.775 89.103 228.957 89.3843C229.139 89.6655 229.371 89.8869 229.652 90.0483C229.934 90.2046 230.27 90.2827 230.66 90.2827C231.139 90.2827 231.533 90.1812 231.84 89.978C232.152 89.7749 232.402 89.5067 232.59 89.1733C232.777 88.84 232.923 88.478 233.027 88.0874V86.2046C232.965 85.9181 232.874 85.6421 232.754 85.3765C232.639 85.1056 232.488 84.866 232.301 84.6577C232.118 84.4442 231.892 84.2749 231.621 84.1499C231.355 84.0249 231.04 83.9624 230.676 83.9624C230.28 83.9624 229.939 84.0457 229.652 84.2124C229.371 84.3739 229.139 84.5978 228.957 84.8843C228.775 85.1655 228.639 85.4937 228.551 85.8687C228.467 86.2384 228.426 86.6343 228.426 87.0562ZM34.4961 106.22V106.041C34.4961 105.431 34.5846 104.866 34.7617 104.345C34.9388 103.819 35.194 103.363 35.5273 102.978C35.8607 102.587 36.2643 102.285 36.7383 102.072C37.2122 101.853 37.7435 101.744 38.332 101.744C38.9258 101.744 39.4596 101.853 39.9336 102.072C40.4128 102.285 40.819 102.587 41.1523 102.978C41.4909 103.363 41.7487 103.819 41.9258 104.345C42.1029 104.866 42.1914 105.431 42.1914 106.041V106.22C42.1914 106.83 42.1029 107.395 41.9258 107.916C41.7487 108.436 41.4909 108.892 41.1523 109.283C40.819 109.668 40.4154 109.97 39.9414 110.189C39.4727 110.403 38.9414 110.509 38.3477 110.509C37.7539 110.509 37.2201 110.403 36.7461 110.189C36.2721 109.97 35.8659 109.668 35.5273 109.283C35.194 108.892 34.9388 108.436 34.7617 107.916C34.5846 107.395 34.4961 106.83 34.4961 106.22ZM35.9414 106.041V106.22C35.9414 106.642 35.9909 107.041 36.0898 107.416C36.1888 107.785 36.3372 108.113 36.5352 108.4C36.7383 108.686 36.9909 108.913 37.293 109.08C37.5951 109.241 37.9466 109.322 38.3477 109.322C38.7435 109.322 39.0898 109.241 39.3867 109.08C39.6888 108.913 39.9388 108.686 40.1367 108.4C40.3346 108.113 40.4831 107.785 40.582 107.416C40.6862 107.041 40.7383 106.642 40.7383 106.22V106.041C40.7383 105.624 40.6862 105.231 40.582 104.861C40.4831 104.486 40.332 104.155 40.1289 103.869C39.931 103.577 39.681 103.348 39.3789 103.181C39.082 103.014 38.7331 102.931 38.332 102.931C37.9362 102.931 37.5872 103.014 37.2852 103.181C36.9883 103.348 36.7383 103.577 36.5352 103.869C36.3372 104.155 36.1888 104.486 36.0898 104.861C35.9909 105.231 35.9414 105.624 35.9414 106.041ZM45.4492 103.228V110.353H44.0039V101.9H45.4102L45.4492 103.228ZM48.0898 101.853L48.082 103.197C47.9622 103.171 47.8477 103.155 47.7383 103.15C47.6341 103.139 47.5143 103.134 47.3789 103.134C47.0456 103.134 46.7513 103.186 46.4961 103.291C46.2409 103.395 46.0247 103.541 45.8477 103.728C45.6706 103.916 45.5299 104.139 45.4258 104.4C45.3268 104.655 45.2617 104.936 45.2305 105.244L44.8242 105.478C44.8242 104.968 44.8737 104.488 44.9727 104.041C45.0768 103.593 45.2357 103.197 45.4492 102.853C45.6628 102.504 45.9336 102.233 46.2617 102.041C46.5951 101.843 46.9909 101.744 47.4492 101.744C47.5534 101.744 47.6732 101.757 47.8086 101.783C47.944 101.804 48.0378 101.827 48.0898 101.853ZM56.7773 109.322C57.1211 109.322 57.4388 109.251 57.7305 109.111C58.0221 108.97 58.2617 108.778 58.4492 108.533C58.6367 108.283 58.7435 107.999 58.7695 107.681H60.1445C60.1185 108.181 59.9492 108.647 59.6367 109.08C59.3294 109.507 58.9258 109.853 58.4258 110.119C57.9258 110.379 57.3763 110.509 56.7773 110.509C56.1419 110.509 55.5872 110.397 55.1133 110.173C54.6445 109.949 54.2539 109.642 53.9414 109.251C53.6341 108.861 53.4023 108.413 53.2461 107.908C53.0951 107.397 53.0195 106.858 53.0195 106.291V105.962C53.0195 105.395 53.0951 104.858 53.2461 104.353C53.4023 103.843 53.6341 103.392 53.9414 103.001C54.2539 102.611 54.6445 102.304 55.1133 102.08C55.5872 101.856 56.1419 101.744 56.7773 101.744C57.4388 101.744 58.0169 101.879 58.5117 102.15C59.0065 102.416 59.3945 102.78 59.6758 103.244C59.9622 103.702 60.1185 104.223 60.1445 104.806H58.7695C58.7435 104.457 58.6445 104.142 58.4727 103.861C58.306 103.58 58.0768 103.356 57.7852 103.189C57.4987 103.017 57.1628 102.931 56.7773 102.931C56.3346 102.931 55.9622 103.02 55.6602 103.197C55.3633 103.369 55.1263 103.603 54.9492 103.9C54.7773 104.192 54.6523 104.517 54.5742 104.876C54.5013 105.231 54.4648 105.593 54.4648 105.962V106.291C54.4648 106.66 54.5013 107.025 54.5742 107.384C54.6471 107.744 54.7695 108.069 54.9414 108.361C55.1185 108.653 55.3555 108.887 55.6523 109.064C55.9544 109.236 56.3294 109.322 56.7773 109.322ZM61.3867 106.22V106.041C61.3867 105.431 61.4753 104.866 61.6523 104.345C61.8294 103.819 62.0846 103.363 62.418 102.978C62.7513 102.587 63.1549 102.285 63.6289 102.072C64.1029 101.853 64.6341 101.744 65.2227 101.744C65.8164 101.744 66.3503 101.853 66.8242 102.072C67.3034 102.285 67.7096 102.587 68.043 102.978C68.3815 103.363 68.6393 103.819 68.8164 104.345C68.9935 104.866 69.082 105.431 69.082 106.041V106.22C69.082 106.83 68.9935 107.395 68.8164 107.916C68.6393 108.436 68.3815 108.892 68.043 109.283C67.7096 109.668 67.306 109.97 66.832 110.189C66.3633 110.403 65.832 110.509 65.2383 110.509C64.6445 110.509 64.1107 110.403 63.6367 110.189C63.1628 109.97 62.7565 109.668 62.418 109.283C62.0846 108.892 61.8294 108.436 61.6523 107.916C61.4753 107.395 61.3867 106.83 61.3867 106.22ZM62.832 106.041V106.22C62.832 106.642 62.8815 107.041 62.9805 107.416C63.0794 107.785 63.2279 108.113 63.4258 108.4C63.6289 108.686 63.8815 108.913 64.1836 109.08C64.4857 109.241 64.8372 109.322 65.2383 109.322C65.6341 109.322 65.9805 109.241 66.2773 109.08C66.5794 108.913 66.8294 108.686 67.0273 108.4C67.2253 108.113 67.3737 107.785 67.4727 107.416C67.5768 107.041 67.6289 106.642 67.6289 106.22V106.041C67.6289 105.624 67.5768 105.231 67.4727 104.861C67.3737 104.486 67.2227 104.155 67.0195 103.869C66.8216 103.577 66.5716 103.348 66.2695 103.181C65.9727 103.014 65.6237 102.931 65.2227 102.931C64.8268 102.931 64.4779 103.014 64.1758 103.181C63.8789 103.348 63.6289 103.577 63.4258 103.869C63.2279 104.155 63.0794 104.486 62.9805 104.861C62.8815 105.231 62.832 105.624 62.832 106.041ZM72.3398 103.705V110.353H70.8945V101.9H72.2617L72.3398 103.705ZM71.9961 105.806L71.3945 105.783C71.3997 105.205 71.4857 104.671 71.6523 104.181C71.819 103.686 72.0534 103.257 72.3555 102.892C72.6576 102.528 73.0169 102.246 73.4336 102.048C73.8555 101.845 74.3216 101.744 74.832 101.744C75.2487 101.744 75.6237 101.801 75.957 101.916C76.2904 102.025 76.5742 102.202 76.8086 102.447C77.0482 102.692 77.2305 103.009 77.3555 103.4C77.4805 103.785 77.543 104.257 77.543 104.814V110.353H76.0898V104.798C76.0898 104.356 76.0247 104.001 75.8945 103.736C75.7643 103.465 75.5742 103.27 75.3242 103.15C75.0742 103.025 74.7669 102.962 74.4023 102.962C74.043 102.962 73.7148 103.038 73.418 103.189C73.1263 103.34 72.8737 103.548 72.6602 103.814C72.4518 104.08 72.2878 104.384 72.168 104.728C72.0534 105.067 71.9961 105.426 71.9961 105.806ZM85.0664 108.712V98.353H86.5195V110.353H85.1914L85.0664 108.712ZM79.3789 106.22V106.056C79.3789 105.41 79.457 104.824 79.6133 104.298C79.7747 103.767 80.0013 103.311 80.293 102.931C80.5898 102.551 80.9414 102.259 81.3477 102.056C81.7591 101.848 82.2174 101.744 82.7227 101.744C83.2539 101.744 83.7174 101.837 84.1133 102.025C84.5143 102.207 84.8529 102.475 85.1289 102.83C85.4102 103.179 85.6315 103.6 85.793 104.095C85.9544 104.59 86.0664 105.15 86.1289 105.775V106.494C86.0716 107.113 85.9596 107.671 85.793 108.166C85.6315 108.66 85.4102 109.082 85.1289 109.431C84.8529 109.78 84.5143 110.048 84.1133 110.236C83.7122 110.418 83.2435 110.509 82.707 110.509C82.2122 110.509 81.7591 110.403 81.3477 110.189C80.9414 109.975 80.5898 109.676 80.293 109.291C80.0013 108.905 79.7747 108.452 79.6133 107.931C79.457 107.405 79.3789 106.835 79.3789 106.22ZM80.832 106.056V106.22C80.832 106.642 80.8737 107.038 80.957 107.408C81.0456 107.778 81.181 108.103 81.3633 108.384C81.5456 108.666 81.7773 108.887 82.0586 109.048C82.3398 109.205 82.6758 109.283 83.0664 109.283C83.5456 109.283 83.9388 109.181 84.2461 108.978C84.5586 108.775 84.8086 108.507 84.9961 108.173C85.1836 107.84 85.3294 107.478 85.4336 107.087V105.205C85.3711 104.918 85.2799 104.642 85.1602 104.376C85.0456 104.106 84.8945 103.866 84.707 103.658C84.5247 103.444 84.2982 103.275 84.0273 103.15C83.7617 103.025 83.4466 102.962 83.082 102.962C82.6862 102.962 82.3451 103.046 82.0586 103.212C81.7773 103.374 81.5456 103.598 81.3633 103.884C81.181 104.166 81.0456 104.494 80.957 104.869C80.8737 105.238 80.832 105.634 80.832 106.056ZM92.2773 110.509C91.6888 110.509 91.1549 110.41 90.6758 110.212C90.2018 110.009 89.793 109.725 89.4492 109.361C89.1107 108.996 88.8503 108.564 88.668 108.064C88.4857 107.564 88.3945 107.017 88.3945 106.423V106.095C88.3945 105.408 88.4961 104.796 88.6992 104.259C88.9023 103.718 89.1784 103.259 89.5273 102.884C89.8763 102.509 90.2721 102.225 90.7148 102.033C91.1576 101.84 91.6159 101.744 92.0898 101.744C92.694 101.744 93.2148 101.848 93.6523 102.056C94.0951 102.264 94.457 102.556 94.7383 102.931C95.0195 103.301 95.2279 103.738 95.3633 104.244C95.4987 104.744 95.5664 105.291 95.5664 105.884V106.533H89.2539V105.353H94.1211V105.244C94.1003 104.869 94.0221 104.504 93.8867 104.15C93.7565 103.796 93.5482 103.504 93.2617 103.275C92.9753 103.046 92.5846 102.931 92.0898 102.931C91.7617 102.931 91.4596 103.001 91.1836 103.142C90.9076 103.278 90.6706 103.481 90.4727 103.751C90.2747 104.022 90.1211 104.353 90.0117 104.744C89.9023 105.134 89.8477 105.585 89.8477 106.095V106.423C89.8477 106.824 89.9023 107.202 90.0117 107.556C90.1263 107.905 90.2904 108.212 90.5039 108.478C90.7227 108.744 90.9857 108.952 91.293 109.103C91.6055 109.254 91.9596 109.33 92.3555 109.33C92.8659 109.33 93.2982 109.225 93.6523 109.017C94.0065 108.809 94.3164 108.53 94.582 108.181L95.457 108.876C95.2747 109.153 95.043 109.416 94.7617 109.666C94.4805 109.916 94.1341 110.119 93.7227 110.275C93.3164 110.431 92.8346 110.509 92.2773 110.509ZM98.6992 103.705V110.353H97.2539V101.9H98.6211L98.6992 103.705ZM98.3555 105.806L97.7539 105.783C97.7591 105.205 97.8451 104.671 98.0117 104.181C98.1784 103.686 98.4128 103.257 98.7148 102.892C99.0169 102.528 99.3763 102.246 99.793 102.048C100.215 101.845 100.681 101.744 101.191 101.744C101.608 101.744 101.983 101.801 102.316 101.916C102.65 102.025 102.934 102.202 103.168 102.447C103.408 102.692 103.59 103.009 103.715 103.4C103.84 103.785 103.902 104.257 103.902 104.814V110.353H102.449V104.798C102.449 104.356 102.384 104.001 102.254 103.736C102.124 103.465 101.934 103.27 101.684 103.15C101.434 103.025 101.126 102.962 100.762 102.962C100.402 102.962 100.074 103.038 99.7773 103.189C99.4857 103.34 99.2331 103.548 99.0195 103.814C98.8112 104.08 98.6471 104.384 98.5273 104.728C98.4128 105.067 98.3555 105.426 98.3555 105.806ZM111.02 108.111C111.02 107.903 110.973 107.71 110.879 107.533C110.79 107.35 110.605 107.186 110.324 107.041C110.048 106.889 109.632 106.759 109.074 106.65C108.605 106.551 108.181 106.434 107.801 106.298C107.426 106.163 107.105 105.999 106.84 105.806C106.579 105.613 106.379 105.387 106.238 105.126C106.098 104.866 106.027 104.561 106.027 104.212C106.027 103.879 106.1 103.564 106.246 103.267C106.397 102.97 106.608 102.707 106.879 102.478C107.155 102.249 107.486 102.069 107.871 101.939C108.257 101.809 108.686 101.744 109.16 101.744C109.837 101.744 110.415 101.863 110.895 102.103C111.374 102.343 111.741 102.663 111.996 103.064C112.251 103.46 112.379 103.9 112.379 104.384H110.934C110.934 104.15 110.863 103.923 110.723 103.705C110.587 103.481 110.387 103.296 110.121 103.15C109.861 103.004 109.54 102.931 109.16 102.931C108.759 102.931 108.434 102.994 108.184 103.119C107.939 103.238 107.759 103.392 107.645 103.58C107.535 103.767 107.48 103.965 107.48 104.173C107.48 104.33 107.507 104.47 107.559 104.595C107.616 104.715 107.715 104.827 107.855 104.931C107.996 105.03 108.194 105.124 108.449 105.212C108.704 105.301 109.03 105.389 109.426 105.478C110.118 105.634 110.689 105.822 111.137 106.041C111.585 106.259 111.918 106.528 112.137 106.845C112.355 107.163 112.465 107.548 112.465 108.001C112.465 108.371 112.387 108.71 112.23 109.017C112.079 109.324 111.858 109.59 111.566 109.814C111.28 110.033 110.936 110.205 110.535 110.33C110.139 110.449 109.694 110.509 109.199 110.509C108.454 110.509 107.824 110.376 107.309 110.111C106.793 109.845 106.402 109.501 106.137 109.08C105.871 108.658 105.738 108.212 105.738 107.744H107.191C107.212 108.139 107.327 108.455 107.535 108.689C107.743 108.918 107.999 109.082 108.301 109.181C108.603 109.275 108.902 109.322 109.199 109.322C109.595 109.322 109.926 109.27 110.191 109.166C110.462 109.061 110.668 108.918 110.809 108.736C110.949 108.554 111.02 108.345 111.02 108.111ZM117.871 110.509C117.283 110.509 116.749 110.41 116.27 110.212C115.796 110.009 115.387 109.725 115.043 109.361C114.704 108.996 114.444 108.564 114.262 108.064C114.079 107.564 113.988 107.017 113.988 106.423V106.095C113.988 105.408 114.09 104.796 114.293 104.259C114.496 103.718 114.772 103.259 115.121 102.884C115.47 102.509 115.866 102.225 116.309 102.033C116.751 101.84 117.21 101.744 117.684 101.744C118.288 101.744 118.809 101.848 119.246 102.056C119.689 102.264 120.051 102.556 120.332 102.931C120.613 103.301 120.822 103.738 120.957 104.244C121.092 104.744 121.16 105.291 121.16 105.884V106.533H114.848V105.353H119.715V105.244C119.694 104.869 119.616 104.504 119.48 104.15C119.35 103.796 119.142 103.504 118.855 103.275C118.569 103.046 118.178 102.931 117.684 102.931C117.355 102.931 117.053 103.001 116.777 103.142C116.501 103.278 116.264 103.481 116.066 103.751C115.868 104.022 115.715 104.353 115.605 104.744C115.496 105.134 115.441 105.585 115.441 106.095V106.423C115.441 106.824 115.496 107.202 115.605 107.556C115.72 107.905 115.884 108.212 116.098 108.478C116.316 108.744 116.579 108.952 116.887 109.103C117.199 109.254 117.553 109.33 117.949 109.33C118.46 109.33 118.892 109.225 119.246 109.017C119.6 108.809 119.91 108.53 120.176 108.181L121.051 108.876C120.868 109.153 120.637 109.416 120.355 109.666C120.074 109.916 119.728 110.119 119.316 110.275C118.91 110.431 118.428 110.509 117.871 110.509ZM128.973 110.353H127.527V101.009C127.527 100.4 127.637 99.8869 127.855 99.4702C128.079 99.0483 128.4 98.7306 128.816 98.5171C129.233 98.2983 129.728 98.189 130.301 98.189C130.467 98.189 130.634 98.1994 130.801 98.2202C130.973 98.241 131.139 98.2723 131.301 98.314L131.223 99.4937C131.113 99.4676 130.988 99.4494 130.848 99.439C130.712 99.4285 130.577 99.4233 130.441 99.4233C130.134 99.4233 129.868 99.4858 129.645 99.6108C129.426 99.7306 129.259 99.9077 129.145 100.142C129.03 100.376 128.973 100.666 128.973 101.009V110.353ZM130.77 101.9V103.009H126.191V101.9H130.77ZM131.996 106.22V106.041C131.996 105.431 132.085 104.866 132.262 104.345C132.439 103.819 132.694 103.363 133.027 102.978C133.361 102.587 133.764 102.285 134.238 102.072C134.712 101.853 135.243 101.744 135.832 101.744C136.426 101.744 136.96 101.853 137.434 102.072C137.913 102.285 138.319 102.587 138.652 102.978C138.991 103.363 139.249 103.819 139.426 104.345C139.603 104.866 139.691 105.431 139.691 106.041V106.22C139.691 106.83 139.603 107.395 139.426 107.916C139.249 108.436 138.991 108.892 138.652 109.283C138.319 109.668 137.915 109.97 137.441 110.189C136.973 110.403 136.441 110.509 135.848 110.509C135.254 110.509 134.72 110.403 134.246 110.189C133.772 109.97 133.366 109.668 133.027 109.283C132.694 108.892 132.439 108.436 132.262 107.916C132.085 107.395 131.996 106.83 131.996 106.22ZM133.441 106.041V106.22C133.441 106.642 133.491 107.041 133.59 107.416C133.689 107.785 133.837 108.113 134.035 108.4C134.238 108.686 134.491 108.913 134.793 109.08C135.095 109.241 135.447 109.322 135.848 109.322C136.243 109.322 136.59 109.241 136.887 109.08C137.189 108.913 137.439 108.686 137.637 108.4C137.835 108.113 137.983 107.785 138.082 107.416C138.186 107.041 138.238 106.642 138.238 106.22V106.041C138.238 105.624 138.186 105.231 138.082 104.861C137.983 104.486 137.832 104.155 137.629 103.869C137.431 103.577 137.181 103.348 136.879 103.181C136.582 103.014 136.233 102.931 135.832 102.931C135.436 102.931 135.087 103.014 134.785 103.181C134.488 103.348 134.238 103.577 134.035 103.869C133.837 104.155 133.689 104.486 133.59 104.861C133.491 105.231 133.441 105.624 133.441 106.041ZM142.949 103.228V110.353H141.504V101.9H142.91L142.949 103.228ZM145.59 101.853L145.582 103.197C145.462 103.171 145.348 103.155 145.238 103.15C145.134 103.139 145.014 103.134 144.879 103.134C144.546 103.134 144.251 103.186 143.996 103.291C143.741 103.395 143.525 103.541 143.348 103.728C143.171 103.916 143.03 104.139 142.926 104.4C142.827 104.655 142.762 104.936 142.73 105.244L142.324 105.478C142.324 104.968 142.374 104.488 142.473 104.041C142.577 103.593 142.736 103.197 142.949 102.853C143.163 102.504 143.434 102.233 143.762 102.041C144.095 101.843 144.491 101.744 144.949 101.744C145.053 101.744 145.173 101.757 145.309 101.783C145.444 101.804 145.538 101.827 145.59 101.853ZM152.332 103.58V110.353H150.879V101.9H152.254L152.332 103.58ZM152.035 105.806L151.363 105.783C151.368 105.205 151.444 104.671 151.59 104.181C151.736 103.686 151.952 103.257 152.238 102.892C152.525 102.528 152.882 102.246 153.309 102.048C153.736 101.845 154.23 101.744 154.793 101.744C155.189 101.744 155.553 101.801 155.887 101.916C156.22 102.025 156.509 102.199 156.754 102.439C156.999 102.679 157.189 102.986 157.324 103.361C157.46 103.736 157.527 104.189 157.527 104.72V110.353H156.082V104.791C156.082 104.348 156.007 103.994 155.855 103.728C155.71 103.462 155.501 103.27 155.23 103.15C154.96 103.025 154.642 102.962 154.277 102.962C153.85 102.962 153.493 103.038 153.207 103.189C152.921 103.34 152.691 103.548 152.52 103.814C152.348 104.08 152.223 104.384 152.145 104.728C152.072 105.067 152.035 105.426 152.035 105.806ZM157.512 105.009L156.543 105.306C156.548 104.843 156.624 104.397 156.77 103.97C156.921 103.543 157.137 103.163 157.418 102.83C157.704 102.496 158.056 102.233 158.473 102.041C158.889 101.843 159.366 101.744 159.902 101.744C160.355 101.744 160.757 101.804 161.105 101.923C161.46 102.043 161.757 102.228 161.996 102.478C162.241 102.723 162.426 103.038 162.551 103.423C162.676 103.809 162.738 104.267 162.738 104.798V110.353H161.285V104.783C161.285 104.309 161.21 103.942 161.059 103.681C160.913 103.416 160.704 103.231 160.434 103.126C160.168 103.017 159.85 102.962 159.48 102.962C159.163 102.962 158.882 103.017 158.637 103.126C158.392 103.236 158.186 103.387 158.02 103.58C157.853 103.767 157.725 103.983 157.637 104.228C157.553 104.473 157.512 104.733 157.512 105.009ZM164.543 106.22V106.041C164.543 105.431 164.632 104.866 164.809 104.345C164.986 103.819 165.241 103.363 165.574 102.978C165.908 102.587 166.311 102.285 166.785 102.072C167.259 101.853 167.79 101.744 168.379 101.744C168.973 101.744 169.507 101.853 169.98 102.072C170.46 102.285 170.866 102.587 171.199 102.978C171.538 103.363 171.796 103.819 171.973 104.345C172.15 104.866 172.238 105.431 172.238 106.041V106.22C172.238 106.83 172.15 107.395 171.973 107.916C171.796 108.436 171.538 108.892 171.199 109.283C170.866 109.668 170.462 109.97 169.988 110.189C169.52 110.403 168.988 110.509 168.395 110.509C167.801 110.509 167.267 110.403 166.793 110.189C166.319 109.97 165.913 109.668 165.574 109.283C165.241 108.892 164.986 108.436 164.809 107.916C164.632 107.395 164.543 106.83 164.543 106.22ZM165.988 106.041V106.22C165.988 106.642 166.038 107.041 166.137 107.416C166.236 107.785 166.384 108.113 166.582 108.4C166.785 108.686 167.038 108.913 167.34 109.08C167.642 109.241 167.993 109.322 168.395 109.322C168.79 109.322 169.137 109.241 169.434 109.08C169.736 108.913 169.986 108.686 170.184 108.4C170.382 108.113 170.53 107.785 170.629 107.416C170.733 107.041 170.785 106.642 170.785 106.22V106.041C170.785 105.624 170.733 105.231 170.629 104.861C170.53 104.486 170.379 104.155 170.176 103.869C169.978 103.577 169.728 103.348 169.426 103.181C169.129 103.014 168.78 102.931 168.379 102.931C167.983 102.931 167.634 103.014 167.332 103.181C167.035 103.348 166.785 103.577 166.582 103.869C166.384 104.155 166.236 104.486 166.137 104.861C166.038 105.231 165.988 105.624 165.988 106.041ZM175.496 103.228V110.353H174.051V101.9H175.457L175.496 103.228ZM178.137 101.853L178.129 103.197C178.009 103.171 177.895 103.155 177.785 103.15C177.681 103.139 177.561 103.134 177.426 103.134C177.092 103.134 176.798 103.186 176.543 103.291C176.288 103.395 176.072 103.541 175.895 103.728C175.717 103.916 175.577 104.139 175.473 104.4C175.374 104.655 175.309 104.936 175.277 105.244L174.871 105.478C174.871 104.968 174.921 104.488 175.02 104.041C175.124 103.593 175.283 103.197 175.496 102.853C175.71 102.504 175.98 102.233 176.309 102.041C176.642 101.843 177.038 101.744 177.496 101.744C177.6 101.744 177.72 101.757 177.855 101.783C177.991 101.804 178.085 101.827 178.137 101.853ZM182.824 110.509C182.236 110.509 181.702 110.41 181.223 110.212C180.749 110.009 180.34 109.725 179.996 109.361C179.658 108.996 179.397 108.564 179.215 108.064C179.033 107.564 178.941 107.017 178.941 106.423V106.095C178.941 105.408 179.043 104.796 179.246 104.259C179.449 103.718 179.725 103.259 180.074 102.884C180.423 102.509 180.819 102.225 181.262 102.033C181.704 101.84 182.163 101.744 182.637 101.744C183.241 101.744 183.762 101.848 184.199 102.056C184.642 102.264 185.004 102.556 185.285 102.931C185.566 103.301 185.775 103.738 185.91 104.244C186.046 104.744 186.113 105.291 186.113 105.884V106.533H179.801V105.353H184.668V105.244C184.647 104.869 184.569 104.504 184.434 104.15C184.303 103.796 184.095 103.504 183.809 103.275C183.522 103.046 183.132 102.931 182.637 102.931C182.309 102.931 182.007 103.001 181.73 103.142C181.454 103.278 181.217 103.481 181.02 103.751C180.822 104.022 180.668 104.353 180.559 104.744C180.449 105.134 180.395 105.585 180.395 106.095V106.423C180.395 106.824 180.449 107.202 180.559 107.556C180.673 107.905 180.837 108.212 181.051 108.478C181.27 108.744 181.533 108.952 181.84 109.103C182.152 109.254 182.507 109.33 182.902 109.33C183.413 109.33 183.845 109.225 184.199 109.017C184.553 108.809 184.863 108.53 185.129 108.181L186.004 108.876C185.822 109.153 185.59 109.416 185.309 109.666C185.027 109.916 184.681 110.119 184.27 110.275C183.863 110.431 183.382 110.509 182.824 110.509ZM196.691 108.111C196.691 107.903 196.645 107.71 196.551 107.533C196.462 107.35 196.277 107.186 195.996 107.041C195.72 106.889 195.303 106.759 194.746 106.65C194.277 106.551 193.853 106.434 193.473 106.298C193.098 106.163 192.777 105.999 192.512 105.806C192.251 105.613 192.051 105.387 191.91 105.126C191.77 104.866 191.699 104.561 191.699 104.212C191.699 103.879 191.772 103.564 191.918 103.267C192.069 102.97 192.28 102.707 192.551 102.478C192.827 102.249 193.158 102.069 193.543 101.939C193.928 101.809 194.358 101.744 194.832 101.744C195.509 101.744 196.087 101.863 196.566 102.103C197.046 102.343 197.413 102.663 197.668 103.064C197.923 103.46 198.051 103.9 198.051 104.384H196.605C196.605 104.15 196.535 103.923 196.395 103.705C196.259 103.481 196.059 103.296 195.793 103.15C195.533 103.004 195.212 102.931 194.832 102.931C194.431 102.931 194.105 102.994 193.855 103.119C193.611 103.238 193.431 103.392 193.316 103.58C193.207 103.767 193.152 103.965 193.152 104.173C193.152 104.33 193.178 104.47 193.23 104.595C193.288 104.715 193.387 104.827 193.527 104.931C193.668 105.03 193.866 105.124 194.121 105.212C194.376 105.301 194.702 105.389 195.098 105.478C195.79 105.634 196.361 105.822 196.809 106.041C197.257 106.259 197.59 106.528 197.809 106.845C198.027 107.163 198.137 107.548 198.137 108.001C198.137 108.371 198.059 108.71 197.902 109.017C197.751 109.324 197.53 109.59 197.238 109.814C196.952 110.033 196.608 110.205 196.207 110.33C195.811 110.449 195.366 110.509 194.871 110.509C194.126 110.509 193.496 110.376 192.98 110.111C192.465 109.845 192.074 109.501 191.809 109.08C191.543 108.658 191.41 108.212 191.41 107.744H192.863C192.884 108.139 192.999 108.455 193.207 108.689C193.415 108.918 193.671 109.082 193.973 109.181C194.275 109.275 194.574 109.322 194.871 109.322C195.267 109.322 195.598 109.27 195.863 109.166C196.134 109.061 196.34 108.918 196.48 108.736C196.621 108.554 196.691 108.345 196.691 108.111ZM201.48 103.525V113.603H200.027V101.9H201.355L201.48 103.525ZM207.176 106.056V106.22C207.176 106.835 207.103 107.405 206.957 107.931C206.811 108.452 206.598 108.905 206.316 109.291C206.04 109.676 205.699 109.975 205.293 110.189C204.887 110.403 204.421 110.509 203.895 110.509C203.358 110.509 202.884 110.421 202.473 110.244C202.061 110.067 201.712 109.809 201.426 109.47C201.139 109.132 200.91 108.725 200.738 108.251C200.572 107.778 200.457 107.244 200.395 106.65V105.775C200.457 105.15 200.574 104.59 200.746 104.095C200.918 103.6 201.145 103.179 201.426 102.83C201.712 102.475 202.059 102.207 202.465 102.025C202.871 101.837 203.34 101.744 203.871 101.744C204.402 101.744 204.874 101.848 205.285 102.056C205.697 102.259 206.043 102.551 206.324 102.931C206.605 103.311 206.816 103.767 206.957 104.298C207.103 104.824 207.176 105.41 207.176 106.056ZM205.723 106.22V106.056C205.723 105.634 205.678 105.238 205.59 104.869C205.501 104.494 205.363 104.166 205.176 103.884C204.993 103.598 204.759 103.374 204.473 103.212C204.186 103.046 203.845 102.962 203.449 102.962C203.085 102.962 202.767 103.025 202.496 103.15C202.23 103.275 202.004 103.444 201.816 103.658C201.629 103.866 201.475 104.106 201.355 104.376C201.241 104.642 201.155 104.918 201.098 105.205V107.228C201.202 107.593 201.348 107.936 201.535 108.259C201.723 108.577 201.973 108.835 202.285 109.033C202.598 109.225 202.991 109.322 203.465 109.322C203.855 109.322 204.191 109.241 204.473 109.08C204.759 108.913 204.993 108.686 205.176 108.4C205.363 108.113 205.501 107.785 205.59 107.416C205.678 107.041 205.723 106.642 205.723 106.22ZM214.004 108.908V104.556C214.004 104.223 213.936 103.934 213.801 103.689C213.671 103.439 213.473 103.246 213.207 103.111C212.941 102.975 212.613 102.908 212.223 102.908C211.858 102.908 211.538 102.97 211.262 103.095C210.991 103.22 210.777 103.384 210.621 103.587C210.47 103.791 210.395 104.009 210.395 104.244H208.949C208.949 103.942 209.027 103.642 209.184 103.345C209.34 103.048 209.564 102.78 209.855 102.541C210.152 102.296 210.507 102.103 210.918 101.962C211.335 101.817 211.798 101.744 212.309 101.744C212.923 101.744 213.465 101.848 213.934 102.056C214.408 102.264 214.777 102.58 215.043 103.001C215.314 103.418 215.449 103.942 215.449 104.572V108.509C215.449 108.791 215.473 109.09 215.52 109.408C215.572 109.725 215.647 109.999 215.746 110.228V110.353H214.238C214.165 110.186 214.108 109.965 214.066 109.689C214.025 109.408 214.004 109.147 214.004 108.908ZM214.254 105.228L214.27 106.244H212.809C212.397 106.244 212.03 106.278 211.707 106.345C211.384 106.408 211.113 106.504 210.895 106.634C210.676 106.764 210.509 106.929 210.395 107.126C210.28 107.319 210.223 107.546 210.223 107.806C210.223 108.072 210.283 108.314 210.402 108.533C210.522 108.751 210.702 108.926 210.941 109.056C211.186 109.181 211.486 109.244 211.84 109.244C212.283 109.244 212.673 109.15 213.012 108.962C213.35 108.775 213.618 108.546 213.816 108.275C214.02 108.004 214.129 107.741 214.145 107.486L214.762 108.181C214.725 108.4 214.626 108.642 214.465 108.908C214.303 109.173 214.087 109.429 213.816 109.673C213.551 109.913 213.233 110.113 212.863 110.275C212.499 110.431 212.087 110.509 211.629 110.509C211.056 110.509 210.553 110.397 210.121 110.173C209.694 109.949 209.361 109.65 209.121 109.275C208.887 108.895 208.77 108.47 208.77 108.001C208.77 107.548 208.858 107.15 209.035 106.806C209.212 106.457 209.467 106.168 209.801 105.939C210.134 105.705 210.535 105.528 211.004 105.408C211.473 105.288 211.996 105.228 212.574 105.228H214.254ZM221.105 109.322C221.449 109.322 221.767 109.251 222.059 109.111C222.35 108.97 222.59 108.778 222.777 108.533C222.965 108.283 223.072 107.999 223.098 107.681H224.473C224.447 108.181 224.277 108.647 223.965 109.08C223.658 109.507 223.254 109.853 222.754 110.119C222.254 110.379 221.704 110.509 221.105 110.509C220.47 110.509 219.915 110.397 219.441 110.173C218.973 109.949 218.582 109.642 218.27 109.251C217.962 108.861 217.73 108.413 217.574 107.908C217.423 107.397 217.348 106.858 217.348 106.291V105.962C217.348 105.395 217.423 104.858 217.574 104.353C217.73 103.843 217.962 103.392 218.27 103.001C218.582 102.611 218.973 102.304 219.441 102.08C219.915 101.856 220.47 101.744 221.105 101.744C221.767 101.744 222.345 101.879 222.84 102.15C223.335 102.416 223.723 102.78 224.004 103.244C224.29 103.702 224.447 104.223 224.473 104.806H223.098C223.072 104.457 222.973 104.142 222.801 103.861C222.634 103.58 222.405 103.356 222.113 103.189C221.827 103.017 221.491 102.931 221.105 102.931C220.663 102.931 220.29 103.02 219.988 103.197C219.691 103.369 219.454 103.603 219.277 103.9C219.105 104.192 218.98 104.517 218.902 104.876C218.829 105.231 218.793 105.593 218.793 105.962V106.291C218.793 106.66 218.829 107.025 218.902 107.384C218.975 107.744 219.098 108.069 219.27 108.361C219.447 108.653 219.684 108.887 219.98 109.064C220.283 109.236 220.658 109.322 221.105 109.322ZM229.605 110.509C229.017 110.509 228.483 110.41 228.004 110.212C227.53 110.009 227.121 109.725 226.777 109.361C226.439 108.996 226.178 108.564 225.996 108.064C225.814 107.564 225.723 107.017 225.723 106.423V106.095C225.723 105.408 225.824 104.796 226.027 104.259C226.23 103.718 226.507 103.259 226.855 102.884C227.204 102.509 227.6 102.225 228.043 102.033C228.486 101.84 228.944 101.744 229.418 101.744C230.022 101.744 230.543 101.848 230.98 102.056C231.423 102.264 231.785 102.556 232.066 102.931C232.348 103.301 232.556 103.738 232.691 104.244C232.827 104.744 232.895 105.291 232.895 105.884V106.533H226.582V105.353H231.449V105.244C231.428 104.869 231.35 104.504 231.215 104.15C231.085 103.796 230.876 103.504 230.59 103.275C230.303 103.046 229.913 102.931 229.418 102.931C229.09 102.931 228.788 103.001 228.512 103.142C228.236 103.278 227.999 103.481 227.801 103.751C227.603 104.022 227.449 104.353 227.34 104.744C227.23 105.134 227.176 105.585 227.176 106.095V106.423C227.176 106.824 227.23 107.202 227.34 107.556C227.454 107.905 227.618 108.212 227.832 108.478C228.051 108.744 228.314 108.952 228.621 109.103C228.934 109.254 229.288 109.33 229.684 109.33C230.194 109.33 230.626 109.225 230.98 109.017C231.335 108.809 231.645 108.53 231.91 108.181L232.785 108.876C232.603 109.153 232.371 109.416 232.09 109.666C231.809 109.916 231.462 110.119 231.051 110.275C230.645 110.431 230.163 110.509 229.605 110.509ZM234.605 109.587C234.605 109.343 234.681 109.137 234.832 108.97C234.988 108.798 235.212 108.712 235.504 108.712C235.796 108.712 236.017 108.798 236.168 108.97C236.324 109.137 236.402 109.343 236.402 109.587C236.402 109.827 236.324 110.03 236.168 110.197C236.017 110.363 235.796 110.447 235.504 110.447C235.212 110.447 234.988 110.363 234.832 110.197C234.681 110.03 234.605 109.827 234.605 109.587Z" fill="black"/>
<rect x="51.7773" y="146.353" width="168.451" height="52" rx="8" fill="#272727"/>
<rect x="51.7773" y="146.353" width="168.451" height="52" rx="8" fill="black" fill-opacity="0.2"/>
<path d="M105.075 174.136H107.995C107.937 175.093 107.673 175.943 107.204 176.685C106.742 177.427 106.094 178.007 105.261 178.423C104.434 178.84 103.438 179.048 102.272 179.048C101.361 179.048 100.544 178.892 99.8213 178.58C99.0986 178.261 98.4801 177.805 97.9658 177.212C97.458 176.62 97.0706 175.904 96.8037 175.064C96.5368 174.224 96.4033 173.283 96.4033 172.242V171.255C96.4033 170.214 96.54 169.273 96.8135 168.433C97.0934 167.587 97.4906 166.867 98.0049 166.275C98.5257 165.682 99.1475 165.227 99.8701 164.908C100.593 164.589 101.4 164.429 102.292 164.429C103.477 164.429 104.476 164.644 105.29 165.074C106.11 165.503 106.745 166.096 107.194 166.851C107.65 167.606 107.924 168.466 108.015 169.429H105.085C105.052 168.856 104.938 168.371 104.743 167.974C104.548 167.57 104.252 167.268 103.854 167.066C103.464 166.858 102.943 166.753 102.292 166.753C101.804 166.753 101.377 166.845 101.013 167.027C100.648 167.209 100.342 167.486 100.095 167.857C99.8473 168.228 99.6618 168.697 99.5381 169.263C99.4209 169.823 99.3623 170.481 99.3623 171.236V172.242C99.3623 172.977 99.4176 173.625 99.5283 174.185C99.639 174.738 99.8083 175.207 100.036 175.591C100.271 175.969 100.57 176.255 100.935 176.451C101.306 176.639 101.752 176.734 102.272 176.734C102.884 176.734 103.389 176.636 103.786 176.441C104.183 176.246 104.486 175.956 104.694 175.572C104.909 175.188 105.036 174.709 105.075 174.136ZM109.294 173.677V173.472C109.294 172.697 109.405 171.985 109.626 171.333C109.847 170.676 110.17 170.106 110.593 169.625C111.016 169.143 111.537 168.768 112.155 168.501C112.774 168.228 113.483 168.091 114.284 168.091C115.085 168.091 115.798 168.228 116.423 168.501C117.048 168.768 117.572 169.143 117.995 169.625C118.425 170.106 118.75 170.676 118.972 171.333C119.193 171.985 119.304 172.697 119.304 173.472V173.677C119.304 174.445 119.193 175.158 118.972 175.816C118.75 176.467 118.425 177.037 117.995 177.525C117.572 178.007 117.051 178.381 116.433 178.648C115.814 178.915 115.104 179.048 114.304 179.048C113.503 179.048 112.79 178.915 112.165 178.648C111.547 178.381 111.022 178.007 110.593 177.525C110.17 177.037 109.847 176.467 109.626 175.816C109.405 175.158 109.294 174.445 109.294 173.677ZM112.106 173.472V173.677C112.106 174.12 112.146 174.533 112.224 174.917C112.302 175.302 112.425 175.64 112.595 175.933C112.771 176.22 112.998 176.444 113.278 176.607C113.558 176.77 113.9 176.851 114.304 176.851C114.694 176.851 115.03 176.77 115.31 176.607C115.59 176.444 115.814 176.22 115.983 175.933C116.153 175.64 116.276 175.302 116.354 174.917C116.439 174.533 116.481 174.12 116.481 173.677V173.472C116.481 173.042 116.439 172.639 116.354 172.261C116.276 171.877 116.149 171.539 115.974 171.246C115.804 170.946 115.58 170.712 115.3 170.542C115.02 170.373 114.681 170.289 114.284 170.289C113.887 170.289 113.549 170.373 113.269 170.542C112.995 170.712 112.771 170.946 112.595 171.246C112.425 171.539 112.302 171.877 112.224 172.261C112.146 172.639 112.106 173.042 112.106 173.472ZM123.786 170.542V178.853H120.974V168.287H123.61L123.786 170.542ZM123.376 173.199H122.614C122.614 172.417 122.715 171.714 122.917 171.089C123.119 170.458 123.402 169.921 123.767 169.478C124.131 169.029 124.564 168.687 125.065 168.453C125.573 168.212 126.14 168.091 126.765 168.091C127.259 168.091 127.712 168.163 128.122 168.306C128.532 168.449 128.884 168.677 129.177 168.99C129.476 169.302 129.704 169.716 129.86 170.23C130.023 170.744 130.104 171.373 130.104 172.115V178.853H127.272V172.105C127.272 171.636 127.207 171.272 127.077 171.011C126.947 170.751 126.755 170.569 126.501 170.464C126.254 170.354 125.948 170.298 125.583 170.298C125.205 170.298 124.877 170.373 124.597 170.523C124.323 170.673 124.095 170.881 123.913 171.148C123.737 171.408 123.604 171.714 123.513 172.066C123.422 172.417 123.376 172.795 123.376 173.199ZM137.419 168.287V170.279H131.267V168.287H137.419ZM132.79 165.679H135.603V175.669C135.603 175.975 135.642 176.21 135.72 176.373C135.804 176.535 135.928 176.649 136.091 176.714C136.254 176.773 136.459 176.802 136.706 176.802C136.882 176.802 137.038 176.796 137.175 176.783C137.318 176.763 137.438 176.744 137.536 176.724L137.546 178.794C137.305 178.873 137.045 178.934 136.765 178.98C136.485 179.026 136.175 179.048 135.837 179.048C135.218 179.048 134.678 178.947 134.216 178.746C133.76 178.537 133.409 178.205 133.161 177.75C132.914 177.294 132.79 176.695 132.79 175.953V165.679ZM141.989 168.287V178.853H139.167V168.287H141.989ZM138.991 165.533C138.991 165.123 139.134 164.784 139.421 164.517C139.707 164.25 140.091 164.117 140.573 164.117C141.049 164.117 141.429 164.25 141.716 164.517C142.009 164.784 142.155 165.123 142.155 165.533C142.155 165.943 142.009 166.281 141.716 166.548C141.429 166.815 141.049 166.949 140.573 166.949C140.091 166.949 139.707 166.815 139.421 166.548C139.134 166.281 138.991 165.943 138.991 165.533ZM147.067 170.542V178.853H144.255V168.287H146.892L147.067 170.542ZM146.657 173.199H145.896C145.896 172.417 145.996 171.714 146.198 171.089C146.4 170.458 146.683 169.921 147.048 169.478C147.412 169.029 147.845 168.687 148.347 168.453C148.854 168.212 149.421 168.091 150.046 168.091C150.541 168.091 150.993 168.163 151.403 168.306C151.813 168.449 152.165 168.677 152.458 168.99C152.757 169.302 152.985 169.716 153.142 170.23C153.304 170.744 153.386 171.373 153.386 172.115V178.853H150.554V172.105C150.554 171.636 150.489 171.272 150.358 171.011C150.228 170.751 150.036 170.569 149.782 170.464C149.535 170.354 149.229 170.298 148.864 170.298C148.487 170.298 148.158 170.373 147.878 170.523C147.604 170.673 147.377 170.881 147.194 171.148C147.019 171.408 146.885 171.714 146.794 172.066C146.703 172.417 146.657 172.795 146.657 173.199ZM161.774 176.324V168.287H164.587V178.853H161.94L161.774 176.324ZM162.087 174.156L162.917 174.136C162.917 174.839 162.836 175.494 162.673 176.099C162.51 176.698 162.266 177.219 161.94 177.662C161.615 178.098 161.205 178.44 160.71 178.687C160.215 178.928 159.632 179.048 158.962 179.048C158.448 179.048 157.972 178.977 157.536 178.833C157.106 178.684 156.735 178.453 156.423 178.14C156.117 177.821 155.876 177.414 155.7 176.919C155.531 176.418 155.446 175.816 155.446 175.113V168.287H158.259V175.132C158.259 175.445 158.295 175.708 158.366 175.923C158.444 176.138 158.552 176.314 158.688 176.451C158.825 176.587 158.985 176.685 159.167 176.744C159.356 176.802 159.564 176.832 159.792 176.832C160.371 176.832 160.827 176.714 161.159 176.48C161.498 176.246 161.735 175.927 161.872 175.523C162.015 175.113 162.087 174.657 162.087 174.156ZM171.599 179.048C170.778 179.048 170.043 178.918 169.392 178.658C168.741 178.391 168.187 178.023 167.731 177.554C167.282 177.085 166.937 176.542 166.696 175.923C166.455 175.298 166.335 174.634 166.335 173.931V173.541C166.335 172.74 166.449 172.007 166.677 171.343C166.905 170.679 167.23 170.103 167.653 169.615C168.083 169.126 168.604 168.752 169.216 168.492C169.828 168.225 170.518 168.091 171.286 168.091C172.035 168.091 172.699 168.215 173.278 168.462C173.858 168.71 174.343 169.061 174.733 169.517C175.131 169.973 175.43 170.52 175.632 171.158C175.834 171.789 175.935 172.492 175.935 173.267V174.439H167.536V172.564H173.171V172.349C173.171 171.958 173.099 171.61 172.956 171.304C172.819 170.992 172.611 170.744 172.331 170.562C172.051 170.38 171.693 170.289 171.257 170.289C170.886 170.289 170.567 170.37 170.3 170.533C170.033 170.695 169.815 170.923 169.646 171.216C169.483 171.509 169.359 171.854 169.274 172.251C169.196 172.642 169.157 173.072 169.157 173.541V173.931C169.157 174.354 169.216 174.745 169.333 175.103C169.457 175.461 169.629 175.77 169.851 176.031C170.078 176.291 170.352 176.493 170.671 176.636C170.996 176.779 171.364 176.851 171.774 176.851C172.282 176.851 172.754 176.753 173.19 176.558C173.633 176.356 174.014 176.054 174.333 175.65L175.7 177.134C175.479 177.453 175.176 177.759 174.792 178.052C174.414 178.345 173.959 178.586 173.425 178.775C172.891 178.957 172.282 179.048 171.599 179.048Z" fill="white"/>
</g>
<defs>
<filter id="filter0_d_32_34633" x="0" y="0" width="272" height="230" filterUnits="userSpaceOnUse" color-interpolation-filters="sRGB">
<feFlood flood-opacity="0" result="BackgroundImageFix"/>
<feColorMatrix in="SourceAlpha" type="matrix" values="0 0 0 0 0 0 0 0 0 0 0 0 0 0 0 0 0 0 127 0" result="hardAlpha"/>
<feOffset dy="4"/>
<feGaussianBlur stdDeviation="2"/>
<feComposite in2="hardAlpha" operator="out"/>
<feColorMatrix type="matrix" values="0 0 0 0 0 0 0 0 0 0 0 0 0 0 0 0 0 0 0.25 0"/>
<feBlend mode="normal" in2="BackgroundImageFix" result="effect1_dropShadow_32_34633"/>
<feBlend mode="normal" in="SourceGraphic" in2="effect1_dropShadow_32_34633" result="shape"/>
</filter>
</defs>
</svg>
