<svg width="641" height="64" viewBox="0 0 641 64" fill="none" xmlns="http://www.w3.org/2000/svg">
<rect x="56" y="24" width="124" height="16" fill="#109D59"/>
<circle cx="177" cy="32" r="32" fill="#4D4D4D"/>
<circle cx="321" cy="32" r="32" fill="#4D4D4D"/>
<circle cx="465" cy="32" r="32" fill="#4D4D4D"/>
<circle cx="609" cy="32" r="32" fill="#4D4D4D"/>
<rect x="177" y="24" width="148" height="16" fill="#4D4D4D"/>
<rect x="321" y="24" width="148" height="16" fill="#4D4D4D"/>
<rect x="465" y="24" width="148" height="16" fill="#4D4D4D"/>
<path d="M32 0C14.336 0 0 14.336 0 32C0 49.664 14.336 64 32 64C49.664 64 64 49.664 64 32C64 14.336 49.664 0 32 0ZM25.6 48L9.6 32L14.112 27.488L25.6 38.944L49.888 14.656L54.4 19.2L25.6 48Z" fill="#109D59"/>
</svg>
