<svg width="640" height="64" viewBox="0 0 640 64" fill="none" xmlns="http://www.w3.org/2000/svg">
<rect x="57" y="24" width="93" height="16" fill="#109D59"/>
<rect x="201" y="24" width="92" height="16" fill="#109D59"/>
<rect x="344" y="24" width="94" height="16" fill="#109D59"/>
<rect x="488" y="24" width="95" height="16" fill="#109D59"/>
<path d="M608 0C590.336 0 576 14.336 576 32C576 49.664 590.336 64 608 64C625.664 64 640 49.664 640 32C640 14.336 625.664 0 608 0ZM601.6 48L585.6 32L590.112 27.488L601.6 38.944L625.888 14.656L630.4 19.2L601.6 48Z" fill="#109D59"/>
<path d="M464 0C446.336 0 432 14.336 432 32C432 49.664 446.336 64 464 64C481.664 64 496 49.664 496 32C496 14.336 481.664 0 464 0ZM457.6 48L441.6 32L446.112 27.488L457.6 38.944L481.888 14.656L486.4 19.2L457.6 48Z" fill="#109D59"/>
<path d="M320 0C302.336 0 288 14.336 288 32C288 49.664 302.336 64 320 64C337.664 64 352 49.664 352 32C352 14.336 337.664 0 320 0ZM313.6 48L297.6 32L302.112 27.488L313.6 38.944L337.888 14.656L342.4 19.2L313.6 48Z" fill="#109D59"/>
<path d="M176 0C158.336 0 144 14.336 144 32C144 49.664 158.336 64 176 64C193.664 64 208 49.664 208 32C208 14.336 193.664 0 176 0ZM169.6 48L153.6 32L158.112 27.488L169.6 38.944L193.888 14.656L198.4 19.2L169.6 48Z" fill="#109D59"/>
<path d="M32 0C14.336 0 0 14.336 0 32C0 49.664 14.336 64 32 64C49.664 64 64 49.664 64 32C64 14.336 49.664 0 32 0ZM25.6 48L9.6 32L14.112 27.488L25.6 38.944L49.888 14.656L54.4 19.2L25.6 48Z" fill="#109D59"/>
</svg>
