<svg width="285" height="212" viewBox="0 0 285 212" fill="none" xmlns="http://www.w3.org/2000/svg">
<g filter="url(#filter0_d_32_34641)">
<path d="M4 24.2959C4 19.8776 7.58171 16.2959 12 16.2959L235.274 16.2955C237.662 16.2955 239.926 15.2285 241.445 13.3862L246.525 7.22785L247.965 5.227C249.733 2.77084 253.445 2.9507 254.967 5.56628L260.503 13.0524C262.012 15.0922 264.398 16.2955 266.935 16.2956L273 16.2957C277.418 16.2958 281 19.8775 281 24.2957V196C281 200.418 277.418 204 273 204H142.5H12C7.58172 204 4 200.418 4 196V24.2959Z" fill="#E6E6E6"/>
<path d="M48.0332 44.2954C48.0332 44.0317 47.9922 43.7974 47.9102 43.5923C47.834 43.3872 47.6963 43.1997 47.4971 43.0298C47.2979 42.8599 47.0166 42.6958 46.6533 42.5376C46.2959 42.3735 45.8389 42.2065 45.2822 42.0366C44.6729 41.8491 44.1104 41.6411 43.5947 41.4126C43.085 41.1782 42.6396 40.9087 42.2588 40.604C41.8779 40.2935 41.582 39.939 41.3711 39.5405C41.1602 39.1362 41.0547 38.6704 41.0547 38.1431C41.0547 37.6216 41.1631 37.147 41.3799 36.7192C41.6025 36.2915 41.916 35.9224 42.3203 35.6118C42.7305 35.2954 43.2139 35.0522 43.7705 34.8823C44.3271 34.7065 44.9424 34.6187 45.6162 34.6187C46.5654 34.6187 47.3828 34.7944 48.0684 35.146C48.7598 35.4976 49.29 35.9692 49.6592 36.561C50.0342 37.1528 50.2217 37.8062 50.2217 38.521H48.0332C48.0332 38.0991 47.9424 37.7271 47.7607 37.4048C47.585 37.0767 47.3154 36.8188 46.9521 36.6313C46.5947 36.4438 46.1406 36.3501 45.5898 36.3501C45.0684 36.3501 44.6348 36.4292 44.2891 36.5874C43.9434 36.7456 43.6855 36.9595 43.5156 37.229C43.3457 37.4985 43.2607 37.8032 43.2607 38.1431C43.2607 38.3833 43.3164 38.603 43.4277 38.8022C43.5391 38.9956 43.709 39.1772 43.9375 39.3472C44.166 39.5112 44.4531 39.6665 44.7988 39.813C45.1445 39.9595 45.5518 40.1001 46.0205 40.2349C46.7295 40.4458 47.3477 40.6802 47.875 40.938C48.4023 41.1899 48.8418 41.4771 49.1934 41.7993C49.5449 42.1216 49.8086 42.4878 49.9844 42.8979C50.1602 43.3022 50.248 43.7622 50.248 44.2778C50.248 44.8169 50.1396 45.3032 49.9229 45.7368C49.7061 46.1646 49.3955 46.5308 48.9912 46.8354C48.5928 47.1343 48.1123 47.3657 47.5498 47.5298C46.9932 47.688 46.3721 47.7671 45.6865 47.7671C45.0713 47.7671 44.4648 47.6851 43.8672 47.521C43.2754 47.3569 42.7363 47.1079 42.25 46.7739C41.7637 46.4341 41.377 46.0122 41.0898 45.5083C40.8027 44.9985 40.6592 44.4038 40.6592 43.7241H42.8652C42.8652 44.1401 42.9355 44.4946 43.0762 44.7876C43.2227 45.0806 43.4248 45.3208 43.6826 45.5083C43.9404 45.6899 44.2393 45.8247 44.5791 45.9126C44.9248 46.0005 45.2939 46.0444 45.6865 46.0444C46.2021 46.0444 46.6328 45.9712 46.9785 45.8247C47.3301 45.6782 47.5938 45.4731 47.7695 45.2095C47.9453 44.9458 48.0332 44.6411 48.0332 44.2954ZM56.1807 47.7671C55.4775 47.7671 54.8418 47.6528 54.2734 47.4243C53.7109 47.1899 53.2305 46.8647 52.832 46.4487C52.4395 46.0327 52.1377 45.5435 51.9268 44.981C51.7158 44.4185 51.6104 43.812 51.6104 43.1616V42.8101C51.6104 42.0659 51.7188 41.3921 51.9355 40.7886C52.1523 40.1851 52.4541 39.6694 52.8408 39.2417C53.2275 38.8081 53.6846 38.4771 54.2119 38.2485C54.7393 38.02 55.3105 37.9058 55.9258 37.9058C56.6055 37.9058 57.2002 38.02 57.71 38.2485C58.2197 38.4771 58.6416 38.7993 58.9756 39.2153C59.3154 39.6255 59.5674 40.1147 59.7314 40.6831C59.9014 41.2515 59.9863 41.8784 59.9863 42.564V43.4692H52.6387V41.9487H57.8945V41.7817C57.8828 41.4009 57.8066 41.0435 57.666 40.7095C57.5312 40.3755 57.3232 40.106 57.042 39.9009C56.7607 39.6958 56.3857 39.5933 55.917 39.5933C55.5654 39.5933 55.252 39.6694 54.9766 39.8218C54.707 39.9683 54.4814 40.1821 54.2998 40.4634C54.1182 40.7446 53.9775 41.0845 53.8779 41.4829C53.7842 41.8755 53.7373 42.3179 53.7373 42.8101V43.1616C53.7373 43.5776 53.793 43.9644 53.9043 44.3218C54.0215 44.6733 54.1914 44.981 54.4141 45.2446C54.6367 45.5083 54.9062 45.7163 55.2227 45.8687C55.5391 46.0151 55.8994 46.0884 56.3037 46.0884C56.8135 46.0884 57.2676 45.9858 57.666 45.7808C58.0645 45.5757 58.4102 45.2856 58.7031 44.9106L59.8193 45.9917C59.6143 46.2905 59.3477 46.5776 59.0195 46.853C58.6914 47.1226 58.29 47.3423 57.8154 47.5122C57.3467 47.6821 56.8018 47.7671 56.1807 47.7671ZM65.998 38.0815V39.6284H60.6367V38.0815H65.998ZM62.1836 35.7524H64.3018V44.9634C64.3018 45.2563 64.3428 45.4819 64.4248 45.6401C64.5127 45.7925 64.6328 45.895 64.7852 45.9478C64.9375 46.0005 65.1162 46.0269 65.3213 46.0269C65.4678 46.0269 65.6084 46.0181 65.7432 46.0005C65.8779 45.9829 65.9863 45.9653 66.0684 45.9478L66.0771 47.5649C65.9014 47.6177 65.6963 47.6646 65.4619 47.7056C65.2334 47.7466 64.9697 47.7671 64.6709 47.7671C64.1846 47.7671 63.7539 47.6821 63.3789 47.5122C63.0039 47.3364 62.7109 47.0522 62.5 46.6597C62.2891 46.2671 62.1836 45.7456 62.1836 45.0952V35.7524ZM71.9922 38.0815V39.6284H66.6309V38.0815H71.9922ZM68.1777 35.7524H70.2959V44.9634C70.2959 45.2563 70.3369 45.4819 70.4189 45.6401C70.5068 45.7925 70.627 45.895 70.7793 45.9478C70.9316 46.0005 71.1104 46.0269 71.3154 46.0269C71.4619 46.0269 71.6025 46.0181 71.7373 46.0005C71.8721 45.9829 71.9805 45.9653 72.0625 45.9478L72.0713 47.5649C71.8955 47.6177 71.6904 47.6646 71.4561 47.7056C71.2275 47.7466 70.9639 47.7671 70.665 47.7671C70.1787 47.7671 69.748 47.6821 69.373 47.5122C68.998 47.3364 68.7051 47.0522 68.4941 46.6597C68.2832 46.2671 68.1777 45.7456 68.1777 45.0952V35.7524ZM75.8945 38.0815V47.5913H73.7676V38.0815H75.8945ZM73.627 35.5854C73.627 35.2632 73.7324 34.9966 73.9434 34.7856C74.1602 34.5688 74.459 34.4604 74.8398 34.4604C75.2148 34.4604 75.5107 34.5688 75.7275 34.7856C75.9443 34.9966 76.0527 35.2632 76.0527 35.5854C76.0527 35.9019 75.9443 36.1655 75.7275 36.3765C75.5107 36.5874 75.2148 36.6929 74.8398 36.6929C74.459 36.6929 74.1602 36.5874 73.9434 36.3765C73.7324 36.1655 73.627 35.9019 73.627 35.5854ZM80.3154 40.1118V47.5913H78.1973V38.0815H80.1924L80.3154 40.1118ZM79.9375 42.4849L79.252 42.4761C79.2578 41.8022 79.3516 41.1841 79.5332 40.6216C79.7207 40.0591 79.9785 39.5757 80.3066 39.1714C80.6406 38.7671 81.0391 38.4565 81.502 38.2397C81.9648 38.0171 82.4805 37.9058 83.0488 37.9058C83.5059 37.9058 83.9189 37.9702 84.2881 38.0991C84.6631 38.2222 84.9824 38.4243 85.2461 38.7056C85.5156 38.9868 85.7207 39.353 85.8613 39.8042C86.002 40.2495 86.0723 40.7974 86.0723 41.4478V47.5913H83.9453V41.439C83.9453 40.9819 83.8779 40.6216 83.7432 40.3579C83.6143 40.0884 83.4238 39.8979 83.1719 39.7866C82.9258 39.6694 82.6182 39.6108 82.249 39.6108C81.8857 39.6108 81.5605 39.687 81.2734 39.8394C80.9863 39.9917 80.7432 40.1997 80.5439 40.4634C80.3506 40.7271 80.2012 41.0317 80.0957 41.3774C79.9902 41.7231 79.9375 42.0923 79.9375 42.4849ZM94.3252 38.0815H96.25V47.3276C96.25 48.1831 96.0684 48.9097 95.7051 49.5073C95.3418 50.105 94.835 50.5591 94.1846 50.8696C93.5342 51.186 92.7812 51.3442 91.9258 51.3442C91.5625 51.3442 91.1582 51.2915 90.7129 51.186C90.2734 51.0806 89.8457 50.9106 89.4297 50.6763C89.0195 50.4478 88.6768 50.146 88.4014 49.771L89.3945 48.5229C89.7344 48.9272 90.1094 49.2231 90.5195 49.4106C90.9297 49.5981 91.3604 49.6919 91.8115 49.6919C92.2979 49.6919 92.7109 49.6011 93.0508 49.4194C93.3965 49.2437 93.6631 48.9829 93.8506 48.6372C94.0381 48.2915 94.1318 47.8696 94.1318 47.3716V40.2349L94.3252 38.0815ZM87.8652 42.9419V42.7573C87.8652 42.0366 87.9531 41.3804 88.1289 40.7886C88.3047 40.1909 88.5566 39.6782 88.8848 39.2505C89.2129 38.8169 89.6113 38.4858 90.0801 38.2573C90.5488 38.0229 91.0791 37.9058 91.6709 37.9058C92.2861 37.9058 92.8105 38.0171 93.2441 38.2397C93.6836 38.4624 94.0498 38.7817 94.3428 39.1978C94.6357 39.6079 94.8643 40.1001 95.0283 40.6743C95.1982 41.2427 95.3242 41.8755 95.4062 42.5728V43.1616C95.3301 43.8413 95.2012 44.4624 95.0195 45.0249C94.8379 45.5874 94.5977 46.0737 94.2988 46.4839C94 46.894 93.6309 47.2104 93.1914 47.4331C92.7578 47.6558 92.2451 47.7671 91.6533 47.7671C91.0732 47.7671 90.5488 47.647 90.0801 47.4067C89.6172 47.1665 89.2188 46.8296 88.8848 46.396C88.5566 45.9624 88.3047 45.4526 88.1289 44.8667C87.9531 44.2749 87.8652 43.6333 87.8652 42.9419ZM89.9834 42.7573V42.9419C89.9834 43.3755 90.0244 43.7798 90.1064 44.1548C90.1943 44.5298 90.3262 44.8608 90.502 45.1479C90.6836 45.4292 90.9121 45.6519 91.1875 45.8159C91.4688 45.9741 91.7998 46.0532 92.1807 46.0532C92.6787 46.0532 93.0859 45.9478 93.4023 45.7368C93.7246 45.5259 93.9707 45.2417 94.1406 44.8843C94.3164 44.521 94.4395 44.1167 94.5098 43.6714V42.0806C94.4746 41.7349 94.4014 41.4126 94.29 41.1138C94.1846 40.8149 94.041 40.5542 93.8594 40.3315C93.6777 40.103 93.4492 39.9272 93.1738 39.8042C92.8984 39.6753 92.5732 39.6108 92.1982 39.6108C91.8174 39.6108 91.4863 39.6929 91.2051 39.8569C90.9238 40.021 90.6924 40.2466 90.5107 40.5337C90.335 40.8208 90.2031 41.1548 90.1152 41.5356C90.0273 41.9165 89.9834 42.3237 89.9834 42.7573ZM103.782 45.0161C103.782 44.8052 103.729 44.6147 103.624 44.4448C103.519 44.269 103.316 44.1108 103.018 43.9702C102.725 43.8296 102.291 43.7007 101.717 43.5835C101.213 43.4722 100.75 43.3403 100.328 43.188C99.9121 43.0298 99.5547 42.8394 99.2559 42.6167C98.957 42.394 98.7256 42.1304 98.5615 41.8257C98.3975 41.521 98.3154 41.1694 98.3154 40.771C98.3154 40.3843 98.4004 40.0181 98.5703 39.6724C98.7402 39.3267 98.9834 39.022 99.2998 38.7583C99.6162 38.4946 100 38.2866 100.451 38.1343C100.908 37.9819 101.418 37.9058 101.98 37.9058C102.777 37.9058 103.46 38.0405 104.028 38.3101C104.603 38.5737 105.042 38.9341 105.347 39.3911C105.651 39.8423 105.804 40.3521 105.804 40.9204H103.686C103.686 40.6685 103.621 40.4341 103.492 40.2173C103.369 39.9946 103.182 39.8159 102.93 39.6812C102.678 39.5405 102.361 39.4702 101.98 39.4702C101.617 39.4702 101.315 39.5288 101.075 39.646C100.841 39.7573 100.665 39.9038 100.548 40.0854C100.437 40.2671 100.381 40.4663 100.381 40.6831C100.381 40.8413 100.41 40.9849 100.469 41.1138C100.533 41.2368 100.639 41.3511 100.785 41.4565C100.932 41.5562 101.131 41.6499 101.383 41.7378C101.641 41.8257 101.963 41.9106 102.35 41.9927C103.076 42.145 103.7 42.3413 104.222 42.5815C104.749 42.8159 105.153 43.1206 105.435 43.4956C105.716 43.8647 105.856 44.3335 105.856 44.9019C105.856 45.3237 105.766 45.7104 105.584 46.062C105.408 46.4077 105.15 46.7095 104.811 46.9673C104.471 47.2192 104.063 47.4155 103.589 47.5562C103.12 47.6968 102.593 47.7671 102.007 47.7671C101.146 47.7671 100.416 47.6147 99.8184 47.3101C99.2207 46.9995 98.7666 46.604 98.4561 46.1235C98.1514 45.6372 97.999 45.1333 97.999 44.6118H100.047C100.07 45.0044 100.179 45.3179 100.372 45.5522C100.571 45.7808 100.817 45.9478 101.11 46.0532C101.409 46.1528 101.717 46.2026 102.033 46.2026C102.414 46.2026 102.733 46.1528 102.991 46.0532C103.249 45.9478 103.445 45.8071 103.58 45.6313C103.715 45.4497 103.782 45.2446 103.782 45.0161ZM45.5312 56.2241L41.7656 66.5913H40.2266L44.5625 55.2163H45.5547L45.5312 56.2241ZM48.6875 66.5913L44.9141 56.2241L44.8906 55.2163H45.8828L50.2344 66.5913H48.6875ZM48.4922 62.3804V63.6147H42.1016V62.3804H48.4922ZM56.8672 64.9507V54.5913H58.3203V66.5913H56.9922L56.8672 64.9507ZM51.1797 62.4585V62.2944C51.1797 61.6486 51.2578 61.0627 51.4141 60.5366C51.5755 60.0054 51.8021 59.5496 52.0938 59.1694C52.3906 58.7892 52.7422 58.4976 53.1484 58.2944C53.5599 58.0861 54.0182 57.9819 54.5234 57.9819C55.0547 57.9819 55.5182 58.0757 55.9141 58.2632C56.3151 58.4455 56.6536 58.7137 56.9297 59.0679C57.2109 59.4168 57.4323 59.8387 57.5938 60.3335C57.7552 60.8283 57.8672 61.3882 57.9297 62.0132V62.7319C57.8724 63.3517 57.7604 63.909 57.5938 64.4038C57.4323 64.8986 57.2109 65.3205 56.9297 65.6694C56.6536 66.0184 56.3151 66.2866 55.9141 66.4741C55.513 66.6564 55.0443 66.7476 54.5078 66.7476C54.013 66.7476 53.5599 66.6408 53.1484 66.4272C52.7422 66.2137 52.3906 65.9142 52.0938 65.5288C51.8021 65.1434 51.5755 64.6903 51.4141 64.1694C51.2578 63.6434 51.1797 63.0731 51.1797 62.4585ZM52.6328 62.2944V62.4585C52.6328 62.8804 52.6745 63.2762 52.7578 63.646C52.8464 64.0158 52.9818 64.3413 53.1641 64.6226C53.3464 64.9038 53.5781 65.1252 53.8594 65.2866C54.1406 65.4429 54.4766 65.521 54.8672 65.521C55.3464 65.521 55.7396 65.4194 56.0469 65.2163C56.3594 65.0132 56.6094 64.745 56.7969 64.4116C56.9844 64.0783 57.1302 63.7163 57.2344 63.3257V61.4429C57.1719 61.1564 57.0807 60.8804 56.9609 60.6147C56.8464 60.3439 56.6953 60.1043 56.5078 59.896C56.3255 59.6825 56.099 59.5132 55.8281 59.3882C55.5625 59.2632 55.2474 59.2007 54.8828 59.2007C54.487 59.2007 54.1458 59.284 53.8594 59.4507C53.5781 59.6121 53.3464 59.8361 53.1641 60.1226C52.9818 60.4038 52.8464 60.7319 52.7578 61.1069C52.6745 61.4767 52.6328 61.8726 52.6328 62.2944ZM60.6094 58.1382H62.0625V67.5991C62.0625 68.1147 61.9792 68.5522 61.8125 68.9116C61.651 69.271 61.4062 69.5418 61.0781 69.7241C60.7552 69.9116 60.3464 70.0054 59.8516 70.0054C59.7214 70.0054 59.5703 69.9924 59.3984 69.9663C59.2214 69.9403 59.0729 69.909 58.9531 69.8726L58.9609 68.7085C59.0599 68.7293 59.1719 68.745 59.2969 68.7554C59.4219 68.771 59.5312 68.7788 59.625 68.7788C59.8385 68.7788 60.0182 68.7397 60.1641 68.6616C60.3099 68.5835 60.4193 68.4585 60.4922 68.2866C60.5703 68.1147 60.6094 67.8856 60.6094 67.5991V58.1382ZM60.4609 55.896C60.4609 55.6616 60.5339 55.4637 60.6797 55.3022C60.8255 55.1408 61.0365 55.0601 61.3125 55.0601C61.5938 55.0601 61.8073 55.1408 61.9531 55.3022C62.099 55.4637 62.1719 55.6616 62.1719 55.896C62.1719 56.12 62.099 56.3127 61.9531 56.4741C61.8073 56.6304 61.5938 56.7085 61.3125 56.7085C61.0365 56.7085 60.8255 56.6304 60.6797 56.4741C60.5339 56.3127 60.4609 56.12 60.4609 55.896ZM69.5703 64.6382V58.1382H71.0234V66.5913H69.6406L69.5703 64.6382ZM69.8438 62.8569L70.4453 62.8413C70.4453 63.4038 70.3854 63.9246 70.2656 64.4038C70.151 64.8778 69.9635 65.2892 69.7031 65.6382C69.4427 65.9871 69.1016 66.2606 68.6797 66.4585C68.2578 66.6512 67.7448 66.7476 67.1406 66.7476C66.7292 66.7476 66.3516 66.6877 66.0078 66.5679C65.6693 66.4481 65.3776 66.2632 65.1328 66.0132C64.888 65.7632 64.6979 65.4377 64.5625 65.0366C64.4323 64.6356 64.3672 64.1538 64.3672 63.5913V58.1382H65.8125V63.6069C65.8125 63.9871 65.8542 64.3022 65.9375 64.5522C66.026 64.797 66.1432 64.9924 66.2891 65.1382C66.4401 65.2788 66.6068 65.3778 66.7891 65.4351C66.9766 65.4924 67.1693 65.521 67.3672 65.521C67.9818 65.521 68.4688 65.4038 68.8281 65.1694C69.1875 64.9299 69.4453 64.6095 69.6016 64.2085C69.763 63.8022 69.8438 63.3517 69.8438 62.8569ZM78.1484 64.3491C78.1484 64.1408 78.1016 63.9481 78.0078 63.771C77.9193 63.5887 77.7344 63.4246 77.4531 63.2788C77.1771 63.1278 76.7604 62.9976 76.2031 62.8882C75.7344 62.7892 75.3099 62.672 74.9297 62.5366C74.5547 62.4012 74.2344 62.2371 73.9688 62.0444C73.7083 61.8517 73.5078 61.6252 73.3672 61.3647C73.2266 61.1043 73.1562 60.7996 73.1562 60.4507C73.1562 60.1174 73.2292 59.8022 73.375 59.5054C73.526 59.2085 73.737 58.9455 74.0078 58.7163C74.2839 58.4871 74.6146 58.3075 75 58.1772C75.3854 58.047 75.8151 57.9819 76.2891 57.9819C76.9661 57.9819 77.5443 58.1017 78.0234 58.3413C78.5026 58.5809 78.8698 58.9012 79.125 59.3022C79.3802 59.6981 79.5078 60.1382 79.5078 60.6226H78.0625C78.0625 60.3882 77.9922 60.1616 77.8516 59.9429C77.7161 59.7189 77.5156 59.534 77.25 59.3882C76.9896 59.2424 76.6693 59.1694 76.2891 59.1694C75.888 59.1694 75.5625 59.2319 75.3125 59.3569C75.0677 59.4767 74.888 59.6304 74.7734 59.8179C74.6641 60.0054 74.6094 60.2033 74.6094 60.4116C74.6094 60.5679 74.6354 60.7085 74.6875 60.8335C74.7448 60.9533 74.8438 61.0653 74.9844 61.1694C75.125 61.2684 75.3229 61.3621 75.5781 61.4507C75.8333 61.5392 76.1589 61.6278 76.5547 61.7163C77.2474 61.8726 77.8177 62.0601 78.2656 62.2788C78.7135 62.4976 79.0469 62.7658 79.2656 63.0835C79.4844 63.4012 79.5938 63.7866 79.5938 64.2397C79.5938 64.6095 79.5156 64.9481 79.3594 65.2554C79.2083 65.5627 78.987 65.8283 78.6953 66.0522C78.4089 66.271 78.0651 66.4429 77.6641 66.5679C77.2682 66.6877 76.8229 66.7476 76.3281 66.7476C75.5833 66.7476 74.9531 66.6147 74.4375 66.3491C73.9219 66.0835 73.5312 65.7397 73.2656 65.3179C73 64.896 72.8672 64.4507 72.8672 63.9819H74.3203C74.3411 64.3778 74.4557 64.6929 74.6641 64.9272C74.8724 65.1564 75.1276 65.3205 75.4297 65.4194C75.7318 65.5132 76.0312 65.5601 76.3281 65.5601C76.724 65.5601 77.0547 65.508 77.3203 65.4038C77.5911 65.2996 77.7969 65.1564 77.9375 64.9741C78.0781 64.7918 78.1484 64.5835 78.1484 64.3491ZM85.0312 58.1382V59.2476H80.4609V58.1382H85.0312ZM82.0078 56.0835H83.4531V64.4976C83.4531 64.784 83.4974 65.0002 83.5859 65.146C83.6745 65.2918 83.7891 65.3882 83.9297 65.4351C84.0703 65.4819 84.2214 65.5054 84.3828 65.5054C84.5026 65.5054 84.6276 65.495 84.7578 65.4741C84.8932 65.4481 84.9948 65.4272 85.0625 65.4116L85.0703 66.5913C84.9557 66.6278 84.8047 66.6616 84.6172 66.6929C84.4349 66.7293 84.2135 66.7476 83.9531 66.7476C83.599 66.7476 83.2734 66.6772 82.9766 66.5366C82.6797 66.396 82.4427 66.1616 82.2656 65.8335C82.0938 65.5002 82.0078 65.0522 82.0078 64.4897V56.0835ZM93.0703 65.7163L95.4219 58.1382H96.9688L93.5781 67.896C93.5 68.1043 93.3958 68.3283 93.2656 68.5679C93.1406 68.8127 92.9792 69.0444 92.7812 69.2632C92.5833 69.4819 92.3438 69.659 92.0625 69.7944C91.7865 69.9351 91.4557 70.0054 91.0703 70.0054C90.9557 70.0054 90.8099 69.9897 90.6328 69.9585C90.4557 69.9272 90.3307 69.9012 90.2578 69.8804L90.25 68.7085C90.2917 68.7137 90.3568 68.7189 90.4453 68.7241C90.5391 68.7345 90.6042 68.7397 90.6406 68.7397C90.9688 68.7397 91.2474 68.6955 91.4766 68.6069C91.7057 68.5236 91.8984 68.3804 92.0547 68.1772C92.2161 67.9793 92.3542 67.7059 92.4688 67.3569L93.0703 65.7163ZM91.3438 58.1382L93.5391 64.7007L93.9141 66.2241L92.875 66.7554L89.7656 58.1382H91.3438ZM97.7656 62.4585V62.2788C97.7656 61.6694 97.8542 61.1043 98.0312 60.5835C98.2083 60.0575 98.4635 59.6017 98.7969 59.2163C99.1302 58.8257 99.5339 58.5236 100.008 58.3101C100.482 58.0913 101.013 57.9819 101.602 57.9819C102.195 57.9819 102.729 58.0913 103.203 58.3101C103.682 58.5236 104.089 58.8257 104.422 59.2163C104.76 59.6017 105.018 60.0575 105.195 60.5835C105.372 61.1043 105.461 61.6694 105.461 62.2788V62.4585C105.461 63.0679 105.372 63.633 105.195 64.1538C105.018 64.6746 104.76 65.1304 104.422 65.521C104.089 65.9064 103.685 66.2085 103.211 66.4272C102.742 66.6408 102.211 66.7476 101.617 66.7476C101.023 66.7476 100.49 66.6408 100.016 66.4272C99.5417 66.2085 99.1354 65.9064 98.7969 65.521C98.4635 65.1304 98.2083 64.6746 98.0312 64.1538C97.8542 63.633 97.7656 63.0679 97.7656 62.4585ZM99.2109 62.2788V62.4585C99.2109 62.8804 99.2604 63.2788 99.3594 63.6538C99.4583 64.0236 99.6068 64.3517 99.8047 64.6382C100.008 64.9246 100.26 65.1512 100.562 65.3179C100.865 65.4793 101.216 65.5601 101.617 65.5601C102.013 65.5601 102.359 65.4793 102.656 65.3179C102.958 65.1512 103.208 64.9246 103.406 64.6382C103.604 64.3517 103.753 64.0236 103.852 63.6538C103.956 63.2788 104.008 62.8804 104.008 62.4585V62.2788C104.008 61.8621 103.956 61.4689 103.852 61.0991C103.753 60.7241 103.602 60.3934 103.398 60.1069C103.201 59.8153 102.951 59.5861 102.648 59.4194C102.352 59.2528 102.003 59.1694 101.602 59.1694C101.206 59.1694 100.857 59.2528 100.555 59.4194C100.258 59.5861 100.008 59.8153 99.8047 60.1069C99.6068 60.3934 99.4583 60.7241 99.3594 61.0991C99.2604 61.4689 99.2109 61.8621 99.2109 62.2788ZM112.445 64.6382V58.1382H113.898V66.5913H112.516L112.445 64.6382ZM112.719 62.8569L113.32 62.8413C113.32 63.4038 113.26 63.9246 113.141 64.4038C113.026 64.8778 112.839 65.2892 112.578 65.6382C112.318 65.9871 111.977 66.2606 111.555 66.4585C111.133 66.6512 110.62 66.7476 110.016 66.7476C109.604 66.7476 109.227 66.6877 108.883 66.5679C108.544 66.4481 108.253 66.2632 108.008 66.0132C107.763 65.7632 107.573 65.4377 107.438 65.0366C107.307 64.6356 107.242 64.1538 107.242 63.5913V58.1382H108.688V63.6069C108.688 63.9871 108.729 64.3022 108.812 64.5522C108.901 64.797 109.018 64.9924 109.164 65.1382C109.315 65.2788 109.482 65.3778 109.664 65.4351C109.852 65.4924 110.044 65.521 110.242 65.521C110.857 65.521 111.344 65.4038 111.703 65.1694C112.062 64.9299 112.32 64.6095 112.477 64.2085C112.638 63.8022 112.719 63.3517 112.719 62.8569ZM117.547 59.4663V66.5913H116.102V58.1382H117.508L117.547 59.4663ZM120.188 58.0913L120.18 59.4351C120.06 59.409 119.945 59.3934 119.836 59.3882C119.732 59.3778 119.612 59.3726 119.477 59.3726C119.143 59.3726 118.849 59.4246 118.594 59.5288C118.339 59.633 118.122 59.7788 117.945 59.9663C117.768 60.1538 117.628 60.3778 117.523 60.6382C117.424 60.8934 117.359 61.1746 117.328 61.4819L116.922 61.7163C116.922 61.2059 116.971 60.7267 117.07 60.2788C117.174 59.8309 117.333 59.4351 117.547 59.0913C117.76 58.7424 118.031 58.4715 118.359 58.2788C118.693 58.0809 119.089 57.9819 119.547 57.9819C119.651 57.9819 119.771 57.995 119.906 58.021C120.042 58.0418 120.135 58.0653 120.188 58.0913ZM127.062 54.5913V66.5913H125.609V54.5913H127.062ZM134.367 65.146V60.7944C134.367 60.4611 134.299 60.172 134.164 59.9272C134.034 59.6772 133.836 59.4845 133.57 59.3491C133.305 59.2137 132.977 59.146 132.586 59.146C132.221 59.146 131.901 59.2085 131.625 59.3335C131.354 59.4585 131.141 59.6226 130.984 59.8257C130.833 60.0288 130.758 60.2476 130.758 60.4819H129.312C129.312 60.1799 129.391 59.8804 129.547 59.5835C129.703 59.2866 129.927 59.0184 130.219 58.7788C130.516 58.534 130.87 58.3413 131.281 58.2007C131.698 58.0549 132.161 57.9819 132.672 57.9819C133.286 57.9819 133.828 58.0861 134.297 58.2944C134.771 58.5028 135.141 58.8179 135.406 59.2397C135.677 59.6564 135.812 60.1799 135.812 60.8101V64.7476C135.812 65.0288 135.836 65.3283 135.883 65.646C135.935 65.9637 136.01 66.2371 136.109 66.4663V66.5913H134.602C134.529 66.4246 134.471 66.2033 134.43 65.9272C134.388 65.646 134.367 65.3856 134.367 65.146ZM134.617 61.4663L134.633 62.4819H133.172C132.76 62.4819 132.393 62.5158 132.07 62.5835C131.747 62.646 131.477 62.7424 131.258 62.8726C131.039 63.0028 130.872 63.1668 130.758 63.3647C130.643 63.5575 130.586 63.784 130.586 64.0444C130.586 64.3101 130.646 64.5522 130.766 64.771C130.885 64.9897 131.065 65.1642 131.305 65.2944C131.549 65.4194 131.849 65.4819 132.203 65.4819C132.646 65.4819 133.036 65.3882 133.375 65.2007C133.714 65.0132 133.982 64.784 134.18 64.5132C134.383 64.2424 134.492 63.9793 134.508 63.7241L135.125 64.4194C135.089 64.6382 134.99 64.8804 134.828 65.146C134.667 65.4116 134.451 65.6668 134.18 65.9116C133.914 66.1512 133.596 66.3517 133.227 66.5132C132.862 66.6694 132.451 66.7476 131.992 66.7476C131.419 66.7476 130.917 66.6356 130.484 66.4116C130.057 66.1877 129.724 65.8882 129.484 65.5132C129.25 65.133 129.133 64.7085 129.133 64.2397C129.133 63.7866 129.221 63.3882 129.398 63.0444C129.576 62.6955 129.831 62.4064 130.164 62.1772C130.497 61.9429 130.898 61.7658 131.367 61.646C131.836 61.5262 132.359 61.4663 132.938 61.4663H134.617ZM139.531 59.9429V66.5913H138.086V58.1382H139.453L139.531 59.9429ZM139.188 62.0444L138.586 62.021C138.591 61.4429 138.677 60.909 138.844 60.4194C139.01 59.9246 139.245 59.495 139.547 59.1304C139.849 58.7658 140.208 58.4845 140.625 58.2866C141.047 58.0835 141.513 57.9819 142.023 57.9819C142.44 57.9819 142.815 58.0392 143.148 58.1538C143.482 58.2632 143.766 58.4403 144 58.6851C144.24 58.9299 144.422 59.2476 144.547 59.6382C144.672 60.0236 144.734 60.495 144.734 61.0522V66.5913H143.281V61.0366C143.281 60.5939 143.216 60.2397 143.086 59.9741C142.956 59.7033 142.766 59.508 142.516 59.3882C142.266 59.2632 141.958 59.2007 141.594 59.2007C141.234 59.2007 140.906 59.2762 140.609 59.4272C140.318 59.5783 140.065 59.7866 139.852 60.0522C139.643 60.3179 139.479 60.6226 139.359 60.9663C139.245 61.3049 139.188 61.6642 139.188 62.0444ZM152.406 58.1382H153.719V66.4116C153.719 67.1564 153.568 67.7918 153.266 68.3179C152.964 68.8439 152.542 69.2424 152 69.5132C151.464 69.7892 150.844 69.9272 150.141 69.9272C149.849 69.9272 149.505 69.8804 149.109 69.7866C148.719 69.6981 148.333 69.5444 147.953 69.3257C147.578 69.1121 147.263 68.8231 147.008 68.4585L147.766 67.5991C148.12 68.0262 148.49 68.3231 148.875 68.4897C149.266 68.6564 149.651 68.7397 150.031 68.7397C150.49 68.7397 150.885 68.6538 151.219 68.4819C151.552 68.3101 151.81 68.0549 151.992 67.7163C152.18 67.383 152.273 66.9715 152.273 66.4819V59.9976L152.406 58.1382ZM146.586 62.4585V62.2944C146.586 61.6486 146.661 61.0627 146.812 60.5366C146.969 60.0054 147.19 59.5496 147.477 59.1694C147.768 58.7892 148.12 58.4976 148.531 58.2944C148.943 58.0861 149.406 57.9819 149.922 57.9819C150.453 57.9819 150.917 58.0757 151.312 58.2632C151.714 58.4455 152.052 58.7137 152.328 59.0679C152.609 59.4168 152.831 59.8387 152.992 60.3335C153.154 60.8283 153.266 61.3882 153.328 62.0132V62.7319C153.271 63.3517 153.159 63.909 152.992 64.4038C152.831 64.8986 152.609 65.3205 152.328 65.6694C152.052 66.0184 151.714 66.2866 151.312 66.4741C150.911 66.6564 150.443 66.7476 149.906 66.7476C149.401 66.7476 148.943 66.6408 148.531 66.4272C148.125 66.2137 147.776 65.9142 147.484 65.5288C147.193 65.1434 146.969 64.6903 146.812 64.1694C146.661 63.6434 146.586 63.0731 146.586 62.4585ZM148.031 62.2944V62.4585C148.031 62.8804 148.073 63.2762 148.156 63.646C148.245 64.0158 148.378 64.3413 148.555 64.6226C148.737 64.9038 148.969 65.1252 149.25 65.2866C149.531 65.4429 149.867 65.521 150.258 65.521C150.737 65.521 151.133 65.4194 151.445 65.2163C151.758 65.0132 152.005 64.745 152.188 64.4116C152.375 64.0783 152.521 63.7163 152.625 63.3257V61.4429C152.568 61.1564 152.479 60.8804 152.359 60.6147C152.245 60.3439 152.094 60.1043 151.906 59.896C151.724 59.6825 151.497 59.5132 151.227 59.3882C150.956 59.2632 150.638 59.2007 150.273 59.2007C149.878 59.2007 149.536 59.284 149.25 59.4507C148.969 59.6121 148.737 59.8361 148.555 60.1226C148.378 60.4038 148.245 60.7319 148.156 61.1069C148.073 61.4767 148.031 61.8726 148.031 62.2944ZM161.086 64.6382V58.1382H162.539V66.5913H161.156L161.086 64.6382ZM161.359 62.8569L161.961 62.8413C161.961 63.4038 161.901 63.9246 161.781 64.4038C161.667 64.8778 161.479 65.2892 161.219 65.6382C160.958 65.9871 160.617 66.2606 160.195 66.4585C159.773 66.6512 159.26 66.7476 158.656 66.7476C158.245 66.7476 157.867 66.6877 157.523 66.5679C157.185 66.4481 156.893 66.2632 156.648 66.0132C156.404 65.7632 156.214 65.4377 156.078 65.0366C155.948 64.6356 155.883 64.1538 155.883 63.5913V58.1382H157.328V63.6069C157.328 63.9871 157.37 64.3022 157.453 64.5522C157.542 64.797 157.659 64.9924 157.805 65.1382C157.956 65.2788 158.122 65.3778 158.305 65.4351C158.492 65.4924 158.685 65.521 158.883 65.521C159.497 65.521 159.984 65.4038 160.344 65.1694C160.703 64.9299 160.961 64.6095 161.117 64.2085C161.279 63.8022 161.359 63.3517 161.359 62.8569ZM169.727 65.146V60.7944C169.727 60.4611 169.659 60.172 169.523 59.9272C169.393 59.6772 169.195 59.4845 168.93 59.3491C168.664 59.2137 168.336 59.146 167.945 59.146C167.581 59.146 167.26 59.2085 166.984 59.3335C166.714 59.4585 166.5 59.6226 166.344 59.8257C166.193 60.0288 166.117 60.2476 166.117 60.4819H164.672C164.672 60.1799 164.75 59.8804 164.906 59.5835C165.062 59.2866 165.286 59.0184 165.578 58.7788C165.875 58.534 166.229 58.3413 166.641 58.2007C167.057 58.0549 167.521 57.9819 168.031 57.9819C168.646 57.9819 169.188 58.0861 169.656 58.2944C170.13 58.5028 170.5 58.8179 170.766 59.2397C171.036 59.6564 171.172 60.1799 171.172 60.8101V64.7476C171.172 65.0288 171.195 65.3283 171.242 65.646C171.294 65.9637 171.37 66.2371 171.469 66.4663V66.5913H169.961C169.888 66.4246 169.831 66.2033 169.789 65.9272C169.747 65.646 169.727 65.3856 169.727 65.146ZM169.977 61.4663L169.992 62.4819H168.531C168.12 62.4819 167.753 62.5158 167.43 62.5835C167.107 62.646 166.836 62.7424 166.617 62.8726C166.398 63.0028 166.232 63.1668 166.117 63.3647C166.003 63.5575 165.945 63.784 165.945 64.0444C165.945 64.3101 166.005 64.5522 166.125 64.771C166.245 64.9897 166.424 65.1642 166.664 65.2944C166.909 65.4194 167.208 65.4819 167.562 65.4819C168.005 65.4819 168.396 65.3882 168.734 65.2007C169.073 65.0132 169.341 64.784 169.539 64.5132C169.742 64.2424 169.852 63.9793 169.867 63.7241L170.484 64.4194C170.448 64.6382 170.349 64.8804 170.188 65.146C170.026 65.4116 169.81 65.6668 169.539 65.9116C169.273 66.1512 168.956 66.3517 168.586 66.5132C168.221 66.6694 167.81 66.7476 167.352 66.7476C166.779 66.7476 166.276 66.6356 165.844 66.4116C165.417 66.1877 165.083 65.8882 164.844 65.5132C164.609 65.133 164.492 64.7085 164.492 64.2397C164.492 63.7866 164.581 63.3882 164.758 63.0444C164.935 62.6955 165.19 62.4064 165.523 62.1772C165.857 61.9429 166.258 61.7658 166.727 61.646C167.195 61.5262 167.719 61.4663 168.297 61.4663H169.977ZM178.922 58.1382H180.234V66.4116C180.234 67.1564 180.083 67.7918 179.781 68.3179C179.479 68.8439 179.057 69.2424 178.516 69.5132C177.979 69.7892 177.359 69.9272 176.656 69.9272C176.365 69.9272 176.021 69.8804 175.625 69.7866C175.234 69.6981 174.849 69.5444 174.469 69.3257C174.094 69.1121 173.779 68.8231 173.523 68.4585L174.281 67.5991C174.635 68.0262 175.005 68.3231 175.391 68.4897C175.781 68.6564 176.167 68.7397 176.547 68.7397C177.005 68.7397 177.401 68.6538 177.734 68.4819C178.068 68.3101 178.326 68.0549 178.508 67.7163C178.695 67.383 178.789 66.9715 178.789 66.4819V59.9976L178.922 58.1382ZM173.102 62.4585V62.2944C173.102 61.6486 173.177 61.0627 173.328 60.5366C173.484 60.0054 173.706 59.5496 173.992 59.1694C174.284 58.7892 174.635 58.4976 175.047 58.2944C175.458 58.0861 175.922 57.9819 176.438 57.9819C176.969 57.9819 177.432 58.0757 177.828 58.2632C178.229 58.4455 178.568 58.7137 178.844 59.0679C179.125 59.4168 179.346 59.8387 179.508 60.3335C179.669 60.8283 179.781 61.3882 179.844 62.0132V62.7319C179.786 63.3517 179.674 63.909 179.508 64.4038C179.346 64.8986 179.125 65.3205 178.844 65.6694C178.568 66.0184 178.229 66.2866 177.828 66.4741C177.427 66.6564 176.958 66.7476 176.422 66.7476C175.917 66.7476 175.458 66.6408 175.047 66.4272C174.641 66.2137 174.292 65.9142 174 65.5288C173.708 65.1434 173.484 64.6903 173.328 64.1694C173.177 63.6434 173.102 63.0731 173.102 62.4585ZM174.547 62.2944V62.4585C174.547 62.8804 174.589 63.2762 174.672 63.646C174.76 64.0158 174.893 64.3413 175.07 64.6226C175.253 64.9038 175.484 65.1252 175.766 65.2866C176.047 65.4429 176.383 65.521 176.773 65.521C177.253 65.521 177.648 65.4194 177.961 65.2163C178.273 65.0132 178.521 64.745 178.703 64.4116C178.891 64.0783 179.036 63.7163 179.141 63.3257V61.4429C179.083 61.1564 178.995 60.8804 178.875 60.6147C178.76 60.3439 178.609 60.1043 178.422 59.896C178.24 59.6825 178.013 59.5132 177.742 59.3882C177.471 59.2632 177.154 59.2007 176.789 59.2007C176.393 59.2007 176.052 59.284 175.766 59.4507C175.484 59.6121 175.253 59.8361 175.07 60.1226C174.893 60.4038 174.76 60.7319 174.672 61.1069C174.589 61.4767 174.547 61.8726 174.547 62.2944ZM185.938 66.7476C185.349 66.7476 184.815 66.6486 184.336 66.4507C183.862 66.2476 183.453 65.9637 183.109 65.5991C182.771 65.2345 182.51 64.8022 182.328 64.3022C182.146 63.8022 182.055 63.2554 182.055 62.6616V62.3335C182.055 61.646 182.156 61.034 182.359 60.4976C182.562 59.9559 182.839 59.4976 183.188 59.1226C183.536 58.7476 183.932 58.4637 184.375 58.271C184.818 58.0783 185.276 57.9819 185.75 57.9819C186.354 57.9819 186.875 58.0861 187.312 58.2944C187.755 58.5028 188.117 58.7944 188.398 59.1694C188.68 59.5392 188.888 59.9767 189.023 60.4819C189.159 60.9819 189.227 61.5288 189.227 62.1226V62.771H182.914V61.5913H187.781V61.4819C187.76 61.1069 187.682 60.7424 187.547 60.3882C187.417 60.034 187.208 59.7424 186.922 59.5132C186.635 59.284 186.245 59.1694 185.75 59.1694C185.422 59.1694 185.12 59.2397 184.844 59.3804C184.568 59.5158 184.331 59.7189 184.133 59.9897C183.935 60.2606 183.781 60.5913 183.672 60.9819C183.562 61.3726 183.508 61.8231 183.508 62.3335V62.6616C183.508 63.0627 183.562 63.4403 183.672 63.7944C183.786 64.1434 183.951 64.4507 184.164 64.7163C184.383 64.9819 184.646 65.1903 184.953 65.3413C185.266 65.4924 185.62 65.5679 186.016 65.5679C186.526 65.5679 186.958 65.4637 187.312 65.2554C187.667 65.047 187.977 64.7684 188.242 64.4194L189.117 65.1147C188.935 65.3908 188.703 65.6538 188.422 65.9038C188.141 66.1538 187.794 66.3569 187.383 66.5132C186.977 66.6694 186.495 66.7476 185.938 66.7476ZM42.5469 78.7632V88.8413H41.0938V77.1382H42.4219L42.5469 78.7632ZM48.2422 81.2944V81.4585C48.2422 82.0731 48.1693 82.6434 48.0234 83.1694C47.8776 83.6903 47.6641 84.1434 47.3828 84.5288C47.1068 84.9142 46.7656 85.2137 46.3594 85.4272C45.9531 85.6408 45.487 85.7476 44.9609 85.7476C44.4245 85.7476 43.9505 85.659 43.5391 85.4819C43.1276 85.3049 42.7786 85.047 42.4922 84.7085C42.2057 84.37 41.9766 83.9637 41.8047 83.4897C41.638 83.0158 41.5234 82.4819 41.4609 81.8882V81.0132C41.5234 80.3882 41.6406 79.8283 41.8125 79.3335C41.9844 78.8387 42.2109 78.4168 42.4922 78.0679C42.7786 77.7137 43.125 77.4455 43.5312 77.2632C43.9375 77.0757 44.4062 76.9819 44.9375 76.9819C45.4688 76.9819 45.9401 77.0861 46.3516 77.2944C46.763 77.4976 47.1094 77.7892 47.3906 78.1694C47.6719 78.5496 47.8828 79.0054 48.0234 79.5366C48.1693 80.0627 48.2422 80.6486 48.2422 81.2944ZM46.7891 81.4585V81.2944C46.7891 80.8726 46.7448 80.4767 46.6562 80.1069C46.5677 79.7319 46.4297 79.4038 46.2422 79.1226C46.0599 78.8361 45.8255 78.6121 45.5391 78.4507C45.2526 78.284 44.9115 78.2007 44.5156 78.2007C44.151 78.2007 43.8333 78.2632 43.5625 78.3882C43.2969 78.5132 43.0703 78.6825 42.8828 78.896C42.6953 79.1043 42.5417 79.3439 42.4219 79.6147C42.3073 79.8804 42.2214 80.1564 42.1641 80.4429V82.4663C42.2682 82.8309 42.4141 83.1746 42.6016 83.4976C42.7891 83.8153 43.0391 84.0731 43.3516 84.271C43.6641 84.4637 44.0573 84.5601 44.5312 84.5601C44.9219 84.5601 45.2578 84.4793 45.5391 84.3179C45.8255 84.1512 46.0599 83.9246 46.2422 83.6382C46.4297 83.3517 46.5677 83.0236 46.6562 82.6538C46.7448 82.2788 46.7891 81.8804 46.7891 81.4585ZM51.5312 78.4663V85.5913H50.0859V77.1382H51.4922L51.5312 78.4663ZM54.1719 77.0913L54.1641 78.4351C54.0443 78.409 53.9297 78.3934 53.8203 78.3882C53.7161 78.3778 53.5964 78.3726 53.4609 78.3726C53.1276 78.3726 52.8333 78.4246 52.5781 78.5288C52.3229 78.633 52.1068 78.7788 51.9297 78.9663C51.7526 79.1538 51.612 79.3778 51.5078 79.6382C51.4089 79.8934 51.3438 80.1746 51.3125 80.4819L50.9062 80.7163C50.9062 80.2059 50.9557 79.7267 51.0547 79.2788C51.1589 78.8309 51.3177 78.4351 51.5312 78.0913C51.7448 77.7424 52.0156 77.4715 52.3438 77.2788C52.6771 77.0809 53.0729 76.9819 53.5312 76.9819C53.6354 76.9819 53.7552 76.995 53.8906 77.021C54.026 77.0418 54.1198 77.0653 54.1719 77.0913ZM58.8594 85.7476C58.2708 85.7476 57.737 85.6486 57.2578 85.4507C56.7839 85.2476 56.375 84.9637 56.0312 84.5991C55.6927 84.2345 55.4323 83.8022 55.25 83.3022C55.0677 82.8022 54.9766 82.2554 54.9766 81.6616V81.3335C54.9766 80.646 55.0781 80.034 55.2812 79.4976C55.4844 78.9559 55.7604 78.4976 56.1094 78.1226C56.4583 77.7476 56.8542 77.4637 57.2969 77.271C57.7396 77.0783 58.1979 76.9819 58.6719 76.9819C59.276 76.9819 59.7969 77.0861 60.2344 77.2944C60.6771 77.5028 61.0391 77.7944 61.3203 78.1694C61.6016 78.5392 61.8099 78.9767 61.9453 79.4819C62.0807 79.9819 62.1484 80.5288 62.1484 81.1226V81.771H55.8359V80.5913H60.7031V80.4819C60.6823 80.1069 60.6042 79.7424 60.4688 79.3882C60.3385 79.034 60.1302 78.7424 59.8438 78.5132C59.5573 78.284 59.1667 78.1694 58.6719 78.1694C58.3438 78.1694 58.0417 78.2397 57.7656 78.3804C57.4896 78.5158 57.2526 78.7189 57.0547 78.9897C56.8568 79.2606 56.7031 79.5913 56.5938 79.9819C56.4844 80.3726 56.4297 80.8231 56.4297 81.3335V81.6616C56.4297 82.0627 56.4844 82.4403 56.5938 82.7944C56.7083 83.1434 56.8724 83.4507 57.0859 83.7163C57.3047 83.9819 57.5677 84.1903 57.875 84.3413C58.1875 84.4924 58.5417 84.5679 58.9375 84.5679C59.4479 84.5679 59.8802 84.4637 60.2344 84.2554C60.5885 84.047 60.8984 83.7684 61.1641 83.4194L62.0391 84.1147C61.8568 84.3908 61.625 84.6538 61.3438 84.9038C61.0625 85.1538 60.7161 85.3569 60.3047 85.5132C59.8984 85.6694 59.4167 85.7476 58.8594 85.7476ZM65.9922 85.5913H64.5469V76.2476C64.5469 75.6382 64.6562 75.1252 64.875 74.7085C65.099 74.2866 65.4193 73.9689 65.8359 73.7554C66.2526 73.5366 66.7474 73.4272 67.3203 73.4272C67.487 73.4272 67.6536 73.4377 67.8203 73.4585C67.9922 73.4793 68.1589 73.5106 68.3203 73.5522L68.2422 74.7319C68.1328 74.7059 68.0078 74.6877 67.8672 74.6772C67.7318 74.6668 67.5964 74.6616 67.4609 74.6616C67.1536 74.6616 66.888 74.7241 66.6641 74.8491C66.4453 74.9689 66.2786 75.146 66.1641 75.3804C66.0495 75.6147 65.9922 75.9038 65.9922 76.2476V85.5913ZM67.7891 77.1382V78.2476H63.2109V77.1382H67.7891ZM72.7188 85.7476C72.1302 85.7476 71.5964 85.6486 71.1172 85.4507C70.6432 85.2476 70.2344 84.9637 69.8906 84.5991C69.5521 84.2345 69.2917 83.8022 69.1094 83.3022C68.9271 82.8022 68.8359 82.2554 68.8359 81.6616V81.3335C68.8359 80.646 68.9375 80.034 69.1406 79.4976C69.3438 78.9559 69.6198 78.4976 69.9688 78.1226C70.3177 77.7476 70.7135 77.4637 71.1562 77.271C71.599 77.0783 72.0573 76.9819 72.5312 76.9819C73.1354 76.9819 73.6562 77.0861 74.0938 77.2944C74.5365 77.5028 74.8984 77.7944 75.1797 78.1694C75.4609 78.5392 75.6693 78.9767 75.8047 79.4819C75.9401 79.9819 76.0078 80.5288 76.0078 81.1226V81.771H69.6953V80.5913H74.5625V80.4819C74.5417 80.1069 74.4635 79.7424 74.3281 79.3882C74.1979 79.034 73.9896 78.7424 73.7031 78.5132C73.4167 78.284 73.026 78.1694 72.5312 78.1694C72.2031 78.1694 71.901 78.2397 71.625 78.3804C71.349 78.5158 71.112 78.7189 70.9141 78.9897C70.7161 79.2606 70.5625 79.5913 70.4531 79.9819C70.3438 80.3726 70.2891 80.8231 70.2891 81.3335V81.6616C70.2891 82.0627 70.3438 82.4403 70.4531 82.7944C70.5677 83.1434 70.7318 83.4507 70.9453 83.7163C71.1641 83.9819 71.4271 84.1903 71.7344 84.3413C72.0469 84.4924 72.401 84.5679 72.7969 84.5679C73.3073 84.5679 73.7396 84.4637 74.0938 84.2554C74.4479 84.047 74.7578 83.7684 75.0234 83.4194L75.8984 84.1147C75.7161 84.3908 75.4844 84.6538 75.2031 84.9038C74.9219 85.1538 74.5755 85.3569 74.1641 85.5132C73.7578 85.6694 73.276 85.7476 72.7188 85.7476ZM79.1406 78.4663V85.5913H77.6953V77.1382H79.1016L79.1406 78.4663ZM81.7812 77.0913L81.7734 78.4351C81.6536 78.409 81.5391 78.3934 81.4297 78.3882C81.3255 78.3778 81.2057 78.3726 81.0703 78.3726C80.737 78.3726 80.4427 78.4246 80.1875 78.5288C79.9323 78.633 79.7161 78.7788 79.5391 78.9663C79.362 79.1538 79.2214 79.3778 79.1172 79.6382C79.0182 79.8934 78.9531 80.1746 78.9219 80.4819L78.5156 80.7163C78.5156 80.2059 78.5651 79.7267 78.6641 79.2788C78.7682 78.8309 78.9271 78.4351 79.1406 78.0913C79.3542 77.7424 79.625 77.4715 79.9531 77.2788C80.2865 77.0809 80.6823 76.9819 81.1406 76.9819C81.2448 76.9819 81.3646 76.995 81.5 77.021C81.6354 77.0418 81.7292 77.0653 81.7812 77.0913ZM86.4688 85.7476C85.8802 85.7476 85.3464 85.6486 84.8672 85.4507C84.3932 85.2476 83.9844 84.9637 83.6406 84.5991C83.3021 84.2345 83.0417 83.8022 82.8594 83.3022C82.6771 82.8022 82.5859 82.2554 82.5859 81.6616V81.3335C82.5859 80.646 82.6875 80.034 82.8906 79.4976C83.0938 78.9559 83.3698 78.4976 83.7188 78.1226C84.0677 77.7476 84.4635 77.4637 84.9062 77.271C85.349 77.0783 85.8073 76.9819 86.2812 76.9819C86.8854 76.9819 87.4062 77.0861 87.8438 77.2944C88.2865 77.5028 88.6484 77.7944 88.9297 78.1694C89.2109 78.5392 89.4193 78.9767 89.5547 79.4819C89.6901 79.9819 89.7578 80.5288 89.7578 81.1226V81.771H83.4453V80.5913H88.3125V80.4819C88.2917 80.1069 88.2135 79.7424 88.0781 79.3882C87.9479 79.034 87.7396 78.7424 87.4531 78.5132C87.1667 78.284 86.776 78.1694 86.2812 78.1694C85.9531 78.1694 85.651 78.2397 85.375 78.3804C85.099 78.5158 84.862 78.7189 84.6641 78.9897C84.4661 79.2606 84.3125 79.5913 84.2031 79.9819C84.0938 80.3726 84.0391 80.8231 84.0391 81.3335V81.6616C84.0391 82.0627 84.0938 82.4403 84.2031 82.7944C84.3177 83.1434 84.4818 83.4507 84.6953 83.7163C84.9141 83.9819 85.1771 84.1903 85.4844 84.3413C85.7969 84.4924 86.151 84.5679 86.5469 84.5679C87.0573 84.5679 87.4896 84.4637 87.8438 84.2554C88.1979 84.047 88.5078 83.7684 88.7734 83.4194L89.6484 84.1147C89.4661 84.3908 89.2344 84.6538 88.9531 84.9038C88.6719 85.1538 88.3255 85.3569 87.9141 85.5132C87.5078 85.6694 87.026 85.7476 86.4688 85.7476ZM92.8906 78.9429V85.5913H91.4453V77.1382H92.8125L92.8906 78.9429ZM92.5469 81.0444L91.9453 81.021C91.9505 80.4429 92.0365 79.909 92.2031 79.4194C92.3698 78.9246 92.6042 78.495 92.9062 78.1304C93.2083 77.7658 93.5677 77.4845 93.9844 77.2866C94.4062 77.0835 94.8724 76.9819 95.3828 76.9819C95.7995 76.9819 96.1745 77.0392 96.5078 77.1538C96.8411 77.2632 97.125 77.4403 97.3594 77.6851C97.599 77.9299 97.7812 78.2476 97.9062 78.6382C98.0312 79.0236 98.0938 79.495 98.0938 80.0522V85.5913H96.6406V80.0366C96.6406 79.5939 96.5755 79.2397 96.4453 78.9741C96.3151 78.7033 96.125 78.508 95.875 78.3882C95.625 78.2632 95.3177 78.2007 94.9531 78.2007C94.5938 78.2007 94.2656 78.2762 93.9688 78.4272C93.6771 78.5783 93.4245 78.7866 93.2109 79.0522C93.0026 79.3179 92.8385 79.6226 92.7188 79.9663C92.6042 80.3049 92.5469 80.6642 92.5469 81.0444ZM103.672 84.5601C104.016 84.5601 104.333 84.4897 104.625 84.3491C104.917 84.2085 105.156 84.0158 105.344 83.771C105.531 83.521 105.638 83.2371 105.664 82.9194H107.039C107.013 83.4194 106.844 83.8856 106.531 84.3179C106.224 84.745 105.82 85.0913 105.32 85.3569C104.82 85.6174 104.271 85.7476 103.672 85.7476C103.036 85.7476 102.482 85.6356 102.008 85.4116C101.539 85.1877 101.148 84.8804 100.836 84.4897C100.529 84.0991 100.297 83.6512 100.141 83.146C99.9896 82.6356 99.9141 82.0965 99.9141 81.5288V81.2007C99.9141 80.633 99.9896 80.0965 100.141 79.5913C100.297 79.0809 100.529 78.6304 100.836 78.2397C101.148 77.8491 101.539 77.5418 102.008 77.3179C102.482 77.0939 103.036 76.9819 103.672 76.9819C104.333 76.9819 104.911 77.1174 105.406 77.3882C105.901 77.6538 106.289 78.0184 106.57 78.4819C106.857 78.9403 107.013 79.4611 107.039 80.0444H105.664C105.638 79.6955 105.539 79.3804 105.367 79.0991C105.201 78.8179 104.971 78.5939 104.68 78.4272C104.393 78.2554 104.057 78.1694 103.672 78.1694C103.229 78.1694 102.857 78.258 102.555 78.4351C102.258 78.6069 102.021 78.8413 101.844 79.1382C101.672 79.4299 101.547 79.7554 101.469 80.1147C101.396 80.4689 101.359 80.8309 101.359 81.2007V81.5288C101.359 81.8986 101.396 82.2632 101.469 82.6226C101.542 82.9819 101.664 83.3075 101.836 83.5991C102.013 83.8908 102.25 84.1252 102.547 84.3022C102.849 84.4741 103.224 84.5601 103.672 84.5601ZM112.172 85.7476C111.583 85.7476 111.049 85.6486 110.57 85.4507C110.096 85.2476 109.688 84.9637 109.344 84.5991C109.005 84.2345 108.745 83.8022 108.562 83.3022C108.38 82.8022 108.289 82.2554 108.289 81.6616V81.3335C108.289 80.646 108.391 80.034 108.594 79.4976C108.797 78.9559 109.073 78.4976 109.422 78.1226C109.771 77.7476 110.167 77.4637 110.609 77.271C111.052 77.0783 111.51 76.9819 111.984 76.9819C112.589 76.9819 113.109 77.0861 113.547 77.2944C113.99 77.5028 114.352 77.7944 114.633 78.1694C114.914 78.5392 115.122 78.9767 115.258 79.4819C115.393 79.9819 115.461 80.5288 115.461 81.1226V81.771H109.148V80.5913H114.016V80.4819C113.995 80.1069 113.917 79.7424 113.781 79.3882C113.651 79.034 113.443 78.7424 113.156 78.5132C112.87 78.284 112.479 78.1694 111.984 78.1694C111.656 78.1694 111.354 78.2397 111.078 78.3804C110.802 78.5158 110.565 78.7189 110.367 78.9897C110.169 79.2606 110.016 79.5913 109.906 79.9819C109.797 80.3726 109.742 80.8231 109.742 81.3335V81.6616C109.742 82.0627 109.797 82.4403 109.906 82.7944C110.021 83.1434 110.185 83.4507 110.398 83.7163C110.617 83.9819 110.88 84.1903 111.188 84.3413C111.5 84.4924 111.854 84.5679 112.25 84.5679C112.76 84.5679 113.193 84.4637 113.547 84.2554C113.901 84.047 114.211 83.7684 114.477 83.4194L115.352 84.1147C115.169 84.3908 114.938 84.6538 114.656 84.9038C114.375 85.1538 114.029 85.3569 113.617 85.5132C113.211 85.6694 112.729 85.7476 112.172 85.7476ZM122.07 83.3491C122.07 83.1408 122.023 82.9481 121.93 82.771C121.841 82.5887 121.656 82.4246 121.375 82.2788C121.099 82.1278 120.682 81.9976 120.125 81.8882C119.656 81.7892 119.232 81.672 118.852 81.5366C118.477 81.4012 118.156 81.2371 117.891 81.0444C117.63 80.8517 117.43 80.6252 117.289 80.3647C117.148 80.1043 117.078 79.7996 117.078 79.4507C117.078 79.1174 117.151 78.8022 117.297 78.5054C117.448 78.2085 117.659 77.9455 117.93 77.7163C118.206 77.4871 118.536 77.3075 118.922 77.1772C119.307 77.047 119.737 76.9819 120.211 76.9819C120.888 76.9819 121.466 77.1017 121.945 77.3413C122.424 77.5809 122.792 77.9012 123.047 78.3022C123.302 78.6981 123.43 79.1382 123.43 79.6226H121.984C121.984 79.3882 121.914 79.1616 121.773 78.9429C121.638 78.7189 121.438 78.534 121.172 78.3882C120.911 78.2424 120.591 78.1694 120.211 78.1694C119.81 78.1694 119.484 78.2319 119.234 78.3569C118.99 78.4767 118.81 78.6304 118.695 78.8179C118.586 79.0054 118.531 79.2033 118.531 79.4116C118.531 79.5679 118.557 79.7085 118.609 79.8335C118.667 79.9533 118.766 80.0653 118.906 80.1694C119.047 80.2684 119.245 80.3621 119.5 80.4507C119.755 80.5392 120.081 80.6278 120.477 80.7163C121.169 80.8726 121.74 81.0601 122.188 81.2788C122.635 81.4976 122.969 81.7658 123.188 82.0835C123.406 82.4012 123.516 82.7866 123.516 83.2397C123.516 83.6095 123.438 83.9481 123.281 84.2554C123.13 84.5627 122.909 84.8283 122.617 85.0522C122.331 85.271 121.987 85.4429 121.586 85.5679C121.19 85.6877 120.745 85.7476 120.25 85.7476C119.505 85.7476 118.875 85.6147 118.359 85.3491C117.844 85.0835 117.453 84.7397 117.188 84.3179C116.922 83.896 116.789 83.4507 116.789 82.9819H118.242C118.263 83.3778 118.378 83.6929 118.586 83.9272C118.794 84.1564 119.049 84.3205 119.352 84.4194C119.654 84.5132 119.953 84.5601 120.25 84.5601C120.646 84.5601 120.977 84.508 121.242 84.4038C121.513 84.2996 121.719 84.1564 121.859 83.9741C122 83.7918 122.07 83.5835 122.07 83.3491ZM126.727 83.8726V85.0366C126.727 85.5106 126.607 86.0106 126.367 86.5366C126.128 87.0679 125.792 87.5106 125.359 87.8647L124.539 87.2944C124.706 87.0653 124.846 86.8309 124.961 86.5913C125.076 86.3569 125.161 86.1121 125.219 85.8569C125.281 85.6069 125.312 85.3413 125.312 85.0601V83.8726H126.727ZM134.68 84.0913L136.852 77.1382H137.805L137.617 78.521L135.406 85.5913H134.477L134.68 84.0913ZM133.219 77.1382L135.07 84.1694L135.203 85.5913H134.227L131.773 77.1382H133.219ZM139.883 84.1147L141.648 77.1382H143.086L140.633 85.5913H139.664L139.883 84.1147ZM138.016 77.1382L140.141 83.9741L140.383 85.5913H139.461L137.188 78.5054L137 77.1382H138.016ZM148.078 85.7476C147.49 85.7476 146.956 85.6486 146.477 85.4507C146.003 85.2476 145.594 84.9637 145.25 84.5991C144.911 84.2345 144.651 83.8022 144.469 83.3022C144.286 82.8022 144.195 82.2554 144.195 81.6616V81.3335C144.195 80.646 144.297 80.034 144.5 79.4976C144.703 78.9559 144.979 78.4976 145.328 78.1226C145.677 77.7476 146.073 77.4637 146.516 77.271C146.958 77.0783 147.417 76.9819 147.891 76.9819C148.495 76.9819 149.016 77.0861 149.453 77.2944C149.896 77.5028 150.258 77.7944 150.539 78.1694C150.82 78.5392 151.029 78.9767 151.164 79.4819C151.299 79.9819 151.367 80.5288 151.367 81.1226V81.771H145.055V80.5913H149.922V80.4819C149.901 80.1069 149.823 79.7424 149.688 79.3882C149.557 79.034 149.349 78.7424 149.062 78.5132C148.776 78.284 148.385 78.1694 147.891 78.1694C147.562 78.1694 147.26 78.2397 146.984 78.3804C146.708 78.5158 146.471 78.7189 146.273 78.9897C146.076 79.2606 145.922 79.5913 145.812 79.9819C145.703 80.3726 145.648 80.8231 145.648 81.3335V81.6616C145.648 82.0627 145.703 82.4403 145.812 82.7944C145.927 83.1434 146.091 83.4507 146.305 83.7163C146.523 83.9819 146.786 84.1903 147.094 84.3413C147.406 84.4924 147.76 84.5679 148.156 84.5679C148.667 84.5679 149.099 84.4637 149.453 84.2554C149.807 84.047 150.117 83.7684 150.383 83.4194L151.258 84.1147C151.076 84.3908 150.844 84.6538 150.562 84.9038C150.281 85.1538 149.935 85.3569 149.523 85.5132C149.117 85.6694 148.635 85.7476 148.078 85.7476ZM153.047 73.5913H154.5V83.9507L154.375 85.5913H153.047V73.5913ZM160.211 81.2944V81.4585C160.211 82.0731 160.138 82.6434 159.992 83.1694C159.846 83.6903 159.633 84.1434 159.352 84.5288C159.07 84.9142 158.727 85.2137 158.32 85.4272C157.914 85.6408 157.448 85.7476 156.922 85.7476C156.385 85.7476 155.914 85.6564 155.508 85.4741C155.107 85.2866 154.768 85.0184 154.492 84.6694C154.216 84.3205 153.995 83.8986 153.828 83.4038C153.667 82.909 153.555 82.3517 153.492 81.7319V81.0132C153.555 80.3882 153.667 79.8283 153.828 79.3335C153.995 78.8387 154.216 78.4168 154.492 78.0679C154.768 77.7137 155.107 77.4455 155.508 77.2632C155.909 77.0757 156.375 76.9819 156.906 76.9819C157.438 76.9819 157.909 77.0861 158.32 77.2944C158.732 77.4976 159.076 77.7892 159.352 78.1694C159.633 78.5496 159.846 79.0054 159.992 79.5366C160.138 80.0627 160.211 80.6486 160.211 81.2944ZM158.758 81.4585V81.2944C158.758 80.8726 158.719 80.4767 158.641 80.1069C158.562 79.7319 158.438 79.4038 158.266 79.1226C158.094 78.8361 157.867 78.6121 157.586 78.4507C157.305 78.284 156.958 78.2007 156.547 78.2007C156.182 78.2007 155.865 78.2632 155.594 78.3882C155.328 78.5132 155.102 78.6825 154.914 78.896C154.727 79.1043 154.573 79.3439 154.453 79.6147C154.339 79.8804 154.253 80.1564 154.195 80.4429V82.3257C154.279 82.6903 154.414 83.0418 154.602 83.3804C154.794 83.7137 155.049 83.9871 155.367 84.2007C155.69 84.4142 156.089 84.521 156.562 84.521C156.953 84.521 157.286 84.4429 157.562 84.2866C157.844 84.1252 158.07 83.9038 158.242 83.6226C158.419 83.3413 158.549 83.0158 158.633 82.646C158.716 82.2762 158.758 81.8804 158.758 81.4585ZM166.961 83.3491C166.961 83.1408 166.914 82.9481 166.82 82.771C166.732 82.5887 166.547 82.4246 166.266 82.2788C165.99 82.1278 165.573 81.9976 165.016 81.8882C164.547 81.7892 164.122 81.672 163.742 81.5366C163.367 81.4012 163.047 81.2371 162.781 81.0444C162.521 80.8517 162.32 80.6252 162.18 80.3647C162.039 80.1043 161.969 79.7996 161.969 79.4507C161.969 79.1174 162.042 78.8022 162.188 78.5054C162.339 78.2085 162.549 77.9455 162.82 77.7163C163.096 77.4871 163.427 77.3075 163.812 77.1772C164.198 77.047 164.628 76.9819 165.102 76.9819C165.779 76.9819 166.357 77.1017 166.836 77.3413C167.315 77.5809 167.682 77.9012 167.938 78.3022C168.193 78.6981 168.32 79.1382 168.32 79.6226H166.875C166.875 79.3882 166.805 79.1616 166.664 78.9429C166.529 78.7189 166.328 78.534 166.062 78.3882C165.802 78.2424 165.482 78.1694 165.102 78.1694C164.701 78.1694 164.375 78.2319 164.125 78.3569C163.88 78.4767 163.701 78.6304 163.586 78.8179C163.477 79.0054 163.422 79.2033 163.422 79.4116C163.422 79.5679 163.448 79.7085 163.5 79.8335C163.557 79.9533 163.656 80.0653 163.797 80.1694C163.938 80.2684 164.135 80.3621 164.391 80.4507C164.646 80.5392 164.971 80.6278 165.367 80.7163C166.06 80.8726 166.63 81.0601 167.078 81.2788C167.526 81.4976 167.859 81.7658 168.078 82.0835C168.297 82.4012 168.406 82.7866 168.406 83.2397C168.406 83.6095 168.328 83.9481 168.172 84.2554C168.021 84.5627 167.799 84.8283 167.508 85.0522C167.221 85.271 166.878 85.4429 166.477 85.5679C166.081 85.6877 165.635 85.7476 165.141 85.7476C164.396 85.7476 163.766 85.6147 163.25 85.3491C162.734 85.0835 162.344 84.7397 162.078 84.3179C161.812 83.896 161.68 83.4507 161.68 82.9819H163.133C163.154 83.3778 163.268 83.6929 163.477 83.9272C163.685 84.1564 163.94 84.3205 164.242 84.4194C164.544 84.5132 164.844 84.5601 165.141 84.5601C165.536 84.5601 165.867 84.508 166.133 84.4038C166.404 84.2996 166.609 84.1564 166.75 83.9741C166.891 83.7918 166.961 83.5835 166.961 83.3491ZM171.875 77.1382V85.5913H170.422V77.1382H171.875ZM170.312 74.896C170.312 74.6616 170.383 74.4637 170.523 74.3022C170.669 74.1408 170.883 74.0601 171.164 74.0601C171.44 74.0601 171.651 74.1408 171.797 74.3022C171.948 74.4637 172.023 74.6616 172.023 74.896C172.023 75.12 171.948 75.3127 171.797 75.4741C171.651 75.6304 171.44 75.7085 171.164 75.7085C170.883 75.7085 170.669 75.6304 170.523 75.4741C170.383 75.3127 170.312 75.12 170.312 74.896ZM177.734 77.1382V78.2476H173.164V77.1382H177.734ZM174.711 75.0835H176.156V83.4976C176.156 83.784 176.201 84.0002 176.289 84.146C176.378 84.2918 176.492 84.3882 176.633 84.4351C176.773 84.4819 176.924 84.5054 177.086 84.5054C177.206 84.5054 177.331 84.495 177.461 84.4741C177.596 84.4481 177.698 84.4272 177.766 84.4116L177.773 85.5913C177.659 85.6278 177.508 85.6616 177.32 85.6929C177.138 85.7293 176.917 85.7476 176.656 85.7476C176.302 85.7476 175.977 85.6772 175.68 85.5366C175.383 85.396 175.146 85.1616 174.969 84.8335C174.797 84.5002 174.711 84.0522 174.711 83.4897V75.0835ZM182.938 85.7476C182.349 85.7476 181.815 85.6486 181.336 85.4507C180.862 85.2476 180.453 84.9637 180.109 84.5991C179.771 84.2345 179.51 83.8022 179.328 83.3022C179.146 82.8022 179.055 82.2554 179.055 81.6616V81.3335C179.055 80.646 179.156 80.034 179.359 79.4976C179.562 78.9559 179.839 78.4976 180.188 78.1226C180.536 77.7476 180.932 77.4637 181.375 77.271C181.818 77.0783 182.276 76.9819 182.75 76.9819C183.354 76.9819 183.875 77.0861 184.312 77.2944C184.755 77.5028 185.117 77.7944 185.398 78.1694C185.68 78.5392 185.888 78.9767 186.023 79.4819C186.159 79.9819 186.227 80.5288 186.227 81.1226V81.771H179.914V80.5913H184.781V80.4819C184.76 80.1069 184.682 79.7424 184.547 79.3882C184.417 79.034 184.208 78.7424 183.922 78.5132C183.635 78.284 183.245 78.1694 182.75 78.1694C182.422 78.1694 182.12 78.2397 181.844 78.3804C181.568 78.5158 181.331 78.7189 181.133 78.9897C180.935 79.2606 180.781 79.5913 180.672 79.9819C180.562 80.3726 180.508 80.8231 180.508 81.3335V81.6616C180.508 82.0627 180.562 82.4403 180.672 82.7944C180.786 83.1434 180.951 83.4507 181.164 83.7163C181.383 83.9819 181.646 84.1903 181.953 84.3413C182.266 84.4924 182.62 84.5679 183.016 84.5679C183.526 84.5679 183.958 84.4637 184.312 84.2554C184.667 84.047 184.977 83.7684 185.242 83.4194L186.117 84.1147C185.935 84.3908 185.703 84.6538 185.422 84.9038C185.141 85.1538 184.794 85.3569 184.383 85.5132C183.977 85.6694 183.495 85.7476 182.938 85.7476ZM195.422 77.1382V78.2476H190.852V77.1382H195.422ZM192.398 75.0835H193.844V83.4976C193.844 83.784 193.888 84.0002 193.977 84.146C194.065 84.2918 194.18 84.3882 194.32 84.4351C194.461 84.4819 194.612 84.5054 194.773 84.5054C194.893 84.5054 195.018 84.495 195.148 84.4741C195.284 84.4481 195.385 84.4272 195.453 84.4116L195.461 85.5913C195.346 85.6278 195.195 85.6616 195.008 85.6929C194.826 85.7293 194.604 85.7476 194.344 85.7476C193.99 85.7476 193.664 85.6772 193.367 85.5366C193.07 85.396 192.833 85.1616 192.656 84.8335C192.484 84.5002 192.398 84.0522 192.398 83.4897V75.0835ZM198.562 73.5913V85.5913H197.117V73.5913H198.562ZM198.219 81.0444L197.617 81.021C197.622 80.4429 197.708 79.909 197.875 79.4194C198.042 78.9246 198.276 78.495 198.578 78.1304C198.88 77.7658 199.24 77.4845 199.656 77.2866C200.078 77.0835 200.544 76.9819 201.055 76.9819C201.471 76.9819 201.846 77.0392 202.18 77.1538C202.513 77.2632 202.797 77.4403 203.031 77.6851C203.271 77.9299 203.453 78.2476 203.578 78.6382C203.703 79.0236 203.766 79.495 203.766 80.0522V85.5913H202.312V80.0366C202.312 79.5939 202.247 79.2397 202.117 78.9741C201.987 78.7033 201.797 78.508 201.547 78.3882C201.297 78.2632 200.99 78.2007 200.625 78.2007C200.266 78.2007 199.938 78.2762 199.641 78.4272C199.349 78.5783 199.096 78.7866 198.883 79.0522C198.674 79.3179 198.51 79.6226 198.391 79.9663C198.276 80.3049 198.219 80.6642 198.219 81.0444ZM209.438 85.7476C208.849 85.7476 208.315 85.6486 207.836 85.4507C207.362 85.2476 206.953 84.9637 206.609 84.5991C206.271 84.2345 206.01 83.8022 205.828 83.3022C205.646 82.8022 205.555 82.2554 205.555 81.6616V81.3335C205.555 80.646 205.656 80.034 205.859 79.4976C206.062 78.9559 206.339 78.4976 206.688 78.1226C207.036 77.7476 207.432 77.4637 207.875 77.271C208.318 77.0783 208.776 76.9819 209.25 76.9819C209.854 76.9819 210.375 77.0861 210.812 77.2944C211.255 77.5028 211.617 77.7944 211.898 78.1694C212.18 78.5392 212.388 78.9767 212.523 79.4819C212.659 79.9819 212.727 80.5288 212.727 81.1226V81.771H206.414V80.5913H211.281V80.4819C211.26 80.1069 211.182 79.7424 211.047 79.3882C210.917 79.034 210.708 78.7424 210.422 78.5132C210.135 78.284 209.745 78.1694 209.25 78.1694C208.922 78.1694 208.62 78.2397 208.344 78.3804C208.068 78.5158 207.831 78.7189 207.633 78.9897C207.435 79.2606 207.281 79.5913 207.172 79.9819C207.062 80.3726 207.008 80.8231 207.008 81.3335V81.6616C207.008 82.0627 207.062 82.4403 207.172 82.7944C207.286 83.1434 207.451 83.4507 207.664 83.7163C207.883 83.9819 208.146 84.1903 208.453 84.3413C208.766 84.4924 209.12 84.5679 209.516 84.5679C210.026 84.5679 210.458 84.4637 210.812 84.2554C211.167 84.047 211.477 83.7684 211.742 83.4194L212.617 84.1147C212.435 84.3908 212.203 84.6538 211.922 84.9038C211.641 85.1538 211.294 85.3569 210.883 85.5132C210.477 85.6694 209.995 85.7476 209.438 85.7476ZM215.852 78.8179V85.5913H214.398V77.1382H215.773L215.852 78.8179ZM215.555 81.0444L214.883 81.021C214.888 80.4429 214.964 79.909 215.109 79.4194C215.255 78.9246 215.471 78.495 215.758 78.1304C216.044 77.7658 216.401 77.4845 216.828 77.2866C217.255 77.0835 217.75 76.9819 218.312 76.9819C218.708 76.9819 219.073 77.0392 219.406 77.1538C219.74 77.2632 220.029 77.4377 220.273 77.6772C220.518 77.9168 220.708 78.2241 220.844 78.5991C220.979 78.9741 221.047 79.4272 221.047 79.9585V85.5913H219.602V80.0288C219.602 79.5861 219.526 79.2319 219.375 78.9663C219.229 78.7007 219.021 78.508 218.75 78.3882C218.479 78.2632 218.161 78.2007 217.797 78.2007C217.37 78.2007 217.013 78.2762 216.727 78.4272C216.44 78.5783 216.211 78.7866 216.039 79.0522C215.867 79.3179 215.742 79.6226 215.664 79.9663C215.591 80.3049 215.555 80.6642 215.555 81.0444ZM221.031 80.2476L220.062 80.5444C220.068 80.0809 220.143 79.6356 220.289 79.2085C220.44 78.7814 220.656 78.4012 220.938 78.0679C221.224 77.7345 221.576 77.4715 221.992 77.2788C222.409 77.0809 222.885 76.9819 223.422 76.9819C223.875 76.9819 224.276 77.0418 224.625 77.1616C224.979 77.2814 225.276 77.4663 225.516 77.7163C225.76 77.9611 225.945 78.2762 226.07 78.6616C226.195 79.047 226.258 79.5054 226.258 80.0366V85.5913H224.805V80.021C224.805 79.547 224.729 79.1799 224.578 78.9194C224.432 78.6538 224.224 78.4689 223.953 78.3647C223.688 78.2554 223.37 78.2007 223 78.2007C222.682 78.2007 222.401 78.2554 222.156 78.3647C221.911 78.4741 221.706 78.6252 221.539 78.8179C221.372 79.0054 221.245 79.2215 221.156 79.4663C221.073 79.7111 221.031 79.9715 221.031 80.2476ZM231.953 85.7476C231.365 85.7476 230.831 85.6486 230.352 85.4507C229.878 85.2476 229.469 84.9637 229.125 84.5991C228.786 84.2345 228.526 83.8022 228.344 83.3022C228.161 82.8022 228.07 82.2554 228.07 81.6616V81.3335C228.07 80.646 228.172 80.034 228.375 79.4976C228.578 78.9559 228.854 78.4976 229.203 78.1226C229.552 77.7476 229.948 77.4637 230.391 77.271C230.833 77.0783 231.292 76.9819 231.766 76.9819C232.37 76.9819 232.891 77.0861 233.328 77.2944C233.771 77.5028 234.133 77.7944 234.414 78.1694C234.695 78.5392 234.904 78.9767 235.039 79.4819C235.174 79.9819 235.242 80.5288 235.242 81.1226V81.771H228.93V80.5913H233.797V80.4819C233.776 80.1069 233.698 79.7424 233.562 79.3882C233.432 79.034 233.224 78.7424 232.938 78.5132C232.651 78.284 232.26 78.1694 231.766 78.1694C231.438 78.1694 231.135 78.2397 230.859 78.3804C230.583 78.5158 230.346 78.7189 230.148 78.9897C229.951 79.2606 229.797 79.5913 229.688 79.9819C229.578 80.3726 229.523 80.8231 229.523 81.3335V81.6616C229.523 82.0627 229.578 82.4403 229.688 82.7944C229.802 83.1434 229.966 83.4507 230.18 83.7163C230.398 83.9819 230.661 84.1903 230.969 84.3413C231.281 84.4924 231.635 84.5679 232.031 84.5679C232.542 84.5679 232.974 84.4637 233.328 84.2554C233.682 84.047 233.992 83.7684 234.258 83.4194L235.133 84.1147C234.951 84.3908 234.719 84.6538 234.438 84.9038C234.156 85.1538 233.81 85.3569 233.398 85.5132C232.992 85.6694 232.51 85.7476 231.953 85.7476ZM238.242 83.8726V85.0366C238.242 85.5106 238.122 86.0106 237.883 86.5366C237.643 87.0679 237.307 87.5106 236.875 87.8647L236.055 87.2944C236.221 87.0653 236.362 86.8309 236.477 86.5913C236.591 86.3569 236.677 86.1121 236.734 85.8569C236.797 85.6069 236.828 85.3413 236.828 85.0601V83.8726H238.242ZM46.0859 103.146V98.7944C46.0859 98.4611 46.0182 98.172 45.8828 97.9272C45.7526 97.6772 45.5547 97.4845 45.2891 97.3491C45.0234 97.2137 44.6953 97.146 44.3047 97.146C43.9401 97.146 43.6198 97.2085 43.3438 97.3335C43.0729 97.4585 42.8594 97.6226 42.7031 97.8257C42.5521 98.0288 42.4766 98.2476 42.4766 98.4819H41.0312C41.0312 98.1799 41.1094 97.8804 41.2656 97.5835C41.4219 97.2866 41.6458 97.0184 41.9375 96.7788C42.2344 96.534 42.5885 96.3413 43 96.2007C43.4167 96.0549 43.8802 95.9819 44.3906 95.9819C45.0052 95.9819 45.5469 96.0861 46.0156 96.2944C46.4896 96.5028 46.8594 96.8179 47.125 97.2397C47.3958 97.6564 47.5312 98.1799 47.5312 98.8101V102.748C47.5312 103.029 47.5547 103.328 47.6016 103.646C47.6536 103.964 47.7292 104.237 47.8281 104.466V104.591H46.3203C46.2474 104.425 46.1901 104.203 46.1484 103.927C46.1068 103.646 46.0859 103.386 46.0859 103.146ZM46.3359 99.4663L46.3516 100.482H44.8906C44.4792 100.482 44.112 100.516 43.7891 100.583C43.4661 100.646 43.1953 100.742 42.9766 100.873C42.7578 101.003 42.5911 101.167 42.4766 101.365C42.362 101.557 42.3047 101.784 42.3047 102.044C42.3047 102.31 42.3646 102.552 42.4844 102.771C42.6042 102.99 42.7839 103.164 43.0234 103.294C43.2682 103.419 43.5677 103.482 43.9219 103.482C44.3646 103.482 44.7552 103.388 45.0938 103.201C45.4323 103.013 45.7005 102.784 45.8984 102.513C46.1016 102.242 46.2109 101.979 46.2266 101.724L46.8438 102.419C46.8073 102.638 46.7083 102.88 46.5469 103.146C46.3854 103.412 46.1693 103.667 45.8984 103.912C45.6328 104.151 45.3151 104.352 44.9453 104.513C44.5807 104.669 44.1693 104.748 43.7109 104.748C43.138 104.748 42.6354 104.636 42.2031 104.412C41.776 104.188 41.4427 103.888 41.2031 103.513C40.9688 103.133 40.8516 102.708 40.8516 102.24C40.8516 101.787 40.9401 101.388 41.1172 101.044C41.2943 100.695 41.5495 100.406 41.8828 100.177C42.2161 99.9429 42.6172 99.7658 43.0859 99.646C43.5547 99.5262 44.0781 99.4663 44.6562 99.4663H46.3359ZM51.25 97.9429V104.591H49.8047V96.1382H51.1719L51.25 97.9429ZM50.9062 100.044L50.3047 100.021C50.3099 99.4429 50.3958 98.909 50.5625 98.4194C50.7292 97.9246 50.9635 97.495 51.2656 97.1304C51.5677 96.7658 51.9271 96.4845 52.3438 96.2866C52.7656 96.0835 53.2318 95.9819 53.7422 95.9819C54.1589 95.9819 54.5339 96.0392 54.8672 96.1538C55.2005 96.2632 55.4844 96.4403 55.7188 96.6851C55.9583 96.9299 56.1406 97.2476 56.2656 97.6382C56.3906 98.0236 56.4531 98.495 56.4531 99.0522V104.591H55V99.0366C55 98.5939 54.9349 98.2397 54.8047 97.9741C54.6745 97.7033 54.4844 97.508 54.2344 97.3882C53.9844 97.2632 53.6771 97.2007 53.3125 97.2007C52.9531 97.2007 52.625 97.2762 52.3281 97.4272C52.0365 97.5783 51.7839 97.7866 51.5703 98.0522C51.362 98.3179 51.1979 98.6226 51.0781 98.9663C50.9635 99.3049 50.9062 99.6642 50.9062 100.044ZM63.9766 102.951V92.5913H65.4297V104.591H64.1016L63.9766 102.951ZM58.2891 100.458V100.294C58.2891 99.6486 58.3672 99.0627 58.5234 98.5366C58.6849 98.0054 58.9115 97.5496 59.2031 97.1694C59.5 96.7892 59.8516 96.4976 60.2578 96.2944C60.6693 96.0861 61.1276 95.9819 61.6328 95.9819C62.1641 95.9819 62.6276 96.0757 63.0234 96.2632C63.4245 96.4455 63.763 96.7137 64.0391 97.0679C64.3203 97.4168 64.5417 97.8387 64.7031 98.3335C64.8646 98.8283 64.9766 99.3882 65.0391 100.013V100.732C64.9818 101.352 64.8698 101.909 64.7031 102.404C64.5417 102.899 64.3203 103.32 64.0391 103.669C63.763 104.018 63.4245 104.287 63.0234 104.474C62.6224 104.656 62.1536 104.748 61.6172 104.748C61.1224 104.748 60.6693 104.641 60.2578 104.427C59.8516 104.214 59.5 103.914 59.2031 103.529C58.9115 103.143 58.6849 102.69 58.5234 102.169C58.3672 101.643 58.2891 101.073 58.2891 100.458ZM59.7422 100.294V100.458C59.7422 100.88 59.7839 101.276 59.8672 101.646C59.9557 102.016 60.0911 102.341 60.2734 102.623C60.4557 102.904 60.6875 103.125 60.9688 103.287C61.25 103.443 61.5859 103.521 61.9766 103.521C62.4557 103.521 62.849 103.419 63.1562 103.216C63.4688 103.013 63.7188 102.745 63.9062 102.412C64.0938 102.078 64.2396 101.716 64.3438 101.326V99.4429C64.2812 99.1564 64.1901 98.8804 64.0703 98.6147C63.9557 98.3439 63.8047 98.1043 63.6172 97.896C63.4349 97.6825 63.2083 97.5132 62.9375 97.3882C62.6719 97.2632 62.3568 97.2007 61.9922 97.2007C61.5964 97.2007 61.2552 97.284 60.9688 97.4507C60.6875 97.6121 60.4557 97.8361 60.2734 98.1226C60.0911 98.4038 59.9557 98.7319 59.8672 99.1069C59.7839 99.4767 59.7422 99.8726 59.7422 100.294ZM73.0859 97.8179V104.591H71.6328V96.1382H73.0078L73.0859 97.8179ZM72.7891 100.044L72.1172 100.021C72.1224 99.4429 72.1979 98.909 72.3438 98.4194C72.4896 97.9246 72.7057 97.495 72.9922 97.1304C73.2786 96.7658 73.6354 96.4845 74.0625 96.2866C74.4896 96.0835 74.9844 95.9819 75.5469 95.9819C75.9427 95.9819 76.3073 96.0392 76.6406 96.1538C76.974 96.2632 77.263 96.4377 77.5078 96.6772C77.7526 96.9168 77.9427 97.2241 78.0781 97.5991C78.2135 97.9741 78.2812 98.4272 78.2812 98.9585V104.591H76.8359V99.0288C76.8359 98.5861 76.7604 98.2319 76.6094 97.9663C76.4635 97.7007 76.2552 97.508 75.9844 97.3882C75.7135 97.2632 75.3958 97.2007 75.0312 97.2007C74.6042 97.2007 74.2474 97.2762 73.9609 97.4272C73.6745 97.5783 73.4453 97.7866 73.2734 98.0522C73.1016 98.3179 72.9766 98.6226 72.8984 98.9663C72.8255 99.3049 72.7891 99.6642 72.7891 100.044ZM78.2656 99.2476L77.2969 99.5444C77.3021 99.0809 77.3776 98.6356 77.5234 98.2085C77.6745 97.7814 77.8906 97.4012 78.1719 97.0679C78.4583 96.7345 78.8099 96.4715 79.2266 96.2788C79.6432 96.0809 80.1198 95.9819 80.6562 95.9819C81.1094 95.9819 81.5104 96.0418 81.8594 96.1616C82.2135 96.2814 82.5104 96.4663 82.75 96.7163C82.9948 96.9611 83.1797 97.2762 83.3047 97.6616C83.4297 98.047 83.4922 98.5054 83.4922 99.0366V104.591H82.0391V99.021C82.0391 98.547 81.9635 98.1799 81.8125 97.9194C81.6667 97.6538 81.4583 97.4689 81.1875 97.3647C80.9219 97.2554 80.6042 97.2007 80.2344 97.2007C79.9167 97.2007 79.6354 97.2554 79.3906 97.3647C79.1458 97.4741 78.9401 97.6252 78.7734 97.8179C78.6068 98.0054 78.4792 98.2215 78.3906 98.4663C78.3073 98.7111 78.2656 98.9715 78.2656 99.2476ZM85.2969 100.458V100.279C85.2969 99.6694 85.3854 99.1043 85.5625 98.5835C85.7396 98.0575 85.9948 97.6017 86.3281 97.2163C86.6615 96.8257 87.0651 96.5236 87.5391 96.3101C88.013 96.0913 88.5443 95.9819 89.1328 95.9819C89.7266 95.9819 90.2604 96.0913 90.7344 96.3101C91.2135 96.5236 91.6198 96.8257 91.9531 97.2163C92.2917 97.6017 92.5495 98.0575 92.7266 98.5835C92.9036 99.1043 92.9922 99.6694 92.9922 100.279V100.458C92.9922 101.068 92.9036 101.633 92.7266 102.154C92.5495 102.675 92.2917 103.13 91.9531 103.521C91.6198 103.906 91.2161 104.208 90.7422 104.427C90.2734 104.641 89.7422 104.748 89.1484 104.748C88.5547 104.748 88.0208 104.641 87.5469 104.427C87.0729 104.208 86.6667 103.906 86.3281 103.521C85.9948 103.13 85.7396 102.675 85.5625 102.154C85.3854 101.633 85.2969 101.068 85.2969 100.458ZM86.7422 100.279V100.458C86.7422 100.88 86.7917 101.279 86.8906 101.654C86.9896 102.024 87.138 102.352 87.3359 102.638C87.5391 102.925 87.7917 103.151 88.0938 103.318C88.3958 103.479 88.7474 103.56 89.1484 103.56C89.5443 103.56 89.8906 103.479 90.1875 103.318C90.4896 103.151 90.7396 102.925 90.9375 102.638C91.1354 102.352 91.2839 102.024 91.3828 101.654C91.487 101.279 91.5391 100.88 91.5391 100.458V100.279C91.5391 99.8621 91.487 99.4689 91.3828 99.0991C91.2839 98.7241 91.1328 98.3934 90.9297 98.1069C90.7318 97.8153 90.4818 97.5861 90.1797 97.4194C89.8828 97.2528 89.5339 97.1694 89.1328 97.1694C88.737 97.1694 88.388 97.2528 88.0859 97.4194C87.7891 97.5861 87.5391 97.8153 87.3359 98.1069C87.138 98.3934 86.9896 98.7241 86.8906 99.0991C86.7917 99.4689 86.7422 99.8621 86.7422 100.279ZM96.25 97.4663V104.591H94.8047V96.1382H96.2109L96.25 97.4663ZM98.8906 96.0913L98.8828 97.4351C98.763 97.409 98.6484 97.3934 98.5391 97.3882C98.4349 97.3778 98.3151 97.3726 98.1797 97.3726C97.8464 97.3726 97.5521 97.4246 97.2969 97.5288C97.0417 97.633 96.8255 97.7788 96.6484 97.9663C96.4714 98.1538 96.3307 98.3778 96.2266 98.6382C96.1276 98.8934 96.0625 99.1746 96.0312 99.4819L95.625 99.7163C95.625 99.2059 95.6745 98.7267 95.7734 98.2788C95.8776 97.8309 96.0365 97.4351 96.25 97.0913C96.4635 96.7424 96.7344 96.4715 97.0625 96.2788C97.3958 96.0809 97.7917 95.9819 98.25 95.9819C98.3542 95.9819 98.474 95.995 98.6094 96.021C98.7448 96.0418 98.8385 96.0653 98.8906 96.0913ZM103.578 104.748C102.99 104.748 102.456 104.649 101.977 104.451C101.503 104.248 101.094 103.964 100.75 103.599C100.411 103.235 100.151 102.802 99.9688 102.302C99.7865 101.802 99.6953 101.255 99.6953 100.662V100.333C99.6953 99.646 99.7969 99.034 100 98.4976C100.203 97.9559 100.479 97.4976 100.828 97.1226C101.177 96.7476 101.573 96.4637 102.016 96.271C102.458 96.0783 102.917 95.9819 103.391 95.9819C103.995 95.9819 104.516 96.0861 104.953 96.2944C105.396 96.5028 105.758 96.7944 106.039 97.1694C106.32 97.5392 106.529 97.9767 106.664 98.4819C106.799 98.9819 106.867 99.5288 106.867 100.123V100.771H100.555V99.5913H105.422V99.4819C105.401 99.1069 105.323 98.7424 105.188 98.3882C105.057 98.034 104.849 97.7424 104.562 97.5132C104.276 97.284 103.885 97.1694 103.391 97.1694C103.062 97.1694 102.76 97.2397 102.484 97.3804C102.208 97.5158 101.971 97.7189 101.773 97.9897C101.576 98.2606 101.422 98.5913 101.312 98.9819C101.203 99.3726 101.148 99.8231 101.148 100.333V100.662C101.148 101.063 101.203 101.44 101.312 101.794C101.427 102.143 101.591 102.451 101.805 102.716C102.023 102.982 102.286 103.19 102.594 103.341C102.906 103.492 103.26 103.568 103.656 103.568C104.167 103.568 104.599 103.464 104.953 103.255C105.307 103.047 105.617 102.768 105.883 102.419L106.758 103.115C106.576 103.391 106.344 103.654 106.062 103.904C105.781 104.154 105.435 104.357 105.023 104.513C104.617 104.669 104.135 104.748 103.578 104.748ZM108.578 103.826C108.578 103.581 108.654 103.375 108.805 103.208C108.961 103.037 109.185 102.951 109.477 102.951C109.768 102.951 109.99 103.037 110.141 103.208C110.297 103.375 110.375 103.581 110.375 103.826C110.375 104.065 110.297 104.268 110.141 104.435C109.99 104.602 109.768 104.685 109.477 104.685C109.185 104.685 108.961 104.602 108.805 104.435C108.654 104.268 108.578 104.065 108.578 103.826Z" fill="black"/>
<rect x="63" y="128" width="159" height="52" rx="8" fill="#272727"/>
<rect x="63" y="128" width="159" height="52" rx="8" fill="black" fill-opacity="0.2"/>
<path d="M111.572 155.783H114.492C114.434 156.74 114.17 157.59 113.701 158.332C113.239 159.074 112.591 159.654 111.758 160.07C110.931 160.487 109.935 160.695 108.77 160.695C107.858 160.695 107.041 160.539 106.318 160.227C105.596 159.908 104.977 159.452 104.463 158.859C103.955 158.267 103.568 157.551 103.301 156.711C103.034 155.871 102.9 154.93 102.9 153.889V152.902C102.9 151.861 103.037 150.92 103.311 150.08C103.59 149.234 103.988 148.514 104.502 147.922C105.023 147.329 105.645 146.874 106.367 146.555C107.09 146.236 107.897 146.076 108.789 146.076C109.974 146.076 110.973 146.291 111.787 146.721C112.607 147.15 113.242 147.743 113.691 148.498C114.147 149.253 114.421 150.113 114.512 151.076H111.582C111.549 150.503 111.436 150.018 111.24 149.621C111.045 149.217 110.749 148.915 110.352 148.713C109.961 148.505 109.44 148.4 108.789 148.4C108.301 148.4 107.874 148.492 107.51 148.674C107.145 148.856 106.839 149.133 106.592 149.504C106.344 149.875 106.159 150.344 106.035 150.91C105.918 151.47 105.859 152.128 105.859 152.883V153.889C105.859 154.624 105.915 155.272 106.025 155.832C106.136 156.385 106.305 156.854 106.533 157.238C106.768 157.616 107.067 157.902 107.432 158.098C107.803 158.286 108.249 158.381 108.77 158.381C109.382 158.381 109.886 158.283 110.283 158.088C110.68 157.893 110.983 157.603 111.191 157.219C111.406 156.835 111.533 156.356 111.572 155.783ZM115.791 155.324V155.119C115.791 154.344 115.902 153.632 116.123 152.98C116.344 152.323 116.667 151.753 117.09 151.271C117.513 150.79 118.034 150.415 118.652 150.148C119.271 149.875 119.98 149.738 120.781 149.738C121.582 149.738 122.295 149.875 122.92 150.148C123.545 150.415 124.069 150.79 124.492 151.271C124.922 151.753 125.247 152.323 125.469 152.98C125.69 153.632 125.801 154.344 125.801 155.119V155.324C125.801 156.092 125.69 156.805 125.469 157.463C125.247 158.114 124.922 158.684 124.492 159.172C124.069 159.654 123.548 160.028 122.93 160.295C122.311 160.562 121.602 160.695 120.801 160.695C120 160.695 119.287 160.562 118.662 160.295C118.044 160.028 117.52 159.654 117.09 159.172C116.667 158.684 116.344 158.114 116.123 157.463C115.902 156.805 115.791 156.092 115.791 155.324ZM118.604 155.119V155.324C118.604 155.767 118.643 156.18 118.721 156.564C118.799 156.949 118.923 157.287 119.092 157.58C119.268 157.867 119.495 158.091 119.775 158.254C120.055 158.417 120.397 158.498 120.801 158.498C121.191 158.498 121.527 158.417 121.807 158.254C122.087 158.091 122.311 157.867 122.48 157.58C122.65 157.287 122.773 156.949 122.852 156.564C122.936 156.18 122.979 155.767 122.979 155.324V155.119C122.979 154.689 122.936 154.286 122.852 153.908C122.773 153.524 122.646 153.186 122.471 152.893C122.301 152.593 122.077 152.359 121.797 152.189C121.517 152.02 121.178 151.936 120.781 151.936C120.384 151.936 120.046 152.02 119.766 152.189C119.492 152.359 119.268 152.593 119.092 152.893C118.923 153.186 118.799 153.524 118.721 153.908C118.643 154.286 118.604 154.689 118.604 155.119ZM130.283 152.189V160.5H127.471V149.934H130.107L130.283 152.189ZM129.873 154.846H129.111C129.111 154.064 129.212 153.361 129.414 152.736C129.616 152.105 129.899 151.568 130.264 151.125C130.628 150.676 131.061 150.334 131.562 150.1C132.07 149.859 132.637 149.738 133.262 149.738C133.757 149.738 134.209 149.81 134.619 149.953C135.029 150.096 135.381 150.324 135.674 150.637C135.973 150.949 136.201 151.363 136.357 151.877C136.52 152.391 136.602 153.02 136.602 153.762V160.5H133.77V153.752C133.77 153.283 133.704 152.919 133.574 152.658C133.444 152.398 133.252 152.215 132.998 152.111C132.751 152.001 132.445 151.945 132.08 151.945C131.702 151.945 131.374 152.02 131.094 152.17C130.82 152.32 130.592 152.528 130.41 152.795C130.234 153.055 130.101 153.361 130.01 153.713C129.919 154.064 129.873 154.442 129.873 154.846ZM143.916 149.934V151.926H137.764V149.934H143.916ZM139.287 147.326H142.1V157.316C142.1 157.622 142.139 157.857 142.217 158.02C142.301 158.182 142.425 158.296 142.588 158.361C142.751 158.42 142.956 158.449 143.203 158.449C143.379 158.449 143.535 158.443 143.672 158.43C143.815 158.41 143.936 158.391 144.033 158.371L144.043 160.441C143.802 160.52 143.542 160.581 143.262 160.627C142.982 160.673 142.673 160.695 142.334 160.695C141.715 160.695 141.175 160.594 140.713 160.393C140.257 160.184 139.906 159.852 139.658 159.396C139.411 158.941 139.287 158.342 139.287 157.6V147.326ZM148.486 149.934V160.5H145.664V149.934H148.486ZM145.488 147.18C145.488 146.77 145.632 146.431 145.918 146.164C146.204 145.897 146.589 145.764 147.07 145.764C147.546 145.764 147.926 145.897 148.213 146.164C148.506 146.431 148.652 146.77 148.652 147.18C148.652 147.59 148.506 147.928 148.213 148.195C147.926 148.462 147.546 148.596 147.07 148.596C146.589 148.596 146.204 148.462 145.918 148.195C145.632 147.928 145.488 147.59 145.488 147.18ZM153.564 152.189V160.5H150.752V149.934H153.389L153.564 152.189ZM153.154 154.846H152.393C152.393 154.064 152.493 153.361 152.695 152.736C152.897 152.105 153.18 151.568 153.545 151.125C153.91 150.676 154.342 150.334 154.844 150.1C155.352 149.859 155.918 149.738 156.543 149.738C157.038 149.738 157.49 149.81 157.9 149.953C158.311 150.096 158.662 150.324 158.955 150.637C159.255 150.949 159.482 151.363 159.639 151.877C159.801 152.391 159.883 153.02 159.883 153.762V160.5H157.051V153.752C157.051 153.283 156.986 152.919 156.855 152.658C156.725 152.398 156.533 152.215 156.279 152.111C156.032 152.001 155.726 151.945 155.361 151.945C154.984 151.945 154.655 152.02 154.375 152.17C154.102 152.32 153.874 152.528 153.691 152.795C153.516 153.055 153.382 153.361 153.291 153.713C153.2 154.064 153.154 154.442 153.154 154.846ZM168.271 157.971V149.934H171.084V160.5H168.438L168.271 157.971ZM168.584 155.803L169.414 155.783C169.414 156.486 169.333 157.141 169.17 157.746C169.007 158.345 168.763 158.866 168.438 159.309C168.112 159.745 167.702 160.087 167.207 160.334C166.712 160.575 166.13 160.695 165.459 160.695C164.945 160.695 164.469 160.624 164.033 160.48C163.604 160.331 163.232 160.1 162.92 159.787C162.614 159.468 162.373 159.061 162.197 158.566C162.028 158.065 161.943 157.463 161.943 156.76V149.934H164.756V156.779C164.756 157.092 164.792 157.355 164.863 157.57C164.941 157.785 165.049 157.961 165.186 158.098C165.322 158.234 165.482 158.332 165.664 158.391C165.853 158.449 166.061 158.479 166.289 158.479C166.868 158.479 167.324 158.361 167.656 158.127C167.995 157.893 168.232 157.574 168.369 157.17C168.512 156.76 168.584 156.304 168.584 155.803ZM178.096 160.695C177.275 160.695 176.54 160.565 175.889 160.305C175.238 160.038 174.684 159.67 174.229 159.201C173.779 158.732 173.434 158.189 173.193 157.57C172.952 156.945 172.832 156.281 172.832 155.578V155.188C172.832 154.387 172.946 153.654 173.174 152.99C173.402 152.326 173.727 151.75 174.15 151.262C174.58 150.773 175.101 150.399 175.713 150.139C176.325 149.872 177.015 149.738 177.783 149.738C178.532 149.738 179.196 149.862 179.775 150.109C180.355 150.357 180.84 150.708 181.23 151.164C181.628 151.62 181.927 152.167 182.129 152.805C182.331 153.436 182.432 154.139 182.432 154.914V156.086H174.033V154.211H179.668V153.996C179.668 153.605 179.596 153.257 179.453 152.951C179.316 152.639 179.108 152.391 178.828 152.209C178.548 152.027 178.19 151.936 177.754 151.936C177.383 151.936 177.064 152.017 176.797 152.18C176.53 152.342 176.312 152.57 176.143 152.863C175.98 153.156 175.856 153.501 175.771 153.898C175.693 154.289 175.654 154.719 175.654 155.188V155.578C175.654 156.001 175.713 156.392 175.83 156.75C175.954 157.108 176.126 157.417 176.348 157.678C176.576 157.938 176.849 158.14 177.168 158.283C177.493 158.426 177.861 158.498 178.271 158.498C178.779 158.498 179.251 158.4 179.688 158.205C180.13 158.003 180.511 157.701 180.83 157.297L182.197 158.781C181.976 159.1 181.673 159.406 181.289 159.699C180.911 159.992 180.456 160.233 179.922 160.422C179.388 160.604 178.779 160.695 178.096 160.695Z" fill="white"/>
</g>
<defs>
<filter id="filter0_d_32_34641" x="0" y="0" width="285" height="212" filterUnits="userSpaceOnUse" color-interpolation-filters="sRGB">
<feFlood flood-opacity="0" result="BackgroundImageFix"/>
<feColorMatrix in="SourceAlpha" type="matrix" values="0 0 0 0 0 0 0 0 0 0 0 0 0 0 0 0 0 0 127 0" result="hardAlpha"/>
<feOffset dy="4"/>
<feGaussianBlur stdDeviation="2"/>
<feComposite in2="hardAlpha" operator="out"/>
<feColorMatrix type="matrix" values="0 0 0 0 0 0 0 0 0 0 0 0 0 0 0 0 0 0 0.25 0"/>
<feBlend mode="normal" in2="BackgroundImageFix" result="effect1_dropShadow_32_34641"/>
<feBlend mode="normal" in="SourceGraphic" in2="effect1_dropShadow_32_34641" result="shape"/>
</filter>
</defs>
</svg>
