<svg width="272" height="230" viewBox="0 0 272 230" fill="none" xmlns="http://www.w3.org/2000/svg">
<g filter="url(#filter0_d_32_34740)">
<path d="M268 26.3728C268 21.9546 264.418 18.3728 260 18.3728L48.16 18.3724C45.5444 18.3724 43.094 17.0937 41.5979 14.9482L36.8568 8.14905L35.5339 5.97488C33.9594 3.3872 30.1483 3.55774 28.8112 6.27571L23.5989 14.6132C22.1369 16.9518 19.5735 18.3724 16.8156 18.3725L11.9998 18.3726C7.58157 18.3727 4 21.9544 4 26.3726V214C4 218.418 7.58173 222 12 222H260C264.418 222 268 218.418 268 214V26.3728Z" fill="#F3F3F3"/>
<path d="M38.8945 50.978L41.5742 41.978H44.1836L40.2227 53.353H38.5039L38.8945 50.978ZM36.4258 41.978L39.0977 50.978L39.5039 53.353H37.7695L33.832 41.978H36.4258ZM47.4805 44.8999V53.353H45.2227V44.8999H47.4805ZM45.082 42.6968C45.082 42.3687 45.1966 42.0978 45.4258 41.8843C45.6549 41.6707 45.9622 41.564 46.3477 41.564C46.7279 41.564 47.0326 41.6707 47.2617 41.8843C47.4961 42.0978 47.6133 42.3687 47.6133 42.6968C47.6133 43.0249 47.4961 43.2957 47.2617 43.5093C47.0326 43.7228 46.7279 43.8296 46.3477 43.8296C45.9622 43.8296 45.6549 43.7228 45.4258 43.5093C45.1966 43.2957 45.082 43.0249 45.082 42.6968ZM54.332 51.5093V41.353H56.5977V53.353H54.5586L54.332 51.5093ZM48.9883 49.228V49.064C48.9883 48.4181 49.0612 47.8322 49.207 47.3062C49.3529 46.7749 49.5664 46.3192 49.8477 45.939C50.1289 45.5588 50.4753 45.2645 50.8867 45.0562C51.2982 44.8478 51.7669 44.7437 52.293 44.7437C52.7878 44.7437 53.2201 44.8478 53.5898 45.0562C53.9648 45.2645 54.2826 45.5614 54.543 45.9468C54.8086 46.327 55.0221 46.7775 55.1836 47.2983C55.3451 47.814 55.4622 48.3791 55.5352 48.9937V49.353C55.4622 49.9416 55.3451 50.4884 55.1836 50.9937C55.0221 51.4989 54.8086 51.9416 54.543 52.3218C54.2826 52.6968 53.9648 52.9884 53.5898 53.1968C53.2148 53.4051 52.7773 53.5093 52.2773 53.5093C51.7513 53.5093 51.2826 53.4025 50.8711 53.189C50.4648 52.9754 50.1211 52.6759 49.8398 52.2905C49.5638 51.9051 49.3529 51.452 49.207 50.9312C49.0612 50.4103 48.9883 49.8426 48.9883 49.228ZM51.2383 49.064V49.228C51.2383 49.577 51.2643 49.9025 51.3164 50.2046C51.3737 50.5067 51.4648 50.7749 51.5898 51.0093C51.7201 51.2384 51.8867 51.4181 52.0898 51.5483C52.2982 51.6733 52.5508 51.7358 52.8477 51.7358C53.2331 51.7358 53.5508 51.6499 53.8008 51.478C54.0508 51.3009 54.2409 51.0588 54.3711 50.7515C54.5065 50.4442 54.5846 50.09 54.6055 49.689V48.6655C54.5898 48.3374 54.543 48.0431 54.4648 47.7827C54.3919 47.5171 54.2826 47.2905 54.1367 47.103C53.9961 46.9155 53.819 46.7697 53.6055 46.6655C53.3971 46.5614 53.1497 46.5093 52.8633 46.5093C52.5716 46.5093 52.3216 46.577 52.1133 46.7124C51.9049 46.8426 51.7357 47.0223 51.6055 47.2515C51.4805 47.4806 51.3867 47.7515 51.3242 48.064C51.2669 48.3713 51.2383 48.7046 51.2383 49.064ZM62.2461 53.5093C61.5898 53.5093 61.0013 53.4051 60.4805 53.1968C59.9596 52.9832 59.5169 52.689 59.1523 52.314C58.793 51.939 58.5169 51.5041 58.3242 51.0093C58.1315 50.5093 58.0352 49.978 58.0352 49.4155V49.103C58.0352 48.4624 58.1263 47.8765 58.3086 47.3452C58.4909 46.814 58.7513 46.353 59.0898 45.9624C59.4336 45.5718 59.8503 45.2723 60.3398 45.064C60.8294 44.8504 61.3815 44.7437 61.9961 44.7437C62.5951 44.7437 63.1263 44.8426 63.5898 45.0405C64.0534 45.2384 64.4414 45.5197 64.7539 45.8843C65.0716 46.2489 65.3112 46.6864 65.4727 47.1968C65.6341 47.702 65.7148 48.2645 65.7148 48.8843V49.8218H58.9961V48.3218H63.5039V48.1499C63.5039 47.8374 63.4466 47.5588 63.332 47.314C63.2227 47.064 63.056 46.866 62.832 46.7202C62.6081 46.5744 62.3216 46.5015 61.9727 46.5015C61.6758 46.5015 61.4206 46.5666 61.207 46.6968C60.9935 46.827 60.819 47.0093 60.6836 47.2437C60.5534 47.478 60.4544 47.7541 60.3867 48.0718C60.3242 48.3843 60.293 48.728 60.293 49.103V49.4155C60.293 49.7541 60.3398 50.0666 60.4336 50.353C60.5326 50.6395 60.6706 50.8869 60.8477 51.0952C61.0299 51.3035 61.2487 51.465 61.5039 51.5796C61.7643 51.6942 62.0586 51.7515 62.3867 51.7515C62.793 51.7515 63.1706 51.6733 63.5195 51.5171C63.8737 51.3556 64.1784 51.1134 64.4336 50.7905L65.5273 51.978C65.3503 52.2332 65.1081 52.478 64.8008 52.7124C64.4987 52.9468 64.1341 53.1395 63.707 53.2905C63.2799 53.4364 62.793 53.5093 62.2461 53.5093ZM66.6367 49.2124V49.0483C66.6367 48.4285 66.7253 47.8582 66.9023 47.3374C67.0794 46.8114 67.3372 46.3556 67.6758 45.9702C68.0143 45.5848 68.431 45.2853 68.9258 45.0718C69.4206 44.853 69.9883 44.7437 70.6289 44.7437C71.2695 44.7437 71.8398 44.853 72.3398 45.0718C72.8398 45.2853 73.2591 45.5848 73.5977 45.9702C73.9414 46.3556 74.2018 46.8114 74.3789 47.3374C74.556 47.8582 74.6445 48.4285 74.6445 49.0483V49.2124C74.6445 49.827 74.556 50.3973 74.3789 50.9233C74.2018 51.4442 73.9414 51.8999 73.5977 52.2905C73.2591 52.6759 72.8424 52.9754 72.3477 53.189C71.8529 53.4025 71.2852 53.5093 70.6445 53.5093C70.0039 53.5093 69.4336 53.4025 68.9336 53.189C68.4388 52.9754 68.0195 52.6759 67.6758 52.2905C67.3372 51.8999 67.0794 51.4442 66.9023 50.9233C66.7253 50.3973 66.6367 49.827 66.6367 49.2124ZM68.8867 49.0483V49.2124C68.8867 49.5666 68.918 49.8973 68.9805 50.2046C69.043 50.5119 69.1419 50.7827 69.2773 51.0171C69.418 51.2463 69.6003 51.4259 69.8242 51.5562C70.0482 51.6864 70.3216 51.7515 70.6445 51.7515C70.957 51.7515 71.2253 51.6864 71.4492 51.5562C71.6732 51.4259 71.8529 51.2463 71.9883 51.0171C72.1237 50.7827 72.2227 50.5119 72.2852 50.2046C72.3529 49.8973 72.3867 49.5666 72.3867 49.2124V49.0483C72.3867 48.7046 72.3529 48.3817 72.2852 48.0796C72.2227 47.7723 72.1211 47.5015 71.9805 47.2671C71.8451 47.0275 71.6654 46.84 71.4414 46.7046C71.2174 46.5692 70.9466 46.5015 70.6289 46.5015C70.3112 46.5015 70.0404 46.5692 69.8164 46.7046C69.5977 46.84 69.418 47.0275 69.2773 47.2671C69.1419 47.5015 69.043 47.7723 68.9805 48.0796C68.918 48.3817 68.8867 48.7046 68.8867 49.0483ZM80.5977 51.0171C80.5977 50.8556 80.5508 50.7098 80.457 50.5796C80.3633 50.4494 80.1888 50.3296 79.9336 50.2202C79.6836 50.1056 79.3216 50.0015 78.8477 49.9077C78.4206 49.814 78.0221 49.6968 77.6523 49.5562C77.2878 49.4103 76.9701 49.2358 76.6992 49.0327C76.4336 48.8296 76.2253 48.59 76.0742 48.314C75.9232 48.0327 75.8477 47.7124 75.8477 47.353C75.8477 46.9989 75.9232 46.6655 76.0742 46.353C76.2305 46.0405 76.4518 45.7645 76.7383 45.5249C77.0299 45.2801 77.3841 45.09 77.8008 44.9546C78.2227 44.814 78.6966 44.7437 79.2227 44.7437C79.957 44.7437 80.5872 44.8608 81.1133 45.0952C81.6445 45.3296 82.0508 45.6525 82.332 46.064C82.6185 46.4702 82.7617 46.9338 82.7617 47.4546H80.5117C80.5117 47.2358 80.4648 47.0405 80.3711 46.8687C80.2826 46.6916 80.1419 46.5535 79.9492 46.4546C79.7617 46.3504 79.5169 46.2983 79.2148 46.2983C78.9648 46.2983 78.7487 46.3426 78.5664 46.4312C78.3841 46.5145 78.2435 46.6291 78.1445 46.7749C78.0508 46.9155 78.0039 47.0718 78.0039 47.2437C78.0039 47.3739 78.0299 47.491 78.082 47.5952C78.1393 47.6942 78.2305 47.7853 78.3555 47.8687C78.4805 47.952 78.6419 48.0301 78.8398 48.103C79.043 48.1707 79.293 48.2332 79.5898 48.2905C80.1992 48.4155 80.7435 48.5796 81.2227 48.7827C81.7018 48.9806 82.082 49.2515 82.3633 49.5952C82.6445 49.9338 82.7852 50.3791 82.7852 50.9312C82.7852 51.3062 82.7018 51.6499 82.5352 51.9624C82.3685 52.2749 82.1289 52.5483 81.8164 52.7827C81.5039 53.0119 81.1289 53.1916 80.6914 53.3218C80.2591 53.4468 79.7721 53.5093 79.2305 53.5093C78.444 53.5093 77.7773 53.3687 77.2305 53.0874C76.6888 52.8062 76.2773 52.4494 75.9961 52.0171C75.7201 51.5796 75.582 51.1317 75.582 50.6733H77.7148C77.7253 50.9806 77.8034 51.228 77.9492 51.4155C78.1003 51.603 78.2904 51.7384 78.5195 51.8218C78.7539 51.9051 79.0065 51.9468 79.2773 51.9468C79.569 51.9468 79.8112 51.9077 80.0039 51.8296C80.1966 51.7463 80.3424 51.6369 80.4414 51.5015C80.5456 51.3608 80.5977 51.1994 80.5977 51.0171ZM42.5273 65.8687V67.0952H36.3711V65.8687H42.5273ZM36.6055 60.978V72.353H35.0977V60.978H36.6055ZM43.8398 60.978V72.353H42.3398V60.978H43.8398ZM45.918 68.2202V68.0405C45.918 67.4312 46.0065 66.866 46.1836 66.3452C46.3607 65.8192 46.6159 65.3634 46.9492 64.978C47.2826 64.5874 47.6862 64.2853 48.1602 64.0718C48.6341 63.853 49.1654 63.7437 49.7539 63.7437C50.3477 63.7437 50.8815 63.853 51.3555 64.0718C51.8346 64.2853 52.2409 64.5874 52.5742 64.978C52.9128 65.3634 53.1706 65.8192 53.3477 66.3452C53.5247 66.866 53.6133 67.4312 53.6133 68.0405V68.2202C53.6133 68.8296 53.5247 69.3947 53.3477 69.9155C53.1706 70.4364 52.9128 70.8921 52.5742 71.2827C52.2409 71.6681 51.8372 71.9702 51.3633 72.189C50.8945 72.4025 50.3633 72.5093 49.7695 72.5093C49.1758 72.5093 48.6419 72.4025 48.168 72.189C47.694 71.9702 47.2878 71.6681 46.9492 71.2827C46.6159 70.8921 46.3607 70.4364 46.1836 69.9155C46.0065 69.3947 45.918 68.8296 45.918 68.2202ZM47.3633 68.0405V68.2202C47.3633 68.6421 47.4128 69.0405 47.5117 69.4155C47.6107 69.7853 47.7591 70.1134 47.957 70.3999C48.1602 70.6864 48.4128 70.9129 48.7148 71.0796C49.0169 71.241 49.3685 71.3218 49.7695 71.3218C50.1654 71.3218 50.5117 71.241 50.8086 71.0796C51.1107 70.9129 51.3607 70.6864 51.5586 70.3999C51.7565 70.1134 51.9049 69.7853 52.0039 69.4155C52.1081 69.0405 52.1602 68.6421 52.1602 68.2202V68.0405C52.1602 67.6239 52.1081 67.2306 52.0039 66.8608C51.9049 66.4858 51.7539 66.1551 51.5508 65.8687C51.3529 65.577 51.1029 65.3478 50.8008 65.1812C50.5039 65.0145 50.1549 64.9312 49.7539 64.9312C49.3581 64.9312 49.0091 65.0145 48.707 65.1812C48.4102 65.3478 48.1602 65.577 47.957 65.8687C47.7591 66.1551 47.6107 66.4858 47.5117 66.8608C47.4128 67.2306 47.3633 67.6239 47.3633 68.0405ZM57.8711 71.0483L60.1836 63.8999H61.6602L58.6211 72.353H57.6523L57.8711 71.0483ZM55.9414 63.8999L58.3242 71.0874L58.4883 72.353H57.5195L54.457 63.8999H55.9414ZM66.4492 72.5093C65.8607 72.5093 65.3268 72.4103 64.8477 72.2124C64.3737 72.0093 63.9648 71.7254 63.6211 71.3608C63.2826 70.9963 63.0221 70.564 62.8398 70.064C62.6576 69.564 62.5664 69.0171 62.5664 68.4233V68.0952C62.5664 67.4077 62.668 66.7957 62.8711 66.2593C63.0742 65.7176 63.3503 65.2593 63.6992 64.8843C64.0482 64.5093 64.444 64.2254 64.8867 64.0327C65.3294 63.84 65.7878 63.7437 66.2617 63.7437C66.8659 63.7437 67.3867 63.8478 67.8242 64.0562C68.2669 64.2645 68.6289 64.5562 68.9102 64.9312C69.1914 65.3009 69.3997 65.7384 69.5352 66.2437C69.6706 66.7437 69.7383 67.2905 69.7383 67.8843V68.5327H63.4258V67.353H68.293V67.2437C68.2721 66.8687 68.194 66.5041 68.0586 66.1499C67.9284 65.7957 67.7201 65.5041 67.4336 65.2749C67.1471 65.0457 66.7565 64.9312 66.2617 64.9312C65.9336 64.9312 65.6315 65.0015 65.3555 65.1421C65.0794 65.2775 64.8424 65.4806 64.6445 65.7515C64.4466 66.0223 64.293 66.353 64.1836 66.7437C64.0742 67.1343 64.0195 67.5848 64.0195 68.0952V68.4233C64.0195 68.8244 64.0742 69.202 64.1836 69.5562C64.2982 69.9051 64.4622 70.2124 64.6758 70.478C64.8945 70.7437 65.1576 70.952 65.4648 71.103C65.7773 71.2541 66.1315 71.3296 66.5273 71.3296C67.0378 71.3296 67.4701 71.2254 67.8242 71.0171C68.1784 70.8088 68.4883 70.5301 68.7539 70.1812L69.6289 70.8765C69.4466 71.1525 69.2148 71.4155 68.9336 71.6655C68.6523 71.9155 68.306 72.1187 67.8945 72.2749C67.4883 72.4312 67.0065 72.5093 66.4492 72.5093ZM72.8711 65.228V72.353H71.4258V63.8999H72.832L72.8711 65.228ZM75.5117 63.853L75.5039 65.1968C75.3841 65.1707 75.2695 65.1551 75.1602 65.1499C75.056 65.1395 74.9362 65.1343 74.8008 65.1343C74.4674 65.1343 74.1732 65.1864 73.918 65.2905C73.6628 65.3947 73.4466 65.5405 73.2695 65.728C73.0924 65.9155 72.9518 66.1395 72.8477 66.3999C72.7487 66.6551 72.6836 66.9364 72.6523 67.2437L72.2461 67.478C72.2461 66.9676 72.2956 66.4884 72.3945 66.0405C72.4987 65.5926 72.6576 65.1968 72.8711 64.853C73.0846 64.5041 73.3555 64.2332 73.6836 64.0405C74.0169 63.8426 74.4128 63.7437 74.8711 63.7437C74.9753 63.7437 75.0951 63.7567 75.2305 63.7827C75.3659 63.8035 75.4596 63.827 75.5117 63.853ZM80.4336 68.2202V68.0405C80.4336 67.4312 80.5221 66.866 80.6992 66.3452C80.8763 65.8192 81.1315 65.3634 81.4648 64.978C81.7982 64.5874 82.2018 64.2853 82.6758 64.0718C83.1497 63.853 83.681 63.7437 84.2695 63.7437C84.8633 63.7437 85.3971 63.853 85.8711 64.0718C86.3503 64.2853 86.7565 64.5874 87.0898 64.978C87.4284 65.3634 87.6862 65.8192 87.8633 66.3452C88.0404 66.866 88.1289 67.4312 88.1289 68.0405V68.2202C88.1289 68.8296 88.0404 69.3947 87.8633 69.9155C87.6862 70.4364 87.4284 70.8921 87.0898 71.2827C86.7565 71.6681 86.3529 71.9702 85.8789 72.189C85.4102 72.4025 84.8789 72.5093 84.2852 72.5093C83.6914 72.5093 83.1576 72.4025 82.6836 72.189C82.2096 71.9702 81.8034 71.6681 81.4648 71.2827C81.1315 70.8921 80.8763 70.4364 80.6992 69.9155C80.5221 69.3947 80.4336 68.8296 80.4336 68.2202ZM81.8789 68.0405V68.2202C81.8789 68.6421 81.9284 69.0405 82.0273 69.4155C82.1263 69.7853 82.2747 70.1134 82.4727 70.3999C82.6758 70.6864 82.9284 70.9129 83.2305 71.0796C83.5326 71.241 83.8841 71.3218 84.2852 71.3218C84.681 71.3218 85.0273 71.241 85.3242 71.0796C85.6263 70.9129 85.8763 70.6864 86.0742 70.3999C86.2721 70.1134 86.4206 69.7853 86.5195 69.4155C86.6237 69.0405 86.6758 68.6421 86.6758 68.2202V68.0405C86.6758 67.6239 86.6237 67.2306 86.5195 66.8608C86.4206 66.4858 86.2695 66.1551 86.0664 65.8687C85.8685 65.577 85.6185 65.3478 85.3164 65.1812C85.0195 65.0145 84.6706 64.9312 84.2695 64.9312C83.8737 64.9312 83.5247 65.0145 83.2227 65.1812C82.9258 65.3478 82.6758 65.577 82.4727 65.8687C82.2747 66.1551 82.1263 66.4858 82.0273 66.8608C81.9284 67.2306 81.8789 67.6239 81.8789 68.0405ZM92.3867 71.0483L94.6992 63.8999H96.1758L93.1367 72.353H92.168L92.3867 71.0483ZM90.457 63.8999L92.8398 71.0874L93.0039 72.353H92.0352L88.9727 63.8999H90.457ZM100.965 72.5093C100.376 72.5093 99.8424 72.4103 99.3633 72.2124C98.8893 72.0093 98.4805 71.7254 98.1367 71.3608C97.7982 70.9963 97.5378 70.564 97.3555 70.064C97.1732 69.564 97.082 69.0171 97.082 68.4233V68.0952C97.082 67.4077 97.1836 66.7957 97.3867 66.2593C97.5898 65.7176 97.8659 65.2593 98.2148 64.8843C98.5638 64.5093 98.9596 64.2254 99.4023 64.0327C99.8451 63.84 100.303 63.7437 100.777 63.7437C101.382 63.7437 101.902 63.8478 102.34 64.0562C102.783 64.2645 103.145 64.5562 103.426 64.9312C103.707 65.3009 103.915 65.7384 104.051 66.2437C104.186 66.7437 104.254 67.2905 104.254 67.8843V68.5327H97.9414V67.353H102.809V67.2437C102.788 66.8687 102.71 66.5041 102.574 66.1499C102.444 65.7957 102.236 65.5041 101.949 65.2749C101.663 65.0457 101.272 64.9312 100.777 64.9312C100.449 64.9312 100.147 65.0015 99.8711 65.1421C99.5951 65.2775 99.3581 65.4806 99.1602 65.7515C98.9622 66.0223 98.8086 66.353 98.6992 66.7437C98.5898 67.1343 98.5352 67.5848 98.5352 68.0952V68.4233C98.5352 68.8244 98.5898 69.202 98.6992 69.5562C98.8138 69.9051 98.9779 70.2124 99.1914 70.478C99.4102 70.7437 99.6732 70.952 99.9805 71.103C100.293 71.2541 100.647 71.3296 101.043 71.3296C101.553 71.3296 101.986 71.2254 102.34 71.0171C102.694 70.8088 103.004 70.5301 103.27 70.1812L104.145 70.8765C103.962 71.1525 103.73 71.4155 103.449 71.6655C103.168 71.9155 102.822 72.1187 102.41 72.2749C102.004 72.4312 101.522 72.5093 100.965 72.5093ZM107.387 65.228V72.353H105.941V63.8999H107.348L107.387 65.228ZM110.027 63.853L110.02 65.1968C109.9 65.1707 109.785 65.1551 109.676 65.1499C109.572 65.1395 109.452 65.1343 109.316 65.1343C108.983 65.1343 108.689 65.1864 108.434 65.2905C108.178 65.3947 107.962 65.5405 107.785 65.728C107.608 65.9155 107.467 66.1395 107.363 66.3999C107.264 66.6551 107.199 66.9364 107.168 67.2437L106.762 67.478C106.762 66.9676 106.811 66.4884 106.91 66.0405C107.014 65.5926 107.173 65.1968 107.387 64.853C107.6 64.5041 107.871 64.2332 108.199 64.0405C108.533 63.8426 108.928 63.7437 109.387 63.7437C109.491 63.7437 109.611 63.7567 109.746 63.7827C109.882 63.8035 109.975 63.827 110.027 63.853ZM117.488 72.353H116.043V63.0093C116.043 62.3999 116.152 61.8869 116.371 61.4702C116.595 61.0483 116.915 60.7306 117.332 60.5171C117.749 60.2983 118.243 60.189 118.816 60.189C118.983 60.189 119.15 60.1994 119.316 60.2202C119.488 60.241 119.655 60.2723 119.816 60.314L119.738 61.4937C119.629 61.4676 119.504 61.4494 119.363 61.439C119.228 61.4285 119.092 61.4233 118.957 61.4233C118.65 61.4233 118.384 61.4858 118.16 61.6108C117.941 61.7306 117.775 61.9077 117.66 62.1421C117.546 62.3765 117.488 62.6655 117.488 63.0093V72.353ZM119.285 63.8999V65.0093H114.707V63.8999H119.285ZM122.34 65.228V72.353H120.895V63.8999H122.301L122.34 65.228ZM124.98 63.853L124.973 65.1968C124.853 65.1707 124.738 65.1551 124.629 65.1499C124.525 65.1395 124.405 65.1343 124.27 65.1343C123.936 65.1343 123.642 65.1864 123.387 65.2905C123.132 65.3947 122.915 65.5405 122.738 65.728C122.561 65.9155 122.421 66.1395 122.316 66.3999C122.217 66.6551 122.152 66.9364 122.121 67.2437L121.715 67.478C121.715 66.9676 121.764 66.4884 121.863 66.0405C121.967 65.5926 122.126 65.1968 122.34 64.853C122.553 64.5041 122.824 64.2332 123.152 64.0405C123.486 63.8426 123.882 63.7437 124.34 63.7437C124.444 63.7437 124.564 63.7567 124.699 63.7827C124.835 63.8035 124.928 63.827 124.98 63.853ZM130.988 70.9077V66.5562C130.988 66.2228 130.921 65.9338 130.785 65.689C130.655 65.439 130.457 65.2463 130.191 65.1108C129.926 64.9754 129.598 64.9077 129.207 64.9077C128.842 64.9077 128.522 64.9702 128.246 65.0952C127.975 65.2202 127.762 65.3843 127.605 65.5874C127.454 65.7905 127.379 66.0093 127.379 66.2437H125.934C125.934 65.9416 126.012 65.6421 126.168 65.3452C126.324 65.0483 126.548 64.7801 126.84 64.5405C127.137 64.2957 127.491 64.103 127.902 63.9624C128.319 63.8166 128.783 63.7437 129.293 63.7437C129.908 63.7437 130.449 63.8478 130.918 64.0562C131.392 64.2645 131.762 64.5796 132.027 65.0015C132.298 65.4181 132.434 65.9416 132.434 66.5718V70.5093C132.434 70.7905 132.457 71.09 132.504 71.4077C132.556 71.7254 132.632 71.9989 132.73 72.228V72.353H131.223C131.15 72.1864 131.092 71.965 131.051 71.689C131.009 71.4077 130.988 71.1473 130.988 70.9077ZM131.238 67.228L131.254 68.2437H129.793C129.382 68.2437 129.014 68.2775 128.691 68.3452C128.368 68.4077 128.098 68.5041 127.879 68.6343C127.66 68.7645 127.493 68.9285 127.379 69.1265C127.264 69.3192 127.207 69.5457 127.207 69.8062C127.207 70.0718 127.267 70.314 127.387 70.5327C127.507 70.7515 127.686 70.9259 127.926 71.0562C128.171 71.1812 128.47 71.2437 128.824 71.2437C129.267 71.2437 129.658 71.1499 129.996 70.9624C130.335 70.7749 130.603 70.5457 130.801 70.2749C131.004 70.0041 131.113 69.741 131.129 69.4858L131.746 70.1812C131.71 70.3999 131.611 70.6421 131.449 70.9077C131.288 71.1733 131.072 71.4285 130.801 71.6733C130.535 71.9129 130.217 72.1134 129.848 72.2749C129.483 72.4312 129.072 72.5093 128.613 72.5093C128.04 72.5093 127.538 72.3973 127.105 72.1733C126.678 71.9494 126.345 71.6499 126.105 71.2749C125.871 70.8947 125.754 70.4702 125.754 70.0015C125.754 69.5483 125.842 69.1499 126.02 68.8062C126.197 68.4572 126.452 68.1681 126.785 67.939C127.118 67.7046 127.52 67.5275 127.988 67.4077C128.457 67.2879 128.98 67.228 129.559 67.228H131.238ZM136.145 65.5796V72.353H134.691V63.8999H136.066L136.145 65.5796ZM135.848 67.8062L135.176 67.7827C135.181 67.2046 135.257 66.6707 135.402 66.1812C135.548 65.6864 135.764 65.2567 136.051 64.8921C136.337 64.5275 136.694 64.2463 137.121 64.0483C137.548 63.8452 138.043 63.7437 138.605 63.7437C139.001 63.7437 139.366 63.8009 139.699 63.9155C140.033 64.0249 140.322 64.1994 140.566 64.439C140.811 64.6785 141.001 64.9858 141.137 65.3608C141.272 65.7358 141.34 66.189 141.34 66.7202V72.353H139.895V66.7905C139.895 66.3478 139.819 65.9937 139.668 65.728C139.522 65.4624 139.314 65.2697 139.043 65.1499C138.772 65.0249 138.454 64.9624 138.09 64.9624C137.663 64.9624 137.306 65.0379 137.02 65.189C136.733 65.34 136.504 65.5483 136.332 65.814C136.16 66.0796 136.035 66.3843 135.957 66.728C135.884 67.0666 135.848 67.4259 135.848 67.8062ZM141.324 67.0093L140.355 67.3062C140.361 66.8426 140.436 66.3973 140.582 65.9702C140.733 65.5431 140.949 65.1629 141.23 64.8296C141.517 64.4963 141.868 64.2332 142.285 64.0405C142.702 63.8426 143.178 63.7437 143.715 63.7437C144.168 63.7437 144.569 63.8035 144.918 63.9233C145.272 64.0431 145.569 64.228 145.809 64.478C146.053 64.7228 146.238 65.0379 146.363 65.4233C146.488 65.8088 146.551 66.2671 146.551 66.7983V72.353H145.098V66.7827C145.098 66.3088 145.022 65.9416 144.871 65.6812C144.725 65.4155 144.517 65.2306 144.246 65.1265C143.98 65.0171 143.663 64.9624 143.293 64.9624C142.975 64.9624 142.694 65.0171 142.449 65.1265C142.204 65.2358 141.999 65.3869 141.832 65.5796C141.665 65.7671 141.538 65.9832 141.449 66.228C141.366 66.4728 141.324 66.7332 141.324 67.0093ZM152.246 72.5093C151.658 72.5093 151.124 72.4103 150.645 72.2124C150.171 72.0093 149.762 71.7254 149.418 71.3608C149.079 70.9963 148.819 70.564 148.637 70.064C148.454 69.564 148.363 69.0171 148.363 68.4233V68.0952C148.363 67.4077 148.465 66.7957 148.668 66.2593C148.871 65.7176 149.147 65.2593 149.496 64.8843C149.845 64.5093 150.241 64.2254 150.684 64.0327C151.126 63.84 151.585 63.7437 152.059 63.7437C152.663 63.7437 153.184 63.8478 153.621 64.0562C154.064 64.2645 154.426 64.5562 154.707 64.9312C154.988 65.3009 155.197 65.7384 155.332 66.2437C155.467 66.7437 155.535 67.2905 155.535 67.8843V68.5327H149.223V67.353H154.09V67.2437C154.069 66.8687 153.991 66.5041 153.855 66.1499C153.725 65.7957 153.517 65.5041 153.23 65.2749C152.944 65.0457 152.553 64.9312 152.059 64.9312C151.73 64.9312 151.428 65.0015 151.152 65.1421C150.876 65.2775 150.639 65.4806 150.441 65.7515C150.243 66.0223 150.09 66.353 149.98 66.7437C149.871 67.1343 149.816 67.5848 149.816 68.0952V68.4233C149.816 68.8244 149.871 69.202 149.98 69.5562C150.095 69.9051 150.259 70.2124 150.473 70.478C150.691 70.7437 150.954 70.952 151.262 71.103C151.574 71.2541 151.928 71.3296 152.324 71.3296C152.835 71.3296 153.267 71.2254 153.621 71.0171C153.975 70.8088 154.285 70.5301 154.551 70.1812L155.426 70.8765C155.243 71.1525 155.012 71.4155 154.73 71.6655C154.449 71.9155 154.103 72.1187 153.691 72.2749C153.285 72.4312 152.803 72.5093 152.246 72.5093ZM163.332 70.853L165.504 63.8999H166.457L166.27 65.2827L164.059 72.353H163.129L163.332 70.853ZM161.871 63.8999L163.723 70.9312L163.855 72.353H162.879L160.426 63.8999H161.871ZM168.535 70.8765L170.301 63.8999H171.738L169.285 72.353H168.316L168.535 70.8765ZM166.668 63.8999L168.793 70.7358L169.035 72.353H168.113L165.84 65.2671L165.652 63.8999H166.668ZM174.793 63.8999V72.353H173.34V63.8999H174.793ZM173.23 61.6577C173.23 61.4233 173.301 61.2254 173.441 61.064C173.587 60.9025 173.801 60.8218 174.082 60.8218C174.358 60.8218 174.569 60.9025 174.715 61.064C174.866 61.2254 174.941 61.4233 174.941 61.6577C174.941 61.8817 174.866 62.0744 174.715 62.2358C174.569 62.3921 174.358 62.4702 174.082 62.4702C173.801 62.4702 173.587 62.3921 173.441 62.2358C173.301 62.0744 173.23 61.8817 173.23 61.6577ZM180.652 63.8999V65.0093H176.082V63.8999H180.652ZM177.629 61.8452H179.074V70.2593C179.074 70.5457 179.118 70.7619 179.207 70.9077C179.296 71.0535 179.41 71.1499 179.551 71.1968C179.691 71.2437 179.842 71.2671 180.004 71.2671C180.124 71.2671 180.249 71.2567 180.379 71.2358C180.514 71.2098 180.616 71.189 180.684 71.1733L180.691 72.353C180.577 72.3895 180.426 72.4233 180.238 72.4546C180.056 72.491 179.835 72.5093 179.574 72.5093C179.22 72.5093 178.895 72.439 178.598 72.2983C178.301 72.1577 178.064 71.9233 177.887 71.5952C177.715 71.2619 177.629 70.814 177.629 70.2515V61.8452ZM183.793 60.353V72.353H182.348V60.353H183.793ZM183.449 67.8062L182.848 67.7827C182.853 67.2046 182.939 66.6707 183.105 66.1812C183.272 65.6864 183.507 65.2567 183.809 64.8921C184.111 64.5275 184.47 64.2463 184.887 64.0483C185.309 63.8452 185.775 63.7437 186.285 63.7437C186.702 63.7437 187.077 63.8009 187.41 63.9155C187.743 64.0249 188.027 64.202 188.262 64.4468C188.501 64.6916 188.684 65.0093 188.809 65.3999C188.934 65.7853 188.996 66.2567 188.996 66.814V72.353H187.543V66.7983C187.543 66.3556 187.478 66.0015 187.348 65.7358C187.217 65.465 187.027 65.2697 186.777 65.1499C186.527 65.0249 186.22 64.9624 185.855 64.9624C185.496 64.9624 185.168 65.0379 184.871 65.189C184.579 65.34 184.327 65.5483 184.113 65.814C183.905 66.0796 183.741 66.3843 183.621 66.728C183.507 67.0666 183.449 67.4259 183.449 67.8062ZM197.504 71.478L199.855 63.8999H201.402L198.012 73.6577C197.934 73.866 197.829 74.09 197.699 74.3296C197.574 74.5744 197.413 74.8062 197.215 75.0249C197.017 75.2437 196.777 75.4207 196.496 75.5562C196.22 75.6968 195.889 75.7671 195.504 75.7671C195.389 75.7671 195.243 75.7515 195.066 75.7202C194.889 75.689 194.764 75.6629 194.691 75.6421L194.684 74.4702C194.725 74.4754 194.79 74.4806 194.879 74.4858C194.973 74.4963 195.038 74.5015 195.074 74.5015C195.402 74.5015 195.681 74.4572 195.91 74.3687C196.139 74.2853 196.332 74.1421 196.488 73.939C196.65 73.741 196.788 73.4676 196.902 73.1187L197.504 71.478ZM195.777 63.8999L197.973 70.4624L198.348 71.9858L197.309 72.5171L194.199 63.8999H195.777ZM202.199 68.2202V68.0405C202.199 67.4312 202.288 66.866 202.465 66.3452C202.642 65.8192 202.897 65.3634 203.23 64.978C203.564 64.5874 203.967 64.2853 204.441 64.0718C204.915 63.853 205.447 63.7437 206.035 63.7437C206.629 63.7437 207.163 63.853 207.637 64.0718C208.116 64.2853 208.522 64.5874 208.855 64.978C209.194 65.3634 209.452 65.8192 209.629 66.3452C209.806 66.866 209.895 67.4312 209.895 68.0405V68.2202C209.895 68.8296 209.806 69.3947 209.629 69.9155C209.452 70.4364 209.194 70.8921 208.855 71.2827C208.522 71.6681 208.118 71.9702 207.645 72.189C207.176 72.4025 206.645 72.5093 206.051 72.5093C205.457 72.5093 204.923 72.4025 204.449 72.189C203.975 71.9702 203.569 71.6681 203.23 71.2827C202.897 70.8921 202.642 70.4364 202.465 69.9155C202.288 69.3947 202.199 68.8296 202.199 68.2202ZM203.645 68.0405V68.2202C203.645 68.6421 203.694 69.0405 203.793 69.4155C203.892 69.7853 204.04 70.1134 204.238 70.3999C204.441 70.6864 204.694 70.9129 204.996 71.0796C205.298 71.241 205.65 71.3218 206.051 71.3218C206.447 71.3218 206.793 71.241 207.09 71.0796C207.392 70.9129 207.642 70.6864 207.84 70.3999C208.038 70.1134 208.186 69.7853 208.285 69.4155C208.389 69.0405 208.441 68.6421 208.441 68.2202V68.0405C208.441 67.6239 208.389 67.2306 208.285 66.8608C208.186 66.4858 208.035 66.1551 207.832 65.8687C207.634 65.577 207.384 65.3478 207.082 65.1812C206.785 65.0145 206.436 64.9312 206.035 64.9312C205.639 64.9312 205.29 65.0145 204.988 65.1812C204.691 65.3478 204.441 65.577 204.238 65.8687C204.04 66.1551 203.892 66.4858 203.793 66.8608C203.694 67.2306 203.645 67.6239 203.645 68.0405ZM216.879 70.3999V63.8999H218.332V72.353H216.949L216.879 70.3999ZM217.152 68.6187L217.754 68.603C217.754 69.1655 217.694 69.6864 217.574 70.1655C217.46 70.6395 217.272 71.0509 217.012 71.3999C216.751 71.7489 216.41 72.0223 215.988 72.2202C215.566 72.4129 215.053 72.5093 214.449 72.5093C214.038 72.5093 213.66 72.4494 213.316 72.3296C212.978 72.2098 212.686 72.0249 212.441 71.7749C212.197 71.5249 212.007 71.1994 211.871 70.7983C211.741 70.3973 211.676 69.9155 211.676 69.353V63.8999H213.121V69.3687C213.121 69.7489 213.163 70.064 213.246 70.314C213.335 70.5588 213.452 70.7541 213.598 70.8999C213.749 71.0405 213.915 71.1395 214.098 71.1968C214.285 71.2541 214.478 71.2827 214.676 71.2827C215.29 71.2827 215.777 71.1655 216.137 70.9312C216.496 70.6916 216.754 70.3713 216.91 69.9702C217.072 69.564 217.152 69.1134 217.152 68.6187ZM221.98 65.228V72.353H220.535V63.8999H221.941L221.98 65.228ZM224.621 63.853L224.613 65.1968C224.493 65.1707 224.379 65.1551 224.27 65.1499C224.165 65.1395 224.046 65.1343 223.91 65.1343C223.577 65.1343 223.283 65.1864 223.027 65.2905C222.772 65.3947 222.556 65.5405 222.379 65.728C222.202 65.9155 222.061 66.1395 221.957 66.3999C221.858 66.6551 221.793 66.9364 221.762 67.2437L221.355 67.478C221.355 66.9676 221.405 66.4884 221.504 66.0405C221.608 65.5926 221.767 65.1968 221.98 64.853C222.194 64.5041 222.465 64.2332 222.793 64.0405C223.126 63.8426 223.522 63.7437 223.98 63.7437C224.085 63.7437 224.204 63.7567 224.34 63.7827C224.475 63.8035 224.569 63.827 224.621 63.853ZM38.2617 90.3218C38.6055 90.3218 38.9232 90.2515 39.2148 90.1108C39.5065 89.9702 39.7461 89.7775 39.9336 89.5327C40.1211 89.2827 40.2279 88.9989 40.2539 88.6812H41.6289C41.6029 89.1812 41.4336 89.6473 41.1211 90.0796C40.8138 90.5067 40.4102 90.853 39.9102 91.1187C39.4102 91.3791 38.8607 91.5093 38.2617 91.5093C37.6263 91.5093 37.0716 91.3973 36.5977 91.1733C36.1289 90.9494 35.7383 90.6421 35.4258 90.2515C35.1185 89.8608 34.8867 89.4129 34.7305 88.9077C34.5794 88.3973 34.5039 87.8582 34.5039 87.2905V86.9624C34.5039 86.3947 34.5794 85.8582 34.7305 85.353C34.8867 84.8426 35.1185 84.3921 35.4258 84.0015C35.7383 83.6108 36.1289 83.3035 36.5977 83.0796C37.0716 82.8556 37.6263 82.7437 38.2617 82.7437C38.9232 82.7437 39.5013 82.8791 39.9961 83.1499C40.4909 83.4155 40.8789 83.7801 41.1602 84.2437C41.4466 84.702 41.6029 85.2228 41.6289 85.8062H40.2539C40.2279 85.4572 40.1289 85.1421 39.957 84.8608C39.7904 84.5796 39.5612 84.3556 39.2695 84.189C38.9831 84.0171 38.6471 83.9312 38.2617 83.9312C37.819 83.9312 37.4466 84.0197 37.1445 84.1968C36.8477 84.3687 36.6107 84.603 36.4336 84.8999C36.2617 85.1916 36.1367 85.5171 36.0586 85.8765C35.9857 86.2306 35.9492 86.5926 35.9492 86.9624V87.2905C35.9492 87.6603 35.9857 88.0249 36.0586 88.3843C36.1315 88.7437 36.2539 89.0692 36.4258 89.3608C36.6029 89.6525 36.8398 89.8869 37.1367 90.064C37.4388 90.2358 37.8138 90.3218 38.2617 90.3218ZM48.4258 89.3999V82.8999H49.8789V91.353H48.4961L48.4258 89.3999ZM48.6992 87.6187L49.3008 87.603C49.3008 88.1655 49.2409 88.6864 49.1211 89.1655C49.0065 89.6395 48.819 90.0509 48.5586 90.3999C48.2982 90.7489 47.957 91.0223 47.5352 91.2202C47.1133 91.4129 46.6003 91.5093 45.9961 91.5093C45.5846 91.5093 45.207 91.4494 44.8633 91.3296C44.5247 91.2098 44.2331 91.0249 43.9883 90.7749C43.7435 90.5249 43.5534 90.1994 43.418 89.7983C43.2878 89.3973 43.2227 88.9155 43.2227 88.353V82.8999H44.668V88.3687C44.668 88.7489 44.7096 89.064 44.793 89.314C44.8815 89.5588 44.9987 89.7541 45.1445 89.8999C45.2956 90.0405 45.4622 90.1395 45.6445 90.1968C45.832 90.2541 46.0247 90.2827 46.2227 90.2827C46.8372 90.2827 47.3242 90.1655 47.6836 89.9312C48.043 89.6916 48.3008 89.3713 48.457 88.9702C48.6185 88.564 48.6992 88.1134 48.6992 87.6187ZM53.5273 84.228V91.353H52.082V82.8999H53.4883L53.5273 84.228ZM56.168 82.853L56.1602 84.1968C56.0404 84.1707 55.9258 84.1551 55.8164 84.1499C55.7122 84.1395 55.5924 84.1343 55.457 84.1343C55.1237 84.1343 54.8294 84.1864 54.5742 84.2905C54.319 84.3947 54.1029 84.5405 53.9258 84.728C53.7487 84.9155 53.6081 85.1395 53.5039 85.3999C53.4049 85.6551 53.3398 85.9364 53.3086 86.2437L52.9023 86.478C52.9023 85.9676 52.9518 85.4884 53.0508 85.0405C53.1549 84.5926 53.3138 84.1968 53.5273 83.853C53.7409 83.5041 54.0117 83.2332 54.3398 83.0405C54.6732 82.8426 55.069 82.7437 55.5273 82.7437C55.6315 82.7437 55.7513 82.7567 55.8867 82.7827C56.0221 82.8035 56.1159 82.827 56.168 82.853ZM62.4258 89.1108C62.4258 88.9025 62.3789 88.7098 62.2852 88.5327C62.1966 88.3504 62.0117 88.1864 61.7305 88.0405C61.4544 87.8895 61.0378 87.7593 60.4805 87.6499C60.0117 87.5509 59.5872 87.4338 59.207 87.2983C58.832 87.1629 58.5117 86.9989 58.2461 86.8062C57.9857 86.6134 57.7852 86.3869 57.6445 86.1265C57.5039 85.866 57.4336 85.5614 57.4336 85.2124C57.4336 84.8791 57.5065 84.564 57.6523 84.2671C57.8034 83.9702 58.0143 83.7072 58.2852 83.478C58.5612 83.2489 58.8919 83.0692 59.2773 82.939C59.6628 82.8088 60.0924 82.7437 60.5664 82.7437C61.2435 82.7437 61.8216 82.8634 62.3008 83.103C62.7799 83.3426 63.1471 83.6629 63.4023 84.064C63.6576 84.4598 63.7852 84.8999 63.7852 85.3843H62.3398C62.3398 85.1499 62.2695 84.9233 62.1289 84.7046C61.9935 84.4806 61.793 84.2957 61.5273 84.1499C61.2669 84.0041 60.9466 83.9312 60.5664 83.9312C60.1654 83.9312 59.8398 83.9937 59.5898 84.1187C59.3451 84.2384 59.1654 84.3921 59.0508 84.5796C58.9414 84.7671 58.8867 84.965 58.8867 85.1733C58.8867 85.3296 58.9128 85.4702 58.9648 85.5952C59.0221 85.715 59.1211 85.827 59.2617 85.9312C59.4023 86.0301 59.6003 86.1239 59.8555 86.2124C60.1107 86.3009 60.4362 86.3895 60.832 86.478C61.5247 86.6343 62.0951 86.8218 62.543 87.0405C62.9909 87.2593 63.3242 87.5275 63.543 87.8452C63.7617 88.1629 63.8711 88.5483 63.8711 89.0015C63.8711 89.3713 63.793 89.7098 63.6367 90.0171C63.4857 90.3244 63.2643 90.59 62.9727 90.814C62.6862 91.0327 62.3424 91.2046 61.9414 91.3296C61.5456 91.4494 61.1003 91.5093 60.6055 91.5093C59.8607 91.5093 59.2305 91.3765 58.7148 91.1108C58.1992 90.8452 57.8086 90.5015 57.543 90.0796C57.2773 89.6577 57.1445 89.2124 57.1445 88.7437H58.5977C58.6185 89.1395 58.7331 89.4546 58.9414 89.689C59.1497 89.9181 59.4049 90.0822 59.707 90.1812C60.0091 90.2749 60.3086 90.3218 60.6055 90.3218C61.0013 90.3218 61.332 90.2697 61.5977 90.1655C61.8685 90.0614 62.0742 89.9181 62.2148 89.7358C62.3555 89.5535 62.4258 89.3452 62.4258 89.1108ZM65.3867 87.2202V87.0405C65.3867 86.4312 65.4753 85.866 65.6523 85.3452C65.8294 84.8192 66.0846 84.3634 66.418 83.978C66.7513 83.5874 67.1549 83.2853 67.6289 83.0718C68.1029 82.853 68.6341 82.7437 69.2227 82.7437C69.8164 82.7437 70.3503 82.853 70.8242 83.0718C71.3034 83.2853 71.7096 83.5874 72.043 83.978C72.3815 84.3634 72.6393 84.8192 72.8164 85.3452C72.9935 85.866 73.082 86.4312 73.082 87.0405V87.2202C73.082 87.8296 72.9935 88.3947 72.8164 88.9155C72.6393 89.4364 72.3815 89.8921 72.043 90.2827C71.7096 90.6681 71.306 90.9702 70.832 91.189C70.3633 91.4025 69.832 91.5093 69.2383 91.5093C68.6445 91.5093 68.1107 91.4025 67.6367 91.189C67.1628 90.9702 66.7565 90.6681 66.418 90.2827C66.0846 89.8921 65.8294 89.4364 65.6523 88.9155C65.4753 88.3947 65.3867 87.8296 65.3867 87.2202ZM66.832 87.0405V87.2202C66.832 87.6421 66.8815 88.0405 66.9805 88.4155C67.0794 88.7853 67.2279 89.1134 67.4258 89.3999C67.6289 89.6864 67.8815 89.9129 68.1836 90.0796C68.4857 90.241 68.8372 90.3218 69.2383 90.3218C69.6341 90.3218 69.9805 90.241 70.2773 90.0796C70.5794 89.9129 70.8294 89.6864 71.0273 89.3999C71.2253 89.1134 71.3737 88.7853 71.4727 88.4155C71.5768 88.0405 71.6289 87.6421 71.6289 87.2202V87.0405C71.6289 86.6239 71.5768 86.2306 71.4727 85.8608C71.3737 85.4858 71.2227 85.1551 71.0195 84.8687C70.8216 84.577 70.5716 84.3478 70.2695 84.1812C69.9727 84.0145 69.6237 83.9312 69.2227 83.9312C68.8268 83.9312 68.4779 84.0145 68.1758 84.1812C67.8789 84.3478 67.6289 84.577 67.4258 84.8687C67.2279 85.1551 67.0794 85.4858 66.9805 85.8608C66.8815 86.2306 66.832 86.6239 66.832 87.0405ZM76.3398 84.228V91.353H74.8945V82.8999H76.3008L76.3398 84.228ZM78.9805 82.853L78.9727 84.1968C78.8529 84.1707 78.7383 84.1551 78.6289 84.1499C78.5247 84.1395 78.4049 84.1343 78.2695 84.1343C77.9362 84.1343 77.6419 84.1864 77.3867 84.2905C77.1315 84.3947 76.9154 84.5405 76.7383 84.728C76.5612 84.9155 76.4206 85.1395 76.3164 85.3999C76.2174 85.6551 76.1523 85.9364 76.1211 86.2437L75.7148 86.478C75.7148 85.9676 75.7643 85.4884 75.8633 85.0405C75.9674 84.5926 76.1263 84.1968 76.3398 83.853C76.5534 83.5041 76.8242 83.2332 77.1523 83.0405C77.4857 82.8426 77.8815 82.7437 78.3398 82.7437C78.444 82.7437 78.5638 82.7567 78.6992 82.7827C78.8346 82.8035 78.9284 82.827 78.9805 82.853ZM87.8242 82.8999V84.0093H83.2539V82.8999H87.8242ZM84.8008 80.8452H86.2461V89.2593C86.2461 89.5457 86.2904 89.7619 86.3789 89.9077C86.4674 90.0535 86.582 90.1499 86.7227 90.1968C86.8633 90.2437 87.0143 90.2671 87.1758 90.2671C87.2956 90.2671 87.4206 90.2567 87.5508 90.2358C87.6862 90.2098 87.7878 90.189 87.8555 90.1733L87.8633 91.353C87.7487 91.3895 87.5977 91.4233 87.4102 91.4546C87.2279 91.491 87.0065 91.5093 86.7461 91.5093C86.3919 91.5093 86.0664 91.439 85.7695 91.2983C85.4727 91.1577 85.2357 90.9233 85.0586 90.5952C84.8867 90.2619 84.8008 89.814 84.8008 89.2515V80.8452ZM88.9805 87.2202V87.0405C88.9805 86.4312 89.069 85.866 89.2461 85.3452C89.4232 84.8192 89.6784 84.3634 90.0117 83.978C90.3451 83.5874 90.7487 83.2853 91.2227 83.0718C91.6966 82.853 92.2279 82.7437 92.8164 82.7437C93.4102 82.7437 93.944 82.853 94.418 83.0718C94.8971 83.2853 95.3034 83.5874 95.6367 83.978C95.9753 84.3634 96.2331 84.8192 96.4102 85.3452C96.5872 85.866 96.6758 86.4312 96.6758 87.0405V87.2202C96.6758 87.8296 96.5872 88.3947 96.4102 88.9155C96.2331 89.4364 95.9753 89.8921 95.6367 90.2827C95.3034 90.6681 94.8997 90.9702 94.4258 91.189C93.957 91.4025 93.4258 91.5093 92.832 91.5093C92.2383 91.5093 91.7044 91.4025 91.2305 91.189C90.7565 90.9702 90.3503 90.6681 90.0117 90.2827C89.6784 89.8921 89.4232 89.4364 89.2461 88.9155C89.069 88.3947 88.9805 87.8296 88.9805 87.2202ZM90.4258 87.0405V87.2202C90.4258 87.6421 90.4753 88.0405 90.5742 88.4155C90.6732 88.7853 90.8216 89.1134 91.0195 89.3999C91.2227 89.6864 91.4753 89.9129 91.7773 90.0796C92.0794 90.241 92.431 90.3218 92.832 90.3218C93.2279 90.3218 93.5742 90.241 93.8711 90.0796C94.1732 89.9129 94.4232 89.6864 94.6211 89.3999C94.819 89.1134 94.9674 88.7853 95.0664 88.4155C95.1706 88.0405 95.2227 87.6421 95.2227 87.2202V87.0405C95.2227 86.6239 95.1706 86.2306 95.0664 85.8608C94.9674 85.4858 94.8164 85.1551 94.6133 84.8687C94.4154 84.577 94.1654 84.3478 93.8633 84.1812C93.5664 84.0145 93.2174 83.9312 92.8164 83.9312C92.4206 83.9312 92.0716 84.0145 91.7695 84.1812C91.4727 84.3478 91.2227 84.577 91.0195 84.8687C90.8216 85.1551 90.6732 85.4858 90.5742 85.8608C90.4753 86.2306 90.4258 86.6239 90.4258 87.0405ZM107.379 89.1108C107.379 88.9025 107.332 88.7098 107.238 88.5327C107.15 88.3504 106.965 88.1864 106.684 88.0405C106.408 87.8895 105.991 87.7593 105.434 87.6499C104.965 87.5509 104.54 87.4338 104.16 87.2983C103.785 87.1629 103.465 86.9989 103.199 86.8062C102.939 86.6134 102.738 86.3869 102.598 86.1265C102.457 85.866 102.387 85.5614 102.387 85.2124C102.387 84.8791 102.46 84.564 102.605 84.2671C102.757 83.9702 102.967 83.7072 103.238 83.478C103.514 83.2489 103.845 83.0692 104.23 82.939C104.616 82.8088 105.046 82.7437 105.52 82.7437C106.197 82.7437 106.775 82.8634 107.254 83.103C107.733 83.3426 108.1 83.6629 108.355 84.064C108.611 84.4598 108.738 84.8999 108.738 85.3843H107.293C107.293 85.1499 107.223 84.9233 107.082 84.7046C106.947 84.4806 106.746 84.2957 106.48 84.1499C106.22 84.0041 105.9 83.9312 105.52 83.9312C105.118 83.9312 104.793 83.9937 104.543 84.1187C104.298 84.2384 104.118 84.3921 104.004 84.5796C103.895 84.7671 103.84 84.965 103.84 85.1733C103.84 85.3296 103.866 85.4702 103.918 85.5952C103.975 85.715 104.074 85.827 104.215 85.9312C104.355 86.0301 104.553 86.1239 104.809 86.2124C105.064 86.3009 105.389 86.3895 105.785 86.478C106.478 86.6343 107.048 86.8218 107.496 87.0405C107.944 87.2593 108.277 87.5275 108.496 87.8452C108.715 88.1629 108.824 88.5483 108.824 89.0015C108.824 89.3713 108.746 89.7098 108.59 90.0171C108.439 90.3244 108.217 90.59 107.926 90.814C107.639 91.0327 107.296 91.2046 106.895 91.3296C106.499 91.4494 106.053 91.5093 105.559 91.5093C104.814 91.5093 104.184 91.3765 103.668 91.1108C103.152 90.8452 102.762 90.5015 102.496 90.0796C102.23 89.6577 102.098 89.2124 102.098 88.7437H103.551C103.572 89.1395 103.686 89.4546 103.895 89.689C104.103 89.9181 104.358 90.0822 104.66 90.1812C104.962 90.2749 105.262 90.3218 105.559 90.3218C105.954 90.3218 106.285 90.2697 106.551 90.1655C106.822 90.0614 107.027 89.9181 107.168 89.7358C107.309 89.5535 107.379 89.3452 107.379 89.1108ZM114.23 91.5093C113.642 91.5093 113.108 91.4103 112.629 91.2124C112.155 91.0093 111.746 90.7254 111.402 90.3608C111.064 89.9963 110.803 89.564 110.621 89.064C110.439 88.564 110.348 88.0171 110.348 87.4233V87.0952C110.348 86.4077 110.449 85.7957 110.652 85.2593C110.855 84.7176 111.132 84.2593 111.48 83.8843C111.829 83.5093 112.225 83.2254 112.668 83.0327C113.111 82.84 113.569 82.7437 114.043 82.7437C114.647 82.7437 115.168 82.8478 115.605 83.0562C116.048 83.2645 116.41 83.5562 116.691 83.9312C116.973 84.3009 117.181 84.7384 117.316 85.2437C117.452 85.7437 117.52 86.2905 117.52 86.8843V87.5327H111.207V86.353H116.074V86.2437C116.053 85.8687 115.975 85.5041 115.84 85.1499C115.71 84.7957 115.501 84.5041 115.215 84.2749C114.928 84.0457 114.538 83.9312 114.043 83.9312C113.715 83.9312 113.413 84.0015 113.137 84.1421C112.861 84.2775 112.624 84.4806 112.426 84.7515C112.228 85.0223 112.074 85.353 111.965 85.7437C111.855 86.1343 111.801 86.5848 111.801 87.0952V87.4233C111.801 87.8244 111.855 88.202 111.965 88.5562C112.079 88.9051 112.243 89.2124 112.457 89.478C112.676 89.7437 112.939 89.952 113.246 90.103C113.559 90.2541 113.913 90.3296 114.309 90.3296C114.819 90.3296 115.251 90.2254 115.605 90.0171C115.96 89.8088 116.27 89.5301 116.535 89.1812L117.41 89.8765C117.228 90.1525 116.996 90.4155 116.715 90.6655C116.434 90.9155 116.087 91.1187 115.676 91.2749C115.27 91.4312 114.788 91.5093 114.23 91.5093ZM122.715 91.5093C122.126 91.5093 121.592 91.4103 121.113 91.2124C120.639 91.0093 120.23 90.7254 119.887 90.3608C119.548 89.9963 119.288 89.564 119.105 89.064C118.923 88.564 118.832 88.0171 118.832 87.4233V87.0952C118.832 86.4077 118.934 85.7957 119.137 85.2593C119.34 84.7176 119.616 84.2593 119.965 83.8843C120.314 83.5093 120.71 83.2254 121.152 83.0327C121.595 82.84 122.053 82.7437 122.527 82.7437C123.132 82.7437 123.652 82.8478 124.09 83.0562C124.533 83.2645 124.895 83.5562 125.176 83.9312C125.457 84.3009 125.665 84.7384 125.801 85.2437C125.936 85.7437 126.004 86.2905 126.004 86.8843V87.5327H119.691V86.353H124.559V86.2437C124.538 85.8687 124.46 85.5041 124.324 85.1499C124.194 84.7957 123.986 84.5041 123.699 84.2749C123.413 84.0457 123.022 83.9312 122.527 83.9312C122.199 83.9312 121.897 84.0015 121.621 84.1421C121.345 84.2775 121.108 84.4806 120.91 84.7515C120.712 85.0223 120.559 85.353 120.449 85.7437C120.34 86.1343 120.285 86.5848 120.285 87.0952V87.4233C120.285 87.8244 120.34 88.202 120.449 88.5562C120.564 88.9051 120.728 89.2124 120.941 89.478C121.16 89.7437 121.423 89.952 121.73 90.103C122.043 90.2541 122.397 90.3296 122.793 90.3296C123.303 90.3296 123.736 90.2254 124.09 90.0171C124.444 89.8088 124.754 89.5301 125.02 89.1812L125.895 89.8765C125.712 90.1525 125.48 90.4155 125.199 90.6655C124.918 90.9155 124.572 91.1187 124.16 91.2749C123.754 91.4312 123.272 91.5093 122.715 91.5093ZM133.105 84.5249V94.603H131.652V82.8999H132.98L133.105 84.5249ZM138.801 87.0562V87.2202C138.801 87.8348 138.728 88.4051 138.582 88.9312C138.436 89.452 138.223 89.9051 137.941 90.2905C137.665 90.6759 137.324 90.9754 136.918 91.189C136.512 91.4025 136.046 91.5093 135.52 91.5093C134.983 91.5093 134.509 91.4207 134.098 91.2437C133.686 91.0666 133.337 90.8088 133.051 90.4702C132.764 90.1317 132.535 89.7254 132.363 89.2515C132.197 88.7775 132.082 88.2437 132.02 87.6499V86.7749C132.082 86.1499 132.199 85.59 132.371 85.0952C132.543 84.6004 132.77 84.1785 133.051 83.8296C133.337 83.4754 133.684 83.2072 134.09 83.0249C134.496 82.8374 134.965 82.7437 135.496 82.7437C136.027 82.7437 136.499 82.8478 136.91 83.0562C137.322 83.2593 137.668 83.5509 137.949 83.9312C138.23 84.3114 138.441 84.7671 138.582 85.2983C138.728 85.8244 138.801 86.4103 138.801 87.0562ZM137.348 87.2202V87.0562C137.348 86.6343 137.303 86.2384 137.215 85.8687C137.126 85.4937 136.988 85.1655 136.801 84.8843C136.618 84.5978 136.384 84.3739 136.098 84.2124C135.811 84.0457 135.47 83.9624 135.074 83.9624C134.71 83.9624 134.392 84.0249 134.121 84.1499C133.855 84.2749 133.629 84.4442 133.441 84.6577C133.254 84.866 133.1 85.1056 132.98 85.3765C132.866 85.6421 132.78 85.9181 132.723 86.2046V88.228C132.827 88.5926 132.973 88.9364 133.16 89.2593C133.348 89.577 133.598 89.8348 133.91 90.0327C134.223 90.2254 134.616 90.3218 135.09 90.3218C135.48 90.3218 135.816 90.241 136.098 90.0796C136.384 89.9129 136.618 89.6864 136.801 89.3999C136.988 89.1134 137.126 88.7853 137.215 88.4155C137.303 88.0405 137.348 87.6421 137.348 87.2202ZM142.09 84.228V91.353H140.645V82.8999H142.051L142.09 84.228ZM144.73 82.853L144.723 84.1968C144.603 84.1707 144.488 84.1551 144.379 84.1499C144.275 84.1395 144.155 84.1343 144.02 84.1343C143.686 84.1343 143.392 84.1864 143.137 84.2905C142.882 84.3947 142.665 84.5405 142.488 84.728C142.311 84.9155 142.171 85.1395 142.066 85.3999C141.967 85.6551 141.902 85.9364 141.871 86.2437L141.465 86.478C141.465 85.9676 141.514 85.4884 141.613 85.0405C141.717 84.5926 141.876 84.1968 142.09 83.853C142.303 83.5041 142.574 83.2332 142.902 83.0405C143.236 82.8426 143.632 82.7437 144.09 82.7437C144.194 82.7437 144.314 82.7567 144.449 82.7827C144.585 82.8035 144.678 82.827 144.73 82.853ZM149.418 91.5093C148.829 91.5093 148.296 91.4103 147.816 91.2124C147.342 91.0093 146.934 90.7254 146.59 90.3608C146.251 89.9963 145.991 89.564 145.809 89.064C145.626 88.564 145.535 88.0171 145.535 87.4233V87.0952C145.535 86.4077 145.637 85.7957 145.84 85.2593C146.043 84.7176 146.319 84.2593 146.668 83.8843C147.017 83.5093 147.413 83.2254 147.855 83.0327C148.298 82.84 148.757 82.7437 149.23 82.7437C149.835 82.7437 150.355 82.8478 150.793 83.0562C151.236 83.2645 151.598 83.5562 151.879 83.9312C152.16 84.3009 152.368 84.7384 152.504 85.2437C152.639 85.7437 152.707 86.2905 152.707 86.8843V87.5327H146.395V86.353H151.262V86.2437C151.241 85.8687 151.163 85.5041 151.027 85.1499C150.897 84.7957 150.689 84.5041 150.402 84.2749C150.116 84.0457 149.725 83.9312 149.23 83.9312C148.902 83.9312 148.6 84.0015 148.324 84.1421C148.048 84.2775 147.811 84.4806 147.613 84.7515C147.415 85.0223 147.262 85.353 147.152 85.7437C147.043 86.1343 146.988 86.5848 146.988 87.0952V87.4233C146.988 87.8244 147.043 88.202 147.152 88.5562C147.267 88.9051 147.431 89.2124 147.645 89.478C147.863 89.7437 148.126 89.952 148.434 90.103C148.746 90.2541 149.1 90.3296 149.496 90.3296C150.007 90.3296 150.439 90.2254 150.793 90.0171C151.147 89.8088 151.457 89.5301 151.723 89.1812L152.598 89.8765C152.415 90.1525 152.184 90.4155 151.902 90.6655C151.621 90.9155 151.275 91.1187 150.863 91.2749C150.457 91.4312 149.975 91.5093 149.418 91.5093ZM156.855 90.0483L159.168 82.8999H160.645L157.605 91.353H156.637L156.855 90.0483ZM154.926 82.8999L157.309 90.0874L157.473 91.353H156.504L153.441 82.8999H154.926ZM163.605 82.8999V91.353H162.152V82.8999H163.605ZM162.043 80.6577C162.043 80.4233 162.113 80.2254 162.254 80.064C162.4 79.9025 162.613 79.8218 162.895 79.8218C163.171 79.8218 163.382 79.9025 163.527 80.064C163.678 80.2254 163.754 80.4233 163.754 80.6577C163.754 80.8817 163.678 81.0744 163.527 81.2358C163.382 81.3921 163.171 81.4702 162.895 81.4702C162.613 81.4702 162.4 81.3921 162.254 81.2358C162.113 81.0744 162.043 80.8817 162.043 80.6577ZM169.434 91.5093C168.845 91.5093 168.311 91.4103 167.832 91.2124C167.358 91.0093 166.949 90.7254 166.605 90.3608C166.267 89.9963 166.007 89.564 165.824 89.064C165.642 88.564 165.551 88.0171 165.551 87.4233V87.0952C165.551 86.4077 165.652 85.7957 165.855 85.2593C166.059 84.7176 166.335 84.2593 166.684 83.8843C167.033 83.5093 167.428 83.2254 167.871 83.0327C168.314 82.84 168.772 82.7437 169.246 82.7437C169.85 82.7437 170.371 82.8478 170.809 83.0562C171.251 83.2645 171.613 83.5562 171.895 83.9312C172.176 84.3009 172.384 84.7384 172.52 85.2437C172.655 85.7437 172.723 86.2905 172.723 86.8843V87.5327H166.41V86.353H171.277V86.2437C171.257 85.8687 171.178 85.5041 171.043 85.1499C170.913 84.7957 170.704 84.5041 170.418 84.2749C170.132 84.0457 169.741 83.9312 169.246 83.9312C168.918 83.9312 168.616 84.0015 168.34 84.1421C168.064 84.2775 167.827 84.4806 167.629 84.7515C167.431 85.0223 167.277 85.353 167.168 85.7437C167.059 86.1343 167.004 86.5848 167.004 87.0952V87.4233C167.004 87.8244 167.059 88.202 167.168 88.5562C167.283 88.9051 167.447 89.2124 167.66 89.478C167.879 89.7437 168.142 89.952 168.449 90.103C168.762 90.2541 169.116 90.3296 169.512 90.3296C170.022 90.3296 170.454 90.2254 170.809 90.0171C171.163 89.8088 171.473 89.5301 171.738 89.1812L172.613 89.8765C172.431 90.1525 172.199 90.4155 171.918 90.6655C171.637 90.9155 171.29 91.1187 170.879 91.2749C170.473 91.4312 169.991 91.5093 169.434 91.5093ZM176.551 89.853L178.723 82.8999H179.676L179.488 84.2827L177.277 91.353H176.348L176.551 89.853ZM175.09 82.8999L176.941 89.9312L177.074 91.353H176.098L173.645 82.8999H175.09ZM181.754 89.8765L183.52 82.8999H184.957L182.504 91.353H181.535L181.754 89.8765ZM179.887 82.8999L182.012 89.7358L182.254 91.353H181.332L179.059 84.2671L178.871 82.8999H179.887ZM190.027 87.2202V87.0405C190.027 86.4312 190.116 85.866 190.293 85.3452C190.47 84.8192 190.725 84.3634 191.059 83.978C191.392 83.5874 191.796 83.2853 192.27 83.0718C192.743 82.853 193.275 82.7437 193.863 82.7437C194.457 82.7437 194.991 82.853 195.465 83.0718C195.944 83.2853 196.35 83.5874 196.684 83.978C197.022 84.3634 197.28 84.8192 197.457 85.3452C197.634 85.866 197.723 86.4312 197.723 87.0405V87.2202C197.723 87.8296 197.634 88.3947 197.457 88.9155C197.28 89.4364 197.022 89.8921 196.684 90.2827C196.35 90.6681 195.947 90.9702 195.473 91.189C195.004 91.4025 194.473 91.5093 193.879 91.5093C193.285 91.5093 192.751 91.4025 192.277 91.189C191.803 90.9702 191.397 90.6681 191.059 90.2827C190.725 89.8921 190.47 89.4364 190.293 88.9155C190.116 88.3947 190.027 87.8296 190.027 87.2202ZM191.473 87.0405V87.2202C191.473 87.6421 191.522 88.0405 191.621 88.4155C191.72 88.7853 191.868 89.1134 192.066 89.3999C192.27 89.6864 192.522 89.9129 192.824 90.0796C193.126 90.241 193.478 90.3218 193.879 90.3218C194.275 90.3218 194.621 90.241 194.918 90.0796C195.22 89.9129 195.47 89.6864 195.668 89.3999C195.866 89.1134 196.014 88.7853 196.113 88.4155C196.217 88.0405 196.27 87.6421 196.27 87.2202V87.0405C196.27 86.6239 196.217 86.2306 196.113 85.8608C196.014 85.4858 195.863 85.1551 195.66 84.8687C195.462 84.577 195.212 84.3478 194.91 84.1812C194.613 84.0145 194.264 83.9312 193.863 83.9312C193.467 83.9312 193.118 84.0145 192.816 84.1812C192.52 84.3478 192.27 84.577 192.066 84.8687C191.868 85.1551 191.72 85.4858 191.621 85.8608C191.522 86.2306 191.473 86.6239 191.473 87.0405ZM201.691 91.353H200.246V82.0093C200.246 81.3999 200.355 80.8869 200.574 80.4702C200.798 80.0483 201.118 79.7306 201.535 79.5171C201.952 79.2983 202.447 79.189 203.02 79.189C203.186 79.189 203.353 79.1994 203.52 79.2202C203.691 79.241 203.858 79.2723 204.02 79.314L203.941 80.4937C203.832 80.4676 203.707 80.4494 203.566 80.439C203.431 80.4285 203.296 80.4233 203.16 80.4233C202.853 80.4233 202.587 80.4858 202.363 80.6108C202.145 80.7306 201.978 80.9077 201.863 81.1421C201.749 81.3765 201.691 81.6655 201.691 82.0093V91.353ZM203.488 82.8999V84.0093H198.91V82.8999H203.488ZM37.4492 109.048L39.7617 101.9H41.2383L38.1992 110.353H37.2305L37.4492 109.048ZM35.5195 101.9L37.9023 109.087L38.0664 110.353H37.0977L34.0352 101.9H35.5195ZM44.1992 101.9V110.353H42.7461V101.9H44.1992ZM42.6367 99.6577C42.6367 99.4233 42.707 99.2254 42.8477 99.064C42.9935 98.9025 43.207 98.8218 43.4883 98.8218C43.7643 98.8218 43.9753 98.9025 44.1211 99.064C44.2721 99.2254 44.3477 99.4233 44.3477 99.6577C44.3477 99.8817 44.2721 100.074 44.1211 100.236C43.9753 100.392 43.7643 100.47 43.4883 100.47C43.207 100.47 42.9935 100.392 42.8477 100.236C42.707 100.074 42.6367 99.8817 42.6367 99.6577ZM51.8477 108.712V98.353H53.3008V110.353H51.9727L51.8477 108.712ZM46.1602 106.22V106.056C46.1602 105.41 46.2383 104.824 46.3945 104.298C46.556 103.767 46.7826 103.311 47.0742 102.931C47.3711 102.551 47.7227 102.259 48.1289 102.056C48.5404 101.848 48.9987 101.744 49.5039 101.744C50.0352 101.744 50.4987 101.837 50.8945 102.025C51.2956 102.207 51.6341 102.475 51.9102 102.83C52.1914 103.179 52.4128 103.6 52.5742 104.095C52.7357 104.59 52.8477 105.15 52.9102 105.775V106.494C52.8529 107.113 52.7409 107.671 52.5742 108.166C52.4128 108.66 52.1914 109.082 51.9102 109.431C51.6341 109.78 51.2956 110.048 50.8945 110.236C50.4935 110.418 50.0247 110.509 49.4883 110.509C48.9935 110.509 48.5404 110.403 48.1289 110.189C47.7227 109.975 47.3711 109.676 47.0742 109.291C46.7826 108.905 46.556 108.452 46.3945 107.931C46.2383 107.405 46.1602 106.835 46.1602 106.22ZM47.6133 106.056V106.22C47.6133 106.642 47.6549 107.038 47.7383 107.408C47.8268 107.778 47.9622 108.103 48.1445 108.384C48.3268 108.666 48.5586 108.887 48.8398 109.048C49.1211 109.205 49.457 109.283 49.8477 109.283C50.3268 109.283 50.7201 109.181 51.0273 108.978C51.3398 108.775 51.5898 108.507 51.7773 108.173C51.9648 107.84 52.1107 107.478 52.2148 107.087V105.205C52.1523 104.918 52.0612 104.642 51.9414 104.376C51.8268 104.106 51.6758 103.866 51.4883 103.658C51.306 103.444 51.0794 103.275 50.8086 103.15C50.543 103.025 50.2279 102.962 49.8633 102.962C49.4674 102.962 49.1263 103.046 48.8398 103.212C48.5586 103.374 48.3268 103.598 48.1445 103.884C47.9622 104.166 47.8268 104.494 47.7383 104.869C47.6549 105.238 47.6133 105.634 47.6133 106.056ZM59.0586 110.509C58.4701 110.509 57.9362 110.41 57.457 110.212C56.9831 110.009 56.5742 109.725 56.2305 109.361C55.8919 108.996 55.6315 108.564 55.4492 108.064C55.2669 107.564 55.1758 107.017 55.1758 106.423V106.095C55.1758 105.408 55.2773 104.796 55.4805 104.259C55.6836 103.718 55.9596 103.259 56.3086 102.884C56.6576 102.509 57.0534 102.225 57.4961 102.033C57.9388 101.84 58.3971 101.744 58.8711 101.744C59.4753 101.744 59.9961 101.848 60.4336 102.056C60.8763 102.264 61.2383 102.556 61.5195 102.931C61.8008 103.301 62.0091 103.738 62.1445 104.244C62.2799 104.744 62.3477 105.291 62.3477 105.884V106.533H56.0352V105.353H60.9023V105.244C60.8815 104.869 60.8034 104.504 60.668 104.15C60.5378 103.796 60.3294 103.504 60.043 103.275C59.7565 103.046 59.3659 102.931 58.8711 102.931C58.543 102.931 58.2409 103.001 57.9648 103.142C57.6888 103.278 57.4518 103.481 57.2539 103.751C57.056 104.022 56.9023 104.353 56.793 104.744C56.6836 105.134 56.6289 105.585 56.6289 106.095V106.423C56.6289 106.824 56.6836 107.202 56.793 107.556C56.9076 107.905 57.0716 108.212 57.2852 108.478C57.5039 108.744 57.7669 108.952 58.0742 109.103C58.3867 109.254 58.7409 109.33 59.1367 109.33C59.6471 109.33 60.0794 109.225 60.4336 109.017C60.7878 108.809 61.0977 108.53 61.3633 108.181L62.2383 108.876C62.056 109.153 61.8242 109.416 61.543 109.666C61.2617 109.916 60.9154 110.119 60.5039 110.275C60.0977 110.431 59.6159 110.509 59.0586 110.509ZM63.6523 106.22V106.041C63.6523 105.431 63.7409 104.866 63.918 104.345C64.0951 103.819 64.3503 103.363 64.6836 102.978C65.0169 102.587 65.4206 102.285 65.8945 102.072C66.3685 101.853 66.8997 101.744 67.4883 101.744C68.082 101.744 68.6159 101.853 69.0898 102.072C69.569 102.285 69.9753 102.587 70.3086 102.978C70.6471 103.363 70.9049 103.819 71.082 104.345C71.2591 104.866 71.3477 105.431 71.3477 106.041V106.22C71.3477 106.83 71.2591 107.395 71.082 107.916C70.9049 108.436 70.6471 108.892 70.3086 109.283C69.9753 109.668 69.5716 109.97 69.0977 110.189C68.6289 110.403 68.0977 110.509 67.5039 110.509C66.9102 110.509 66.3763 110.403 65.9023 110.189C65.4284 109.97 65.0221 109.668 64.6836 109.283C64.3503 108.892 64.0951 108.436 63.918 107.916C63.7409 107.395 63.6523 106.83 63.6523 106.22ZM65.0977 106.041V106.22C65.0977 106.642 65.1471 107.041 65.2461 107.416C65.3451 107.785 65.4935 108.113 65.6914 108.4C65.8945 108.686 66.1471 108.913 66.4492 109.08C66.7513 109.241 67.1029 109.322 67.5039 109.322C67.8997 109.322 68.2461 109.241 68.543 109.08C68.8451 108.913 69.0951 108.686 69.293 108.4C69.4909 108.113 69.6393 107.785 69.7383 107.416C69.8424 107.041 69.8945 106.642 69.8945 106.22V106.041C69.8945 105.624 69.8424 105.231 69.7383 104.861C69.6393 104.486 69.4883 104.155 69.2852 103.869C69.0872 103.577 68.8372 103.348 68.5352 103.181C68.2383 103.014 67.8893 102.931 67.4883 102.931C67.0924 102.931 66.7435 103.014 66.4414 103.181C66.1445 103.348 65.8945 103.577 65.6914 103.869C65.4935 104.155 65.3451 104.486 65.2461 104.861C65.1471 105.231 65.0977 105.624 65.0977 106.041ZM73.1836 109.587C73.1836 109.343 73.2591 109.137 73.4102 108.97C73.5664 108.798 73.7904 108.712 74.082 108.712C74.3737 108.712 74.5951 108.798 74.7461 108.97C74.9023 109.137 74.9805 109.343 74.9805 109.587C74.9805 109.827 74.9023 110.03 74.7461 110.197C74.5951 110.363 74.3737 110.447 74.082 110.447C73.7904 110.447 73.5664 110.363 73.4102 110.197C73.2591 110.03 73.1836 109.827 73.1836 109.587ZM88.4336 106.736H89.9336C89.8555 107.455 89.6497 108.098 89.3164 108.666C88.9831 109.233 88.5117 109.684 87.9023 110.017C87.293 110.345 86.5326 110.509 85.6211 110.509C84.9544 110.509 84.3477 110.384 83.8008 110.134C83.2591 109.884 82.793 109.53 82.4023 109.072C82.0117 108.608 81.7096 108.054 81.4961 107.408C81.2878 106.757 81.1836 106.033 81.1836 105.236V104.103C81.1836 103.306 81.2878 102.585 81.4961 101.939C81.7096 101.288 82.0143 100.731 82.4102 100.267C82.8112 99.8035 83.293 99.4468 83.8555 99.1968C84.418 98.9468 85.0508 98.8218 85.7539 98.8218C86.6133 98.8218 87.3398 98.9832 87.9336 99.3062C88.5273 99.6291 88.9883 100.077 89.3164 100.65C89.6497 101.218 89.8555 101.876 89.9336 102.626H88.4336C88.3607 102.095 88.2253 101.639 88.0273 101.259C87.8294 100.874 87.5482 100.577 87.1836 100.369C86.819 100.16 86.3424 100.056 85.7539 100.056C85.2487 100.056 84.8034 100.153 84.418 100.345C84.0378 100.538 83.7174 100.811 83.457 101.166C83.2018 101.52 83.0091 101.944 82.8789 102.439C82.7487 102.934 82.6836 103.483 82.6836 104.087V105.236C82.6836 105.793 82.7409 106.317 82.8555 106.806C82.9753 107.296 83.1549 107.725 83.3945 108.095C83.6341 108.465 83.9388 108.757 84.3086 108.97C84.6784 109.179 85.1159 109.283 85.6211 109.283C86.2617 109.283 86.7721 109.181 87.1523 108.978C87.5326 108.775 87.819 108.483 88.0117 108.103C88.2096 107.723 88.3503 107.267 88.4336 106.736ZM93.3398 98.353V110.353H91.8867V98.353H93.3398ZM97.2305 101.9V110.353H95.7773V101.9H97.2305ZM95.668 99.6577C95.668 99.4233 95.7383 99.2254 95.8789 99.064C96.0247 98.9025 96.2383 98.8218 96.5195 98.8218C96.7956 98.8218 97.0065 98.9025 97.1523 99.064C97.3034 99.2254 97.3789 99.4233 97.3789 99.6577C97.3789 99.8817 97.3034 100.074 97.1523 100.236C97.0065 100.392 96.7956 100.47 96.5195 100.47C96.2383 100.47 96.0247 100.392 95.8789 100.236C95.7383 100.074 95.668 99.8817 95.668 99.6577ZM102.934 109.322C103.277 109.322 103.595 109.251 103.887 109.111C104.178 108.97 104.418 108.778 104.605 108.533C104.793 108.283 104.9 107.999 104.926 107.681H106.301C106.275 108.181 106.105 108.647 105.793 109.08C105.486 109.507 105.082 109.853 104.582 110.119C104.082 110.379 103.533 110.509 102.934 110.509C102.298 110.509 101.743 110.397 101.27 110.173C100.801 109.949 100.41 109.642 100.098 109.251C99.7904 108.861 99.5586 108.413 99.4023 107.908C99.2513 107.397 99.1758 106.858 99.1758 106.291V105.962C99.1758 105.395 99.2513 104.858 99.4023 104.353C99.5586 103.843 99.7904 103.392 100.098 103.001C100.41 102.611 100.801 102.304 101.27 102.08C101.743 101.856 102.298 101.744 102.934 101.744C103.595 101.744 104.173 101.879 104.668 102.15C105.163 102.416 105.551 102.78 105.832 103.244C106.118 103.702 106.275 104.223 106.301 104.806H104.926C104.9 104.457 104.801 104.142 104.629 103.861C104.462 103.58 104.233 103.356 103.941 103.189C103.655 103.017 103.319 102.931 102.934 102.931C102.491 102.931 102.118 103.02 101.816 103.197C101.52 103.369 101.283 103.603 101.105 103.9C100.934 104.192 100.809 104.517 100.73 104.876C100.658 105.231 100.621 105.593 100.621 105.962V106.291C100.621 106.66 100.658 107.025 100.73 107.384C100.803 107.744 100.926 108.069 101.098 108.361C101.275 108.653 101.512 108.887 101.809 109.064C102.111 109.236 102.486 109.322 102.934 109.322ZM109.379 98.353V110.353H107.926V98.353H109.379ZM114.543 101.9L110.855 105.845L108.793 107.986L108.676 106.447L110.152 104.681L112.777 101.9H114.543ZM113.223 110.353L110.207 106.322L110.957 105.033L114.926 110.353H113.223ZM123.543 101.9V103.009H118.973V101.9H123.543ZM120.52 99.8452H121.965V108.259C121.965 108.546 122.009 108.762 122.098 108.908C122.186 109.054 122.301 109.15 122.441 109.197C122.582 109.244 122.733 109.267 122.895 109.267C123.014 109.267 123.139 109.257 123.27 109.236C123.405 109.21 123.507 109.189 123.574 109.173L123.582 110.353C123.467 110.389 123.316 110.423 123.129 110.455C122.947 110.491 122.725 110.509 122.465 110.509C122.111 110.509 121.785 110.439 121.488 110.298C121.191 110.158 120.954 109.923 120.777 109.595C120.605 109.262 120.52 108.814 120.52 108.251V99.8452ZM124.699 106.22V106.041C124.699 105.431 124.788 104.866 124.965 104.345C125.142 103.819 125.397 103.363 125.73 102.978C126.064 102.587 126.467 102.285 126.941 102.072C127.415 101.853 127.947 101.744 128.535 101.744C129.129 101.744 129.663 101.853 130.137 102.072C130.616 102.285 131.022 102.587 131.355 102.978C131.694 103.363 131.952 103.819 132.129 104.345C132.306 104.866 132.395 105.431 132.395 106.041V106.22C132.395 106.83 132.306 107.395 132.129 107.916C131.952 108.436 131.694 108.892 131.355 109.283C131.022 109.668 130.618 109.97 130.145 110.189C129.676 110.403 129.145 110.509 128.551 110.509C127.957 110.509 127.423 110.403 126.949 110.189C126.475 109.97 126.069 109.668 125.73 109.283C125.397 108.892 125.142 108.436 124.965 107.916C124.788 107.395 124.699 106.83 124.699 106.22ZM126.145 106.041V106.22C126.145 106.642 126.194 107.041 126.293 107.416C126.392 107.785 126.54 108.113 126.738 108.4C126.941 108.686 127.194 108.913 127.496 109.08C127.798 109.241 128.15 109.322 128.551 109.322C128.947 109.322 129.293 109.241 129.59 109.08C129.892 108.913 130.142 108.686 130.34 108.4C130.538 108.113 130.686 107.785 130.785 107.416C130.889 107.041 130.941 106.642 130.941 106.22V106.041C130.941 105.624 130.889 105.231 130.785 104.861C130.686 104.486 130.535 104.155 130.332 103.869C130.134 103.577 129.884 103.348 129.582 103.181C129.285 103.014 128.936 102.931 128.535 102.931C128.139 102.931 127.79 103.014 127.488 103.181C127.191 103.348 126.941 103.577 126.738 103.869C126.54 104.155 126.392 104.486 126.293 104.861C126.194 105.231 126.145 105.624 126.145 106.041ZM140.316 108.853L142.488 101.9H143.441L143.254 103.283L141.043 110.353H140.113L140.316 108.853ZM138.855 101.9L140.707 108.931L140.84 110.353H139.863L137.41 101.9H138.855ZM145.52 108.876L147.285 101.9H148.723L146.27 110.353H145.301L145.52 108.876ZM143.652 101.9L145.777 108.736L146.02 110.353H145.098L142.824 103.267L142.637 101.9H143.652ZM155.191 108.908V104.556C155.191 104.223 155.124 103.934 154.988 103.689C154.858 103.439 154.66 103.246 154.395 103.111C154.129 102.975 153.801 102.908 153.41 102.908C153.046 102.908 152.725 102.97 152.449 103.095C152.178 103.22 151.965 103.384 151.809 103.587C151.658 103.791 151.582 104.009 151.582 104.244H150.137C150.137 103.942 150.215 103.642 150.371 103.345C150.527 103.048 150.751 102.78 151.043 102.541C151.34 102.296 151.694 102.103 152.105 101.962C152.522 101.817 152.986 101.744 153.496 101.744C154.111 101.744 154.652 101.848 155.121 102.056C155.595 102.264 155.965 102.58 156.23 103.001C156.501 103.418 156.637 103.942 156.637 104.572V108.509C156.637 108.791 156.66 109.09 156.707 109.408C156.759 109.725 156.835 109.999 156.934 110.228V110.353H155.426C155.353 110.186 155.296 109.965 155.254 109.689C155.212 109.408 155.191 109.147 155.191 108.908ZM155.441 105.228L155.457 106.244H153.996C153.585 106.244 153.217 106.278 152.895 106.345C152.572 106.408 152.301 106.504 152.082 106.634C151.863 106.764 151.697 106.929 151.582 107.126C151.467 107.319 151.41 107.546 151.41 107.806C151.41 108.072 151.47 108.314 151.59 108.533C151.71 108.751 151.889 108.926 152.129 109.056C152.374 109.181 152.673 109.244 153.027 109.244C153.47 109.244 153.861 109.15 154.199 108.962C154.538 108.775 154.806 108.546 155.004 108.275C155.207 108.004 155.316 107.741 155.332 107.486L155.949 108.181C155.913 108.4 155.814 108.642 155.652 108.908C155.491 109.173 155.275 109.429 155.004 109.673C154.738 109.913 154.421 110.113 154.051 110.275C153.686 110.431 153.275 110.509 152.816 110.509C152.243 110.509 151.741 110.397 151.309 110.173C150.882 109.949 150.548 109.65 150.309 109.275C150.074 108.895 149.957 108.47 149.957 108.001C149.957 107.548 150.046 107.15 150.223 106.806C150.4 106.457 150.655 106.168 150.988 105.939C151.322 105.705 151.723 105.528 152.191 105.408C152.66 105.288 153.184 105.228 153.762 105.228H155.441ZM162.449 101.9V103.009H157.879V101.9H162.449ZM159.426 99.8452H160.871V108.259C160.871 108.546 160.915 108.762 161.004 108.908C161.092 109.054 161.207 109.15 161.348 109.197C161.488 109.244 161.639 109.267 161.801 109.267C161.921 109.267 162.046 109.257 162.176 109.236C162.311 109.21 162.413 109.189 162.48 109.173L162.488 110.353C162.374 110.389 162.223 110.423 162.035 110.455C161.853 110.491 161.632 110.509 161.371 110.509C161.017 110.509 160.691 110.439 160.395 110.298C160.098 110.158 159.861 109.923 159.684 109.595C159.512 109.262 159.426 108.814 159.426 108.251V99.8452ZM167.527 109.322C167.871 109.322 168.189 109.251 168.48 109.111C168.772 108.97 169.012 108.778 169.199 108.533C169.387 108.283 169.493 107.999 169.52 107.681H170.895C170.868 108.181 170.699 108.647 170.387 109.08C170.079 109.507 169.676 109.853 169.176 110.119C168.676 110.379 168.126 110.509 167.527 110.509C166.892 110.509 166.337 110.397 165.863 110.173C165.395 109.949 165.004 109.642 164.691 109.251C164.384 108.861 164.152 108.413 163.996 107.908C163.845 107.397 163.77 106.858 163.77 106.291V105.962C163.77 105.395 163.845 104.858 163.996 104.353C164.152 103.843 164.384 103.392 164.691 103.001C165.004 102.611 165.395 102.304 165.863 102.08C166.337 101.856 166.892 101.744 167.527 101.744C168.189 101.744 168.767 101.879 169.262 102.15C169.757 102.416 170.145 102.78 170.426 103.244C170.712 103.702 170.868 104.223 170.895 104.806H169.52C169.493 104.457 169.395 104.142 169.223 103.861C169.056 103.58 168.827 103.356 168.535 103.189C168.249 103.017 167.913 102.931 167.527 102.931C167.085 102.931 166.712 103.02 166.41 103.197C166.113 103.369 165.876 103.603 165.699 103.9C165.527 104.192 165.402 104.517 165.324 104.876C165.251 105.231 165.215 105.593 165.215 105.962V106.291C165.215 106.66 165.251 107.025 165.324 107.384C165.397 107.744 165.52 108.069 165.691 108.361C165.868 108.653 166.105 108.887 166.402 109.064C166.704 109.236 167.079 109.322 167.527 109.322ZM173.965 98.353V110.353H172.52V98.353H173.965ZM173.621 105.806L173.02 105.783C173.025 105.205 173.111 104.671 173.277 104.181C173.444 103.686 173.678 103.257 173.98 102.892C174.283 102.528 174.642 102.246 175.059 102.048C175.48 101.845 175.947 101.744 176.457 101.744C176.874 101.744 177.249 101.801 177.582 101.916C177.915 102.025 178.199 102.202 178.434 102.447C178.673 102.692 178.855 103.009 178.98 103.4C179.105 103.785 179.168 104.257 179.168 104.814V110.353H177.715V104.798C177.715 104.356 177.65 104.001 177.52 103.736C177.389 103.465 177.199 103.27 176.949 103.15C176.699 103.025 176.392 102.962 176.027 102.962C175.668 102.962 175.34 103.038 175.043 103.189C174.751 103.34 174.499 103.548 174.285 103.814C174.077 104.08 173.913 104.384 173.793 104.728C173.678 105.067 173.621 105.426 173.621 105.806ZM183.051 98.978L182.949 107.142H181.645L181.535 98.978H183.051ZM181.488 109.626C181.488 109.392 181.559 109.194 181.699 109.033C181.845 108.871 182.059 108.791 182.34 108.791C182.616 108.791 182.827 108.871 182.973 109.033C183.124 109.194 183.199 109.392 183.199 109.626C183.199 109.85 183.124 110.043 182.973 110.205C182.827 110.366 182.616 110.447 182.34 110.447C182.059 110.447 181.845 110.366 181.699 110.205C181.559 110.043 181.488 109.85 181.488 109.626Z" fill="black"/>
<rect x="51.7773" y="146.353" width="168.451" height="52" rx="8" fill="#109D59"/>
<path d="M102.204 174.136H105.124C105.065 175.093 104.802 175.943 104.333 176.685C103.871 177.427 103.223 178.007 102.39 178.423C101.563 178.84 100.567 179.048 99.4014 179.048C98.4899 179.048 97.6729 178.892 96.9502 178.58C96.2275 178.261 95.609 177.805 95.0947 177.212C94.5869 176.62 94.1995 175.904 93.9326 175.064C93.6657 174.224 93.5322 173.283 93.5322 172.242V171.255C93.5322 170.214 93.6689 169.273 93.9424 168.433C94.2223 167.587 94.6195 166.867 95.1338 166.275C95.6546 165.682 96.2764 165.227 96.999 164.908C97.7217 164.589 98.529 164.429 99.4209 164.429C100.606 164.429 101.605 164.644 102.419 165.074C103.239 165.503 103.874 166.096 104.323 166.851C104.779 167.606 105.052 168.466 105.144 169.429H102.214C102.181 168.856 102.067 168.371 101.872 167.974C101.677 167.57 101.381 167.268 100.983 167.066C100.593 166.858 100.072 166.753 99.4209 166.753C98.9326 166.753 98.5062 166.845 98.1416 167.027C97.777 167.209 97.471 167.486 97.2236 167.857C96.9762 168.228 96.7907 168.697 96.667 169.263C96.5498 169.823 96.4912 170.481 96.4912 171.236V172.242C96.4912 172.977 96.5465 173.625 96.6572 174.185C96.7679 174.738 96.9372 175.207 97.165 175.591C97.3994 175.969 97.6989 176.255 98.0635 176.451C98.4346 176.639 98.8805 176.734 99.4014 176.734C100.013 176.734 100.518 176.636 100.915 176.441C101.312 176.246 101.615 175.956 101.823 175.572C102.038 175.188 102.165 174.709 102.204 174.136ZM106.423 173.677V173.472C106.423 172.697 106.534 171.985 106.755 171.333C106.976 170.676 107.299 170.106 107.722 169.625C108.145 169.143 108.666 168.768 109.284 168.501C109.903 168.228 110.612 168.091 111.413 168.091C112.214 168.091 112.927 168.228 113.552 168.501C114.177 168.768 114.701 169.143 115.124 169.625C115.554 170.106 115.879 170.676 116.101 171.333C116.322 171.985 116.433 172.697 116.433 173.472V173.677C116.433 174.445 116.322 175.158 116.101 175.816C115.879 176.467 115.554 177.037 115.124 177.525C114.701 178.007 114.18 178.381 113.562 178.648C112.943 178.915 112.233 179.048 111.433 179.048C110.632 179.048 109.919 178.915 109.294 178.648C108.675 178.381 108.151 178.007 107.722 177.525C107.299 177.037 106.976 176.467 106.755 175.816C106.534 175.158 106.423 174.445 106.423 173.677ZM109.235 173.472V173.677C109.235 174.12 109.274 174.533 109.353 174.917C109.431 175.302 109.554 175.64 109.724 175.933C109.899 176.22 110.127 176.444 110.407 176.607C110.687 176.77 111.029 176.851 111.433 176.851C111.823 176.851 112.159 176.77 112.438 176.607C112.718 176.444 112.943 176.22 113.112 175.933C113.282 175.64 113.405 175.302 113.483 174.917C113.568 174.533 113.61 174.12 113.61 173.677V173.472C113.61 173.042 113.568 172.639 113.483 172.261C113.405 171.877 113.278 171.539 113.103 171.246C112.933 170.946 112.709 170.712 112.429 170.542C112.149 170.373 111.81 170.289 111.413 170.289C111.016 170.289 110.677 170.373 110.397 170.542C110.124 170.712 109.899 170.946 109.724 171.246C109.554 171.539 109.431 171.877 109.353 172.261C109.274 172.639 109.235 173.042 109.235 173.472ZM120.974 170.474V178.853H118.151V168.287H120.798L120.974 170.474ZM120.583 173.199H119.802C119.802 172.463 119.89 171.786 120.065 171.167C120.248 170.542 120.511 170.002 120.856 169.546C121.208 169.084 121.641 168.726 122.155 168.472C122.67 168.218 123.265 168.091 123.942 168.091C124.411 168.091 124.841 168.163 125.231 168.306C125.622 168.443 125.957 168.661 126.237 168.96C126.524 169.253 126.745 169.638 126.901 170.113C127.058 170.582 127.136 171.145 127.136 171.802V178.853H124.323V172.115C124.323 171.633 124.258 171.262 124.128 171.001C123.998 170.741 123.812 170.559 123.571 170.455C123.337 170.35 123.054 170.298 122.722 170.298C122.357 170.298 122.038 170.373 121.765 170.523C121.498 170.673 121.276 170.881 121.101 171.148C120.925 171.408 120.795 171.714 120.71 172.066C120.625 172.417 120.583 172.795 120.583 173.199ZM126.872 172.876L125.866 173.003C125.866 172.313 125.951 171.672 126.12 171.08C126.296 170.487 126.553 169.966 126.892 169.517C127.237 169.068 127.663 168.72 128.171 168.472C128.679 168.218 129.265 168.091 129.929 168.091C130.437 168.091 130.899 168.166 131.315 168.316C131.732 168.459 132.087 168.69 132.38 169.009C132.679 169.322 132.907 169.732 133.063 170.24C133.226 170.748 133.308 171.369 133.308 172.105V178.853H130.485V172.105C130.485 171.617 130.42 171.246 130.29 170.992C130.166 170.731 129.984 170.552 129.743 170.455C129.509 170.35 129.229 170.298 128.903 170.298C128.565 170.298 128.269 170.367 128.015 170.503C127.761 170.634 127.549 170.816 127.38 171.05C127.211 171.285 127.084 171.558 126.999 171.871C126.914 172.177 126.872 172.512 126.872 172.876ZM138.298 170.318V182.916H135.485V168.287H138.093L138.298 170.318ZM144.987 173.453V173.658C144.987 174.426 144.896 175.139 144.714 175.796C144.538 176.454 144.278 177.027 143.933 177.515C143.588 177.997 143.158 178.375 142.644 178.648C142.136 178.915 141.55 179.048 140.886 179.048C140.241 179.048 139.681 178.918 139.206 178.658C138.731 178.397 138.33 178.033 138.005 177.564C137.686 177.089 137.429 176.539 137.233 175.914C137.038 175.289 136.888 174.618 136.784 173.902V173.365C136.888 172.597 137.038 171.893 137.233 171.255C137.429 170.611 137.686 170.054 138.005 169.585C138.33 169.11 138.728 168.742 139.196 168.482C139.672 168.222 140.228 168.091 140.866 168.091C141.537 168.091 142.126 168.218 142.634 168.472C143.148 168.726 143.578 169.091 143.923 169.566C144.274 170.041 144.538 170.608 144.714 171.265C144.896 171.923 144.987 172.652 144.987 173.453ZM142.165 173.658V173.453C142.165 173.003 142.126 172.59 142.048 172.212C141.976 171.828 141.859 171.493 141.696 171.207C141.54 170.92 141.332 170.699 141.071 170.542C140.817 170.38 140.508 170.298 140.144 170.298C139.759 170.298 139.431 170.36 139.157 170.484C138.89 170.608 138.672 170.787 138.503 171.021C138.334 171.255 138.207 171.535 138.122 171.861C138.037 172.186 137.985 172.554 137.966 172.964V174.322C137.998 174.804 138.09 175.236 138.239 175.621C138.389 175.998 138.62 176.298 138.933 176.519C139.245 176.74 139.655 176.851 140.163 176.851C140.534 176.851 140.847 176.77 141.101 176.607C141.354 176.438 141.56 176.207 141.716 175.914C141.879 175.621 141.993 175.282 142.058 174.898C142.129 174.514 142.165 174.1 142.165 173.658ZM149.704 163.853V178.853H146.882V163.853H149.704ZM156.892 179.048C156.071 179.048 155.336 178.918 154.685 178.658C154.034 178.391 153.48 178.023 153.024 177.554C152.575 177.085 152.23 176.542 151.989 175.923C151.748 175.298 151.628 174.634 151.628 173.931V173.541C151.628 172.74 151.742 172.007 151.97 171.343C152.198 170.679 152.523 170.103 152.946 169.615C153.376 169.126 153.897 168.752 154.509 168.492C155.121 168.225 155.811 168.091 156.579 168.091C157.328 168.091 157.992 168.215 158.571 168.462C159.151 168.71 159.636 169.061 160.026 169.517C160.424 169.973 160.723 170.52 160.925 171.158C161.127 171.789 161.228 172.492 161.228 173.267V174.439H152.829V172.564H158.464V172.349C158.464 171.958 158.392 171.61 158.249 171.304C158.112 170.992 157.904 170.744 157.624 170.562C157.344 170.38 156.986 170.289 156.55 170.289C156.179 170.289 155.86 170.37 155.593 170.533C155.326 170.695 155.108 170.923 154.938 171.216C154.776 171.509 154.652 171.854 154.567 172.251C154.489 172.642 154.45 173.072 154.45 173.541V173.931C154.45 174.354 154.509 174.745 154.626 175.103C154.75 175.461 154.922 175.77 155.144 176.031C155.371 176.291 155.645 176.493 155.964 176.636C156.289 176.779 156.657 176.851 157.067 176.851C157.575 176.851 158.047 176.753 158.483 176.558C158.926 176.356 159.307 176.054 159.626 175.65L160.993 177.134C160.772 177.453 160.469 177.759 160.085 178.052C159.707 178.345 159.252 178.586 158.718 178.775C158.184 178.957 157.575 179.048 156.892 179.048ZM168.005 168.287V170.279H161.853V168.287H168.005ZM163.376 165.679H166.188V175.669C166.188 175.975 166.228 176.21 166.306 176.373C166.39 176.535 166.514 176.649 166.677 176.714C166.84 176.773 167.045 176.802 167.292 176.802C167.468 176.802 167.624 176.796 167.761 176.783C167.904 176.763 168.024 176.744 168.122 176.724L168.132 178.794C167.891 178.873 167.631 178.934 167.351 178.98C167.071 179.026 166.761 179.048 166.423 179.048C165.804 179.048 165.264 178.947 164.802 178.746C164.346 178.537 163.994 178.205 163.747 177.75C163.5 177.294 163.376 176.695 163.376 175.953V165.679ZM174.47 179.048C173.649 179.048 172.914 178.918 172.263 178.658C171.612 178.391 171.058 178.023 170.603 177.554C170.153 177.085 169.808 176.542 169.567 175.923C169.326 175.298 169.206 174.634 169.206 173.931V173.541C169.206 172.74 169.32 172.007 169.548 171.343C169.776 170.679 170.101 170.103 170.524 169.615C170.954 169.126 171.475 168.752 172.087 168.492C172.699 168.225 173.389 168.091 174.157 168.091C174.906 168.091 175.57 168.215 176.149 168.462C176.729 168.71 177.214 169.061 177.604 169.517C178.002 169.973 178.301 170.52 178.503 171.158C178.705 171.789 178.806 172.492 178.806 173.267V174.439H170.407V172.564H176.042V172.349C176.042 171.958 175.97 171.61 175.827 171.304C175.69 170.992 175.482 170.744 175.202 170.562C174.922 170.38 174.564 170.289 174.128 170.289C173.757 170.289 173.438 170.37 173.171 170.533C172.904 170.695 172.686 170.923 172.517 171.216C172.354 171.509 172.23 171.854 172.146 172.251C172.067 172.642 172.028 173.072 172.028 173.541V173.931C172.028 174.354 172.087 174.745 172.204 175.103C172.328 175.461 172.5 175.77 172.722 176.031C172.95 176.291 173.223 176.493 173.542 176.636C173.868 176.779 174.235 176.851 174.646 176.851C175.153 176.851 175.625 176.753 176.062 176.558C176.504 176.356 176.885 176.054 177.204 175.65L178.571 177.134C178.35 177.453 178.047 177.759 177.663 178.052C177.285 178.345 176.83 178.586 176.296 178.775C175.762 178.957 175.153 179.048 174.47 179.048Z" fill="white"/>
</g>
<defs>
<filter id="filter0_d_32_34740" x="0" y="0" width="272" height="230" filterUnits="userSpaceOnUse" color-interpolation-filters="sRGB">
<feFlood flood-opacity="0" result="BackgroundImageFix"/>
<feColorMatrix in="SourceAlpha" type="matrix" values="0 0 0 0 0 0 0 0 0 0 0 0 0 0 0 0 0 0 127 0" result="hardAlpha"/>
<feOffset dy="4"/>
<feGaussianBlur stdDeviation="2"/>
<feComposite in2="hardAlpha" operator="out"/>
<feColorMatrix type="matrix" values="0 0 0 0 0 0 0 0 0 0 0 0 0 0 0 0 0 0 0.25 0"/>
<feBlend mode="normal" in2="BackgroundImageFix" result="effect1_dropShadow_32_34740"/>
<feBlend mode="normal" in="SourceGraphic" in2="effect1_dropShadow_32_34740" result="shape"/>
</filter>
</defs>
</svg>
